<svg width="204" height="322" viewBox="0 0 204 322" fill="none" xmlns="http://www.w3.org/2000/svg">
<path fill-rule="evenodd" clip-rule="evenodd" d="M118.11 38.2344C118.6 56.8324 123.065 55.4024 130.367 55.9584L135.429 67.4524L152.15 60.0804C152.15 60.0804 146.887 48.9724 147.831 37.2204C148.629 27.2814 138.159 19.5054 130.264 19.9294C120.394 20.4604 117.847 28.2644 118.11 38.2344Z" fill="#F8C7A8"/>
<path fill-rule="evenodd" clip-rule="evenodd" d="M121.603 177.197C121.603 177.197 121.355 179.646 115.878 181.566C110.403 183.487 53.7835 187.482 43.3815 194C24.8115 205.638 57.6095 298.556 59.7265 302.686C61.8385 306.814 57.4415 314.248 41.1235 314.836C39.6415 314.889 37.3595 317.377 40.9545 317.722C44.5515 318.071 78.3385 318.983 78.3385 318.983C78.3385 318.983 79.1055 319.798 78.4475 312.448C77.7945 305.098 73.1335 288.258 73.1335 288.258C73.1335 288.258 69.2095 271.395 66.1225 253.298C64.0055 240.897 73.4305 224.813 81.8685 225.336C129.235 228.262 157.465 223.942 157.465 223.942C157.465 223.942 187.806 223.717 185.549 196.197L181.806 175.307L121.603 177.197Z" fill="#131D2E"/>
<path fill-rule="evenodd" clip-rule="evenodd" d="M122.345 173.98C122.345 173.98 123.06 177.585 117.65 179.69C112.242 181.792 52.5296 184.541 46.9946 195.498C41.4776 206.428 44.5916 211.72 46.9946 221.637C49.3976 231.552 80.9957 298.969 83.2477 303.026C85.5006 307.081 81.3546 314.659 65.0686 315.794C63.5876 315.897 61.3886 318.46 64.9947 318.685C68.6007 318.913 102.404 318.685 102.404 318.685C102.404 318.685 103.193 319.475 102.29 312.153C101.388 304.827 96.1656 288.152 96.1656 288.152C96.1656 288.152 91.6747 271.434 87.9787 253.45C85.4477 241.126 78.0637 225.283 86.5136 225.521C133.95 226.852 161.213 226.561 161.213 226.561C161.213 226.561 191.562 224.458 189.156 192.91L186.562 171.768L122.345 173.98Z" fill="#131D2E"/>
<path fill-rule="evenodd" clip-rule="evenodd" d="M49.9473 157.133C50.7603 156.086 51.7803 153.379 52.4263 152.399C52.8053 151.824 53.1263 151.325 53.3313 151.013C53.3433 150.999 53.3493 150.984 53.3493 150.984C53.4763 150.794 54.0293 149.876 54.0433 149.83C54.0613 149.895 54.3413 150.304 55.2973 150.728C56.3113 151.178 58.1203 151.618 61.1943 151.616C62.4903 151.619 64.5503 149.068 65.4563 148.143C66.4153 147.142 71.1893 145.768 72.8473 146.77L73.4473 136.675C73.4473 136.675 64.0643 137.153 59.5793 137.733C56.4393 138.146 54.1623 142.371 52.4173 146.169C51.6753 147.808 51.0213 149.372 50.4393 150.497C48.5203 154.232 48.6303 154.535 47.8563 157.62C47.7233 158.139 48.2523 159.322 49.9473 157.133Z" fill="#F8C7A8"/>
<path fill-rule="evenodd" clip-rule="evenodd" d="M139.364 28.1728C134.762 23.7618 127.961 24.7718 124.51 23.1488C112.801 17.6308 115.662 5.6338 122.261 1.6538C122.261 1.6538 125.852 -1.1512 130.651 1.1938C130.651 1.1938 127.513 2.1358 126.875 2.9778C126.237 3.8188 130.171 1.7558 133.204 4.3958C133.204 4.3958 125.638 6.7858 129.696 7.8218C129.696 7.8218 159.098 14.2078 157.491 23.7328C155.883 33.2568 150.057 44.5258 146.714 46.5088C143.372 48.4938 144.413 45.6408 144.853 45.1968C145.294 44.7498 148.7 39.8958 147.21 38.9448C145.714 37.9948 143.702 39.4838 142.722 39.9868C141.748 40.4908 140.594 41.2138 140.106 39.3798C139.619 37.5468 140.621 29.3748 139.364 28.1728Z" fill="#131D2E"/>
<path fill-rule="evenodd" clip-rule="evenodd" d="M150.546 58.3877C150.546 58.3877 152.711 52.3017 168.035 75.5787C183.36 98.8577 187.806 181.567 187.806 181.567C187.806 181.567 156.562 176.598 122.345 173.98L124.019 123.683C124.019 123.683 100.742 140.312 71.3077 147.542C71.3077 147.542 71.5907 139.336 69.5647 137.083C67.5357 134.828 109.719 117.18 121.985 96.2247C124.756 91.4927 128.109 90.6357 132.918 63.5047C133.718 58.9867 140.741 66.2027 150.546 58.3877Z" fill="url(#paint0_linear_0_580)"/>
<path fill-rule="evenodd" clip-rule="evenodd" d="M124.018 123.682C124.018 123.682 145.375 95.8865 146.053 94.5315C146.731 93.1755 138.255 138.519 124.018 147.541L123.202 148.202L124.018 123.682Z" fill="#508E02"/>
<path fill-rule="evenodd" clip-rule="evenodd" d="M20.5936 156.509C20.7726 157.295 20.2816 158.087 19.4926 158.269L18.2406 158.555C17.4556 158.738 16.6626 158.243 16.4836 157.457L4.78256 106.685C4.60056 105.901 5.09756 105.107 5.88456 104.926L7.13556 104.638C7.91956 104.456 8.71356 104.952 8.89356 105.738L20.5936 156.509Z" fill="url(#paint1_linear_0_580)"/>
<path fill-rule="evenodd" clip-rule="evenodd" d="M18.5129 160.046C17.7039 160.043 17.0449 159.379 17.0499 158.572L17.0539 157.289C17.0579 156.481 17.7179 155.823 18.5259 155.825L70.6259 156.012C71.4349 156.014 72.0909 156.676 72.0869 157.484L72.0829 158.769C72.0799 159.575 71.4199 160.234 70.6149 160.233L18.5129 160.046Z" fill="url(#paint2_linear_0_580)"/>
<path fill-rule="evenodd" clip-rule="evenodd" d="M91.7023 314.69C91.7023 318.059 94.4323 320.791 97.8053 320.791C101.174 320.791 103.904 318.059 103.904 314.69C103.904 311.319 101.174 308.587 97.8053 308.587C94.4323 308.587 91.7023 311.319 91.7023 314.69Z" fill="#4A4A4A"/>
<path fill-rule="evenodd" clip-rule="evenodd" d="M164.924 314.69C164.924 318.059 167.653 320.791 171.026 320.791C174.396 320.791 177.126 318.059 177.126 314.69C177.126 311.319 174.396 308.587 171.026 308.587C167.653 308.587 164.924 311.319 164.924 314.69Z" fill="#4A4A4A"/>
<path fill-rule="evenodd" clip-rule="evenodd" d="M91.993 304.221C92.86 300.452 129.499 294.726 129.499 294.726V257.118H141.499V295.612C141.499 295.612 170.61 297.614 177.856 304.991C179.872 307.047 177.029 318.052 174.862 316.156C156.922 300.452 135.098 305.325 135.098 305.325C135.098 305.325 121.581 301.682 94.843 315.392C92.278 316.706 91.348 307.029 91.993 304.221Z" fill="#4A4A4A"/>
<path fill-rule="evenodd" clip-rule="evenodd" d="M80.6318 223.717C129.782 223.717 157.466 223.943 175.884 216.937C203.138 206.57 164.496 93.6737 187.616 70.5537C193.011 65.1607 203.974 67.6417 203.341 75.2407C197.24 148.461 199.161 167.924 203.566 215.807C206.278 245.278 185.67 224.62 80.6318 233.206C78.2638 233.401 78.2568 223.717 80.6318 223.717Z" fill="#4A4A4A"/>
<path fill-rule="evenodd" clip-rule="evenodd" d="M137.917 261.991C138.642 259.522 138.31 257.32 138.042 255.552C137.843 254.226 137.669 253.083 137.941 252.057C138.093 251.491 138.591 250.993 139.39 250.229C140.677 248.998 142.623 247.138 142.49 243.861C142.394 241.44 140.593 240.167 139.517 239.405C138.518 238.698 138.356 238.531 138.38 238.188C138.503 238.007 138.736 237.717 138.917 237.494C140.478 235.547 144.622 230.378 137.089 223.863L133.548 227.958C137.136 231.06 136.269 232.142 134.694 234.105C133.985 234.989 133.253 235.902 133.062 237.107C132.442 241.031 135.011 242.848 136.391 243.825C136.604 243.975 136.898 244.184 137.077 244.337C137.027 244.93 136.676 245.333 135.648 246.316C134.583 247.334 133.258 248.601 132.709 250.671C132.149 252.777 132.437 254.68 132.689 256.358C132.915 257.854 133.108 259.147 132.722 260.468L137.917 261.991Z" fill="#4A4A4A"/>
<path fill-rule="evenodd" clip-rule="evenodd" d="M0.990227 159.571C-0.212776 159.55 -0.212776 164.395 0.990227 164.383C29.8672 164.083 41.2962 164.383 41.2962 164.383C41.2962 164.383 46.1082 251.31 33.7752 320.29C33.5652 321.474 54.0552 321.372 53.8272 320.19C41.0072 253.147 46.1082 164.383 46.1082 164.383C46.1082 164.383 59.3432 163.933 87.0152 164.383C88.2182 164.403 88.2182 159.551 87.0152 159.571C52.5752 160.166 36.4832 160.232 0.990227 159.571Z" fill="#B4B4B4"/>
<defs>
<linearGradient id="paint0_linear_0_580" x1="187.806" y1="57.6702" x2="187.806" y2="181.567" gradientUnits="userSpaceOnUse">
<stop stop-color="#18D44B"/>
<stop offset="1" stop-color="#0AA924"/>
</linearGradient>
<linearGradient id="paint1_linear_0_580" x1="20.6304" y1="104.6" x2="20.6304" y2="158.593" gradientUnits="userSpaceOnUse">
<stop stop-color="#E2E2E2"/>
<stop offset="1" stop-color="#C1C1C1"/>
</linearGradient>
<linearGradient id="paint2_linear_0_580" x1="72.0869" y1="155.825" x2="72.0869" y2="160.233" gradientUnits="userSpaceOnUse">
<stop stop-color="#E2E2E2"/>
<stop offset="1" stop-color="#C1C1C1"/>
</linearGradient>
</defs>
</svg>
