<svg width="150" height="150" viewBox="0 0 793 778" fill="none" xmlns="http://www.w3.org/2000/svg">
<g filter="url(#filter0_dddddi_307_341)">
<rect x="50" y="35" width="640" height="640" rx="130" fill="black"/>
<rect x="50" y="35" width="640" height="640" rx="130" fill="url(#paint0_radial_307_341)"/>
<rect x="50" y="35" width="640" height="640" rx="130" fill="url(#paint1_radial_307_341)"/>
<rect x="50" y="35" width="640" height="640" rx="130" fill="url(#paint2_radial_307_341)"/>
<rect x="50" y="35" width="640" height="640" rx="130" fill="url(#paint3_radial_307_341)"/>
</g>
<mask id="mask0_307_341" style="mask-type:alpha" maskUnits="userSpaceOnUse" x="52" y="44" width="621" height="621">
<rect x="52.9996" y="44" width="620" height="620" rx="122" fill="url(#paint4_linear_307_341)"/>
</mask>
<g mask="url(#mask0_307_341)">
<mask id="mask1_307_341" style="mask-type:alpha" maskUnits="userSpaceOnUse" x="52" y="44" width="621" height="621">
<rect x="52.9993" y="44" width="620" height="620" rx="122" fill="url(#paint5_linear_307_341)"/>
</mask>
<g mask="url(#mask1_307_341)">
<g filter="url(#filter1_if_307_341)">
<rect x="52.9993" y="44" width="615" height="615" rx="122" fill="#101010"/>
</g>
</g>
</g>
<mask id="mask2_307_341" style="mask-type:alpha" maskUnits="userSpaceOnUse" x="51" y="43" width="624" height="623">
<rect x="51.9998" y="43" width="623" height="623" rx="122.517" fill="url(#paint6_linear_307_341)"/>
</mask>
<g mask="url(#mask2_307_341)">
<g filter="url(#filter2_if_307_341)">
<rect x="51.9998" y="43" width="623" height="623" rx="122.517" fill="#101010"/>
</g>
</g>
<g clip-path="url(#clip0_307_341)">
<mask id="mask3_307_341" style="mask-type:luminance" maskUnits="userSpaceOnUse" x="188" y="180" width="362" height="350">
<path d="M550 180H188V530H550V180Z" fill="white"/>
</mask>
<g mask="url(#mask3_307_341)">
<path fill-rule="evenodd" clip-rule="evenodd" d="M418.503 205.879C421.252 209.178 422.653 213.63 425.457 222.534L486.697 417.043C464.055 405.687 439.441 397.496 413.481 393.077L373.607 262.796C372.955 260.665 370.929 259.202 368.63 259.202C366.325 259.202 364.296 260.672 363.649 262.811L324.258 393.011C298.178 397.41 273.451 405.616 250.711 417.014L312.253 222.489C315.065 213.601 316.471 209.156 319.22 205.863C321.646 202.956 324.803 200.698 328.388 199.305C332.449 197.727 337.256 197.727 346.87 197.727H390.826C400.452 197.727 405.265 197.727 409.33 199.308C412.918 200.704 416.077 202.967 418.503 205.879Z" fill="url(#paint7_linear_307_341)"/>
<path fill-rule="evenodd" clip-rule="evenodd" d="M425.831 426.3C415.736 434.647 395.585 440.339 372.374 440.339C343.885 440.339 320.008 431.764 313.672 420.232C311.406 426.841 310.898 434.405 310.898 439.237C310.898 439.237 309.406 462.964 326.475 479.467C326.475 470.898 333.66 463.954 342.524 463.954C357.715 463.954 357.698 476.766 357.684 487.165C357.683 487.475 357.683 487.783 357.683 488.09C357.683 503.871 367.658 517.397 381.844 523.102C379.725 518.888 378.537 514.154 378.537 509.155C378.537 494.105 387.675 488.5 398.296 481.988C406.747 476.806 416.136 471.05 422.607 459.5C425.983 453.473 427.9 446.572 427.9 439.237C427.9 434.727 427.175 430.38 425.831 426.3Z" fill="#D9D9D9"/>
</g>
</g>
<g filter="url(#filter3_f_307_341)">
<path d="M57.0001 251.626C57.0001 181.392 57.0001 146.274 70.89 119.975C83.0997 96.8569 102.525 78.3588 126.212 67.2937C153.159 54.706 188.235 56.4225 258.385 59.8556L363.287 64.9895L471.719 59.7416C541.837 56.348 576.896 54.6512 603.829 67.2448C627.504 78.315 646.918 96.8118 659.119 119.924C673 146.216 673 181.317 673 251.517V467C673 534.206 673 567.809 659.921 593.479C648.416 616.058 630.058 634.416 607.479 645.921C581.81 659 548.206 659 481 659H249C181.794 659 148.191 659 122.521 645.921C99.9418 634.416 81.5841 616.058 70.0793 593.479C57.0001 567.809 57.0001 534.206 57.0001 467V251.626Z" fill="url(#paint8_radial_307_341)"/>
<path d="M57.0001 251.626C57.0001 181.392 57.0001 146.274 70.89 119.975C83.0997 96.8569 102.525 78.3588 126.212 67.2937C153.159 54.706 188.235 56.4225 258.385 59.8556L363.287 64.9895L471.719 59.7416C541.837 56.348 576.896 54.6512 603.829 67.2448C627.504 78.315 646.918 96.8118 659.119 119.924C673 146.216 673 181.317 673 251.517V467C673 534.206 673 567.809 659.921 593.479C648.416 616.058 630.058 634.416 607.479 645.921C581.81 659 548.206 659 481 659H249C181.794 659 148.191 659 122.521 645.921C99.9418 634.416 81.5841 616.058 70.0793 593.479C57.0001 567.809 57.0001 534.206 57.0001 467V251.626Z" fill="url(#paint9_radial_307_341)"/>
<path d="M57.0001 251.626C57.0001 181.392 57.0001 146.274 70.89 119.975C83.0997 96.8569 102.525 78.3588 126.212 67.2937C153.159 54.706 188.235 56.4225 258.385 59.8556L363.287 64.9895L471.719 59.7416C541.837 56.348 576.896 54.6512 603.829 67.2448C627.504 78.315 646.918 96.8118 659.119 119.924C673 146.216 673 181.317 673 251.517V467C673 534.206 673 567.809 659.921 593.479C648.416 616.058 630.058 634.416 607.479 645.921C581.81 659 548.206 659 481 659H249C181.794 659 148.191 659 122.521 645.921C99.9418 634.416 81.5841 616.058 70.0793 593.479C57.0001 567.809 57.0001 534.206 57.0001 467V251.626Z" fill="url(#paint10_radial_307_341)"/>
<path d="M57.0001 251.626C57.0001 181.392 57.0001 146.274 70.89 119.975C83.0997 96.8569 102.525 78.3588 126.212 67.2937C153.159 54.706 188.235 56.4225 258.385 59.8556L363.287 64.9895L471.719 59.7416C541.837 56.348 576.896 54.6512 603.829 67.2448C627.504 78.315 646.918 96.8118 659.119 119.924C673 146.216 673 181.317 673 251.517V467C673 534.206 673 567.809 659.921 593.479C648.416 616.058 630.058 634.416 607.479 645.921C581.81 659 548.206 659 481 659H249C181.794 659 148.191 659 122.521 645.921C99.9418 634.416 81.5841 616.058 70.0793 593.479C57.0001 567.809 57.0001 534.206 57.0001 467V251.626Z" fill="url(#paint11_radial_307_341)"/>
<path d="M57.0001 251.626C57.0001 181.392 57.0001 146.274 70.89 119.975C83.0997 96.8569 102.525 78.3588 126.212 67.2937C153.159 54.706 188.235 56.4225 258.385 59.8556L363.287 64.9895L471.719 59.7416C541.837 56.348 576.896 54.6512 603.829 67.2448C627.504 78.315 646.918 96.8118 659.119 119.924C673 146.216 673 181.317 673 251.517V467C673 534.206 673 567.809 659.921 593.479C648.416 616.058 630.058 634.416 607.479 645.921C581.81 659 548.206 659 481 659H249C181.794 659 148.191 659 122.521 645.921C99.9418 634.416 81.5841 616.058 70.0793 593.479C57.0001 567.809 57.0001 534.206 57.0001 467V251.626Z" fill="url(#paint12_radial_307_341)"/>
<path d="M57.0001 251.626C57.0001 181.392 57.0001 146.274 70.89 119.975C83.0997 96.8569 102.525 78.3588 126.212 67.2937C153.159 54.706 188.235 56.4225 258.385 59.8556L363.287 64.9895L471.719 59.7416C541.837 56.348 576.896 54.6512 603.829 67.2448C627.504 78.315 646.918 96.8118 659.119 119.924C673 146.216 673 181.317 673 251.517V467C673 534.206 673 567.809 659.921 593.479C648.416 616.058 630.058 634.416 607.479 645.921C581.81 659 548.206 659 481 659H249C181.794 659 148.191 659 122.521 645.921C99.9418 634.416 81.5841 616.058 70.0793 593.479C57.0001 567.809 57.0001 534.206 57.0001 467V251.626Z" fill="url(#paint13_radial_307_341)"/>
</g>
<g filter="url(#filter4_f_307_341)">
<path d="M647.131 81.397C654.152 88.1185 660.114 97.8884 661.022 102.409C661.329 103.939 659.819 103.944 658.819 102.746C656.1 99.4907 650.381 92.9292 643.704 86.5375C636.582 79.7189 626.838 71.5625 623.069 68.1193C622.046 67.1853 622.4 66.469 623.711 66.9158C628.558 68.5679 639.84 74.4163 647.131 81.397Z" fill="url(#paint14_linear_307_341)"/>
</g>
<defs>
<filter id="filter0_dddddi_307_341" x="0" y="0.729584" width="792.811" height="777.082" filterUnits="userSpaceOnUse" color-interpolation-filters="sRGB">
<feFlood flood-opacity="0" result="BackgroundImageFix"/>
<feColorMatrix in="SourceAlpha" type="matrix" values="0 0 0 0 0 0 0 0 0 0 0 0 0 0 0 0 0 0 127 0" result="hardAlpha"/>
<feOffset dx="34.2704" dy="34.2704"/>
<feGaussianBlur stdDeviation="34.2704"/>
<feComposite in2="hardAlpha" operator="out"/>
<feColorMatrix type="matrix" values="0 0 0 0 0 0 0 0 0 0 0 0 0 0 0 0 0 0 0.3 0"/>
<feBlend mode="normal" in2="BackgroundImageFix" result="effect1_dropShadow_307_341"/>
<feColorMatrix in="SourceAlpha" type="matrix" values="0 0 0 0 0 0 0 0 0 0 0 0 0 0 0 0 0 0 127 0" result="hardAlpha"/>
<feOffset dx="8.5676" dy="8.5676"/>
<feGaussianBlur stdDeviation="8.5676"/>
<feComposite in2="hardAlpha" operator="out"/>
<feColorMatrix type="matrix" values="0 0 0 0 0 0 0 0 0 0 0 0 0 0 0 0 0 0 0.2 0"/>
<feBlend mode="normal" in2="effect1_dropShadow_307_341" result="effect2_dropShadow_307_341"/>
<feColorMatrix in="SourceAlpha" type="matrix" values="0 0 0 0 0 0 0 0 0 0 0 0 0 0 0 0 0 0 127 0" result="hardAlpha"/>
<feOffset dx="8.5676" dy="8.5676"/>
<feGaussianBlur stdDeviation="8.5676"/>
<feComposite in2="hardAlpha" operator="out"/>
<feColorMatrix type="matrix" values="0 0 0 0 0 0 0 0 0 0 0 0 0 0 0 0 0 0 0.2 0"/>
<feBlend mode="normal" in2="effect2_dropShadow_307_341" result="effect3_dropShadow_307_341"/>
<feColorMatrix in="SourceAlpha" type="matrix" values="0 0 0 0 0 0 0 0 0 0 0 0 0 0 0 0 0 0 127 0" result="hardAlpha"/>
<feOffset/>
<feGaussianBlur stdDeviation="8.5676"/>
<feComposite in2="hardAlpha" operator="out"/>
<feColorMatrix type="matrix" values="0 0 0 0 0 0 0 0 0 0 0 0 0 0 0 0 0 0 0.2 0"/>
<feBlend mode="normal" in2="effect3_dropShadow_307_341" result="effect4_dropShadow_307_341"/>
<feColorMatrix in="SourceAlpha" type="matrix" values="0 0 0 0 0 0 0 0 0 0 0 0 0 0 0 0 0 0 127 0" result="hardAlpha"/>
<feOffset dy="42.838"/>
<feGaussianBlur stdDeviation="25"/>
<feComposite in2="hardAlpha" operator="out"/>
<feColorMatrix type="matrix" values="0 0 0 0 0.381173 0 0 0 0 0.339444 0 0 0 0 0.433333 0 0 0 1 0"/>
<feBlend mode="normal" in2="effect4_dropShadow_307_341" result="effect5_dropShadow_307_341"/>
<feBlend mode="normal" in="SourceGraphic" in2="effect5_dropShadow_307_341" result="shape"/>
<feColorMatrix in="SourceAlpha" type="matrix" values="0 0 0 0 0 0 0 0 0 0 0 0 0 0 0 0 0 0 127 0" result="hardAlpha"/>
<feMorphology radius="7.71084" operator="erode" in="SourceAlpha" result="effect6_innerShadow_307_341"/>
<feOffset dy="1.71352"/>
<feGaussianBlur stdDeviation="0.42838"/>
<feComposite in2="hardAlpha" operator="arithmetic" k2="-1" k3="1"/>
<feColorMatrix type="matrix" values="0 0 0 0 0 0 0 0 0 0 0 0 0 0 0 0 0 0 1 0"/>
<feBlend mode="normal" in2="shape" result="effect6_innerShadow_307_341"/>
</filter>
<filter id="filter1_if_307_341" x="51.9993" y="43" width="617" height="620" filterUnits="userSpaceOnUse" color-interpolation-filters="sRGB">
<feFlood flood-opacity="0" result="BackgroundImageFix"/>
<feBlend mode="normal" in="SourceGraphic" in2="BackgroundImageFix" result="shape"/>
<feColorMatrix in="SourceAlpha" type="matrix" values="0 0 0 0 0 0 0 0 0 0 0 0 0 0 0 0 0 0 127 0" result="hardAlpha"/>
<feMorphology radius="8" operator="dilate" in="SourceAlpha" result="effect1_innerShadow_307_341"/>
<feOffset dy="20"/>
<feGaussianBlur stdDeviation="6"/>
<feComposite in2="hardAlpha" operator="arithmetic" k2="-1" k3="1"/>
<feColorMatrix type="matrix" values="0 0 0 0 1 0 0 0 0 1 0 0 0 0 1 0 0 0 1 0"/>
<feBlend mode="normal" in2="shape" result="effect1_innerShadow_307_341"/>
<feGaussianBlur stdDeviation="0.5" result="effect2_foregroundBlur_307_341"/>
</filter>
<filter id="filter2_if_307_341" x="48.8645" y="41.2865" width="627.849" height="626.427" filterUnits="userSpaceOnUse" color-interpolation-filters="sRGB">
<feFlood flood-opacity="0" result="BackgroundImageFix"/>
<feBlend mode="normal" in="SourceGraphic" in2="BackgroundImageFix" result="shape"/>
<feColorMatrix in="SourceAlpha" type="matrix" values="0 0 0 0 0 0 0 0 0 0 0 0 0 0 0 0 0 0 127 0" result="hardAlpha"/>
<feMorphology radius="14" operator="dilate" in="SourceAlpha" result="effect1_innerShadow_307_341"/>
<feOffset dx="-17.1352"/>
<feGaussianBlur stdDeviation="8.5676"/>
<feComposite in2="hardAlpha" operator="arithmetic" k2="-1" k3="1"/>
<feColorMatrix type="matrix" values="0 0 0 0 1 0 0 0 0 1 0 0 0 0 1 0 0 0 1 0"/>
<feBlend mode="normal" in2="shape" result="effect1_innerShadow_307_341"/>
<feGaussianBlur stdDeviation="0.85676" result="effect2_foregroundBlur_307_341"/>
</filter>
<filter id="filter3_f_307_341" x="55.2866" y="55.5762" width="619.427" height="605.137" filterUnits="userSpaceOnUse" color-interpolation-filters="sRGB">
<feFlood flood-opacity="0" result="BackgroundImageFix"/>
<feBlend mode="normal" in="SourceGraphic" in2="BackgroundImageFix" result="shape"/>
<feGaussianBlur stdDeviation="0.85676" result="effect1_foregroundBlur_307_341"/>
</filter>
<filter id="filter4_f_307_341" x="620.762" y="65.0659" width="42.0142" height="40.2521" filterUnits="userSpaceOnUse" color-interpolation-filters="sRGB">
<feFlood flood-opacity="0" result="BackgroundImageFix"/>
<feBlend mode="normal" in="SourceGraphic" in2="BackgroundImageFix" result="shape"/>
<feGaussianBlur stdDeviation="0.85676" result="effect1_foregroundBlur_307_341"/>
</filter>
<radialGradient id="paint0_radial_307_341" cx="0" cy="0" r="1" gradientUnits="userSpaceOnUse" gradientTransform="translate(122.396 661.292) rotate(-62.354) scale(10.1554 127.286)">
<stop stop-color="white"/>
<stop offset="1" stop-color="white" stop-opacity="0"/>
</radialGradient>
<radialGradient id="paint1_radial_307_341" cx="0" cy="0" r="1" gradientUnits="userSpaceOnUse" gradientTransform="translate(113.829 657.008) rotate(-53.1302) scale(10.7095 134.231)">
<stop stop-color="white"/>
<stop offset="1" stop-color="white" stop-opacity="0"/>
</radialGradient>
<radialGradient id="paint2_radial_307_341" cx="0" cy="0" r="1" gradientUnits="userSpaceOnUse" gradientTransform="translate(624.458 661.72) rotate(-124.875) scale(17.2313 215.974)">
<stop stop-color="white"/>
<stop offset="1" stop-color="white" stop-opacity="0"/>
</radialGradient>
<radialGradient id="paint3_radial_307_341" cx="0" cy="0" r="1" gradientUnits="userSpaceOnUse" gradientTransform="translate(662.155 670.288) rotate(-134.61) scale(44.5288 558.116)">
<stop stop-color="white"/>
<stop offset="1" stop-color="white" stop-opacity="0"/>
</radialGradient>
<linearGradient id="paint4_linear_307_341" x1="65.072" y1="103.499" x2="638.938" y2="103.499" gradientUnits="userSpaceOnUse">
<stop stop-color="#101010" stop-opacity="0"/>
<stop offset="0.177346" stop-color="#101010"/>
<stop offset="0.772512" stop-color="#101010"/>
<stop offset="1" stop-color="#101010" stop-opacity="0"/>
</linearGradient>
<linearGradient id="paint5_linear_307_341" x1="363.43" y1="31.4965" x2="363.43" y2="68.5758" gradientUnits="userSpaceOnUse">
<stop stop-color="#101010"/>
<stop offset="1" stop-color="#101010" stop-opacity="0"/>
</linearGradient>
<linearGradient id="paint6_linear_307_341" x1="705.327" y1="147.411" x2="590.518" y2="147.411" gradientUnits="userSpaceOnUse">
<stop stop-color="#101010"/>
<stop offset="1" stop-color="#101010" stop-opacity="0"/>
</linearGradient>
<linearGradient id="paint7_linear_307_341" x1="437.722" y1="187.414" x2="372.875" y2="418.215" gradientUnits="userSpaceOnUse">
<stop stop-color="#D9D9D9"/>
<stop offset="1" stop-color="#D9D9D9"/>
</linearGradient>
<radialGradient id="paint8_radial_307_341" cx="0" cy="0" r="1" gradientUnits="userSpaceOnUse" gradientTransform="translate(579.186 26.4452) rotate(105.498) scale(44.8875 192.657)">
<stop stop-color="white"/>
<stop offset="1" stop-color="white" stop-opacity="0"/>
</radialGradient>
<radialGradient id="paint9_radial_307_341" cx="0" cy="0" r="1" gradientUnits="userSpaceOnUse" gradientTransform="translate(602.747 26.4451) rotate(110.204) scale(48.3732 207.612)">
<stop stop-color="white"/>
<stop offset="1" stop-color="white" stop-opacity="0"/>
</radialGradient>
<radialGradient id="paint10_radial_307_341" cx="0" cy="0" r="1" gradientUnits="userSpaceOnUse" gradientTransform="translate(564.193 48.7152) rotate(98.4731) scale(20.3508 87.3476)">
<stop stop-color="white"/>
<stop offset="1" stop-color="white" stop-opacity="0"/>
</radialGradient>
<radialGradient id="paint11_radial_307_341" cx="0" cy="0" r="1" gradientUnits="userSpaceOnUse" gradientTransform="translate(579.186 26.0169) rotate(97.2549) scale(47.4899 203.832)">
<stop stop-color="white"/>
<stop offset="1" stop-color="white" stop-opacity="0"/>
</radialGradient>
<radialGradient id="paint12_radial_307_341" cx="0" cy="0" r="1" gradientUnits="userSpaceOnUse" gradientTransform="translate(602.319 26.8734) rotate(109.9) scale(47.8239 205.256)">
<stop stop-color="white"/>
<stop offset="1" stop-color="white" stop-opacity="0"/>
</radialGradient>
<radialGradient id="paint13_radial_307_341" cx="0" cy="0" r="1" gradientUnits="userSpaceOnUse" gradientTransform="translate(561.195 50) rotate(90.0001) scale(17.9873 77.2042)">
<stop stop-color="white"/>
<stop offset="1" stop-color="white" stop-opacity="0"/>
</radialGradient>
<linearGradient id="paint14_linear_307_341" x1="611.147" y1="60.4063" x2="663.838" y2="108.385" gradientUnits="userSpaceOnUse">
<stop stop-color="#D9D9D9" stop-opacity="0.11"/>
<stop offset="0.515661" stop-color="#D9D9D9"/>
<stop offset="1" stop-color="#D9D9D9" stop-opacity="0"/>
</linearGradient>
<clipPath id="clip0_307_341">
<rect width="362" height="350" fill="white" transform="translate(188 180)"/>
</clipPath>
</defs>
</svg>
