<svg width="150" height="150" viewBox="0 0 793 778" fill="none" xmlns="http://www.w3.org/2000/svg">
<g filter="url(#filter0_dddddi_307_501)">
<rect x="50" y="35" width="640" height="640" rx="130" fill="black"/>
<rect x="50" y="35" width="640" height="640" rx="130" fill="url(#paint0_radial_307_501)"/>
<rect x="50" y="35" width="640" height="640" rx="130" fill="url(#paint1_radial_307_501)"/>
<rect x="50" y="35" width="640" height="640" rx="130" fill="url(#paint2_radial_307_501)"/>
<rect x="50" y="35" width="640" height="640" rx="130" fill="url(#paint3_radial_307_501)"/>
</g>
<mask id="mask0_307_501" style="mask-type:alpha" maskUnits="userSpaceOnUse" x="52" y="44" width="621" height="620">
<rect x="52.9996" y="44" width="620" height="620" rx="122" fill="url(#paint4_linear_307_501)"/>
</mask>
<g mask="url(#mask0_307_501)">
<mask id="mask1_307_501" style="mask-type:alpha" maskUnits="userSpaceOnUse" x="52" y="44" width="621" height="620">
<rect x="52.9993" y="44" width="620" height="620" rx="122" fill="url(#paint5_linear_307_501)"/>
</mask>
<g mask="url(#mask1_307_501)">
<g filter="url(#filter1_if_307_501)">
<rect x="52.9993" y="44" width="615" height="615" rx="122" fill="#101010"/>
</g>
</g>
</g>
<mask id="mask2_307_501" style="mask-type:alpha" maskUnits="userSpaceOnUse" x="51" y="43" width="624" height="623">
<rect x="51.9998" y="43" width="623" height="623" rx="122.517" fill="url(#paint6_linear_307_501)"/>
</mask>
<g mask="url(#mask2_307_501)">
<g filter="url(#filter2_if_307_501)">
<rect x="51.9998" y="43" width="623" height="623" rx="122.517" fill="#101010"/>
</g>
</g>
<path d="M236.026 242.354C236.026 205.155 266.74 175 304.628 175H422.339C460.227 175 490.941 205.155 490.941 242.354C490.941 265.908 478.626 286.639 459.973 298.678C478.626 310.716 490.941 331.447 490.941 355.001C490.941 392.2 460.227 422.356 422.339 422.356H420.85C403.088 422.356 386.902 415.728 374.719 404.854V466.914C374.719 504.609 343.202 535 304.997 535C267.204 535 236.026 504.936 236.026 467.646C236.026 444.092 248.34 423.363 266.992 411.324C248.34 399.285 236.026 378.555 236.026 355.001C236.026 331.447 248.341 310.716 266.994 298.678C248.341 286.639 236.026 265.908 236.026 242.354ZM352.248 309.71H304.628C279.15 309.71 258.497 329.988 258.497 355.001C258.497 379.919 278.991 400.136 304.333 400.292C304.431 400.292 304.529 400.292 304.628 400.292H352.248V309.71ZM374.719 355.001C374.719 380.015 395.372 400.293 420.85 400.293H422.339C447.817 400.293 468.47 380.015 468.47 355.001C468.47 329.988 447.817 309.71 422.339 309.71H420.85C395.372 309.71 374.719 329.988 374.719 355.001ZM304.628 422.356C304.529 422.356 304.431 422.355 304.333 422.355C278.991 422.511 258.497 442.728 258.497 467.646C258.497 492.568 279.426 512.937 304.997 512.937C330.981 512.937 352.248 492.24 352.248 466.914V422.356H304.628ZM304.628 197.063C279.15 197.063 258.497 217.34 258.497 242.354C258.497 267.368 279.15 287.646 304.628 287.646H352.248V197.063H304.628ZM374.719 287.646H422.339C447.817 287.646 468.47 267.368 468.47 242.354C468.47 217.34 447.817 197.063 422.339 197.063H374.719V287.646Z" fill="#fff"/>
<g filter="url(#filter3_f_307_501)">
<path d="M57.0001 251.626C57.0001 181.392 57.0001 146.274 70.89 119.975C83.0997 96.8569 102.525 78.3588 126.212 67.2937C153.159 54.706 188.235 56.4225 258.385 59.8556L363.287 64.9895L471.719 59.7416C541.837 56.348 576.896 54.6512 603.829 67.2448C627.504 78.315 646.918 96.8118 659.119 119.924C673 146.216 673 181.317 673 251.517V467C673 534.206 673 567.809 659.921 593.479C648.416 616.058 630.058 634.416 607.479 645.921C581.81 659 548.206 659 481 659H249C181.794 659 148.191 659 122.521 645.921C99.9418 634.416 81.5841 616.058 70.0793 593.479C57.0001 567.809 57.0001 534.206 57.0001 467V251.626Z" fill="url(#paint7_radial_307_501)"/>
<path d="M57.0001 251.626C57.0001 181.392 57.0001 146.274 70.89 119.975C83.0997 96.8569 102.525 78.3588 126.212 67.2937C153.159 54.706 188.235 56.4225 258.385 59.8556L363.287 64.9895L471.719 59.7416C541.837 56.348 576.896 54.6512 603.829 67.2448C627.504 78.315 646.918 96.8118 659.119 119.924C673 146.216 673 181.317 673 251.517V467C673 534.206 673 567.809 659.921 593.479C648.416 616.058 630.058 634.416 607.479 645.921C581.81 659 548.206 659 481 659H249C181.794 659 148.191 659 122.521 645.921C99.9418 634.416 81.5841 616.058 70.0793 593.479C57.0001 567.809 57.0001 534.206 57.0001 467V251.626Z" fill="url(#paint8_radial_307_501)"/>
<path d="M57.0001 251.626C57.0001 181.392 57.0001 146.274 70.89 119.975C83.0997 96.8569 102.525 78.3588 126.212 67.2937C153.159 54.706 188.235 56.4225 258.385 59.8556L363.287 64.9895L471.719 59.7416C541.837 56.348 576.896 54.6512 603.829 67.2448C627.504 78.315 646.918 96.8118 659.119 119.924C673 146.216 673 181.317 673 251.517V467C673 534.206 673 567.809 659.921 593.479C648.416 616.058 630.058 634.416 607.479 645.921C581.81 659 548.206 659 481 659H249C181.794 659 148.191 659 122.521 645.921C99.9418 634.416 81.5841 616.058 70.0793 593.479C57.0001 567.809 57.0001 534.206 57.0001 467V251.626Z" fill="url(#paint9_radial_307_501)"/>
<path d="M57.0001 251.626C57.0001 181.392 57.0001 146.274 70.89 119.975C83.0997 96.8569 102.525 78.3588 126.212 67.2937C153.159 54.706 188.235 56.4225 258.385 59.8556L363.287 64.9895L471.719 59.7416C541.837 56.348 576.896 54.6512 603.829 67.2448C627.504 78.315 646.918 96.8118 659.119 119.924C673 146.216 673 181.317 673 251.517V467C673 534.206 673 567.809 659.921 593.479C648.416 616.058 630.058 634.416 607.479 645.921C581.81 659 548.206 659 481 659H249C181.794 659 148.191 659 122.521 645.921C99.9418 634.416 81.5841 616.058 70.0793 593.479C57.0001 567.809 57.0001 534.206 57.0001 467V251.626Z" fill="url(#paint10_radial_307_501)"/>
<path d="M57.0001 251.626C57.0001 181.392 57.0001 146.274 70.89 119.975C83.0997 96.8569 102.525 78.3588 126.212 67.2937C153.159 54.706 188.235 56.4225 258.385 59.8556L363.287 64.9895L471.719 59.7416C541.837 56.348 576.896 54.6512 603.829 67.2448C627.504 78.315 646.918 96.8118 659.119 119.924C673 146.216 673 181.317 673 251.517V467C673 534.206 673 567.809 659.921 593.479C648.416 616.058 630.058 634.416 607.479 645.921C581.81 659 548.206 659 481 659H249C181.794 659 148.191 659 122.521 645.921C99.9418 634.416 81.5841 616.058 70.0793 593.479C57.0001 567.809 57.0001 534.206 57.0001 467V251.626Z" fill="url(#paint11_radial_307_501)"/>
<path d="M57.0001 251.626C57.0001 181.392 57.0001 146.274 70.89 119.975C83.0997 96.8569 102.525 78.3588 126.212 67.2937C153.159 54.706 188.235 56.4225 258.385 59.8556L363.287 64.9895L471.719 59.7416C541.837 56.348 576.896 54.6512 603.829 67.2448C627.504 78.315 646.918 96.8118 659.119 119.924C673 146.216 673 181.317 673 251.517V467C673 534.206 673 567.809 659.921 593.479C648.416 616.058 630.058 634.416 607.479 645.921C581.81 659 548.206 659 481 659H249C181.794 659 148.191 659 122.521 645.921C99.9418 634.416 81.5841 616.058 70.0793 593.479C57.0001 567.809 57.0001 534.206 57.0001 467V251.626Z" fill="url(#paint12_radial_307_501)"/>
</g>
<g filter="url(#filter4_f_307_501)">
<path d="M647.131 81.397C654.152 88.1185 660.114 97.8884 661.022 102.409C661.329 103.939 659.819 103.944 658.819 102.746C656.1 99.4907 650.381 92.9292 643.704 86.5375C636.582 79.7189 626.838 71.5625 623.069 68.1193C622.046 67.1853 622.4 66.469 623.711 66.9158C628.558 68.5679 639.84 74.4163 647.131 81.397Z" fill="url(#paint13_linear_307_501)"/>
</g>
<defs>
<filter id="filter0_dddddi_307_501" x="0" y="0.729584" width="792.811" height="777.082" filterUnits="userSpaceOnUse" color-interpolation-filters="sRGB">
<feFlood flood-opacity="0" result="BackgroundImageFix"/>
<feColorMatrix in="SourceAlpha" type="matrix" values="0 0 0 0 0 0 0 0 0 0 0 0 0 0 0 0 0 0 127 0" result="hardAlpha"/>
<feOffset dx="34.2704" dy="34.2704"/>
<feGaussianBlur stdDeviation="34.2704"/>
<feComposite in2="hardAlpha" operator="out"/>
<feColorMatrix type="matrix" values="0 0 0 0 0 0 0 0 0 0 0 0 0 0 0 0 0 0 0.3 0"/>
<feBlend mode="normal" in2="BackgroundImageFix" result="effect1_dropShadow_307_501"/>
<feColorMatrix in="SourceAlpha" type="matrix" values="0 0 0 0 0 0 0 0 0 0 0 0 0 0 0 0 0 0 127 0" result="hardAlpha"/>
<feOffset dx="8.5676" dy="8.5676"/>
<feGaussianBlur stdDeviation="8.5676"/>
<feComposite in2="hardAlpha" operator="out"/>
<feColorMatrix type="matrix" values="0 0 0 0 0 0 0 0 0 0 0 0 0 0 0 0 0 0 0.2 0"/>
<feBlend mode="normal" in2="effect1_dropShadow_307_501" result="effect2_dropShadow_307_501"/>
<feColorMatrix in="SourceAlpha" type="matrix" values="0 0 0 0 0 0 0 0 0 0 0 0 0 0 0 0 0 0 127 0" result="hardAlpha"/>
<feOffset dx="8.5676" dy="8.5676"/>
<feGaussianBlur stdDeviation="8.5676"/>
<feComposite in2="hardAlpha" operator="out"/>
<feColorMatrix type="matrix" values="0 0 0 0 0 0 0 0 0 0 0 0 0 0 0 0 0 0 0.2 0"/>
<feBlend mode="normal" in2="effect2_dropShadow_307_501" result="effect3_dropShadow_307_501"/>
<feColorMatrix in="SourceAlpha" type="matrix" values="0 0 0 0 0 0 0 0 0 0 0 0 0 0 0 0 0 0 127 0" result="hardAlpha"/>
<feOffset/>
<feGaussianBlur stdDeviation="8.5676"/>
<feComposite in2="hardAlpha" operator="out"/>
<feColorMatrix type="matrix" values="0 0 0 0 0 0 0 0 0 0 0 0 0 0 0 0 0 0 0.2 0"/>
<feBlend mode="normal" in2="effect3_dropShadow_307_501" result="effect4_dropShadow_307_501"/>
<feColorMatrix in="SourceAlpha" type="matrix" values="0 0 0 0 0 0 0 0 0 0 0 0 0 0 0 0 0 0 127 0" result="hardAlpha"/>
<feOffset dy="42.838"/>
<feGaussianBlur stdDeviation="25"/>
<feComposite in2="hardAlpha" operator="out"/>
<feColorMatrix type="matrix" values="0 0 0 0 0.381173 0 0 0 0 0.339444 0 0 0 0 0.433333 0 0 0 1 0"/>
<feBlend mode="normal" in2="effect4_dropShadow_307_501" result="effect5_dropShadow_307_501"/>
<feBlend mode="normal" in="SourceGraphic" in2="effect5_dropShadow_307_501" result="shape"/>
<feColorMatrix in="SourceAlpha" type="matrix" values="0 0 0 0 0 0 0 0 0 0 0 0 0 0 0 0 0 0 127 0" result="hardAlpha"/>
<feMorphology radius="7.71084" operator="erode" in="SourceAlpha" result="effect6_innerShadow_307_501"/>
<feOffset dy="1.71352"/>
<feGaussianBlur stdDeviation="0.42838"/>
<feComposite in2="hardAlpha" operator="arithmetic" k2="-1" k3="1"/>
<feColorMatrix type="matrix" values="0 0 0 0 0 0 0 0 0 0 0 0 0 0 0 0 0 0 1 0"/>
<feBlend mode="normal" in2="shape" result="effect6_innerShadow_307_501"/>
</filter>
<filter id="filter1_if_307_501" x="51.9993" y="43" width="617" height="620" filterUnits="userSpaceOnUse" color-interpolation-filters="sRGB">
<feFlood flood-opacity="0" result="BackgroundImageFix"/>
<feBlend mode="normal" in="SourceGraphic" in2="BackgroundImageFix" result="shape"/>
<feColorMatrix in="SourceAlpha" type="matrix" values="0 0 0 0 0 0 0 0 0 0 0 0 0 0 0 0 0 0 127 0" result="hardAlpha"/>
<feMorphology radius="8" operator="dilate" in="SourceAlpha" result="effect1_innerShadow_307_501"/>
<feOffset dy="20"/>
<feGaussianBlur stdDeviation="6"/>
<feComposite in2="hardAlpha" operator="arithmetic" k2="-1" k3="1"/>
<feColorMatrix type="matrix" values="0 0 0 0 1 0 0 0 0 1 0 0 0 0 1 0 0 0 1 0"/>
<feBlend mode="normal" in2="shape" result="effect1_innerShadow_307_501"/>
<feGaussianBlur stdDeviation="0.5" result="effect2_foregroundBlur_307_501"/>
</filter>
<filter id="filter2_if_307_501" x="48.8645" y="41.2865" width="627.849" height="626.427" filterUnits="userSpaceOnUse" color-interpolation-filters="sRGB">
<feFlood flood-opacity="0" result="BackgroundImageFix"/>
<feBlend mode="normal" in="SourceGraphic" in2="BackgroundImageFix" result="shape"/>
<feColorMatrix in="SourceAlpha" type="matrix" values="0 0 0 0 0 0 0 0 0 0 0 0 0 0 0 0 0 0 127 0" result="hardAlpha"/>
<feMorphology radius="14" operator="dilate" in="SourceAlpha" result="effect1_innerShadow_307_501"/>
<feOffset dx="-17.1352"/>
<feGaussianBlur stdDeviation="8.5676"/>
<feComposite in2="hardAlpha" operator="arithmetic" k2="-1" k3="1"/>
<feColorMatrix type="matrix" values="0 0 0 0 1 0 0 0 0 1 0 0 0 0 1 0 0 0 1 0"/>
<feBlend mode="normal" in2="shape" result="effect1_innerShadow_307_501"/>
<feGaussianBlur stdDeviation="0.85676" result="effect2_foregroundBlur_307_501"/>
</filter>
<filter id="filter3_f_307_501" x="55.2866" y="55.5765" width="619.427" height="605.137" filterUnits="userSpaceOnUse" color-interpolation-filters="sRGB">
<feFlood flood-opacity="0" result="BackgroundImageFix"/>
<feBlend mode="normal" in="SourceGraphic" in2="BackgroundImageFix" result="shape"/>
<feGaussianBlur stdDeviation="0.85676" result="effect1_foregroundBlur_307_501"/>
</filter>
<filter id="filter4_f_307_501" x="620.762" y="65.0658" width="42.0142" height="40.2522" filterUnits="userSpaceOnUse" color-interpolation-filters="sRGB">
<feFlood flood-opacity="0" result="BackgroundImageFix"/>
<feBlend mode="normal" in="SourceGraphic" in2="BackgroundImageFix" result="shape"/>
<feGaussianBlur stdDeviation="0.85676" result="effect1_foregroundBlur_307_501"/>
</filter>
<radialGradient id="paint0_radial_307_501" cx="0" cy="0" r="1" gradientUnits="userSpaceOnUse" gradientTransform="translate(122.396 661.292) rotate(-62.354) scale(10.1554 127.286)">
<stop stop-color="white"/>
<stop offset="1" stop-color="white" stop-opacity="0"/>
</radialGradient>
<radialGradient id="paint1_radial_307_501" cx="0" cy="0" r="1" gradientUnits="userSpaceOnUse" gradientTransform="translate(113.829 657.008) rotate(-53.1302) scale(10.7095 134.231)">
<stop stop-color="white"/>
<stop offset="1" stop-color="white" stop-opacity="0"/>
</radialGradient>
<radialGradient id="paint2_radial_307_501" cx="0" cy="0" r="1" gradientUnits="userSpaceOnUse" gradientTransform="translate(624.458 661.72) rotate(-124.875) scale(17.2313 215.974)">
<stop stop-color="white"/>
<stop offset="1" stop-color="white" stop-opacity="0"/>
</radialGradient>
<radialGradient id="paint3_radial_307_501" cx="0" cy="0" r="1" gradientUnits="userSpaceOnUse" gradientTransform="translate(662.155 670.288) rotate(-134.61) scale(44.5288 558.116)">
<stop stop-color="white"/>
<stop offset="1" stop-color="white" stop-opacity="0"/>
</radialGradient>
<linearGradient id="paint4_linear_307_501" x1="65.072" y1="103.499" x2="638.938" y2="103.499" gradientUnits="userSpaceOnUse">
<stop stop-color="#101010" stop-opacity="0"/>
<stop offset="0.177346" stop-color="#101010"/>
<stop offset="0.772512" stop-color="#101010"/>
<stop offset="1" stop-color="#101010" stop-opacity="0"/>
</linearGradient>
<linearGradient id="paint5_linear_307_501" x1="363.43" y1="31.4965" x2="363.43" y2="68.5758" gradientUnits="userSpaceOnUse">
<stop stop-color="#101010"/>
<stop offset="1" stop-color="#101010" stop-opacity="0"/>
</linearGradient>
<linearGradient id="paint6_linear_307_501" x1="705.327" y1="147.411" x2="590.518" y2="147.411" gradientUnits="userSpaceOnUse">
<stop stop-color="#101010"/>
<stop offset="1" stop-color="#101010" stop-opacity="0"/>
</linearGradient>
<radialGradient id="paint7_radial_307_501" cx="0" cy="0" r="1" gradientUnits="userSpaceOnUse" gradientTransform="translate(579.186 26.4452) rotate(105.498) scale(44.8875 192.657)">
<stop stop-color="white"/>
<stop offset="1" stop-color="white" stop-opacity="0"/>
</radialGradient>
<radialGradient id="paint8_radial_307_501" cx="0" cy="0" r="1" gradientUnits="userSpaceOnUse" gradientTransform="translate(602.747 26.4451) rotate(110.204) scale(48.3732 207.612)">
<stop stop-color="white"/>
<stop offset="1" stop-color="white" stop-opacity="0"/>
</radialGradient>
<radialGradient id="paint9_radial_307_501" cx="0" cy="0" r="1" gradientUnits="userSpaceOnUse" gradientTransform="translate(564.193 48.7152) rotate(98.4731) scale(20.3508 87.3476)">
<stop stop-color="white"/>
<stop offset="1" stop-color="white" stop-opacity="0"/>
</radialGradient>
<radialGradient id="paint10_radial_307_501" cx="0" cy="0" r="1" gradientUnits="userSpaceOnUse" gradientTransform="translate(579.186 26.0169) rotate(97.2549) scale(47.4899 203.832)">
<stop stop-color="white"/>
<stop offset="1" stop-color="white" stop-opacity="0"/>
</radialGradient>
<radialGradient id="paint11_radial_307_501" cx="0" cy="0" r="1" gradientUnits="userSpaceOnUse" gradientTransform="translate(602.319 26.8734) rotate(109.9) scale(47.8239 205.256)">
<stop stop-color="white"/>
<stop offset="1" stop-color="white" stop-opacity="0"/>
</radialGradient>
<radialGradient id="paint12_radial_307_501" cx="0" cy="0" r="1" gradientUnits="userSpaceOnUse" gradientTransform="translate(561.195 50) rotate(90.0001) scale(17.9873 77.2042)">
<stop stop-color="white"/>
<stop offset="1" stop-color="white" stop-opacity="0"/>
</radialGradient>
<linearGradient id="paint13_linear_307_501" x1="611.147" y1="60.4063" x2="663.838" y2="108.385" gradientUnits="userSpaceOnUse">
<stop stop-color="#fff" stop-opacity="0.11"/>
<stop offset="0.515661" stop-color="#fff"/>
<stop offset="1" stop-color="#fff" stop-opacity="0"/>
</linearGradient>
</defs>
</svg>
