<svg width="150" height="150" viewBox="0 0 793 778" fill="none" xmlns="http://www.w3.org/2000/svg">
<g filter="url(#filter0_dddddi_307_325)">
<rect x="50" y="35" width="640" height="640" rx="130" fill="black"/>
<rect x="50" y="35" width="640" height="640" rx="130" fill="url(#paint0_radial_307_325)"/>
<rect x="50" y="35" width="640" height="640" rx="130" fill="url(#paint1_radial_307_325)"/>
<rect x="50" y="35" width="640" height="640" rx="130" fill="url(#paint2_radial_307_325)"/>
<rect x="50" y="35" width="640" height="640" rx="130" fill="url(#paint3_radial_307_325)"/>
</g>
<mask id="mask0_307_325" style="mask-type:alpha" maskUnits="userSpaceOnUse" x="52" y="44" width="621" height="621">
<rect x="52.9995" y="44" width="620" height="620" rx="122" fill="url(#paint4_linear_307_325)"/>
</mask>
<g mask="url(#mask0_307_325)">
<mask id="mask1_307_325" style="mask-type:alpha" maskUnits="userSpaceOnUse" x="52" y="44" width="621" height="621">
<rect x="52.999" y="44" width="620" height="620" rx="122" fill="url(#paint5_linear_307_325)"/>
</mask>
<g mask="url(#mask1_307_325)">
<g filter="url(#filter1_if_307_325)">
<rect x="52.999" y="44" width="615" height="615" rx="122" fill="#101010"/>
</g>
</g>
</g>
<mask id="mask2_307_325" style="mask-type:alpha" maskUnits="userSpaceOnUse" x="51" y="43" width="624" height="623">
<rect x="51.9995" y="43" width="623" height="623" rx="122.517" fill="url(#paint6_linear_307_325)"/>
</mask>
<g mask="url(#mask2_307_325)">
<g filter="url(#filter2_if_307_325)">
<rect x="51.9995" y="43" width="623" height="623" rx="122.517" fill="#101010"/>
</g>
</g>
<path d="M391.064 354.846C391.064 370.533 378.306 383.251 362.571 383.251C346.835 383.251 334.078 370.533 334.078 354.846C334.078 339.159 346.835 326.441 362.571 326.441C378.306 326.441 391.064 339.159 391.064 354.846Z" fill="#D9D9D9"/>
<path d="M362.571 459.298C384.941 480.982 406.989 493.807 424.762 493.807C430.587 493.807 436.102 492.584 440.688 489.841C456.614 480.673 462.439 457.766 456.924 425.086C456.006 419.279 454.779 413.484 453.243 407.369C459.365 405.54 464.881 403.699 470.396 401.871C501.342 389.96 518.495 373.466 518.495 355.451C518.495 337.128 501.342 320.634 470.396 309.032C464.881 306.894 459.365 305.066 453.243 303.534C454.779 297.43 456.006 291.623 456.924 285.816C462.129 252.531 456.316 229.315 440.378 220.148C435.78 217.404 430.265 216.181 424.452 216.181C406.989 216.181 384.619 229.006 362.261 250.69C340.2 229.006 318.14 216.181 300.379 216.181C294.554 216.181 289.039 217.404 284.453 220.148C268.527 229.315 262.702 252.222 268.218 284.902C269.135 290.709 270.362 296.504 271.898 302.619C265.776 304.448 260.261 306.289 254.745 308.118C223.799 320.028 206.646 336.523 206.646 354.537C206.646 372.86 223.799 389.354 254.745 400.956C260.261 403.094 265.776 404.922 271.898 406.454C270.362 412.558 269.135 418.365 268.218 424.172C263.012 456.852 268.825 480.067 284.453 488.926C289.051 491.681 294.566 492.892 300.379 492.892C318.152 493.498 340.212 480.673 362.571 459.298ZM345.406 418.068C350.921 418.377 356.746 418.377 362.559 418.377C368.372 418.377 374.196 418.377 379.712 418.068C374.196 425.395 368.372 432.116 362.559 438.529C356.734 432.116 350.921 425.395 345.406 418.068ZM307.419 386.611C310.48 391.801 313.244 396.693 316.615 401.574C307.121 400.351 298.235 398.819 289.659 396.99C292.422 388.749 295.484 380.187 299.152 371.637C301.606 376.517 304.358 381.719 307.419 386.599V386.611ZM289.647 312.998C298.223 311.169 307.109 309.637 316.603 308.414C313.542 313.307 310.48 318.188 307.407 323.377C304.334 328.566 301.582 333.459 299.14 338.648C295.162 329.789 292.089 321.251 289.647 312.998ZM306.502 354.846C310.48 346.604 314.769 338.351 319.676 330.11C324.274 322.166 329.48 314.233 334.685 306.289C343.881 305.683 353.065 305.374 362.571 305.374C372.374 305.374 381.57 305.683 390.456 306.289C395.971 314.233 400.867 322.166 405.465 330.11C410.372 338.351 414.661 346.604 418.639 354.846C414.661 363.087 410.372 371.34 405.465 379.581C400.867 387.526 395.661 395.458 390.456 403.402C381.26 404.008 372.076 404.317 362.571 404.317C352.767 404.317 343.571 404.008 334.685 403.402C329.17 395.458 324.274 387.526 319.676 379.581C314.769 371.328 310.48 363.087 306.502 354.846ZM426.298 338.351L418.032 323.08C414.97 317.891 412.207 312.998 408.836 308.118C418.329 309.341 427.216 310.873 435.792 312.701C433.04 321.251 429.967 329.789 426.298 338.351ZM426.298 371.34C429.979 379.89 433.04 388.44 435.792 396.693C427.216 398.522 418.329 400.054 408.836 401.277C411.897 396.384 414.958 391.504 418.032 386.314C420.795 381.731 423.547 376.541 426.298 371.352V371.34ZM433.338 477.324C430.884 478.856 427.823 479.462 424.452 479.462C409.443 479.462 390.754 467.242 372.374 448.919C381.26 439.455 389.837 428.756 398.413 416.845C412.814 415.622 426.596 413.484 439.473 410.432C441.009 415.931 441.927 421.429 442.844 426.927C447.132 452.886 443.749 471.517 433.338 477.324ZM449.276 316.359C483.594 326.132 504.118 341.094 504.118 354.846C504.118 366.756 490.026 378.667 465.214 388.143C460.306 389.972 454.803 391.812 449.288 393.332C445.31 380.804 440.402 367.979 434.279 354.846C440.402 341.712 445.607 328.887 449.276 316.359ZM424.762 230.229C428.133 230.229 430.884 230.835 433.648 232.367C443.761 238.174 447.43 256.497 443.142 282.764C442.224 287.954 440.997 293.452 439.771 299.259C426.906 296.504 413.112 294.366 398.711 292.846C390.444 280.936 381.558 270.248 372.672 260.772C391.052 242.746 409.753 230.229 424.762 230.229ZM379.723 291.623C374.208 291.314 368.383 291.314 362.571 291.314C356.758 291.314 350.933 291.314 345.418 291.623C350.933 284.296 356.758 277.575 362.571 271.163C368.395 277.575 374.208 284.605 379.723 291.623ZM291.791 232.367C294.245 230.835 297.306 230.229 300.677 230.229C315.686 230.229 334.375 242.449 352.755 260.772C343.869 270.236 335.293 280.924 326.716 292.846C312.315 294.069 298.533 296.207 285.656 299.259C284.12 293.761 283.203 288.263 282.285 282.764C277.997 256.806 281.38 238.483 291.791 232.367ZM275.865 393.332C241.547 383.559 221.023 368.597 221.023 354.846C221.023 342.935 235.115 331.024 259.927 321.56C264.835 319.731 270.338 317.891 275.853 316.371C279.832 328.899 284.739 341.724 290.862 354.857C284.739 367.991 279.522 381.125 275.853 393.344L275.865 393.332ZM282.297 426.927C283.214 421.737 284.441 416.239 285.668 410.432C298.533 413.187 312.327 415.325 326.728 416.845C334.995 428.756 343.881 439.443 352.767 448.919C334.387 466.934 315.698 479.462 300.689 479.462C297.318 479.462 294.566 478.856 291.803 477.324C281.38 471.517 278.021 452.886 282.309 426.927H282.297Z" fill="#D9D9D9"/>
<g filter="url(#filter3_f_307_325)">
<path d="M57 251.626C57 181.392 57 146.274 70.8899 119.975C83.0996 96.8569 102.525 78.3588 126.212 67.2937C153.159 54.706 188.234 56.4225 258.385 59.8556L363.287 64.9895L471.719 59.7416C541.837 56.348 576.896 54.6512 603.829 67.2448C627.504 78.315 646.917 96.8118 659.119 119.924C673 146.216 673 181.317 673 251.517V467C673 534.206 673 567.809 659.921 593.479C648.416 616.058 630.058 634.416 607.479 645.921C581.809 659 548.206 659 481 659H249C181.794 659 148.191 659 122.521 645.921C99.9417 634.416 81.584 616.058 70.0792 593.479C57 567.809 57 534.206 57 467V251.626Z" fill="url(#paint7_radial_307_325)"/>
<path d="M57 251.626C57 181.392 57 146.274 70.8899 119.975C83.0996 96.8569 102.525 78.3588 126.212 67.2937C153.159 54.706 188.234 56.4225 258.385 59.8556L363.287 64.9895L471.719 59.7416C541.837 56.348 576.896 54.6512 603.829 67.2448C627.504 78.315 646.917 96.8118 659.119 119.924C673 146.216 673 181.317 673 251.517V467C673 534.206 673 567.809 659.921 593.479C648.416 616.058 630.058 634.416 607.479 645.921C581.809 659 548.206 659 481 659H249C181.794 659 148.191 659 122.521 645.921C99.9417 634.416 81.584 616.058 70.0792 593.479C57 567.809 57 534.206 57 467V251.626Z" fill="url(#paint8_radial_307_325)"/>
<path d="M57 251.626C57 181.392 57 146.274 70.8899 119.975C83.0996 96.8569 102.525 78.3588 126.212 67.2937C153.159 54.706 188.234 56.4225 258.385 59.8556L363.287 64.9895L471.719 59.7416C541.837 56.348 576.896 54.6512 603.829 67.2448C627.504 78.315 646.917 96.8118 659.119 119.924C673 146.216 673 181.317 673 251.517V467C673 534.206 673 567.809 659.921 593.479C648.416 616.058 630.058 634.416 607.479 645.921C581.809 659 548.206 659 481 659H249C181.794 659 148.191 659 122.521 645.921C99.9417 634.416 81.584 616.058 70.0792 593.479C57 567.809 57 534.206 57 467V251.626Z" fill="url(#paint9_radial_307_325)"/>
<path d="M57 251.626C57 181.392 57 146.274 70.8899 119.975C83.0996 96.8569 102.525 78.3588 126.212 67.2937C153.159 54.706 188.234 56.4225 258.385 59.8556L363.287 64.9895L471.719 59.7416C541.837 56.348 576.896 54.6512 603.829 67.2448C627.504 78.315 646.917 96.8118 659.119 119.924C673 146.216 673 181.317 673 251.517V467C673 534.206 673 567.809 659.921 593.479C648.416 616.058 630.058 634.416 607.479 645.921C581.809 659 548.206 659 481 659H249C181.794 659 148.191 659 122.521 645.921C99.9417 634.416 81.584 616.058 70.0792 593.479C57 567.809 57 534.206 57 467V251.626Z" fill="url(#paint10_radial_307_325)"/>
<path d="M57 251.626C57 181.392 57 146.274 70.8899 119.975C83.0996 96.8569 102.525 78.3588 126.212 67.2937C153.159 54.706 188.234 56.4225 258.385 59.8556L363.287 64.9895L471.719 59.7416C541.837 56.348 576.896 54.6512 603.829 67.2448C627.504 78.315 646.917 96.8118 659.119 119.924C673 146.216 673 181.317 673 251.517V467C673 534.206 673 567.809 659.921 593.479C648.416 616.058 630.058 634.416 607.479 645.921C581.809 659 548.206 659 481 659H249C181.794 659 148.191 659 122.521 645.921C99.9417 634.416 81.584 616.058 70.0792 593.479C57 567.809 57 534.206 57 467V251.626Z" fill="url(#paint11_radial_307_325)"/>
<path d="M57 251.626C57 181.392 57 146.274 70.8899 119.975C83.0996 96.8569 102.525 78.3588 126.212 67.2937C153.159 54.706 188.234 56.4225 258.385 59.8556L363.287 64.9895L471.719 59.7416C541.837 56.348 576.896 54.6512 603.829 67.2448C627.504 78.315 646.917 96.8118 659.119 119.924C673 146.216 673 181.317 673 251.517V467C673 534.206 673 567.809 659.921 593.479C648.416 616.058 630.058 634.416 607.479 645.921C581.809 659 548.206 659 481 659H249C181.794 659 148.191 659 122.521 645.921C99.9417 634.416 81.584 616.058 70.0792 593.479C57 567.809 57 534.206 57 467V251.626Z" fill="url(#paint12_radial_307_325)"/>
</g>
<g filter="url(#filter4_f_307_325)">
<path d="M647.131 81.397C654.152 88.1185 660.114 97.8884 661.022 102.409C661.329 103.939 659.819 103.944 658.819 102.746C656.099 99.4907 650.381 92.9292 643.704 86.5375C636.582 79.7189 626.837 71.5625 623.068 68.1193C622.046 67.1853 622.4 66.469 623.71 66.9158C628.558 68.5679 639.84 74.4163 647.131 81.397Z" fill="url(#paint13_linear_307_325)"/>
</g>
<defs>
<filter id="filter0_dddddi_307_325" x="0" y="0.729584" width="792.811" height="777.082" filterUnits="userSpaceOnUse" color-interpolation-filters="sRGB">
<feFlood flood-opacity="0" result="BackgroundImageFix"/>
<feColorMatrix in="SourceAlpha" type="matrix" values="0 0 0 0 0 0 0 0 0 0 0 0 0 0 0 0 0 0 127 0" result="hardAlpha"/>
<feOffset dx="34.2704" dy="34.2704"/>
<feGaussianBlur stdDeviation="34.2704"/>
<feComposite in2="hardAlpha" operator="out"/>
<feColorMatrix type="matrix" values="0 0 0 0 0 0 0 0 0 0 0 0 0 0 0 0 0 0 0.3 0"/>
<feBlend mode="normal" in2="BackgroundImageFix" result="effect1_dropShadow_307_325"/>
<feColorMatrix in="SourceAlpha" type="matrix" values="0 0 0 0 0 0 0 0 0 0 0 0 0 0 0 0 0 0 127 0" result="hardAlpha"/>
<feOffset dx="8.5676" dy="8.5676"/>
<feGaussianBlur stdDeviation="8.5676"/>
<feComposite in2="hardAlpha" operator="out"/>
<feColorMatrix type="matrix" values="0 0 0 0 0 0 0 0 0 0 0 0 0 0 0 0 0 0 0.2 0"/>
<feBlend mode="normal" in2="effect1_dropShadow_307_325" result="effect2_dropShadow_307_325"/>
<feColorMatrix in="SourceAlpha" type="matrix" values="0 0 0 0 0 0 0 0 0 0 0 0 0 0 0 0 0 0 127 0" result="hardAlpha"/>
<feOffset dx="8.5676" dy="8.5676"/>
<feGaussianBlur stdDeviation="8.5676"/>
<feComposite in2="hardAlpha" operator="out"/>
<feColorMatrix type="matrix" values="0 0 0 0 0 0 0 0 0 0 0 0 0 0 0 0 0 0 0.2 0"/>
<feBlend mode="normal" in2="effect2_dropShadow_307_325" result="effect3_dropShadow_307_325"/>
<feColorMatrix in="SourceAlpha" type="matrix" values="0 0 0 0 0 0 0 0 0 0 0 0 0 0 0 0 0 0 127 0" result="hardAlpha"/>
<feOffset/>
<feGaussianBlur stdDeviation="8.5676"/>
<feComposite in2="hardAlpha" operator="out"/>
<feColorMatrix type="matrix" values="0 0 0 0 0 0 0 0 0 0 0 0 0 0 0 0 0 0 0.2 0"/>
<feBlend mode="normal" in2="effect3_dropShadow_307_325" result="effect4_dropShadow_307_325"/>
<feColorMatrix in="SourceAlpha" type="matrix" values="0 0 0 0 0 0 0 0 0 0 0 0 0 0 0 0 0 0 127 0" result="hardAlpha"/>
<feOffset dy="42.838"/>
<feGaussianBlur stdDeviation="25"/>
<feComposite in2="hardAlpha" operator="out"/>
<feColorMatrix type="matrix" values="0 0 0 0 0.381173 0 0 0 0 0.339444 0 0 0 0 0.433333 0 0 0 1 0"/>
<feBlend mode="normal" in2="effect4_dropShadow_307_325" result="effect5_dropShadow_307_325"/>
<feBlend mode="normal" in="SourceGraphic" in2="effect5_dropShadow_307_325" result="shape"/>
<feColorMatrix in="SourceAlpha" type="matrix" values="0 0 0 0 0 0 0 0 0 0 0 0 0 0 0 0 0 0 127 0" result="hardAlpha"/>
<feMorphology radius="7.71084" operator="erode" in="SourceAlpha" result="effect6_innerShadow_307_325"/>
<feOffset dy="1.71352"/>
<feGaussianBlur stdDeviation="0.42838"/>
<feComposite in2="hardAlpha" operator="arithmetic" k2="-1" k3="1"/>
<feColorMatrix type="matrix" values="0 0 0 0 0 0 0 0 0 0 0 0 0 0 0 0 0 0 1 0"/>
<feBlend mode="normal" in2="shape" result="effect6_innerShadow_307_325"/>
</filter>
<filter id="filter1_if_307_325" x="51.999" y="43" width="617" height="620" filterUnits="userSpaceOnUse" color-interpolation-filters="sRGB">
<feFlood flood-opacity="0" result="BackgroundImageFix"/>
<feBlend mode="normal" in="SourceGraphic" in2="BackgroundImageFix" result="shape"/>
<feColorMatrix in="SourceAlpha" type="matrix" values="0 0 0 0 0 0 0 0 0 0 0 0 0 0 0 0 0 0 127 0" result="hardAlpha"/>
<feMorphology radius="8" operator="dilate" in="SourceAlpha" result="effect1_innerShadow_307_325"/>
<feOffset dy="20"/>
<feGaussianBlur stdDeviation="6"/>
<feComposite in2="hardAlpha" operator="arithmetic" k2="-1" k3="1"/>
<feColorMatrix type="matrix" values="0 0 0 0 1 0 0 0 0 1 0 0 0 0 1 0 0 0 1 0"/>
<feBlend mode="normal" in2="shape" result="effect1_innerShadow_307_325"/>
<feGaussianBlur stdDeviation="0.5" result="effect2_foregroundBlur_307_325"/>
</filter>
<filter id="filter2_if_307_325" x="48.8643" y="41.2865" width="627.849" height="626.427" filterUnits="userSpaceOnUse" color-interpolation-filters="sRGB">
<feFlood flood-opacity="0" result="BackgroundImageFix"/>
<feBlend mode="normal" in="SourceGraphic" in2="BackgroundImageFix" result="shape"/>
<feColorMatrix in="SourceAlpha" type="matrix" values="0 0 0 0 0 0 0 0 0 0 0 0 0 0 0 0 0 0 127 0" result="hardAlpha"/>
<feMorphology radius="14" operator="dilate" in="SourceAlpha" result="effect1_innerShadow_307_325"/>
<feOffset dx="-17.1352"/>
<feGaussianBlur stdDeviation="8.5676"/>
<feComposite in2="hardAlpha" operator="arithmetic" k2="-1" k3="1"/>
<feColorMatrix type="matrix" values="0 0 0 0 1 0 0 0 0 1 0 0 0 0 1 0 0 0 1 0"/>
<feBlend mode="normal" in2="shape" result="effect1_innerShadow_307_325"/>
<feGaussianBlur stdDeviation="0.85676" result="effect2_foregroundBlur_307_325"/>
</filter>
<filter id="filter3_f_307_325" x="55.2865" y="55.5762" width="619.427" height="605.137" filterUnits="userSpaceOnUse" color-interpolation-filters="sRGB">
<feFlood flood-opacity="0" result="BackgroundImageFix"/>
<feBlend mode="normal" in="SourceGraphic" in2="BackgroundImageFix" result="shape"/>
<feGaussianBlur stdDeviation="0.85676" result="effect1_foregroundBlur_307_325"/>
</filter>
<filter id="filter4_f_307_325" x="620.762" y="65.0659" width="42.0142" height="40.2521" filterUnits="userSpaceOnUse" color-interpolation-filters="sRGB">
<feFlood flood-opacity="0" result="BackgroundImageFix"/>
<feBlend mode="normal" in="SourceGraphic" in2="BackgroundImageFix" result="shape"/>
<feGaussianBlur stdDeviation="0.85676" result="effect1_foregroundBlur_307_325"/>
</filter>
<radialGradient id="paint0_radial_307_325" cx="0" cy="0" r="1" gradientUnits="userSpaceOnUse" gradientTransform="translate(122.396 661.292) rotate(-62.354) scale(10.1554 127.286)">
<stop stop-color="white"/>
<stop offset="1" stop-color="white" stop-opacity="0"/>
</radialGradient>
<radialGradient id="paint1_radial_307_325" cx="0" cy="0" r="1" gradientUnits="userSpaceOnUse" gradientTransform="translate(113.829 657.008) rotate(-53.1302) scale(10.7095 134.231)">
<stop stop-color="white"/>
<stop offset="1" stop-color="white" stop-opacity="0"/>
</radialGradient>
<radialGradient id="paint2_radial_307_325" cx="0" cy="0" r="1" gradientUnits="userSpaceOnUse" gradientTransform="translate(624.458 661.72) rotate(-124.875) scale(17.2313 215.974)">
<stop stop-color="white"/>
<stop offset="1" stop-color="white" stop-opacity="0"/>
</radialGradient>
<radialGradient id="paint3_radial_307_325" cx="0" cy="0" r="1" gradientUnits="userSpaceOnUse" gradientTransform="translate(662.155 670.288) rotate(-134.61) scale(44.5288 558.116)">
<stop stop-color="white"/>
<stop offset="1" stop-color="white" stop-opacity="0"/>
</radialGradient>
<linearGradient id="paint4_linear_307_325" x1="65.0718" y1="103.499" x2="638.938" y2="103.499" gradientUnits="userSpaceOnUse">
<stop stop-color="#101010" stop-opacity="0"/>
<stop offset="0.177346" stop-color="#101010"/>
<stop offset="0.772512" stop-color="#101010"/>
<stop offset="1" stop-color="#101010" stop-opacity="0"/>
</linearGradient>
<linearGradient id="paint5_linear_307_325" x1="363.43" y1="31.4965" x2="363.43" y2="68.5758" gradientUnits="userSpaceOnUse">
<stop stop-color="#101010"/>
<stop offset="1" stop-color="#101010" stop-opacity="0"/>
</linearGradient>
<linearGradient id="paint6_linear_307_325" x1="705.326" y1="147.411" x2="590.518" y2="147.411" gradientUnits="userSpaceOnUse">
<stop stop-color="#101010"/>
<stop offset="1" stop-color="#101010" stop-opacity="0"/>
</linearGradient>
<radialGradient id="paint7_radial_307_325" cx="0" cy="0" r="1" gradientUnits="userSpaceOnUse" gradientTransform="translate(579.186 26.4452) rotate(105.498) scale(44.8875 192.657)">
<stop stop-color="white"/>
<stop offset="1" stop-color="white" stop-opacity="0"/>
</radialGradient>
<radialGradient id="paint8_radial_307_325" cx="0" cy="0" r="1" gradientUnits="userSpaceOnUse" gradientTransform="translate(602.747 26.4451) rotate(110.204) scale(48.3732 207.612)">
<stop stop-color="white"/>
<stop offset="1" stop-color="white" stop-opacity="0"/>
</radialGradient>
<radialGradient id="paint9_radial_307_325" cx="0" cy="0" r="1" gradientUnits="userSpaceOnUse" gradientTransform="translate(564.193 48.7152) rotate(98.4731) scale(20.3508 87.3476)">
<stop stop-color="white"/>
<stop offset="1" stop-color="white" stop-opacity="0"/>
</radialGradient>
<radialGradient id="paint10_radial_307_325" cx="0" cy="0" r="1" gradientUnits="userSpaceOnUse" gradientTransform="translate(579.186 26.0169) rotate(97.2549) scale(47.4899 203.832)">
<stop stop-color="white"/>
<stop offset="1" stop-color="white" stop-opacity="0"/>
</radialGradient>
<radialGradient id="paint11_radial_307_325" cx="0" cy="0" r="1" gradientUnits="userSpaceOnUse" gradientTransform="translate(602.318 26.8734) rotate(109.9) scale(47.8239 205.256)">
<stop stop-color="white"/>
<stop offset="1" stop-color="white" stop-opacity="0"/>
</radialGradient>
<radialGradient id="paint12_radial_307_325" cx="0" cy="0" r="1" gradientUnits="userSpaceOnUse" gradientTransform="translate(561.195 50) rotate(90.0001) scale(17.9873 77.2042)">
<stop stop-color="white"/>
<stop offset="1" stop-color="white" stop-opacity="0"/>
</radialGradient>
<linearGradient id="paint13_linear_307_325" x1="611.147" y1="60.4063" x2="663.838" y2="108.385" gradientUnits="userSpaceOnUse">
<stop stop-color="#D9D9D9" stop-opacity="0.11"/>
<stop offset="0.515661" stop-color="#D9D9D9"/>
<stop offset="1" stop-color="#D9D9D9" stop-opacity="0"/>
</linearGradient>
</defs>
</svg>
