<svg width="150" height="150" viewBox="0 0 793 778" fill="none" xmlns="http://www.w3.org/2000/svg">
<g filter="url(#filter0_dddddi_307_421)">
<rect x="50" y="35" width="640" height="640" rx="130" fill="black"/>
<rect x="50" y="35" width="640" height="640" rx="130" fill="url(#paint0_radial_307_421)"/>
<rect x="50" y="35" width="640" height="640" rx="130" fill="url(#paint1_radial_307_421)"/>
<rect x="50" y="35" width="640" height="640" rx="130" fill="url(#paint2_radial_307_421)"/>
<rect x="50" y="35" width="640" height="640" rx="130" fill="url(#paint3_radial_307_421)"/>
</g>
<mask id="mask0_307_421" style="mask-type:alpha" maskUnits="userSpaceOnUse" x="52" y="44" width="621" height="620">
<rect x="52.9995" y="44" width="620" height="620" rx="122" fill="url(#paint4_linear_307_421)"/>
</mask>
<g mask="url(#mask0_307_421)">
<mask id="mask1_307_421" style="mask-type:alpha" maskUnits="userSpaceOnUse" x="52" y="44" width="621" height="620">
<rect x="52.999" y="44" width="620" height="620" rx="122" fill="url(#paint5_linear_307_421)"/>
</mask>
<g mask="url(#mask1_307_421)">
<g filter="url(#filter1_if_307_421)">
<rect x="52.999" y="44" width="615" height="615" rx="122" fill="#101010"/>
</g>
</g>
</g>
<mask id="mask2_307_421" style="mask-type:alpha" maskUnits="userSpaceOnUse" x="51" y="43" width="624" height="623">
<rect x="51.9995" y="43" width="623" height="623" rx="122.517" fill="url(#paint6_linear_307_421)"/>
</mask>
<g mask="url(#mask2_307_421)">
<g filter="url(#filter2_if_307_421)">
<rect x="51.9995" y="43" width="623" height="623" rx="122.517" fill="#101010"/>
</g>
</g>
<path d="M267.687 229.867C267.687 272.666 293.109 298.346 343.954 311.861L397.815 324.926C446.074 336.64 475.374 365.473 475.374 412.327C475.805 432.601 469.342 452.424 457.708 468.642C457.708 421.788 434.44 396.559 378.856 381.241L325.857 368.627C283.199 358.715 250.452 334.838 250.452 283.929C250.452 264.557 256.484 245.184 267.687 229.867Z" fill="#8D8D8D"/>
<path d="M424.539 400.613C447.376 415.931 457.717 437.556 457.717 468.641C438.328 494.321 405.149 508.287 365.939 508.287C300.013 508.287 253.046 474.048 243.136 415.03H306.476C314.663 442.061 336.207 454.675 365.508 454.675C400.41 455.126 424.108 435.303 424.539 400.613ZM267.697 229.415C286.225 204.186 318.11 188.869 356.89 188.869C424.539 188.869 463.319 226.262 473.229 278.522H412.043C405.149 257.798 388.345 241.579 357.752 241.579C324.574 242.03 302.167 261.853 300.875 293.389C278.671 280.586 266.835 255.546 267.697 229.415Z" fill="#D9D9D9"/>
<g filter="url(#filter3_f_307_421)">
<path d="M57 251.626C57 181.392 57 146.274 70.8899 119.975C83.0996 96.8569 102.525 78.3588 126.212 67.2937C153.159 54.706 188.234 56.4225 258.385 59.8556L363.287 64.9895L471.719 59.7416C541.837 56.348 576.896 54.6512 603.829 67.2448C627.504 78.315 646.917 96.8118 659.119 119.924C673 146.216 673 181.317 673 251.517V467C673 534.206 673 567.809 659.921 593.479C648.416 616.058 630.058 634.416 607.479 645.921C581.809 659 548.206 659 481 659H249C181.794 659 148.191 659 122.521 645.921C99.9417 634.416 81.584 616.058 70.0792 593.479C57 567.809 57 534.206 57 467V251.626Z" fill="url(#paint7_radial_307_421)"/>
<path d="M57 251.626C57 181.392 57 146.274 70.8899 119.975C83.0996 96.8569 102.525 78.3588 126.212 67.2937C153.159 54.706 188.234 56.4225 258.385 59.8556L363.287 64.9895L471.719 59.7416C541.837 56.348 576.896 54.6512 603.829 67.2448C627.504 78.315 646.917 96.8118 659.119 119.924C673 146.216 673 181.317 673 251.517V467C673 534.206 673 567.809 659.921 593.479C648.416 616.058 630.058 634.416 607.479 645.921C581.809 659 548.206 659 481 659H249C181.794 659 148.191 659 122.521 645.921C99.9417 634.416 81.584 616.058 70.0792 593.479C57 567.809 57 534.206 57 467V251.626Z" fill="url(#paint8_radial_307_421)"/>
<path d="M57 251.626C57 181.392 57 146.274 70.8899 119.975C83.0996 96.8569 102.525 78.3588 126.212 67.2937C153.159 54.706 188.234 56.4225 258.385 59.8556L363.287 64.9895L471.719 59.7416C541.837 56.348 576.896 54.6512 603.829 67.2448C627.504 78.315 646.917 96.8118 659.119 119.924C673 146.216 673 181.317 673 251.517V467C673 534.206 673 567.809 659.921 593.479C648.416 616.058 630.058 634.416 607.479 645.921C581.809 659 548.206 659 481 659H249C181.794 659 148.191 659 122.521 645.921C99.9417 634.416 81.584 616.058 70.0792 593.479C57 567.809 57 534.206 57 467V251.626Z" fill="url(#paint9_radial_307_421)"/>
<path d="M57 251.626C57 181.392 57 146.274 70.8899 119.975C83.0996 96.8569 102.525 78.3588 126.212 67.2937C153.159 54.706 188.234 56.4225 258.385 59.8556L363.287 64.9895L471.719 59.7416C541.837 56.348 576.896 54.6512 603.829 67.2448C627.504 78.315 646.917 96.8118 659.119 119.924C673 146.216 673 181.317 673 251.517V467C673 534.206 673 567.809 659.921 593.479C648.416 616.058 630.058 634.416 607.479 645.921C581.809 659 548.206 659 481 659H249C181.794 659 148.191 659 122.521 645.921C99.9417 634.416 81.584 616.058 70.0792 593.479C57 567.809 57 534.206 57 467V251.626Z" fill="url(#paint10_radial_307_421)"/>
<path d="M57 251.626C57 181.392 57 146.274 70.8899 119.975C83.0996 96.8569 102.525 78.3588 126.212 67.2937C153.159 54.706 188.234 56.4225 258.385 59.8556L363.287 64.9895L471.719 59.7416C541.837 56.348 576.896 54.6512 603.829 67.2448C627.504 78.315 646.917 96.8118 659.119 119.924C673 146.216 673 181.317 673 251.517V467C673 534.206 673 567.809 659.921 593.479C648.416 616.058 630.058 634.416 607.479 645.921C581.809 659 548.206 659 481 659H249C181.794 659 148.191 659 122.521 645.921C99.9417 634.416 81.584 616.058 70.0792 593.479C57 567.809 57 534.206 57 467V251.626Z" fill="url(#paint11_radial_307_421)"/>
<path d="M57 251.626C57 181.392 57 146.274 70.8899 119.975C83.0996 96.8569 102.525 78.3588 126.212 67.2937C153.159 54.706 188.234 56.4225 258.385 59.8556L363.287 64.9895L471.719 59.7416C541.837 56.348 576.896 54.6512 603.829 67.2448C627.504 78.315 646.917 96.8118 659.119 119.924C673 146.216 673 181.317 673 251.517V467C673 534.206 673 567.809 659.921 593.479C648.416 616.058 630.058 634.416 607.479 645.921C581.809 659 548.206 659 481 659H249C181.794 659 148.191 659 122.521 645.921C99.9417 634.416 81.584 616.058 70.0792 593.479C57 567.809 57 534.206 57 467V251.626Z" fill="url(#paint12_radial_307_421)"/>
</g>
<g filter="url(#filter4_f_307_421)">
<path d="M647.131 81.397C654.152 88.1185 660.114 97.8884 661.022 102.409C661.329 103.939 659.819 103.944 658.819 102.746C656.099 99.4907 650.381 92.9292 643.704 86.5375C636.582 79.7189 626.837 71.5625 623.068 68.1193C622.046 67.1853 622.4 66.469 623.71 66.9158C628.558 68.5679 639.84 74.4163 647.131 81.397Z" fill="url(#paint13_linear_307_421)"/>
</g>
<defs>
<filter id="filter0_dddddi_307_421" x="0" y="0.729584" width="792.811" height="777.082" filterUnits="userSpaceOnUse" color-interpolation-filters="sRGB">
<feFlood flood-opacity="0" result="BackgroundImageFix"/>
<feColorMatrix in="SourceAlpha" type="matrix" values="0 0 0 0 0 0 0 0 0 0 0 0 0 0 0 0 0 0 127 0" result="hardAlpha"/>
<feOffset dx="34.2704" dy="34.2704"/>
<feGaussianBlur stdDeviation="34.2704"/>
<feComposite in2="hardAlpha" operator="out"/>
<feColorMatrix type="matrix" values="0 0 0 0 0 0 0 0 0 0 0 0 0 0 0 0 0 0 0.3 0"/>
<feBlend mode="normal" in2="BackgroundImageFix" result="effect1_dropShadow_307_421"/>
<feColorMatrix in="SourceAlpha" type="matrix" values="0 0 0 0 0 0 0 0 0 0 0 0 0 0 0 0 0 0 127 0" result="hardAlpha"/>
<feOffset dx="8.5676" dy="8.5676"/>
<feGaussianBlur stdDeviation="8.5676"/>
<feComposite in2="hardAlpha" operator="out"/>
<feColorMatrix type="matrix" values="0 0 0 0 0 0 0 0 0 0 0 0 0 0 0 0 0 0 0.2 0"/>
<feBlend mode="normal" in2="effect1_dropShadow_307_421" result="effect2_dropShadow_307_421"/>
<feColorMatrix in="SourceAlpha" type="matrix" values="0 0 0 0 0 0 0 0 0 0 0 0 0 0 0 0 0 0 127 0" result="hardAlpha"/>
<feOffset dx="8.5676" dy="8.5676"/>
<feGaussianBlur stdDeviation="8.5676"/>
<feComposite in2="hardAlpha" operator="out"/>
<feColorMatrix type="matrix" values="0 0 0 0 0 0 0 0 0 0 0 0 0 0 0 0 0 0 0.2 0"/>
<feBlend mode="normal" in2="effect2_dropShadow_307_421" result="effect3_dropShadow_307_421"/>
<feColorMatrix in="SourceAlpha" type="matrix" values="0 0 0 0 0 0 0 0 0 0 0 0 0 0 0 0 0 0 127 0" result="hardAlpha"/>
<feOffset/>
<feGaussianBlur stdDeviation="8.5676"/>
<feComposite in2="hardAlpha" operator="out"/>
<feColorMatrix type="matrix" values="0 0 0 0 0 0 0 0 0 0 0 0 0 0 0 0 0 0 0.2 0"/>
<feBlend mode="normal" in2="effect3_dropShadow_307_421" result="effect4_dropShadow_307_421"/>
<feColorMatrix in="SourceAlpha" type="matrix" values="0 0 0 0 0 0 0 0 0 0 0 0 0 0 0 0 0 0 127 0" result="hardAlpha"/>
<feOffset dy="42.838"/>
<feGaussianBlur stdDeviation="25"/>
<feComposite in2="hardAlpha" operator="out"/>
<feColorMatrix type="matrix" values="0 0 0 0 0.381173 0 0 0 0 0.339444 0 0 0 0 0.433333 0 0 0 1 0"/>
<feBlend mode="normal" in2="effect4_dropShadow_307_421" result="effect5_dropShadow_307_421"/>
<feBlend mode="normal" in="SourceGraphic" in2="effect5_dropShadow_307_421" result="shape"/>
<feColorMatrix in="SourceAlpha" type="matrix" values="0 0 0 0 0 0 0 0 0 0 0 0 0 0 0 0 0 0 127 0" result="hardAlpha"/>
<feMorphology radius="7.71084" operator="erode" in="SourceAlpha" result="effect6_innerShadow_307_421"/>
<feOffset dy="1.71352"/>
<feGaussianBlur stdDeviation="0.42838"/>
<feComposite in2="hardAlpha" operator="arithmetic" k2="-1" k3="1"/>
<feColorMatrix type="matrix" values="0 0 0 0 0 0 0 0 0 0 0 0 0 0 0 0 0 0 1 0"/>
<feBlend mode="normal" in2="shape" result="effect6_innerShadow_307_421"/>
</filter>
<filter id="filter1_if_307_421" x="51.999" y="43" width="617" height="620" filterUnits="userSpaceOnUse" color-interpolation-filters="sRGB">
<feFlood flood-opacity="0" result="BackgroundImageFix"/>
<feBlend mode="normal" in="SourceGraphic" in2="BackgroundImageFix" result="shape"/>
<feColorMatrix in="SourceAlpha" type="matrix" values="0 0 0 0 0 0 0 0 0 0 0 0 0 0 0 0 0 0 127 0" result="hardAlpha"/>
<feMorphology radius="8" operator="dilate" in="SourceAlpha" result="effect1_innerShadow_307_421"/>
<feOffset dy="20"/>
<feGaussianBlur stdDeviation="6"/>
<feComposite in2="hardAlpha" operator="arithmetic" k2="-1" k3="1"/>
<feColorMatrix type="matrix" values="0 0 0 0 1 0 0 0 0 1 0 0 0 0 1 0 0 0 1 0"/>
<feBlend mode="normal" in2="shape" result="effect1_innerShadow_307_421"/>
<feGaussianBlur stdDeviation="0.5" result="effect2_foregroundBlur_307_421"/>
</filter>
<filter id="filter2_if_307_421" x="48.8643" y="41.2865" width="627.849" height="626.427" filterUnits="userSpaceOnUse" color-interpolation-filters="sRGB">
<feFlood flood-opacity="0" result="BackgroundImageFix"/>
<feBlend mode="normal" in="SourceGraphic" in2="BackgroundImageFix" result="shape"/>
<feColorMatrix in="SourceAlpha" type="matrix" values="0 0 0 0 0 0 0 0 0 0 0 0 0 0 0 0 0 0 127 0" result="hardAlpha"/>
<feMorphology radius="14" operator="dilate" in="SourceAlpha" result="effect1_innerShadow_307_421"/>
<feOffset dx="-17.1352"/>
<feGaussianBlur stdDeviation="8.5676"/>
<feComposite in2="hardAlpha" operator="arithmetic" k2="-1" k3="1"/>
<feColorMatrix type="matrix" values="0 0 0 0 1 0 0 0 0 1 0 0 0 0 1 0 0 0 1 0"/>
<feBlend mode="normal" in2="shape" result="effect1_innerShadow_307_421"/>
<feGaussianBlur stdDeviation="0.85676" result="effect2_foregroundBlur_307_421"/>
</filter>
<filter id="filter3_f_307_421" x="55.2865" y="55.576" width="619.427" height="605.137" filterUnits="userSpaceOnUse" color-interpolation-filters="sRGB">
<feFlood flood-opacity="0" result="BackgroundImageFix"/>
<feBlend mode="normal" in="SourceGraphic" in2="BackgroundImageFix" result="shape"/>
<feGaussianBlur stdDeviation="0.85676" result="effect1_foregroundBlur_307_421"/>
</filter>
<filter id="filter4_f_307_421" x="620.762" y="65.0658" width="42.0142" height="40.2522" filterUnits="userSpaceOnUse" color-interpolation-filters="sRGB">
<feFlood flood-opacity="0" result="BackgroundImageFix"/>
<feBlend mode="normal" in="SourceGraphic" in2="BackgroundImageFix" result="shape"/>
<feGaussianBlur stdDeviation="0.85676" result="effect1_foregroundBlur_307_421"/>
</filter>
<radialGradient id="paint0_radial_307_421" cx="0" cy="0" r="1" gradientUnits="userSpaceOnUse" gradientTransform="translate(122.396 661.292) rotate(-62.354) scale(10.1554 127.286)">
<stop stop-color="white"/>
<stop offset="1" stop-color="white" stop-opacity="0"/>
</radialGradient>
<radialGradient id="paint1_radial_307_421" cx="0" cy="0" r="1" gradientUnits="userSpaceOnUse" gradientTransform="translate(113.829 657.008) rotate(-53.1302) scale(10.7095 134.231)">
<stop stop-color="white"/>
<stop offset="1" stop-color="white" stop-opacity="0"/>
</radialGradient>
<radialGradient id="paint2_radial_307_421" cx="0" cy="0" r="1" gradientUnits="userSpaceOnUse" gradientTransform="translate(624.458 661.72) rotate(-124.875) scale(17.2313 215.974)">
<stop stop-color="white"/>
<stop offset="1" stop-color="white" stop-opacity="0"/>
</radialGradient>
<radialGradient id="paint3_radial_307_421" cx="0" cy="0" r="1" gradientUnits="userSpaceOnUse" gradientTransform="translate(662.155 670.288) rotate(-134.61) scale(44.5288 558.116)">
<stop stop-color="white"/>
<stop offset="1" stop-color="white" stop-opacity="0"/>
</radialGradient>
<linearGradient id="paint4_linear_307_421" x1="65.0718" y1="103.499" x2="638.938" y2="103.499" gradientUnits="userSpaceOnUse">
<stop stop-color="#101010" stop-opacity="0"/>
<stop offset="0.177346" stop-color="#101010"/>
<stop offset="0.772512" stop-color="#101010"/>
<stop offset="1" stop-color="#101010" stop-opacity="0"/>
</linearGradient>
<linearGradient id="paint5_linear_307_421" x1="363.43" y1="31.4965" x2="363.43" y2="68.5758" gradientUnits="userSpaceOnUse">
<stop stop-color="#101010"/>
<stop offset="1" stop-color="#101010" stop-opacity="0"/>
</linearGradient>
<linearGradient id="paint6_linear_307_421" x1="705.326" y1="147.411" x2="590.518" y2="147.411" gradientUnits="userSpaceOnUse">
<stop stop-color="#101010"/>
<stop offset="1" stop-color="#101010" stop-opacity="0"/>
</linearGradient>
<radialGradient id="paint7_radial_307_421" cx="0" cy="0" r="1" gradientUnits="userSpaceOnUse" gradientTransform="translate(579.186 26.4452) rotate(105.498) scale(44.8875 192.657)">
<stop stop-color="white"/>
<stop offset="1" stop-color="white" stop-opacity="0"/>
</radialGradient>
<radialGradient id="paint8_radial_307_421" cx="0" cy="0" r="1" gradientUnits="userSpaceOnUse" gradientTransform="translate(602.747 26.4451) rotate(110.204) scale(48.3732 207.612)">
<stop stop-color="white"/>
<stop offset="1" stop-color="white" stop-opacity="0"/>
</radialGradient>
<radialGradient id="paint9_radial_307_421" cx="0" cy="0" r="1" gradientUnits="userSpaceOnUse" gradientTransform="translate(564.193 48.7152) rotate(98.4731) scale(20.3508 87.3476)">
<stop stop-color="white"/>
<stop offset="1" stop-color="white" stop-opacity="0"/>
</radialGradient>
<radialGradient id="paint10_radial_307_421" cx="0" cy="0" r="1" gradientUnits="userSpaceOnUse" gradientTransform="translate(579.186 26.0169) rotate(97.2549) scale(47.4899 203.832)">
<stop stop-color="white"/>
<stop offset="1" stop-color="white" stop-opacity="0"/>
</radialGradient>
<radialGradient id="paint11_radial_307_421" cx="0" cy="0" r="1" gradientUnits="userSpaceOnUse" gradientTransform="translate(602.318 26.8734) rotate(109.9) scale(47.8239 205.256)">
<stop stop-color="white"/>
<stop offset="1" stop-color="white" stop-opacity="0"/>
</radialGradient>
<radialGradient id="paint12_radial_307_421" cx="0" cy="0" r="1" gradientUnits="userSpaceOnUse" gradientTransform="translate(561.195 50) rotate(90.0001) scale(17.9873 77.2042)">
<stop stop-color="white"/>
<stop offset="1" stop-color="white" stop-opacity="0"/>
</radialGradient>
<linearGradient id="paint13_linear_307_421" x1="611.147" y1="60.4063" x2="663.838" y2="108.385" gradientUnits="userSpaceOnUse">
<stop stop-color="#D9D9D9" stop-opacity="0.11"/>
<stop offset="0.515661" stop-color="#D9D9D9"/>
<stop offset="1" stop-color="#D9D9D9" stop-opacity="0"/>
</linearGradient>
</defs>
</svg>
