<svg width="150" height="150" viewBox="0 0 793 778" fill="none" xmlns="http://www.w3.org/2000/svg">
<g filter="url(#filter0_dddddi_307_389)">
<rect x="50" y="35" width="640" height="640" rx="130" fill="black"/>
<rect x="50" y="35" width="640" height="640" rx="130" fill="url(#paint0_radial_307_389)"/>
<rect x="50" y="35" width="640" height="640" rx="130" fill="url(#paint1_radial_307_389)"/>
<rect x="50" y="35" width="640" height="640" rx="130" fill="url(#paint2_radial_307_389)"/>
<rect x="50" y="35" width="640" height="640" rx="130" fill="url(#paint3_radial_307_389)"/>
</g>
<mask id="mask0_307_389" style="mask-type:alpha" maskUnits="userSpaceOnUse" x="52" y="44" width="621" height="620">
<rect x="52.9996" y="44" width="620" height="620" rx="122" fill="url(#paint4_linear_307_389)"/>
</mask>
<g mask="url(#mask0_307_389)">
<mask id="mask1_307_389" style="mask-type:alpha" maskUnits="userSpaceOnUse" x="52" y="44" width="621" height="620">
<rect x="52.9993" y="44" width="620" height="620" rx="122" fill="url(#paint5_linear_307_389)"/>
</mask>
<g mask="url(#mask1_307_389)">
<g filter="url(#filter1_if_307_389)">
<rect x="52.9993" y="44" width="615" height="615" rx="122" fill="#101010"/>
</g>
</g>
</g>
<mask id="mask2_307_389" style="mask-type:alpha" maskUnits="userSpaceOnUse" x="51" y="43" width="624" height="623">
<rect x="51.9998" y="43" width="623" height="623" rx="122.517" fill="url(#paint6_linear_307_389)"/>
</mask>
<g mask="url(#mask2_307_389)">
<g filter="url(#filter2_if_307_389)">
<rect x="51.9998" y="43" width="623" height="623" rx="122.517" fill="#101010"/>
</g>
</g>
<g clip-path="url(#clip0_307_389)">
<path d="M420.483 529.694L540.75 506.929C540.75 506.929 497.35 250 497 248.367C496.767 246.821 495.283 245.625 493.483 245.567C491.817 245.567 461.333 243.583 461.333 243.583C461.333 243.583 440.083 225.004 437.35 223.006C436.783 222.554 436.117 222.19 435.383 221.942L435.333 221.927L420.1 529.635H420.483V529.694ZM360.033 344.865C351.4 341.131 341.267 338.871 330.533 338.681H330.467C306.35 338.681 305.467 351.894 305.467 355.321C305.467 373.288 359.467 380.331 359.467 422.827C359.467 456.369 335.467 477.66 302.7 477.66C302.033 477.675 301.267 477.69 300.483 477.69C278.133 477.69 257.983 469.479 243.733 456.325L243.7 456.296L254.467 425.875C264.8 433.808 277.75 439.335 292.033 441.377L292.467 441.421C292.617 441.421 292.8 441.435 292.983 441.435C301.6 441.435 308.6 435.369 308.717 427.844V427.829C308.717 404.219 264.483 403.125 264.483 364.26C263.85 331.667 290.6 299.86 344.867 299.86C345.9 299.817 347.1 299.787 348.3 299.787C358.383 299.787 367.95 301.756 376.517 305.285L376.117 305.14L360.367 344.806L360.033 344.952V344.865ZM351.033 192.104C353.55 192.119 355.867 192.848 357.733 194.087L357.7 194.073C341.383 200.854 323.383 217.917 315.983 252.29C305.05 255.396 294.433 258.196 284.5 260.719C293.2 234.687 314.05 192.25 351.033 192.25V192.104ZM371.533 235.11V237.079C358.967 240.462 345.15 244.137 331.633 247.812C335.2 229.044 348.217 213.44 366.183 204.646L366.533 204.485C369.833 212.71 371.75 222.204 371.75 232.077C371.75 233.142 371.733 234.206 371.683 235.256V235.11H371.533ZM380.517 202.531C392.083 203.61 399.533 215.175 404.333 228.125C398.517 229.787 392.083 231.494 385.033 233.462V229.787C385.05 229.219 385.067 228.548 385.067 227.862C385.067 218.806 383.4 210.071 380.333 201.919L380.517 202.502V202.531ZM430.383 221.329C430.05 221.329 429.383 221.635 429.083 221.635C428.783 221.635 424.267 222.729 417.183 224.698C410.133 206.717 397.583 190.135 375.383 190.135H373.467C368.733 184.317 361.233 180.437 352.683 180H352.617C300.85 180 276.117 236.54 268.367 265.254C248.467 270.577 233.983 274.529 232.367 275.083C221.117 278.19 220.8 278.467 219.5 287.771C218.25 294.508 189 492.856 189 492.856L415.017 530L430.467 221.329H430.383Z" fill="#fff"/>
</g>
<g filter="url(#filter3_f_307_389)">
<path d="M57.0001 251.626C57.0001 181.392 57.0001 146.274 70.89 119.975C83.0997 96.8569 102.525 78.3588 126.212 67.2937C153.159 54.706 188.235 56.4225 258.385 59.8556L363.287 64.9895L471.719 59.7416C541.837 56.348 576.896 54.6512 603.829 67.2448C627.504 78.315 646.918 96.8118 659.119 119.924C673 146.216 673 181.317 673 251.517V467C673 534.206 673 567.809 659.921 593.479C648.416 616.058 630.058 634.416 607.479 645.921C581.81 659 548.206 659 481 659H249C181.794 659 148.191 659 122.521 645.921C99.9418 634.416 81.5841 616.058 70.0793 593.479C57.0001 567.809 57.0001 534.206 57.0001 467V251.626Z" fill="url(#paint7_radial_307_389)"/>
<path d="M57.0001 251.626C57.0001 181.392 57.0001 146.274 70.89 119.975C83.0997 96.8569 102.525 78.3588 126.212 67.2937C153.159 54.706 188.235 56.4225 258.385 59.8556L363.287 64.9895L471.719 59.7416C541.837 56.348 576.896 54.6512 603.829 67.2448C627.504 78.315 646.918 96.8118 659.119 119.924C673 146.216 673 181.317 673 251.517V467C673 534.206 673 567.809 659.921 593.479C648.416 616.058 630.058 634.416 607.479 645.921C581.81 659 548.206 659 481 659H249C181.794 659 148.191 659 122.521 645.921C99.9418 634.416 81.5841 616.058 70.0793 593.479C57.0001 567.809 57.0001 534.206 57.0001 467V251.626Z" fill="url(#paint8_radial_307_389)"/>
<path d="M57.0001 251.626C57.0001 181.392 57.0001 146.274 70.89 119.975C83.0997 96.8569 102.525 78.3588 126.212 67.2937C153.159 54.706 188.235 56.4225 258.385 59.8556L363.287 64.9895L471.719 59.7416C541.837 56.348 576.896 54.6512 603.829 67.2448C627.504 78.315 646.918 96.8118 659.119 119.924C673 146.216 673 181.317 673 251.517V467C673 534.206 673 567.809 659.921 593.479C648.416 616.058 630.058 634.416 607.479 645.921C581.81 659 548.206 659 481 659H249C181.794 659 148.191 659 122.521 645.921C99.9418 634.416 81.5841 616.058 70.0793 593.479C57.0001 567.809 57.0001 534.206 57.0001 467V251.626Z" fill="url(#paint9_radial_307_389)"/>
<path d="M57.0001 251.626C57.0001 181.392 57.0001 146.274 70.89 119.975C83.0997 96.8569 102.525 78.3588 126.212 67.2937C153.159 54.706 188.235 56.4225 258.385 59.8556L363.287 64.9895L471.719 59.7416C541.837 56.348 576.896 54.6512 603.829 67.2448C627.504 78.315 646.918 96.8118 659.119 119.924C673 146.216 673 181.317 673 251.517V467C673 534.206 673 567.809 659.921 593.479C648.416 616.058 630.058 634.416 607.479 645.921C581.81 659 548.206 659 481 659H249C181.794 659 148.191 659 122.521 645.921C99.9418 634.416 81.5841 616.058 70.0793 593.479C57.0001 567.809 57.0001 534.206 57.0001 467V251.626Z" fill="url(#paint10_radial_307_389)"/>
<path d="M57.0001 251.626C57.0001 181.392 57.0001 146.274 70.89 119.975C83.0997 96.8569 102.525 78.3588 126.212 67.2937C153.159 54.706 188.235 56.4225 258.385 59.8556L363.287 64.9895L471.719 59.7416C541.837 56.348 576.896 54.6512 603.829 67.2448C627.504 78.315 646.918 96.8118 659.119 119.924C673 146.216 673 181.317 673 251.517V467C673 534.206 673 567.809 659.921 593.479C648.416 616.058 630.058 634.416 607.479 645.921C581.81 659 548.206 659 481 659H249C181.794 659 148.191 659 122.521 645.921C99.9418 634.416 81.5841 616.058 70.0793 593.479C57.0001 567.809 57.0001 534.206 57.0001 467V251.626Z" fill="url(#paint11_radial_307_389)"/>
<path d="M57.0001 251.626C57.0001 181.392 57.0001 146.274 70.89 119.975C83.0997 96.8569 102.525 78.3588 126.212 67.2937C153.159 54.706 188.235 56.4225 258.385 59.8556L363.287 64.9895L471.719 59.7416C541.837 56.348 576.896 54.6512 603.829 67.2448C627.504 78.315 646.918 96.8118 659.119 119.924C673 146.216 673 181.317 673 251.517V467C673 534.206 673 567.809 659.921 593.479C648.416 616.058 630.058 634.416 607.479 645.921C581.81 659 548.206 659 481 659H249C181.794 659 148.191 659 122.521 645.921C99.9418 634.416 81.5841 616.058 70.0793 593.479C57.0001 567.809 57.0001 534.206 57.0001 467V251.626Z" fill="url(#paint12_radial_307_389)"/>
</g>
<g filter="url(#filter4_f_307_389)">
<path d="M647.131 81.397C654.152 88.1185 660.114 97.8884 661.022 102.409C661.329 103.939 659.819 103.944 658.819 102.746C656.1 99.4907 650.381 92.9292 643.704 86.5375C636.582 79.7189 626.838 71.5625 623.069 68.1193C622.046 67.1853 622.4 66.469 623.711 66.9158C628.558 68.5679 639.84 74.4163 647.131 81.397Z" fill="url(#paint13_linear_307_389)"/>
</g>
<defs>
<filter id="filter0_dddddi_307_389" x="0" y="0.729584" width="792.811" height="777.082" filterUnits="userSpaceOnUse" color-interpolation-filters="sRGB">
<feFlood flood-opacity="0" result="BackgroundImageFix"/>
<feColorMatrix in="SourceAlpha" type="matrix" values="0 0 0 0 0 0 0 0 0 0 0 0 0 0 0 0 0 0 127 0" result="hardAlpha"/>
<feOffset dx="34.2704" dy="34.2704"/>
<feGaussianBlur stdDeviation="34.2704"/>
<feComposite in2="hardAlpha" operator="out"/>
<feColorMatrix type="matrix" values="0 0 0 0 0 0 0 0 0 0 0 0 0 0 0 0 0 0 0.3 0"/>
<feBlend mode="normal" in2="BackgroundImageFix" result="effect1_dropShadow_307_389"/>
<feColorMatrix in="SourceAlpha" type="matrix" values="0 0 0 0 0 0 0 0 0 0 0 0 0 0 0 0 0 0 127 0" result="hardAlpha"/>
<feOffset dx="8.5676" dy="8.5676"/>
<feGaussianBlur stdDeviation="8.5676"/>
<feComposite in2="hardAlpha" operator="out"/>
<feColorMatrix type="matrix" values="0 0 0 0 0 0 0 0 0 0 0 0 0 0 0 0 0 0 0.2 0"/>
<feBlend mode="normal" in2="effect1_dropShadow_307_389" result="effect2_dropShadow_307_389"/>
<feColorMatrix in="SourceAlpha" type="matrix" values="0 0 0 0 0 0 0 0 0 0 0 0 0 0 0 0 0 0 127 0" result="hardAlpha"/>
<feOffset dx="8.5676" dy="8.5676"/>
<feGaussianBlur stdDeviation="8.5676"/>
<feComposite in2="hardAlpha" operator="out"/>
<feColorMatrix type="matrix" values="0 0 0 0 0 0 0 0 0 0 0 0 0 0 0 0 0 0 0.2 0"/>
<feBlend mode="normal" in2="effect2_dropShadow_307_389" result="effect3_dropShadow_307_389"/>
<feColorMatrix in="SourceAlpha" type="matrix" values="0 0 0 0 0 0 0 0 0 0 0 0 0 0 0 0 0 0 127 0" result="hardAlpha"/>
<feOffset/>
<feGaussianBlur stdDeviation="8.5676"/>
<feComposite in2="hardAlpha" operator="out"/>
<feColorMatrix type="matrix" values="0 0 0 0 0 0 0 0 0 0 0 0 0 0 0 0 0 0 0.2 0"/>
<feBlend mode="normal" in2="effect3_dropShadow_307_389" result="effect4_dropShadow_307_389"/>
<feColorMatrix in="SourceAlpha" type="matrix" values="0 0 0 0 0 0 0 0 0 0 0 0 0 0 0 0 0 0 127 0" result="hardAlpha"/>
<feOffset dy="42.838"/>
<feGaussianBlur stdDeviation="25"/>
<feComposite in2="hardAlpha" operator="out"/>
<feColorMatrix type="matrix" values="0 0 0 0 0.381173 0 0 0 0 0.339444 0 0 0 0 0.433333 0 0 0 1 0"/>
<feBlend mode="normal" in2="effect4_dropShadow_307_389" result="effect5_dropShadow_307_389"/>
<feBlend mode="normal" in="SourceGraphic" in2="effect5_dropShadow_307_389" result="shape"/>
<feColorMatrix in="SourceAlpha" type="matrix" values="0 0 0 0 0 0 0 0 0 0 0 0 0 0 0 0 0 0 127 0" result="hardAlpha"/>
<feMorphology radius="7.71084" operator="erode" in="SourceAlpha" result="effect6_innerShadow_307_389"/>
<feOffset dy="1.71352"/>
<feGaussianBlur stdDeviation="0.42838"/>
<feComposite in2="hardAlpha" operator="arithmetic" k2="-1" k3="1"/>
<feColorMatrix type="matrix" values="0 0 0 0 0 0 0 0 0 0 0 0 0 0 0 0 0 0 1 0"/>
<feBlend mode="normal" in2="shape" result="effect6_innerShadow_307_389"/>
</filter>
<filter id="filter1_if_307_389" x="51.9993" y="43" width="617" height="620" filterUnits="userSpaceOnUse" color-interpolation-filters="sRGB">
<feFlood flood-opacity="0" result="BackgroundImageFix"/>
<feBlend mode="normal" in="SourceGraphic" in2="BackgroundImageFix" result="shape"/>
<feColorMatrix in="SourceAlpha" type="matrix" values="0 0 0 0 0 0 0 0 0 0 0 0 0 0 0 0 0 0 127 0" result="hardAlpha"/>
<feMorphology radius="8" operator="dilate" in="SourceAlpha" result="effect1_innerShadow_307_389"/>
<feOffset dy="20"/>
<feGaussianBlur stdDeviation="6"/>
<feComposite in2="hardAlpha" operator="arithmetic" k2="-1" k3="1"/>
<feColorMatrix type="matrix" values="0 0 0 0 1 0 0 0 0 1 0 0 0 0 1 0 0 0 1 0"/>
<feBlend mode="normal" in2="shape" result="effect1_innerShadow_307_389"/>
<feGaussianBlur stdDeviation="0.5" result="effect2_foregroundBlur_307_389"/>
</filter>
<filter id="filter2_if_307_389" x="48.8645" y="41.2865" width="627.849" height="626.427" filterUnits="userSpaceOnUse" color-interpolation-filters="sRGB">
<feFlood flood-opacity="0" result="BackgroundImageFix"/>
<feBlend mode="normal" in="SourceGraphic" in2="BackgroundImageFix" result="shape"/>
<feColorMatrix in="SourceAlpha" type="matrix" values="0 0 0 0 0 0 0 0 0 0 0 0 0 0 0 0 0 0 127 0" result="hardAlpha"/>
<feMorphology radius="14" operator="dilate" in="SourceAlpha" result="effect1_innerShadow_307_389"/>
<feOffset dx="-17.1352"/>
<feGaussianBlur stdDeviation="8.5676"/>
<feComposite in2="hardAlpha" operator="arithmetic" k2="-1" k3="1"/>
<feColorMatrix type="matrix" values="0 0 0 0 1 0 0 0 0 1 0 0 0 0 1 0 0 0 1 0"/>
<feBlend mode="normal" in2="shape" result="effect1_innerShadow_307_389"/>
<feGaussianBlur stdDeviation="0.85676" result="effect2_foregroundBlur_307_389"/>
</filter>
<filter id="filter3_f_307_389" x="55.2866" y="55.5763" width="619.427" height="605.137" filterUnits="userSpaceOnUse" color-interpolation-filters="sRGB">
<feFlood flood-opacity="0" result="BackgroundImageFix"/>
<feBlend mode="normal" in="SourceGraphic" in2="BackgroundImageFix" result="shape"/>
<feGaussianBlur stdDeviation="0.85676" result="effect1_foregroundBlur_307_389"/>
</filter>
<filter id="filter4_f_307_389" x="620.762" y="65.066" width="42.0142" height="40.252" filterUnits="userSpaceOnUse" color-interpolation-filters="sRGB">
<feFlood flood-opacity="0" result="BackgroundImageFix"/>
<feBlend mode="normal" in="SourceGraphic" in2="BackgroundImageFix" result="shape"/>
<feGaussianBlur stdDeviation="0.85676" result="effect1_foregroundBlur_307_389"/>
</filter>
<radialGradient id="paint0_radial_307_389" cx="0" cy="0" r="1" gradientUnits="userSpaceOnUse" gradientTransform="translate(122.396 661.292) rotate(-62.354) scale(10.1554 127.286)">
<stop stop-color="white"/>
<stop offset="1" stop-color="white" stop-opacity="0"/>
</radialGradient>
<radialGradient id="paint1_radial_307_389" cx="0" cy="0" r="1" gradientUnits="userSpaceOnUse" gradientTransform="translate(113.829 657.008) rotate(-53.1302) scale(10.7095 134.231)">
<stop stop-color="white"/>
<stop offset="1" stop-color="white" stop-opacity="0"/>
</radialGradient>
<radialGradient id="paint2_radial_307_389" cx="0" cy="0" r="1" gradientUnits="userSpaceOnUse" gradientTransform="translate(624.458 661.72) rotate(-124.875) scale(17.2313 215.974)">
<stop stop-color="white"/>
<stop offset="1" stop-color="white" stop-opacity="0"/>
</radialGradient>
<radialGradient id="paint3_radial_307_389" cx="0" cy="0" r="1" gradientUnits="userSpaceOnUse" gradientTransform="translate(662.155 670.288) rotate(-134.61) scale(44.5288 558.116)">
<stop stop-color="white"/>
<stop offset="1" stop-color="white" stop-opacity="0"/>
</radialGradient>
<linearGradient id="paint4_linear_307_389" x1="65.072" y1="103.499" x2="638.938" y2="103.499" gradientUnits="userSpaceOnUse">
<stop stop-color="#101010" stop-opacity="0"/>
<stop offset="0.177346" stop-color="#101010"/>
<stop offset="0.772512" stop-color="#101010"/>
<stop offset="1" stop-color="#101010" stop-opacity="0"/>
</linearGradient>
<linearGradient id="paint5_linear_307_389" x1="363.43" y1="31.4965" x2="363.43" y2="68.5758" gradientUnits="userSpaceOnUse">
<stop stop-color="#101010"/>
<stop offset="1" stop-color="#101010" stop-opacity="0"/>
</linearGradient>
<linearGradient id="paint6_linear_307_389" x1="705.327" y1="147.411" x2="590.518" y2="147.411" gradientUnits="userSpaceOnUse">
<stop stop-color="#101010"/>
<stop offset="1" stop-color="#101010" stop-opacity="0"/>
</linearGradient>
<radialGradient id="paint7_radial_307_389" cx="0" cy="0" r="1" gradientUnits="userSpaceOnUse" gradientTransform="translate(579.186 26.4452) rotate(105.498) scale(44.8875 192.657)">
<stop stop-color="white"/>
<stop offset="1" stop-color="white" stop-opacity="0"/>
</radialGradient>
<radialGradient id="paint8_radial_307_389" cx="0" cy="0" r="1" gradientUnits="userSpaceOnUse" gradientTransform="translate(602.747 26.4451) rotate(110.204) scale(48.3732 207.612)">
<stop stop-color="white"/>
<stop offset="1" stop-color="white" stop-opacity="0"/>
</radialGradient>
<radialGradient id="paint9_radial_307_389" cx="0" cy="0" r="1" gradientUnits="userSpaceOnUse" gradientTransform="translate(564.193 48.7152) rotate(98.4731) scale(20.3508 87.3476)">
<stop stop-color="white"/>
<stop offset="1" stop-color="white" stop-opacity="0"/>
</radialGradient>
<radialGradient id="paint10_radial_307_389" cx="0" cy="0" r="1" gradientUnits="userSpaceOnUse" gradientTransform="translate(579.186 26.0169) rotate(97.2549) scale(47.4899 203.832)">
<stop stop-color="white"/>
<stop offset="1" stop-color="white" stop-opacity="0"/>
</radialGradient>
<radialGradient id="paint11_radial_307_389" cx="0" cy="0" r="1" gradientUnits="userSpaceOnUse" gradientTransform="translate(602.319 26.8734) rotate(109.9) scale(47.8239 205.256)">
<stop stop-color="white"/>
<stop offset="1" stop-color="white" stop-opacity="0"/>
</radialGradient>
<radialGradient id="paint12_radial_307_389" cx="0" cy="0" r="1" gradientUnits="userSpaceOnUse" gradientTransform="translate(561.195 50) rotate(90.0001) scale(17.9873 77.2042)">
<stop stop-color="white"/>
<stop offset="1" stop-color="white" stop-opacity="0"/>
</radialGradient>
<linearGradient id="paint13_linear_307_389" x1="611.147" y1="60.4063" x2="663.838" y2="108.385" gradientUnits="userSpaceOnUse">
<stop stop-color="#fff" stop-opacity="0.11"/>
<stop offset="0.515661" stop-color="#fff"/>
<stop offset="1" stop-color="#fff" stop-opacity="0"/>
</linearGradient>
<clipPath id="clip0_307_389">
<rect width="350" height="350" fill="white" transform="translate(189 180)"/>
</clipPath>
</defs>
</svg>
