<svg xmlns="http://www.w3.org/2000/svg" fill="none" viewBox="0 0 110 110" height="100" width="100">
  <path fill="#FEB100" d="M25.586 96.085C25.586 96.085 28.9355 82.192 52.0685 81.9005C75.5315 81.6035 80.6685 89.65 81.466 96.085H25.586Z"></path>
  <path fill="#9A8175" d="M53.9715 96.085C53.9715 96.085 53.922 92.202 53.9715 91.3055C53.9715 91.3055 51.1225 90.937 50.028 90.9535C50.2002 91.5139 50.3127 92.0909 50.3635 92.675C50.3635 92.675 45.5015 93.456 44.517 94.193C44 94.6 44 96.085 44 96.085H53.9715Z"></path>
  <path fill="#9A8175" d="M47.5035 68.3045C47.5035 68.3045 47.6245 74.3545 48.235 76.1365C48.8455 77.9185 49.2855 80.0745 51.535 81.268C51.5633 82.2268 51.4522 83.1847 51.205 84.1115C51.5543 84.521 51.9846 84.8538 52.4688 85.0889C52.953 85.3239 53.4806 85.4562 54.0184 85.4774C54.5562 85.4986 55.0926 85.4082 55.5938 85.2119C56.095 85.0157 56.5501 84.7178 56.9305 84.337C56.7525 83.2298 56.7118 82.1047 56.8095 80.9875C57.6574 80.4836 58.3782 79.7915 58.916 78.9647C59.4539 78.1378 59.7945 77.1984 59.9115 76.219C60.401 72.7705 60.5 68.8105 60.258 67.8975C59.2075 67.8669 58.1789 67.59 57.255 67.089C55.957 66.297 55.3355 62.8595 52.305 62.689C52.305 62.689 52.2555 64.6305 51.48 65.725C50.7045 66.8195 48.191 66.55 47.5035 68.3045Z"></path>
  <path fill="#ffffff" d="M81.4 41.5525C81.147 41.1565 81.906 37.752 81.95 37.0095C81.95 37.0095 78.4025 36.916 76.45 34.342C76.45 34.342 73.8485 35.75 71.203 34.6775C71.203 34.6775 70.0645 39.8695 69.751 41.3655C69.4375 42.8615 68.816 47.2505 71.984 48.8785C71.984 48.8785 71.841 50.1655 71.643 51.3095C70.213 47.322 65.538 36.795 56.375 37.8015C56.1843 36.8783 56.1583 35.9287 56.298 34.9965C56.298 34.9965 59.51 34.2705 60.39 29.645C60.9013 26.4911 60.9384 23.2784 60.5 20.1135C59.4467 20.0073 58.3853 20.0073 57.332 20.1135C55.7205 20.3005 55.176 21.0265 53.834 21.0595C52.492 21.0925 51.634 20.449 50.0995 20.5755C48.565 20.702 47.3495 22.5225 47.168 24.255C47.168 24.255 43.956 24.6125 44.187 26.4055C44.418 28.1985 46.6785 28.1655 46.6785 28.1655C46.6785 28.1655 47.663 32.8185 50.303 34.7655C50.93 35.233 51.106 34.7655 50.5615 37.884C50.5615 37.884 44.572 36.234 36.9765 45.386L36.839 45.551C36.839 44.6765 36.839 43.7305 36.74 42.6965C36.3275 36.707 34.54 36.6465 34.54 36.6465C32.934 37.829 26.7135 38.6265 26.2295 39.0225C25.7455 39.4185 25.6795 43.175 25.6795 43.175C24.7005 42.889 22.5445 43.131 22.473 44.825C22.4015 46.519 24.673 47.201 24.673 47.201C24.6687 48.2994 24.9306 49.3826 25.4363 50.3577C25.9421 51.3328 26.6766 52.1708 27.577 52.8C27.698 53.471 27.027 56.617 27.027 56.617C27.027 56.617 28.842 58.3605 30.4315 58.3935C31.7955 58.421 33.231 56.6555 33.154 56.3695C34.8624 56.0396 36.6287 56.188 38.258 56.7985C38.258 56.7985 41.558 53.196 41.855 53.328C42.152 53.46 40.9805 58.6135 40.9805 58.6135C42.0849 59.7905 43.0332 61.1048 43.802 62.524C43.4506 62.7291 43.1471 63.007 42.9118 63.339C42.6766 63.671 42.515 64.0495 42.438 64.449C41.635 67.144 43.538 68.42 43.6315 70.2295C43.6865 71.522 42.8615 72.831 43.4115 74.195C44.4125 76.681 48.18 76.0925 48.18 76.0925C48.037 75.5425 47.3495 69.8885 47.531 68.2825C47.7125 66.6765 50.1105 66.88 51.106 66.1705C51.3095 66.0275 52.349 64.8945 52.349 62.689C52.349 62.689 54.3015 62.139 56.9415 66.924C57.376 67.7105 60.291 67.8755 60.291 67.8755C60.6595 70.169 59.8235 76.7305 59.8235 76.7305C62.4855 77.4565 62.8925 74.9705 63.7285 73.9805C64.2785 73.2985 66.0825 73.1555 66.1155 70.796C66.1155 68.992 65.3565 67.6885 65.164 66.429C64.9715 65.1695 65.384 63.206 64.3005 61.886C63.217 60.566 59.7135 57.5355 59.763 57.486C62.656 54.703 66.5335 52.404 71.313 52.7065C71.2827 52.8032 71.2402 52.8956 71.1865 52.9815C71.8382 53.6458 72.712 54.0463 73.6407 54.1061C74.5693 54.166 75.4874 53.8811 76.219 53.306C76.219 53.306 76.263 50.182 76.5325 49.643C76.5325 49.643 79.42 48.543 80.8995 44.693C80.8995 44.693 83.7155 45.0175 83.721 43.637C83.721 41.7615 81.631 41.9485 81.4 41.5525Z"></path>
  <path fill="#ffffff" d="M41.3215 80.135C41.4665 79.8162 41.724 79.562 42.0446 79.421C42.3652 79.28 42.7265 79.262 43.0595 79.3705C43.0595 79.3705 43.758 78.496 44.99 79.2935C44.99 79.2935 46.057 78.881 46.64 79.5465C47.223 80.212 47.399 80.421 47.7785 80.5915C48.158 80.762 49.5275 80.619 49.137 82.2415C48.6915 84.0675 47.487 83.8915 47.6575 82.7145C47.806 81.785 45.969 82.005 45.892 82.3845C45.848 82.61 45.628 85.1895 45.1495 85.228C44.671 85.2665 44.561 84.678 44.561 84.678C44.561 84.678 43.945 86.2235 43.3675 84.755C43.3675 84.755 42.3445 86.339 41.756 84.678C41.756 84.678 40.656 86.3555 40.106 83.842C39.556 81.3285 39.908 79.343 41.3215 80.135Z"></path>
  <path fill="#ffffff" d="M102.393 90.5575C101.944 90.4589 101.483 90.4219 101.024 90.4475C101.024 90.4475 101.128 86.5975 100.991 86.4655C100.383 86.3632 99.7646 86.3282 99.1485 86.361C99.352 81.961 97.658 83.2315 97.658 83.2315C96.998 81.906 96.1345 82.577 96.1345 82.577C95.5845 81.6035 94.3965 82.643 94.3965 82.643C93.214 81.73 92.334 84.359 92.0205 84.3865C91.7874 84.3907 91.5577 84.4431 91.3459 84.5405C91.1341 84.6378 90.9447 84.7779 90.7897 84.952C90.6347 85.1262 90.5174 85.3305 90.4453 85.5522C90.3731 85.7738 90.3477 86.008 90.3705 86.24C88.561 86.24 82.0435 86.295 81.9775 86.383C81.8422 87.7168 81.7962 89.0581 81.84 90.398C81.84 90.398 79.497 90.343 79.4365 90.6345C79.376 90.926 79.3155 96.074 79.3155 96.074H102.415C102.415 96.074 102.558 90.695 102.393 90.5575Z"></path>
  <path fill="#ffffff" d="M11.451 93.423C11.451 93.423 12.166 92.103 13.046 92.686C13.046 92.686 13.596 91.7675 14.7675 92.6365C14.7675 92.6365 15.4935 92.125 16.3075 93.0325C17.1215 93.94 17.072 94.1325 17.4075 94.248C17.6086 94.2618 17.8049 94.3157 17.9848 94.4067C18.1647 94.4977 18.3245 94.6238 18.4548 94.7777C18.585 94.9316 18.6831 95.11 18.7432 95.3024C18.8032 95.4948 18.8241 95.6974 18.8045 95.898C18.8045 97.394 18.557 97.603 18.2545 97.625C17.512 97.691 17.578 96.206 17.259 96.063C16.7096 95.9843 16.1504 96.0066 15.609 96.129C15.609 96.129 15.3835 98.384 14.9325 98.417C14.81 98.4339 14.6856 98.4043 14.5838 98.3341C14.482 98.2638 14.4102 98.158 14.3825 98.0375C14.3825 98.0375 13.915 99.1375 13.2825 98.0375C13.2825 98.0375 12.463 99.484 11.836 97.867C11.836 97.867 11.286 99.0715 10.5985 97.4985C9.911 95.9255 9.9 92.499 11.451 93.423Z"></path>
  <path fill="#FEB100" d="M86.4215 86.383H83.721V90.4035H86.4215V86.383Z"></path>
  <path fill="#FEB100" d="M99.4015 86.6305V90.4805H96.8275V89.1825C97.3335 89.32 97.7185 88.6875 97.746 88.6325C97.8117 88.7329 97.9031 88.8138 98.0107 88.8669C98.1183 88.9199 98.2381 88.9432 98.3577 88.9342C98.4774 88.9252 98.5924 88.8843 98.6908 88.8158C98.7893 88.7472 98.8676 88.6536 98.9175 88.5445C99.2042 87.9449 99.3687 87.2943 99.4015 86.6305V86.6305Z"></path>
  <path fill="#ffffff" d="M22.396 29.205C22.396 29.205 21.2245 28.941 21.626 30.5745C22.0275 32.208 23.705 34.0285 24.2 33.7755C24.695 33.5225 24.3485 32.714 24.3485 32.714C24.3485 32.714 24.772 33.187 25.2395 32.9945C25.707 32.802 28.5945 31.9605 29.403 31.229C29.403 31.229 25.7565 22.9295 25.52 22.572C25.2835 22.2145 25.058 21.6535 24.3485 21.769C23.639 21.8845 24.035 22.9955 24.123 23.2045C24.211 23.4135 25.905 27.082 25.85 27.1865C25.795 27.291 24.8325 27.8575 24.75 27.7365C24.6675 27.6155 22.9845 23.9745 22.715 23.474C22.4455 22.9735 20.999 22.55 21.45 24.354C21.901 26.158 23.6225 28.721 23.6225 28.721C23.6225 28.721 22.6875 28.413 22.396 29.205Z"></path>
  <path fill="#232323" d="M94.193 38.863C94.4374 38.5276 94.796 38.2933 95.2013 38.2041C95.6066 38.115 96.0304 38.1772 96.393 38.379C96.5803 38.4858 96.7962 38.532 97.0108 38.5114C97.2255 38.4907 97.4285 38.4041 97.592 38.2635C97.875 37.9459 98.2676 37.7473 98.6911 37.7075C99.1145 37.6677 99.5373 37.7897 99.8745 38.049C100.042 38.2091 100.264 38.2996 100.496 38.302C100.931 38.302 101.189 38.269 101.547 37.609C101.684 37.3615 102.097 37.565 101.943 37.8235C101.839 38.1135 101.643 38.3615 101.384 38.5294C101.126 38.6973 100.82 38.7758 100.513 38.753C100.177 38.7536 99.8525 38.6324 99.5995 38.412C99.3472 38.2293 99.0368 38.1453 98.7267 38.1756C98.4167 38.206 98.1285 38.3488 97.9165 38.577C97.6907 38.8038 97.3941 38.9466 97.0759 38.9816C96.7578 39.0166 96.4372 38.9418 96.1675 38.7695C95.9056 38.6102 95.593 38.5562 95.2929 38.6185C94.9927 38.6808 94.7274 38.8546 94.5505 39.105C94.5129 39.1355 94.4665 39.1531 94.4181 39.1552C94.3698 39.1573 94.322 39.1438 94.2819 39.1167C94.2418 39.0895 94.2115 39.0502 94.1955 39.0045C94.1795 38.9588 94.1786 38.9092 94.193 38.863V38.863Z"></path>
  <path fill="#232323" d="M14.7785 50.3085C14.6907 50.084 14.5591 49.8792 14.3913 49.706C14.2235 49.5329 14.0229 49.395 13.8012 49.3003C13.5795 49.2055 13.3411 49.1559 13.1 49.1543C12.8589 49.1528 12.6199 49.1992 12.397 49.291C11.989 49.4657 11.531 49.4843 11.1102 49.3433C10.6894 49.2024 10.335 48.9117 10.1145 48.5265C9.92916 48.2057 9.62443 47.9713 9.26686 47.8745C8.90929 47.7776 8.52791 47.8262 8.206 48.0095C8.16305 48.0388 8.11226 48.0545 8.06025 48.0545C8.00825 48.0545 7.95745 48.0388 7.9145 48.0095C7.88405 47.9842 7.86079 47.9513 7.84707 47.9142C7.83335 47.8771 7.82965 47.837 7.83634 47.798C7.84303 47.7589 7.85988 47.7224 7.88518 47.6919C7.91049 47.6615 7.94336 47.6382 7.9805 47.6245C8.25612 47.4914 8.55648 47.4173 8.86237 47.4069C9.16827 47.3964 9.47297 47.45 9.757 47.564C10.0703 47.7305 10.3283 47.9847 10.4995 48.2955C10.6785 48.5827 10.9545 48.7961 11.2775 48.897C11.6004 48.9979 11.9489 48.9797 12.2595 48.8455C12.7114 48.6696 13.2057 48.6332 13.6785 48.741C14.0354 48.8261 14.3642 49.0019 14.633 49.2515C14.9019 49.5011 15.1017 49.816 15.213 50.1655C15.232 50.2231 15.2273 50.2859 15.1999 50.3401C15.1864 50.3669 15.1677 50.3908 15.1449 50.4104C15.1222 50.43 15.0958 50.4449 15.0673 50.4543C15.0096 50.4732 14.9468 50.4685 14.8927 50.4412C14.8385 50.4139 14.7975 50.3661 14.7785 50.3085V50.3085Z"></path>
  <path fill="#FEB100" d="M74.899 13.574L74.096 15.0975L73.4965 14.784C73.4433 14.7563 73.3812 14.7508 73.3239 14.7689C73.2667 14.7869 73.219 14.827 73.1912 14.8802C73.1635 14.9335 73.1581 14.9955 73.1762 15.0528C73.1942 15.11 73.2343 15.1578 73.2875 15.1855L73.887 15.499L73.2105 16.775C73.1968 16.8013 73.1884 16.8301 73.1858 16.8597C73.1832 16.8894 73.1865 16.9192 73.1954 16.9475C73.2135 17.0048 73.2535 17.0525 73.3068 17.0802C73.36 17.1079 73.4221 17.1134 73.4793 17.0953C73.5366 17.0773 73.5843 17.0372 73.612 16.984L74.283 15.708L74.833 15.994C74.8862 16.0217 74.9483 16.0271 75.0056 16.0091C75.0628 15.991 75.1105 15.951 75.1383 15.8977C75.166 15.8445 75.1714 15.7824 75.1533 15.7252C75.1353 15.6679 75.0952 15.6202 75.042 15.5925L74.492 15.3065L75.3005 13.783C75.3282 13.7297 75.3336 13.6677 75.3156 13.6104C75.2975 13.5532 75.2575 13.5054 75.2042 13.4777C75.151 13.45 75.0889 13.4446 75.0317 13.4626C74.9744 13.4807 74.9267 13.5207 74.899 13.574V13.574Z"></path>
  <path fill="#232323" d="M34.3035 18.392C34.024 18.392 33.7507 18.3091 33.5182 18.1538C33.2858 17.9985 33.1046 17.7777 32.9976 17.5194C32.8906 17.2611 32.8626 16.9769 32.9172 16.7027C32.9717 16.4286 33.1063 16.1767 33.304 15.979C33.5017 15.7813 33.7536 15.6467 34.0278 15.5922C34.3019 15.5376 34.5862 15.5656 34.8444 15.6726C35.1027 15.7796 35.3235 15.9608 35.4788 16.1932C35.6341 16.4257 35.717 16.6989 35.717 16.9785C35.717 17.3534 35.5681 17.7129 35.303 17.978C35.0379 18.2431 34.6784 18.392 34.3035 18.392V18.392ZM34.3035 16.0215C34.1129 16.0215 33.9266 16.0781 33.7682 16.1841C33.6098 16.2901 33.4865 16.4408 33.4138 16.617C33.3411 16.7931 33.3223 16.987 33.3599 17.1738C33.3975 17.3607 33.4897 17.5322 33.6249 17.6665C33.7601 17.8009 33.9321 17.8922 34.1191 17.9287C34.3062 17.9652 34.4999 17.9453 34.6757 17.8716C34.8515 17.798 35.0014 17.6737 35.1065 17.5147C35.2116 17.3557 35.2671 17.1691 35.266 16.9785C35.2646 16.7242 35.1625 16.4808 34.9822 16.3015C34.8018 16.1221 34.5578 16.0215 34.3035 16.0215V16.0215Z"></path>
  <path fill="#FEB100" d="M11.5885 34.0285L10.131 33.2145L10.516 32.5215C10.5377 32.4704 10.5398 32.4132 10.5219 32.3607C10.5041 32.3082 10.4675 32.2641 10.4192 32.2369C10.3708 32.2096 10.3142 32.2012 10.26 32.2131C10.2058 32.225 10.1579 32.2565 10.1255 32.3015L9.73502 33C8.01902 32.043 7.98051 32.032 7.96951 32.0265C7.91529 32.0051 7.85487 32.0055 7.80095 32.0277C7.74704 32.0499 7.7038 32.0921 7.68032 32.1454C7.65684 32.1988 7.65494 32.2592 7.67502 32.3139C7.6951 32.3686 7.7356 32.4135 7.78801 32.439L9.51501 33.396L9.10801 34.1C9.07884 34.1525 9.07172 34.2145 9.08823 34.2722C9.10473 34.33 9.1435 34.3788 9.19601 34.408C9.24853 34.4372 9.31048 34.4443 9.36824 34.4278C9.426 34.4113 9.47484 34.3725 9.50402 34.32L9.90001 33.6105L11.3575 34.4245C11.3835 34.4397 11.4123 34.4496 11.4421 34.4536C11.4719 34.4577 11.5022 34.4558 11.5314 34.4482C11.5605 34.4405 11.5878 34.4272 11.6117 34.409C11.6357 34.3908 11.6558 34.368 11.671 34.342C11.6862 34.316 11.6961 34.2873 11.7001 34.2574C11.7042 34.2276 11.7024 34.1973 11.6947 34.1682C11.687 34.139 11.6737 34.1117 11.6555 34.0878C11.6373 34.0638 11.6145 34.0437 11.5885 34.0285Z"></path>
  <path fill="#FF5300" d="M78.903 27.038C81.1442 27.4322 83.1761 28.6 84.645 30.338C84.7247 30.4418 84.8389 30.5138 84.9669 30.541C85.0949 30.5682 85.2285 30.5489 85.3435 30.4865C86.163 30.0905 87.791 28.908 87.0705 25.982C86.13 22.132 81.7795 21.7525 79.981 23.199C79.4708 23.5799 79.0614 24.0796 78.7882 24.6547C78.515 25.2298 78.3864 25.8629 78.4135 26.499C78.4237 26.6304 78.4774 26.7547 78.566 26.8523C78.6546 26.9499 78.7732 27.0152 78.903 27.038V27.038Z"></path>
  <path fill="#FF5300" d="M95.8925 54.384C98.571 53.5755 99.352 49.775 97.8395 46.7555C96.382 43.835 92.521 43.2025 89.947 42.801C89.5001 42.7328 89.0626 42.6128 88.6435 42.4435C88.2071 42.2628 87.8333 41.958 87.5684 41.567C87.3034 41.1759 87.159 40.7158 87.153 40.2435C87.0375 35.959 87.362 31.251 80.817 28.105C76.0485 25.806 72.017 27.676 70.4715 29.0345C68.926 30.393 67.7215 33.055 69.9215 34.76C72.1215 36.465 76.3125 34.6775 76.3125 34.6775C78.892 37.9775 81.895 37.4275 81.895 37.4275C81.8015 38.6375 81.378 41.514 81.378 41.514C82.731 41.723 83.7595 42.2345 83.721 43.637C83.6825 45.0395 81.026 44.737 81.026 44.737C81.026 44.737 79.4805 48.6695 76.5325 49.643L76.274 52.657C76.274 52.657 86.68 54.0925 91.256 67.87C92.5246 67.7015 93.7302 67.2154 94.7609 66.4568C95.7915 65.6982 96.614 64.6917 97.152 63.5305C97.9166 62.0636 98.2061 60.3952 97.9805 58.7564C97.7548 57.1177 97.0251 55.5897 95.8925 54.384V54.384Z"></path>
  <path fill="#FF5300" d="M69.3825 44.737C67.951 46.9187 67.4171 49.5687 67.892 52.1345C68.9796 51.9297 70.0855 51.8375 71.192 51.8595C71.5701 50.8982 71.8252 49.8929 71.951 48.8675C71.2649 48.3894 70.6834 47.7766 70.2418 47.0665C69.8002 46.3564 69.5078 45.5638 69.3825 44.737Z"></path>
  <path fill="#232323" d="M54.494 74.9155C54.4439 74.915 54.395 74.9 54.3532 74.8723C54.3115 74.8445 54.2787 74.8052 54.2589 74.7592C54.2391 74.7132 54.2331 74.6623 54.2416 74.6129C54.2501 74.5636 54.2729 74.5177 54.307 74.481C54.6956 74.077 55.0628 73.6529 55.407 73.2105C54.923 73.2105 54.307 73.3315 54.109 72.9685C53.911 72.6055 53.955 70.7355 53.9605 69.6025C53.9619 69.5349 53.9898 69.4705 54.0381 69.4233C54.0864 69.376 54.1514 69.3495 54.219 69.3495C54.2529 69.3487 54.2866 69.3549 54.318 69.3677C54.3494 69.3805 54.3779 69.3996 54.4016 69.4238C54.4253 69.4481 54.4438 69.4769 54.4559 69.5086C54.468 69.5403 54.4735 69.5741 54.472 69.608C54.4486 70.641 54.478 71.6745 54.56 72.7045C54.7629 72.7268 54.9676 72.7268 55.1705 72.7045C55.5995 72.7045 55.88 72.666 56.0065 72.886C56.133 73.106 56.199 73.2325 54.6645 74.8275C54.6436 74.853 54.6177 74.874 54.5883 74.8891C54.559 74.9042 54.5269 74.9132 54.494 74.9155V74.9155Z"></path>
  <path fill="#232323" d="M56.452 71.962C56.4161 71.9631 56.3803 71.9564 56.3472 71.9423C56.3142 71.9282 56.2846 71.9071 56.2605 71.8804C56.2364 71.8537 56.2184 71.8221 56.2078 71.7877C56.1972 71.7534 56.1942 71.7171 56.199 71.6815C56.265 71.049 56.6225 69.9985 57.519 70.081C58.4155 70.1635 58.619 71.5495 58.619 71.6045C58.6264 71.6403 58.6261 71.6772 58.6182 71.7128C58.6103 71.7485 58.595 71.7821 58.5731 71.8114C58.5513 71.8406 58.5235 71.865 58.4916 71.8827C58.4597 71.9005 58.4244 71.9113 58.388 71.9144C58.3516 71.9176 58.315 71.913 58.2805 71.9009C58.2461 71.8888 58.2145 71.8696 58.188 71.8445C58.1615 71.8194 58.1406 71.7889 58.1268 71.7551C58.1129 71.7213 58.1063 71.685 58.1075 71.6485C58.1075 71.6485 58.0085 70.6365 57.4915 70.5925C56.9745 70.5485 56.771 71.2855 56.7215 71.7365C56.7145 71.8017 56.6826 71.8616 56.6323 71.9037C56.582 71.9457 56.5174 71.9666 56.452 71.962V71.962Z"></path>
  <path fill="#232323" d="M49.885 72.0115C49.8513 72.0108 49.8181 72.0033 49.7873 71.9896C49.7565 71.9759 49.7288 71.9562 49.7057 71.9316C49.6826 71.907 49.6647 71.878 49.653 71.8464C49.6413 71.8148 49.636 71.7812 49.6375 71.7475C49.676 70.433 50.4295 70.0975 50.864 70.0975C51.6725 70.0975 51.964 71.0875 51.964 71.676C51.9684 71.7431 51.9459 71.8092 51.9016 71.8597C51.8572 71.9102 51.7946 71.9411 51.7275 71.9455C51.6604 71.9498 51.5943 71.9274 51.5438 71.883C51.4932 71.8387 51.4624 71.7761 51.458 71.709C51.458 71.709 51.3535 70.609 50.8365 70.609C50.1655 70.609 50.1215 71.7695 50.1215 71.7805C50.1153 71.8405 50.0882 71.8965 50.045 71.9387C50.0018 71.9809 49.9452 72.0067 49.885 72.0115V72.0115Z"></path>
  <path fill="#232323" d="M58.388 69.3C58.325 69.2995 58.2644 69.276 58.2175 69.234C58.0145 69.0474 57.7524 68.9381 57.477 68.925C57.2015 68.9119 56.9303 68.996 56.7105 69.1625C56.6845 69.184 56.6544 69.2 56.6221 69.2095C56.5897 69.219 56.5557 69.2217 56.5223 69.2176C56.4888 69.2135 56.4565 69.2026 56.4274 69.1855C56.3983 69.1685 56.373 69.1457 56.353 69.1185C56.3319 69.0925 56.3161 69.0627 56.3066 69.0306C56.2972 68.9986 56.2941 68.9649 56.2977 68.9317C56.3013 68.8984 56.3114 68.8662 56.3275 68.8369C56.3436 68.8076 56.3654 68.7818 56.3915 68.761C56.7053 68.5175 57.0953 68.3933 57.4921 68.4104C57.889 68.4275 58.2668 68.5849 58.5585 68.8545C58.5983 68.8884 58.6266 68.9338 58.6396 68.9845C58.6525 69.0352 58.6494 69.0886 58.6307 69.1375C58.612 69.1863 58.5786 69.2282 58.5352 69.2573C58.4917 69.2864 58.4403 69.3013 58.388 69.3V69.3Z"></path>
  <path fill="#232323" d="M52.0685 69.0195C52.0065 69.0187 51.9466 68.9975 51.898 68.959C51.6797 68.7446 51.3886 68.6204 51.0827 68.6112C50.7768 68.602 50.4788 68.7086 50.248 68.9095C50.1955 68.9524 50.1286 68.9735 50.061 68.9683C49.9934 68.9632 49.9304 68.9323 49.885 68.882C49.8607 68.8584 49.8414 68.8302 49.8282 68.799C49.815 68.7679 49.8083 68.7344 49.8083 68.7005C49.8083 68.6667 49.815 68.6332 49.8282 68.602C49.8414 68.5708 49.8607 68.5426 49.885 68.519C50.2097 68.2439 50.6239 68.0971 51.0494 68.1062C51.4749 68.1153 51.8824 68.2797 52.195 68.5685C52.2347 68.5994 52.2642 68.6413 52.2799 68.6891C52.2956 68.7368 52.2968 68.7881 52.2832 68.8365C52.2696 68.8849 52.242 68.9281 52.2037 68.9607C52.1655 68.9933 52.1184 69.0138 52.0685 69.0195V69.0195Z"></path>
  <path fill="#232323" d="M54.0925 77.6655C53.6718 77.6291 53.2715 77.4678 52.9432 77.2022C52.6149 76.9366 52.3735 76.5789 52.25 76.175C52.2385 76.113 52.2502 76.0488 52.2827 75.9948C52.3152 75.9407 52.3664 75.9004 52.4266 75.8814C52.4868 75.8625 52.5519 75.8662 52.6095 75.892C52.6671 75.9177 52.7134 75.9636 52.7395 76.021C52.8319 76.3241 53.0116 76.5933 53.2562 76.7948C53.5008 76.9963 53.7993 77.1213 54.1145 77.154H54.1475C55.1045 77.154 55.341 76.0925 55.3465 76.054C55.3624 75.9889 55.4028 75.9325 55.4594 75.8967C55.5161 75.8609 55.5843 75.8485 55.6499 75.862C55.7155 75.8756 55.7733 75.9141 55.8111 75.9694C55.8489 76.0247 55.8637 76.0925 55.8525 76.1585C55.7848 76.5773 55.5709 76.9586 55.2486 77.2345C54.9264 77.5104 54.5167 77.6631 54.0925 77.6655Z"></path>
  <path fill="#FFD8D0" d="M58.5915 74.712C58.959 74.712 59.257 74.4904 59.257 74.217C59.257 73.9436 58.959 73.722 58.5915 73.722C58.2239 73.722 57.926 73.9436 57.926 74.217C57.926 74.4904 58.2239 74.712 58.5915 74.712Z"></path>
  <path fill="#FFD8D0" d="M50.457 74.657C50.8337 74.657 51.139 74.4354 51.139 74.162C51.139 73.8886 50.8337 73.667 50.457 73.667C50.0803 73.667 49.775 73.8886 49.775 74.162C49.775 74.4354 50.0803 74.657 50.457 74.657Z"></path>
  <path fill="#232323" d="M79.0482 40.8027C79.1177 40.4449 78.9276 40.1069 78.6234 40.0477C78.3193 39.9886 78.0163 40.2308 77.9468 40.5886C77.8772 40.9464 78.0674 41.2844 78.3716 41.3435C78.6757 41.4026 78.9786 41.1605 79.0482 40.8027Z"></path>
  <path fill="#232323" d="M73.4633 39.1794C73.5329 38.8216 73.3427 38.4836 73.0386 38.4245C72.7344 38.3653 72.4315 38.6075 72.362 38.9653C72.2924 39.3231 72.4826 39.6611 72.7867 39.7202C73.0909 39.7793 73.3938 39.5372 73.4633 39.1794Z"></path>
  <path fill="#232323" d="M81.609 43.725C81.5525 43.7266 81.4972 43.7093 81.4517 43.6758C81.4062 43.6423 81.3732 43.5945 81.3581 43.5401C81.3429 43.4857 81.3463 43.4278 81.3679 43.3756C81.3895 43.3234 81.4279 43.2799 81.477 43.252C81.6805 43.1267 81.8939 43.0182 82.115 42.9275C82.146 42.9151 82.1792 42.9089 82.2127 42.9093C82.2461 42.9098 82.2792 42.9169 82.3098 42.9302C82.3405 42.9435 82.3683 42.9627 82.3915 42.9868C82.4147 43.0109 82.4329 43.0393 82.445 43.0705C82.4582 43.1015 82.465 43.1348 82.465 43.1685C82.4649 43.2021 82.4579 43.2354 82.4446 43.2663C82.4312 43.2972 82.4116 43.325 82.3871 43.3481C82.3626 43.3712 82.3336 43.389 82.302 43.4005C81.8565 43.582 81.7575 43.725 81.609 43.725Z"></path>
  <path fill="#232323" d="M73.9915 42.933C73.304 43.1475 73.4415 42.4655 73.502 42.284C74.0135 40.4635 75.702 37.9555 75.757 37.851C75.933 37.5815 76.3675 37.851 76.1805 38.1315C76.1805 38.1315 74.4865 40.6725 73.9805 42.416L75.0805 41.866C75.372 41.723 75.6305 42.1795 75.3115 42.3225C75.35 42.317 74.041 42.933 73.9915 42.933Z"></path>
  <path fill="#232323" d="M74.1455 45.5565C74.0302 45.567 73.9143 45.567 73.799 45.5565C72.5725 45.3585 72.336 43.9615 72.3305 43.9065C72.3203 43.8401 72.3369 43.7724 72.3766 43.7183C72.4163 43.6641 72.4759 43.628 72.5422 43.6178C72.6086 43.6075 72.6763 43.6241 72.7305 43.6638C72.7846 43.7035 72.8208 43.7631 72.831 43.8295C72.831 43.8735 73.0235 44.9295 73.8815 45.056C74.1439 45.1088 74.4162 45.0801 74.6619 44.974C74.9076 44.8679 75.115 44.6892 75.2565 44.462C75.2731 44.4324 75.2954 44.4063 75.3221 44.3853C75.3488 44.3643 75.3793 44.3488 75.412 44.3396C75.4447 44.3304 75.4789 44.3277 75.5126 44.3318C75.5463 44.3358 75.5789 44.3464 75.6085 44.363C75.6381 44.3796 75.6642 44.4019 75.6852 44.4286C75.7062 44.4553 75.7217 44.4858 75.7309 44.5185C75.7401 44.5512 75.7427 44.5854 75.7387 44.6191C75.7347 44.6528 75.7241 44.6854 75.7075 44.715C75.539 44.9754 75.3075 45.189 75.0345 45.3361C74.7614 45.4833 74.4556 45.559 74.1455 45.5565V45.5565Z"></path>
  <path fill="#232323" d="M79.8215 38.9235C79.7715 38.8086 79.6984 38.7052 79.6068 38.6197C79.5151 38.5343 79.4068 38.4686 79.2887 38.4268C79.1705 38.385 79.045 38.368 78.92 38.3768C78.795 38.3856 78.6731 38.4201 78.562 38.478C78.5022 38.5086 78.4327 38.5143 78.3687 38.4936C78.3048 38.473 78.2516 38.4278 78.221 38.368C78.1904 38.3082 78.1848 38.2387 78.2054 38.1747C78.226 38.1108 78.2712 38.0576 78.331 38.027C78.5003 37.9353 78.6868 37.8796 78.8786 37.8634C79.0705 37.8471 79.2637 37.8708 79.446 37.9327C79.6283 37.9947 79.7958 38.0937 79.9381 38.2235C80.0803 38.3533 80.1942 38.5111 80.2725 38.687C80.3039 38.7468 80.3102 38.8166 80.2901 38.8811C80.27 38.9456 80.2251 38.9994 80.1653 39.0308C80.1055 39.0621 80.0356 39.0684 79.9712 39.0483C79.9067 39.0282 79.8529 38.9833 79.8215 38.9235V38.9235Z"></path>
  <path fill="#232323" d="M74.129 37.1635C73.9991 36.9725 73.8052 36.8343 73.5823 36.7738C73.3594 36.7133 73.1222 36.7344 72.9135 36.8335C72.8546 36.8533 72.7906 36.8512 72.7331 36.8276C72.6756 36.8041 72.6286 36.7606 72.6005 36.7052C72.5725 36.6497 72.5653 36.5861 72.5804 36.5258C72.5954 36.4656 72.6317 36.4127 72.6825 36.377C72.998 36.2242 73.3576 36.1885 73.6971 36.2761C74.0365 36.3637 74.3338 36.5691 74.536 36.8555C74.5768 36.9095 74.5946 36.9775 74.5853 37.0445C74.576 37.1115 74.5405 37.1722 74.4865 37.213C74.4325 37.2538 74.3645 37.2716 74.2975 37.2623C74.2305 37.253 74.1698 37.2175 74.129 37.1635Z"></path>
  <path fill="#FFD8D0" d="M78.496 44.11C78.9213 44.11 79.266 43.8662 79.266 43.5655C79.266 43.2648 78.9213 43.021 78.496 43.021C78.0708 43.021 77.726 43.2648 77.726 43.5655C77.726 43.8662 78.0708 44.11 78.496 44.11Z"></path>
  <path fill="#FFD8D0" d="M71.7264 42.0109C71.8301 41.7416 71.6223 41.4109 71.2623 41.2723C70.9023 41.1336 70.5264 41.2396 70.4227 41.5089C70.319 41.7782 70.5268 42.1088 70.8868 42.2475C71.2468 42.3861 71.6227 42.2802 71.7264 42.0109Z"></path>
  <path fill="#232323" d="M54.318 31.4325C53.9769 31.4232 53.6461 31.314 53.3665 31.1184C53.0869 30.9229 52.8708 30.6496 52.745 30.3325C52.7195 30.2698 52.7199 30.1995 52.7462 30.1371C52.7725 30.0747 52.8225 30.0253 52.8853 29.9997C52.948 29.9742 53.0183 29.9746 53.0807 30.0009C53.1431 30.0272 53.1925 30.0773 53.218 30.14C53.3079 30.3534 53.4542 30.5383 53.6412 30.6749C53.8282 30.8116 54.0488 30.8947 54.2795 30.9155C55.022 30.943 55.418 30.008 55.4235 29.997C55.4361 29.9659 55.4548 29.9377 55.4783 29.9138C55.5019 29.8899 55.5299 29.871 55.5608 29.8579C55.5917 29.8449 55.6249 29.8381 55.6584 29.8379C55.692 29.8377 55.7252 29.8441 55.7563 29.8567C55.7873 29.8694 55.8156 29.888 55.8394 29.9116C55.8633 29.9351 55.8823 29.9632 55.8953 29.9941C55.9083 30.025 55.9151 30.0581 55.9153 30.0916C55.9155 30.1252 55.9091 30.1584 55.8965 30.1895C55.8745 30.25 55.3795 31.4325 54.318 31.4325Z"></path>
  <path fill="#FFD8D0" d="M50.4862 28.9027C50.5184 28.6312 50.251 28.3764 49.889 28.3335C49.5271 28.2906 49.2075 28.4759 49.1754 28.7473C49.1432 29.0188 49.4105 29.2737 49.7725 29.3166C50.1345 29.3595 50.454 29.1742 50.4862 28.9027Z"></path>
  <path fill="#FFD8D0" d="M58.8555 29.3205C59.22 29.3205 59.5155 29.0989 59.5155 28.8255C59.5155 28.5521 59.22 28.3305 58.8555 28.3305C58.491 28.3305 58.1955 28.5521 58.1955 28.8255C58.1955 29.0989 58.491 29.3205 58.8555 29.3205Z"></path>
  <path fill="#232323" d="M59.0205 22.165C58.2402 22.1356 57.4764 22.3939 56.8741 22.8907C56.2717 23.3876 55.873 24.0884 55.7535 24.86C55.578 24.7779 55.3934 24.7169 55.2035 24.6785C55.0495 23.7655 54.879 23.1275 54.8625 23.0725C54.8435 23.0076 54.7996 22.9529 54.7403 22.9204C54.6809 22.8879 54.6112 22.8803 54.5462 22.8993C54.4813 22.9182 54.4266 22.9622 54.3941 23.0215C54.3616 23.0808 54.354 23.1506 54.373 23.2155C54.373 23.2155 54.538 23.804 54.6865 24.64C54.3685 24.6512 54.0545 24.7144 53.757 24.827C53.6862 24.0254 53.3087 23.2821 52.7034 22.7519C52.098 22.2217 51.3114 21.9456 50.5075 21.9811C49.7036 22.0165 48.9443 22.3608 48.388 22.9422C47.8316 23.5237 47.5211 24.2973 47.5211 25.102C47.5211 25.9067 47.8316 26.6804 48.388 27.2618C48.9443 27.8432 49.7036 28.1875 50.5075 28.223C51.3114 28.2584 52.098 27.9823 52.7034 27.4521C53.3087 26.9219 53.6862 26.1786 53.757 25.377C54.0736 25.2281 54.4192 25.1511 54.769 25.1515C54.9132 26.0606 54.9575 26.9828 54.901 27.9015C54.901 27.951 54.8405 27.9455 54.8075 27.9345L53.9 27.7805C53.8659 27.7734 53.8307 27.7734 53.7967 27.7805C53.7626 27.7876 53.7304 27.8017 53.702 27.8218C53.6736 27.8419 53.6496 27.8677 53.6317 27.8975C53.6137 27.9273 53.6021 27.9605 53.5975 27.995C53.5905 28.0594 53.6073 28.124 53.6448 28.1767C53.6823 28.2295 53.7379 28.2666 53.801 28.281C54.2356 28.3574 54.6747 28.4051 55.1155 28.424C55.2695 28.424 55.4125 28.358 55.4345 27.973C55.48 27.0654 55.4376 26.1555 55.308 25.256C55.4633 25.2984 55.6115 25.3632 55.748 25.4485C55.7676 26.0728 55.9694 26.6776 56.3285 27.1886C56.6876 27.6995 57.1884 28.0943 57.7691 28.3242C58.3497 28.5541 58.985 28.6091 59.5965 28.4824C60.2081 28.3558 60.7693 28.053 61.2109 27.6114C61.6525 27.1698 61.9553 26.6086 62.0819 25.9971C62.2086 25.3855 62.1535 24.7503 61.9236 24.1696C61.6937 23.5889 61.299 23.0882 60.788 22.7291C60.2771 22.37 59.6722 22.1682 59.048 22.1485L59.0205 22.165ZM50.501 27.7365C49.9934 27.705 49.5063 27.5248 49.1004 27.2183C48.6946 26.9118 48.3879 26.4927 48.2186 26.0131C48.0494 25.5335 48.0251 25.0147 48.1487 24.5213C48.2723 24.028 48.5384 23.582 48.9138 23.2389C49.2892 22.8958 49.7573 22.6707 50.2597 22.5919C50.7622 22.513 51.2767 22.5837 51.7392 22.7953C52.2017 23.0069 52.5916 23.3499 52.8605 23.7816C53.1293 24.2133 53.2651 24.7146 53.251 25.223C53.2362 25.5689 53.1532 25.9084 53.0068 26.2221C52.8605 26.5358 52.6536 26.8174 52.3981 27.051C52.1426 27.2845 51.8434 27.4653 51.5179 27.5829C51.1923 27.7006 50.8468 27.7528 50.501 27.7365V27.7365ZM58.8555 27.8795C58.3465 27.8491 57.8577 27.6694 57.4502 27.3629C57.0426 27.0564 56.7344 26.6367 56.5639 26.1561C56.3934 25.6756 56.3682 25.1554 56.4915 24.6606C56.6147 24.1658 56.881 23.7183 57.257 23.3739C57.633 23.0294 58.1022 22.8034 58.6058 22.7239C59.1095 22.6444 59.6255 22.715 60.0893 22.9269C60.5531 23.1388 60.9442 23.4826 61.2138 23.9154C61.4835 24.3482 61.6197 24.8508 61.6055 25.3605C61.5741 26.06 61.2662 26.7183 60.7494 27.1907C60.2327 27.6631 59.5494 27.9109 58.85 27.8795H58.8555Z"></path>
  <path fill="#232323" d="M106.992 95.8265H102.696C102.746 94.6495 102.696 92.0095 102.696 90.8765C102.693 90.714 102.627 90.5589 102.512 90.444C102.398 90.3291 102.243 90.2633 102.08 90.2605H101.305C101.305 89.067 101.305 87.4665 101.305 86.7955C101.302 86.6352 101.239 86.4819 101.127 86.3665C101.016 86.2511 100.865 86.1823 100.705 86.174C100.364 86.174 99.935 86.174 99.451 86.1355C99.5005 85.3545 99.4235 83.864 98.967 83.193C98.9014 83.0953 98.8163 83.0123 98.7171 82.9492C98.6179 82.886 98.5066 82.844 98.3904 82.826C98.2741 82.8079 98.1554 82.8141 98.0417 82.8441C97.928 82.8741 97.8217 82.9274 97.7295 83.0005C97.6787 82.8485 97.5969 82.7087 97.4892 82.5901C97.3814 82.4714 97.2502 82.3765 97.1038 82.3113C96.9574 82.2462 96.7991 82.2122 96.6388 82.2115C96.4786 82.2108 96.3199 82.2435 96.173 82.3075C96.0318 82.1421 95.8411 82.0265 95.6291 81.978C95.4171 81.9294 95.1951 81.9505 94.996 82.038C93.896 74.338 90.365 58.982 80.333 54.164C79.1074 53.5694 77.8366 53.0728 76.5325 52.679C76.5079 51.7834 76.5594 50.8874 76.6865 50.0005C76.6949 49.9462 76.7177 49.8951 76.7525 49.8525C76.7873 49.8099 76.8329 49.7775 76.8845 49.7585C77.8428 49.3339 78.6992 48.7094 79.3964 47.9269C80.0936 47.1443 80.6155 46.2217 80.927 45.221C80.9522 45.1614 80.9955 45.1113 81.0508 45.0777C81.1061 45.0442 81.1705 45.0289 81.235 45.034C84.6175 45.1605 83.985 42.9385 83.7705 42.581C83.2985 41.9946 82.6268 41.603 81.884 41.481C81.8041 41.4637 81.7339 41.4164 81.6878 41.3489C81.6418 41.2813 81.6234 41.1987 81.6365 41.118C81.7575 40.3205 81.983 38.7915 82.1535 37.5265C82.1623 37.4594 82.144 37.3916 82.1027 37.3379C82.0615 37.2843 82.0006 37.2492 81.9335 37.2405C81.8664 37.2317 81.7986 37.25 81.7449 37.2913C81.6913 37.3325 81.6563 37.3934 81.6475 37.4605C81.477 38.72 81.246 40.2435 81.1305 41.041C81.0965 41.252 81.1458 41.468 81.2678 41.6434C81.3899 41.8188 81.5753 41.94 81.785 41.9815C82.3916 42.0703 82.945 42.3773 83.3415 42.845C83.501 43.0815 83.93 44.594 81.2735 44.495C81.0941 44.4836 80.9158 44.5312 80.7659 44.6305C80.616 44.7298 80.5026 44.8753 80.443 45.045C80.1543 45.9776 79.6699 46.8378 79.0221 47.5681C78.3743 48.2985 77.578 48.8821 76.6865 49.28C76.5553 49.3321 76.4398 49.4172 76.3511 49.527C76.2625 49.6369 76.2037 49.7677 76.1805 49.907C76.0564 50.7757 76.003 51.6531 76.021 52.5305C76.021 52.745 76.12 53.295 75.856 53.4105C75.187 53.724 74.4524 53.8717 73.7142 53.841C72.9761 53.8104 72.2562 53.6023 71.6155 53.2345C71.5486 53.1946 71.4974 53.133 71.4704 53.0599C71.4434 52.9869 71.4422 52.9068 71.467 52.833C71.5605 52.5525 72.1875 49.764 72.259 49.3405C72.7201 49.5404 73.2041 49.6827 73.7 49.764C73.7329 49.7698 73.7666 49.769 73.7991 49.7618C73.8317 49.7545 73.8625 49.741 73.8899 49.7218C73.9172 49.7027 73.9405 49.6783 73.9584 49.6502C73.9763 49.622 73.9885 49.5906 73.9943 49.5577C74 49.5249 73.9993 49.4912 73.992 49.4586C73.9848 49.426 73.9712 49.3952 73.9521 49.3679C73.9329 49.3406 73.9086 49.3173 73.8804 49.2994C73.8523 49.2815 73.8209 49.2693 73.788 49.2635C69.784 48.565 69.289 44.8965 70.092 40.9145C70.092 40.81 71.3295 35.376 71.3405 35.3265C71.3477 35.2634 71.3314 35.1999 71.2947 35.1481C71.2581 35.0963 71.2036 35.0597 71.1418 35.0455C71.0799 35.0312 71.015 35.0402 70.9593 35.0707C70.9037 35.1012 70.8612 35.1512 70.84 35.211C70.8015 35.3925 69.608 40.711 69.5915 40.81C68.959 43.967 68.9865 47.509 71.7915 49.104C71.6922 50.0355 71.5081 50.956 71.2415 51.854C69.0297 51.8146 66.8364 52.2629 64.8174 53.1669C62.7984 54.0708 61.0032 55.4084 59.5595 57.0845C58.2065 54.087 54.395 53.691 51.766 57.772C51.3362 57.3329 50.7924 57.0225 50.1958 56.8758C49.5992 56.7291 48.9734 56.7518 48.389 56.9415C46.8875 57.4915 46.6675 58.773 46.222 59.818C45.5015 61.468 45.562 61.4295 44.374 62.018C44.1469 62.1195 43.9265 62.2352 43.714 62.3645C43.1102 61.0358 42.2927 59.8152 41.294 58.751C42.273 53.7185 42.0805 53.438 42.0145 53.3445C41.9924 53.3128 41.9638 53.2861 41.9306 53.2662C41.8974 53.2463 41.8604 53.2336 41.822 53.229C41.6845 53.229 41.426 53.174 38.1205 56.573C36.6125 55.9696 34.9617 55.8167 33.3685 56.133C33.2035 55.202 33.1628 54.2532 33.2475 53.3115C34.0603 53.0243 34.7914 52.5446 35.3786 51.9135C35.9657 51.2823 36.3913 50.5184 36.619 49.687C36.8702 48.4674 36.9955 47.2252 36.993 45.98C40.15 41.6845 45.001 37.6585 50.2645 38.093C50.2315 38.247 50.193 38.401 50.1545 38.555C50.126 38.7035 50.138 38.857 50.1893 38.9993C50.2406 39.1415 50.3293 39.2674 50.446 39.3635C52.4535 41.261 55.2915 40.2545 56.3365 39.3635C56.4636 39.2617 56.5619 39.1285 56.6218 38.977C56.6816 38.8256 56.7008 38.6611 56.6775 38.5C56.6775 38.3735 56.639 38.214 56.617 38.038C58.3406 37.9618 60.0603 38.2584 61.6588 38.9077C63.2572 39.5569 64.6967 40.5435 65.879 41.8C66.996 42.9526 67.8827 44.3079 68.4915 45.793C68.5188 45.8516 68.5671 45.8978 68.6268 45.9225C68.6865 45.9472 68.7534 45.9487 68.8141 45.9266C68.8748 45.9045 68.9251 45.8605 68.955 45.8032C68.9849 45.7459 68.9922 45.6794 68.9755 45.617C68.3483 44.0704 67.4296 42.6588 66.2695 41.459C65.0226 40.1553 63.5114 39.1333 61.8371 38.4617C60.1628 37.7901 58.3642 37.4843 56.562 37.565C56.507 36.9325 56.518 35.211 56.5125 35.189C59.1085 34.2485 60.4285 31.482 60.8025 28.919C61.2205 26.037 60.9015 23.969 60.8025 20.581C61.4222 20.3001 61.9606 19.8668 62.3675 19.3214C62.7743 18.7761 63.0363 18.1365 63.129 17.4625C63.1824 16.3634 62.9586 15.2685 62.478 14.2785C61.9975 13.2886 61.2757 12.4354 60.379 11.7975C58.179 10.296 55.836 11.88 53.8285 11.759C51.821 11.638 51.293 11.066 48.9775 11.759C46.662 12.452 45.8535 15.2075 45.364 16.2635C44.8745 17.3195 42.614 19.2665 42.4435 21.505C42.3005 23.5345 43.835 25.355 44.132 25.6575C43.4775 27.3515 44.539 27.8575 44.935 28.083C45.111 28.996 45.7215 31.1135 47.575 31.7845C47.949 32.703 48.8895 34.5895 50.545 35.343C50.5403 36.1022 50.4759 36.8599 50.3525 37.609C45.1 37.1305 40.1775 40.909 36.9765 45.1C36.9765 44.814 36.9765 43.3015 36.9765 42.834C37.512 40.4344 37.375 37.9337 36.5805 35.607C36.1156 36.2125 35.5863 36.7657 35.002 37.257C35.002 37.257 36.036 38.401 36.476 42.207C36.399 44.737 36.564 47.4595 36.069 49.5605C35.7903 50.6644 35.1161 51.6276 34.1742 52.2674C33.2324 52.9071 32.0884 53.1788 30.9595 53.031C30.8977 53.0317 30.8383 53.0545 30.7919 53.0953C30.7455 53.1361 30.7152 53.1921 30.7066 53.2533C30.698 53.3145 30.7115 53.3767 30.7448 53.4287C30.7781 53.4808 30.8289 53.5192 30.888 53.537C31.4849 53.5599 32.0828 53.5341 32.6755 53.46C32.6006 54.4443 32.6598 55.4342 32.8515 56.4025C32.5963 56.9191 32.2043 57.3559 31.7181 57.6653C31.232 57.9748 30.6703 58.145 30.0942 58.1574C29.5181 58.1699 28.9496 58.0242 28.4505 57.7361C27.9514 57.448 27.5409 57.0286 27.2635 56.5235C27.6055 55.2972 27.8157 54.0379 27.8905 52.767C27.8956 52.7152 27.8845 52.6632 27.859 52.6179C27.8334 52.5726 27.7945 52.5364 27.7475 52.514C26.9274 52.0358 26.2525 51.3438 25.795 50.512C25.2928 49.3904 24.9894 48.19 24.8985 46.9645C24.8985 46.9645 22.3795 46.277 22.7315 44.528C22.979 43.296 24.7775 43.659 25.6905 43.7965C25.7706 43.8111 25.8529 43.8079 25.9315 43.7869C26.0101 43.7659 26.0831 43.7277 26.1452 43.6751C26.2073 43.6225 26.2569 43.5567 26.2905 43.4826C26.3241 43.4085 26.3408 43.3279 26.3395 43.2465C26.3395 42.1135 26.3395 39.754 26.763 39.3085C27.5 38.5 33.484 38.5605 35.651 36.124C37.301 34.2925 36.9545 31.801 36.6905 30.679C36.6752 30.6139 36.6444 30.5536 36.6006 30.5031C36.5569 30.4526 36.5015 30.4135 36.4392 30.3892C36.377 30.3648 36.3098 30.3559 36.2434 30.3633C36.177 30.3707 36.1134 30.3941 36.058 30.4315C35.1813 31.0295 34.194 31.4464 33.154 31.658C31.207 32.0265 24.717 32.351 22.77 35.717C21.45 38.0325 21.1475 41.5525 22.33 43.89C22.2008 44.281 22.1595 44.6956 22.2089 45.1044C22.2583 45.5132 22.3973 45.9061 22.616 46.255C22.726 47.4925 23.221 49.9785 25.4045 50.8035C25.8848 51.6466 26.5671 52.3573 27.39 52.8715C27.2998 54.0176 27.1159 55.1544 26.84 56.2705C20.3115 53.9715 14.531 59.9005 12.8865 69.608C11.319 78.8425 12.6995 90.9095 12.8865 92.3175C12.743 92.2791 12.5933 92.2701 12.4463 92.2912C12.2992 92.3122 12.158 92.3628 12.0311 92.4399C11.9041 92.5169 11.7941 92.6189 11.7077 92.7397C11.6212 92.8605 11.5601 92.9975 11.528 93.1425C11.4324 93.0737 11.3235 93.0258 11.2082 93.0018C11.0929 92.9778 10.9739 92.9783 10.8588 93.0032C10.7438 93.028 10.6352 93.0768 10.5401 93.1463C10.4451 93.2157 10.3657 93.3044 10.307 93.4065C9.82851 94.215 9.96601 95.7495 9.97701 95.8265H3.00851C2.97178 95.8211 2.93432 95.8237 2.89867 95.834C2.86302 95.8444 2.83003 95.8623 2.80193 95.8866C2.77384 95.9109 2.7513 95.9409 2.73585 95.9747C2.7204 96.0084 2.7124 96.0451 2.7124 96.0822C2.7124 96.1194 2.7204 96.156 2.73585 96.1898C2.7513 96.2236 2.77384 96.2536 2.80193 96.2779C2.83003 96.3021 2.86302 96.3201 2.89867 96.3304C2.93432 96.3408 2.97178 96.3434 3.00851 96.338H10.0045C10.0781 96.9803 10.2801 97.6013 10.5985 98.164C10.6528 98.2747 10.7349 98.3695 10.8367 98.4392C10.9385 98.5088 11.0566 98.551 11.1795 98.5615C11.3024 98.572 11.4259 98.5505 11.538 98.4992C11.6502 98.4479 11.7472 98.3684 11.8195 98.2685C11.847 98.329 12.6555 99.5225 13.2605 98.384C13.2605 98.4445 13.8875 99.341 14.4595 98.5105C14.4595 98.5105 15.048 99.0935 15.444 98.1365C15.6404 97.5644 15.7606 96.969 15.8015 96.3655C15.8345 96.3655 17.1105 96.338 17.1105 96.338C17.4405 98.1805 18.4635 97.922 18.722 97.6305C18.981 97.2519 19.0996 96.7947 19.0575 96.338H19.6075C19.371 75.812 19.811 71.588 19.8165 71.511C19.8238 71.4439 19.8575 71.3824 19.9101 71.3401C19.9627 71.2979 20.0299 71.2782 20.097 71.2855C20.1641 71.2928 20.2256 71.3264 20.2679 71.379C20.3101 71.4316 20.3298 71.4989 20.3225 71.566C20.3225 71.61 19.8825 75.856 20.119 96.316H107.019C107.056 96.3214 107.093 96.3188 107.129 96.3084C107.164 96.2981 107.197 96.2801 107.226 96.2559C107.254 96.2316 107.276 96.2016 107.292 96.1678C107.307 96.134 107.315 96.0974 107.315 96.0602C107.315 96.0231 107.307 95.9864 107.292 95.9527C107.276 95.9189 107.254 95.8889 107.226 95.8646C107.197 95.8403 107.164 95.8224 107.129 95.812C107.093 95.8017 107.056 95.7991 107.019 95.8045L106.992 95.8265ZM48.2185 31.9275C47.7296 30.8182 47.4053 29.6435 47.256 28.4405C47.2434 28.2863 47.1716 28.1431 47.0558 28.0406C46.94 27.9381 46.789 27.8843 46.6345 27.8905C43.802 27.94 44.517 25.872 44.7315 25.6135C45.6335 24.662 47.047 25.223 47.399 24.9315C47.751 24.64 48.092 21.406 50.0995 21.0815C51.5955 20.823 52.921 21.747 54.318 21.56C55.715 21.373 56.386 20.6305 57.563 20.427C58.74 20.2235 59.51 20.7295 60.313 20.7075C60.368 20.7075 60.313 20.5205 60.434 23.1935C60.588 26.3835 60.72 29.9145 58.949 32.593C58.5228 33.2896 57.9325 33.8713 57.2298 34.2873C56.5271 34.7034 55.7332 34.9412 54.9175 34.98C54.8561 34.989 54.8 35.0198 54.7595 35.0668C54.7189 35.1137 54.6966 35.1737 54.6966 35.2357C54.6966 35.2978 54.7189 35.3577 54.7595 35.4047C54.8 35.4517 54.8561 35.4825 54.9175 35.4915C55.2886 35.4719 55.657 35.4167 56.0175 35.3265C55.9621 36.4292 56.0174 37.5348 56.1825 38.6265C56.1955 38.6951 56.1889 38.766 56.1637 38.8312C56.1384 38.8963 56.0954 38.953 56.0395 38.995C53.46 40.9475 51.513 39.6605 50.798 38.995C50.7514 38.9606 50.7146 38.9145 50.6915 38.8614C50.6683 38.8083 50.6595 38.7501 50.666 38.6925C50.9465 37.5349 51.0832 36.3471 51.073 35.156C51.0715 35.1062 51.0556 35.0579 51.0273 35.0169C50.9991 34.976 50.9595 34.944 50.9135 34.925C49.5275 34.364 48.6475 32.8735 48.2185 31.9275ZM11.0275 97.9C10.3965 96.5936 10.2787 95.098 10.6975 93.709C10.7234 93.6457 10.7669 93.5912 10.8229 93.5519C10.8788 93.5126 10.9449 93.4902 11.0132 93.4873C11.0815 93.4844 11.1492 93.5012 11.2083 93.5356C11.2674 93.57 11.3153 93.6206 11.3465 93.6815C11.1336 94.9378 11.1974 96.2254 11.5335 97.4545C11.7205 98.219 11.121 98.0265 11.0275 97.9ZM12.6335 98.417C12.5235 98.417 12.32 98.252 12.1385 97.7075C11.6731 96.4076 11.5817 95.0032 11.8745 93.654C11.8745 93.654 12.2265 92.554 12.8095 92.8675C12.4803 94.4656 12.5369 96.1191 12.9745 97.691C12.9745 97.7845 12.9965 98.3235 12.65 98.395L12.6335 98.417ZM14.168 97.669C14.168 97.867 14.0745 98.3455 13.871 98.3455C13.871 98.3455 13.7335 98.274 13.5905 97.9275C13.4475 97.581 12.6995 94.9355 13.321 92.9115C13.3764 92.8117 13.4547 92.7266 13.5495 92.663C13.6443 92.5994 13.7528 92.5593 13.8661 92.5459C13.9794 92.5324 14.0943 92.5461 14.2013 92.5858C14.3083 92.6254 14.4043 92.6899 14.4815 92.774C14.4815 92.774 13.9315 93.907 14.168 97.647V97.669ZM18.337 97.3115C18.271 97.3885 17.9355 97.614 17.6715 96.6185C17.6264 96.3324 17.5005 96.0653 17.3085 95.8485C16.8326 95.778 16.3489 95.778 15.873 95.8485C15.9005 95.678 16.0215 95.2215 15.9115 95.1335C15.8579 95.0929 15.7906 95.0748 15.7238 95.083C15.6571 95.0912 15.5962 95.1251 15.554 95.1775C15.18 95.6505 15.3285 98.3345 14.8445 98.2025C14.6025 98.2025 14.2945 96.0025 14.8445 93.225C14.8775 93.0765 14.9655 92.7355 15.235 92.7355C15.84 92.7355 16.335 93.456 16.6485 93.9345C16.8795 94.281 17.017 94.4845 17.2315 94.5175C17.5469 94.6007 17.8331 94.7696 18.0583 95.0055C18.2836 95.2414 18.439 95.5351 18.5075 95.854C18.5728 96.3392 18.5142 96.8331 18.337 97.2895V97.3115ZM98.549 83.4735C99.2145 84.392 98.978 88.088 98.362 88.4235C98.274 88.4785 98.01 88.2805 97.966 87.7745C98.0652 86.3432 98.0413 84.9061 97.8945 83.479C97.9343 83.432 97.9834 83.3938 98.0387 83.3668C98.0939 83.3397 98.1542 83.3244 98.2157 83.3218C98.2772 83.3193 98.3386 83.3294 98.396 83.3518C98.4533 83.3741 98.5054 83.408 98.549 83.4515V83.4735ZM97.064 82.8575C97.185 82.984 97.7955 84.0565 97.4325 87.846C97.339 88.814 96.6185 88.8745 96.6625 88.242C96.756 86.889 96.833 84.0235 96.393 82.742C96.497 82.673 96.6226 82.6445 96.7462 82.6617C96.8698 82.6789 96.9828 82.7407 97.064 82.8355V82.8575ZM95.7385 82.566C96.1242 83.6683 96.3104 84.8304 96.2885 85.998C96.2885 87.5875 96.118 88.2915 95.964 88.594C95.945 88.6308 95.9155 88.6611 95.8793 88.6811C95.8431 88.7011 95.8017 88.7098 95.7605 88.7063C95.7192 88.7028 95.68 88.6871 95.6477 88.6612C95.6154 88.6353 95.5915 88.6005 95.579 88.561C95.4353 87.7404 95.369 86.908 95.381 86.075C95.3684 84.943 95.1426 83.8234 94.7155 82.775C94.7666 82.6916 94.8338 82.6193 94.9133 82.5624C94.9928 82.5054 95.0829 82.465 95.1782 82.4434C95.2736 82.4219 95.3723 82.4197 95.4685 82.437C95.5648 82.4542 95.6566 82.4906 95.7385 82.544V82.566ZM91.8885 84.634C92.18 84.634 92.411 84.37 92.598 83.996C93.3735 82.456 94.1875 82.8355 94.3305 83.1545C94.6677 84.0926 94.8534 85.0785 94.8805 86.075C94.8805 86.1135 95.051 88.7535 94.7375 88.7095C94.4185 88.7535 94.1435 86.603 94.0445 86.075C94.0247 85.7604 93.9304 85.455 93.7695 85.184C93.7416 85.1514 93.7061 85.1262 93.666 85.1108C93.626 85.0953 93.5827 85.0901 93.5402 85.0955C93.4976 85.101 93.457 85.117 93.4222 85.142C93.3873 85.1671 93.3593 85.2004 93.3405 85.239C93.2855 85.3545 93.3405 85.437 93.39 85.5415C93.4353 85.6546 93.4667 85.7728 93.4835 85.8935C93.0765 85.8935 91.6685 85.8935 91.6355 86.2235C91.476 87.7525 90.7665 88.308 90.6125 86.5975C90.607 86.46 90.453 84.623 91.9105 84.612L91.8885 84.634ZM82.764 71.7365C85.2005 74.701 87.769 84.8485 88.077 86.108L82.7585 86.1575C82.225 80.85 82.786 71.7145 82.786 71.7145L82.764 71.7365ZM82.0765 86.79C82.0793 86.7598 82.0932 86.7318 82.1156 86.7115C82.138 86.6911 82.1672 86.6799 82.1975 86.68C83.2975 86.68 86.5645 86.625 90.079 86.603C90.189 88.088 90.86 88.176 91.113 88.1595C91.9655 88.121 91.8115 86.6965 92.0755 86.4655C92.5685 86.3703 93.0733 86.3536 93.5715 86.416C93.5715 86.4655 93.8465 89.2595 94.732 89.2595C94.8234 89.2648 94.9141 89.2403 94.9905 89.1898C95.0668 89.1392 95.1247 89.0652 95.1555 88.979C95.2306 89.0673 95.3267 89.1354 95.4349 89.1769C95.5432 89.2185 95.6601 89.2323 95.775 89.2169C95.8899 89.2016 95.9992 89.1577 96.0927 89.0892C96.1863 89.0208 96.2612 88.9299 96.3105 88.825C96.4275 89.0041 96.6021 89.138 96.8055 89.2045C97.3115 89.342 97.6965 88.7095 97.724 88.6545C97.7897 88.7549 97.8811 88.8358 97.9887 88.8888C98.0963 88.9419 98.2161 88.9652 98.3357 88.9562C98.4553 88.9472 98.5704 88.9063 98.6688 88.8377C98.7673 88.7692 98.8456 88.6755 98.8955 88.5665C99.1801 87.972 99.3446 87.3272 99.3795 86.669C99.3795 86.669 100.309 86.669 100.65 86.669C100.681 86.669 100.71 86.6812 100.732 86.7028C100.753 86.7245 100.766 86.7538 100.766 86.7845C100.766 87.45 100.766 89.0505 100.766 90.233C100.689 90.233 84.304 90.189 82.0655 90.233C82.0875 89.7325 82.027 88.319 82.0985 86.768L82.0765 86.79ZM79.5685 90.893C79.5685 90.8609 79.5813 90.8301 79.6039 90.8074C79.6266 90.7847 79.6574 90.772 79.6895 90.772C81.6915 90.7335 101.723 90.772 102.042 90.772C102.072 90.772 102.102 90.7841 102.123 90.8058C102.145 90.8275 102.157 90.8569 102.157 90.8875C102.157 91.058 102.157 91.3 102.157 91.5915C99.9075 91.5915 81.114 91.5915 79.5575 91.5915L79.5685 90.893ZM42.7735 64.317C43.263 62.546 45.5235 62.084 45.9305 61.567C46.695 60.588 46.541 58.1075 48.532 57.3925C50.248 56.7765 51.535 58.2615 51.5845 58.322C51.612 58.353 51.6463 58.3771 51.6848 58.3923C51.7233 58.4076 51.7648 58.4136 51.806 58.4098C51.8472 58.4061 51.887 58.3927 51.9221 58.3707C51.9572 58.3488 51.9866 58.3189 52.008 58.2835C52.008 58.2835 53.4765 55.8305 55.495 55.3355C58.0745 54.6975 59.2845 57.7885 59.345 57.926C59.8769 58.9314 60.629 59.8037 61.545 60.478C62.5185 60.907 64.3335 61.71 64.625 63.3765C64.7901 64.1143 64.8014 64.8782 64.658 65.6205C64.207 67.65 65.835 69.0855 65.549 71.0545C65.4115 72.0445 64.8065 72.49 64.1685 72.963C63.5622 73.3983 63.059 73.9616 62.6945 74.613C62.1445 75.559 61.5395 76.626 60.1095 76.538C60.6595 74.0685 60.6595 70.059 60.6595 68.3265C60.6558 68.1125 60.5717 67.9077 60.424 67.7528C60.2762 67.5979 60.0756 67.5043 59.862 67.4905C58.9676 67.4497 58.092 67.2191 57.2935 66.814C55.979 66.077 55.3245 62.238 52.2445 62.524C52.1836 62.528 52.1264 62.5544 52.0837 62.598C52.0411 62.6417 52.0161 62.6995 52.0135 62.7605C52.0135 62.7605 51.898 64.57 51.315 65.4555C50.281 67.0285 48.345 66.1045 47.377 67.9305C47.2877 68.0997 47.2441 68.2893 47.2505 68.4805C47.3 69.861 47.531 74.5305 47.8665 75.9055C46.7115 75.9055 44.7315 75.669 44.0165 74.756C42.823 73.2215 43.89 71.533 43.824 70.0535C43.758 68.574 41.998 67.166 42.7735 64.317ZM54.2795 81.7575C55.0652 81.8062 55.8516 81.6745 56.5785 81.3725C56.505 82.2915 56.5531 83.2161 56.7215 84.1225C56.7345 84.1792 56.7299 84.2386 56.7083 84.2926C56.6867 84.3467 56.6491 84.3929 56.6005 84.425C54.1255 86.075 52.25 84.832 51.557 84.2105C51.5127 84.1718 51.4811 84.1207 51.4664 84.0638C51.4516 84.0068 51.4545 83.9468 51.4745 83.8915C51.7045 83.0544 51.8247 82.191 51.832 81.323C51.8325 81.2735 51.8188 81.2249 51.7924 81.183C51.7661 81.141 51.7283 81.1075 51.6835 81.0865C50.5175 80.5365 48.9335 78.859 48.3835 75.7955C48.05 73.3643 47.848 70.9169 47.7785 68.464C47.7775 68.363 47.8001 68.2632 47.8445 68.1725C48.9445 66.11 52.0135 68.3265 52.5195 63.0245C55.1155 63.0245 55.5555 66.429 57.0625 67.265C57.9277 67.7103 58.8789 67.9636 59.851 68.0075C59.9352 68.013 60.0142 68.05 60.0723 68.1112C60.1304 68.1723 60.1633 68.2531 60.1645 68.3375C60.1645 69.8115 60.1645 74.8055 59.4385 77.1375C59.026 78.4355 57.7005 81.4385 54.307 81.279C54.2582 81.2955 54.2155 81.3262 54.1843 81.3672C54.1531 81.4082 54.1349 81.4576 54.1319 81.509C54.129 81.5604 54.1415 81.6115 54.1677 81.6558C54.194 81.7001 54.233 81.7355 54.2795 81.7575ZM47.85 82.115C47.5035 81.796 46.585 81.9115 46.244 81.972C46.2582 81.8881 46.2785 81.8054 46.3045 81.7245C46.3269 81.6999 46.3442 81.6712 46.3555 81.6399C46.3668 81.6087 46.3718 81.5755 46.3703 81.5423C46.3688 81.5091 46.3607 81.4766 46.3466 81.4465C46.3325 81.4164 46.3126 81.3894 46.288 81.367C46.2635 81.3446 46.2347 81.3273 46.2035 81.316C46.1722 81.3047 46.139 81.2997 46.1058 81.3012C46.0726 81.3027 46.0401 81.3108 46.01 81.3249C45.9799 81.339 45.9529 81.3589 45.9305 81.3835C45.7758 81.8097 45.6724 82.2528 45.6225 82.7035C45.5455 83.2865 45.353 84.81 45.0725 84.9695C44.8855 84.7495 44.7205 83.7155 44.7095 82.566C44.7095 81.73 44.88 79.3705 45.584 79.3705C46.684 79.3705 47.2945 80.8005 47.784 80.828C47.8335 80.828 48.7905 80.861 48.9775 81.653C49.0286 81.9288 49.0045 82.2132 48.9077 82.4764C48.8109 82.7396 48.645 82.972 48.4275 83.149C48.3395 83.2205 48.1085 83.369 47.927 83.27C47.872 83.2425 47.927 82.9895 47.927 82.852C47.927 82.7145 48.0645 82.2855 47.85 82.115ZM44.341 84.4415C44.374 85.327 43.703 84.964 43.5105 84.2875C43.123 82.682 43.1117 81.0086 43.4775 79.398C43.593 78.9965 44.726 79.255 44.627 79.574C44.1919 81.1589 44.1018 82.8188 44.363 84.4415H44.341ZM42.031 79.75C42.1375 79.6489 42.2701 79.5794 42.4138 79.5493C42.5576 79.5192 42.7069 79.5296 42.845 79.5795C42.471 80.8005 42.68 83.1985 43.0595 84.469C42.999 85.228 42.35 85.173 42.1905 84.854C41.5745 83.644 41.3105 80.4375 42.031 79.75ZM41.481 84.414C41.547 84.59 41.3215 85.4095 40.744 84.6835C40.1665 83.9575 39.5285 79.4255 41.228 80.333C41.1142 80.9123 41.0753 81.5038 41.1125 82.093C41.1125 82.5385 41.4645 84.414 41.4645 84.425L41.481 84.414ZM39.127 67.914C39.0885 67.606 39.5945 67.529 39.633 67.8425C40.2147 71.5767 40.582 75.3412 40.733 79.1175C40.733 79.4475 40.2325 79.4255 40.2215 79.1175C40.0651 75.3722 39.6941 71.6389 39.1105 67.936L39.127 67.914ZM41.5415 53.9C41.4755 54.659 41.173 56.4685 40.8265 58.3C40.1636 57.6806 39.4107 57.1651 38.5935 56.771C39.7705 55.55 40.9805 54.373 41.5415 53.9ZM53.691 91.85C52.8935 91.982 51.7935 92.18 50.633 92.4C50.567 91.9435 50.4735 91.509 50.3855 91.1405C51.062 91.212 52.5525 91.377 53.6855 91.586L53.691 91.85ZM53.658 92.3725C53.5845 93.519 53.5845 94.669 53.658 95.8155H44.2475C44.2475 95.381 44.308 94.4625 44.8855 94.2425C46.167 93.753 51.2875 92.7905 53.658 92.4V92.3725ZM79.079 90.86V95.81H54.2025C54.0933 94.214 54.1154 92.6118 54.2685 91.0195C57.6675 90.8985 69.9765 89.9195 70.103 89.8865C70.1701 89.8814 70.2324 89.8498 70.2763 89.7988C70.3201 89.7477 70.3419 89.6813 70.3368 89.6142C70.3317 89.5471 70.3001 89.4848 70.249 89.441C70.198 89.3971 70.1316 89.3754 70.0645 89.3805C69.9325 89.3805 57.0515 90.4365 54.032 90.5135C53.9695 90.5146 53.9096 90.5388 53.8639 90.5815C53.8182 90.6241 53.7899 90.6822 53.7845 90.7445C53.7845 90.7445 53.7845 90.882 53.7515 91.0745C52.459 90.8435 50.7815 90.6675 50.2425 90.6125C50.1545 90.299 50.083 90.0955 50.0775 90.0625C50.0586 90.01 50.0232 89.965 49.9766 89.9342C49.93 89.9035 49.8747 89.8887 49.819 89.892C43.4555 90.288 33.066 89.892 32.9615 89.892C32.8943 89.8919 32.8295 89.9174 32.7804 89.9634C32.7314 90.0094 32.7017 90.0724 32.6975 90.1395C32.696 90.1732 32.7013 90.2068 32.713 90.2384C32.7247 90.27 32.7426 90.299 32.7657 90.3236C32.7888 90.3482 32.8165 90.3679 32.8473 90.3816C32.8781 90.3954 32.9113 90.4028 32.945 90.4035C33.0495 90.4035 43.2465 90.7995 49.654 90.4035C49.8653 91.0779 50.0253 91.7674 50.1325 92.466C48.2977 92.7795 46.4831 93.2019 44.6985 93.731C43.824 94.0665 43.7305 95.238 43.736 95.7825H25.6795C28.083 88.968 34.4795 85.503 39.853 83.7595C40.535 86.163 41.6295 85.2665 41.756 85.0905C42.7735 86.1465 43.1915 85.3765 43.3345 85.129C44.121 85.855 44.5115 85.3765 44.6435 85.1785C44.6435 85.1785 45.848 86.5095 46.1835 82.4615C46.1835 82.4615 46.1835 82.291 47.4595 82.379C47.4802 82.4954 47.4802 82.6146 47.4595 82.731C47.234 84.0345 48.411 83.787 48.7685 83.512C49.0566 83.2789 49.2765 82.9726 49.4052 82.6251C49.5339 82.2777 49.5667 81.902 49.5 81.5375C49.4003 81.1843 49.1888 80.8728 48.8974 80.6498C48.6059 80.4267 48.25 80.304 47.883 80.3C47.7455 79.4145 47.531 78.133 47.1955 76.3455C47.531 76.373 47.8115 76.3785 47.9875 76.3785C48.5375 78.738 49.8135 80.674 51.2875 81.444C51.2751 82.2009 51.166 82.9532 50.963 83.6825C50.9105 83.8334 50.9039 83.9965 50.9441 84.1512C50.9842 84.3058 51.0693 84.4451 51.1885 84.5515C53.229 86.4435 55.847 85.492 56.859 84.81C56.9911 84.7205 57.0936 84.5938 57.1533 84.4459C57.2131 84.2979 57.2274 84.1356 57.1945 83.9795C57.0938 83.4481 57.0404 82.9088 57.035 82.368C68.31 81.3395 78.2485 89.452 79.3045 90.3485C79.2277 90.411 79.1671 90.4912 79.1278 90.5821C79.0885 90.6731 79.0718 90.7722 79.079 90.871V90.86ZM102.179 95.81H79.5905V95.0125C80.7455 95.0125 101.233 95.0455 102.201 95.0125C102.196 95.3425 102.19 95.612 102.185 95.8265L102.179 95.81ZM102.179 94.512C99.2915 94.5835 81.0865 94.512 79.563 94.512V92.07C80.608 92.07 101.409 92.07 102.168 92.07C102.201 92.829 102.212 93.7365 102.207 94.5285L102.179 94.512Z"></path>
  <path fill="#FF5300" d="M86.944 97.4325C86.8774 97.4311 86.8138 97.404 86.7667 97.3568C86.7195 97.3097 86.6924 97.2462 86.691 97.1795V93.2305C86.6856 93.1938 86.6882 93.1563 86.6986 93.1207C86.7089 93.085 86.7269 93.052 86.7511 93.0239C86.7754 92.9958 86.8054 92.9733 86.8392 92.9578C86.873 92.9424 86.9096 92.9344 86.9468 92.9344C86.9839 92.9344 87.0206 92.9424 87.0543 92.9578C87.0881 92.9733 87.1181 92.9958 87.1424 93.0239C87.1667 93.052 87.1846 93.085 87.195 93.1207C87.2053 93.1563 87.2079 93.1938 87.2025 93.2305V97.1795C87.2011 97.2471 87.1732 97.3114 87.1249 97.3587C87.0766 97.406 87.0116 97.4325 86.944 97.4325V97.4325Z"></path>
  <path fill="#232323" d="M50.7265 26.0205C51.0698 26.0205 51.348 25.661 51.348 25.2175C51.348 24.774 51.0698 24.4145 50.7265 24.4145C50.3833 24.4145 50.105 24.774 50.105 25.2175C50.105 25.661 50.3833 26.0205 50.7265 26.0205Z"></path>
  <path fill="#232323" d="M58.1515 26.1195C58.4947 26.1195 58.773 25.76 58.773 25.3165C58.773 24.873 58.4947 24.5135 58.1515 24.5135C57.8083 24.5135 57.53 24.873 57.53 25.3165C57.53 25.76 57.8083 26.1195 58.1515 26.1195Z"></path>
  <path fill="#232323" d="M46.2715 26.84C46.2389 26.8406 46.2064 26.8346 46.1762 26.8223C46.146 26.81 46.1185 26.7917 46.0955 26.7685C45.9352 26.6318 45.7478 26.5305 45.5455 26.4715C45.4806 26.4526 45.4259 26.4086 45.3934 26.3493C45.3609 26.29 45.3533 26.2202 45.3723 26.1553C45.3912 26.0904 45.4352 26.0356 45.4945 26.0032C45.5538 25.9707 45.6236 25.9631 45.6885 25.982C45.9613 26.0632 46.2116 26.2062 46.42 26.4C46.4544 26.4341 46.4785 26.4771 46.4897 26.5242C46.5008 26.5713 46.4985 26.6205 46.483 26.6664C46.4676 26.7122 46.4395 26.7528 46.4021 26.7835C46.3647 26.8142 46.3195 26.8338 46.2715 26.84V26.84Z"></path>
  <path fill="#232323" d="M29.6285 31.174C29.5083 30.7993 29.322 30.4491 29.0785 30.14C28.853 29.59 26.1965 23.364 25.828 22.6435C25.2395 21.4995 24.6455 21.4005 24.2495 21.5435C23.529 21.769 23.6555 22.7645 23.859 23.254C24.0625 23.7435 25.333 26.477 25.5805 27.1975C25.3592 27.3179 25.1315 27.4262 24.8985 27.522C24.717 27.148 23.9745 25.4265 23.441 24.3375C22.8415 23.1 22.2475 22.55 21.681 22.803C20.977 23.0945 20.9055 23.9525 21.483 25.3495C21.9779 26.4047 22.5287 27.4329 23.133 28.4295C22.9622 28.4187 22.7924 28.4631 22.6488 28.5562C22.5052 28.6493 22.3954 28.7862 22.3355 28.9465C21.604 28.9465 21.12 29.436 21.3345 30.437C21.6315 31.812 23.2045 33.9735 23.9635 34.0505C24.7225 34.1275 24.673 33.5005 24.673 33.2805C25.9655 33.627 25.575 31.977 25.432 31.5975C25.498 31.5975 27.1315 31.0475 27.324 32.032C27.39 32.351 27.9125 32.197 27.8135 31.878C27.4395 30.6845 26.2955 30.8935 25.542 31.053C24.7885 31.2125 24.717 30.921 24.805 30.7615C25.0855 30.2555 25.905 29.722 27.1425 29.6615C28.38 29.601 29.1335 31.3115 29.1445 31.3115C29.1729 31.3624 29.2176 31.4021 29.2714 31.4244C29.3252 31.4467 29.3849 31.4502 29.4409 31.4342C29.4969 31.4183 29.5459 31.384 29.58 31.3367C29.614 31.2895 29.6311 31.2322 29.6285 31.174V31.174ZM24.0075 33.55C23.65 33.517 22.132 31.7405 21.8075 30.338C21.7525 30.1015 21.6315 29.381 22.264 29.469C22.584 30.7265 23.205 31.8874 24.0735 32.8515C24.387 33.55 24.09 33.55 24.0075 33.55ZM27.1205 29.15C24.2825 29.271 23.408 31.6305 24.893 31.647C25.3605 32.681 24.86 32.813 24.7335 32.747C23.8016 31.8414 23.131 30.7014 22.792 29.447C22.792 29.2545 22.9405 28.699 23.452 29.0125L23.8865 29.7C23.9253 29.7497 23.981 29.7835 24.043 29.7951C24.1051 29.8066 24.1692 29.795 24.2232 29.7626C24.2773 29.7301 24.3177 29.679 24.3367 29.6188C24.3557 29.5587 24.3521 29.4937 24.3265 29.436C24.3265 29.403 22.451 26.3615 21.956 25.1515C21.703 24.541 21.362 23.5015 21.879 23.2705C22.0715 23.188 22.4675 23.4795 22.979 24.5355C23.353 25.311 23.7105 26.1195 24.002 26.774C24.552 28.072 24.552 28.072 24.7885 28.0555C25.2254 27.9328 25.6422 27.7476 26.026 27.5055C26.235 27.335 26.2515 27.3185 24.8105 24.134C24.5905 23.639 24.3925 23.21 24.3265 23.034C24.1835 22.6875 24.101 22.121 24.398 22.011C24.783 21.8625 25.1735 22.5005 25.366 22.8745C25.652 23.4245 27.39 27.4945 28.1985 29.392C27.8665 29.2186 27.4948 29.1352 27.1205 29.15V29.15Z"></path>
  <path fill="#232323" d="M39.666 49.599L40.359 48.312C40.3953 48.2591 40.4499 48.2216 40.5123 48.2067C40.5746 48.1919 40.6403 48.2007 40.6965 48.2316C40.7527 48.2624 40.7955 48.3131 40.8164 48.3737C40.8374 48.4343 40.8351 48.5005 40.81 48.5595L40.1115 49.841C40.0794 49.9 40.0252 49.944 39.9607 49.963C39.8962 49.9821 39.8268 49.9748 39.7677 49.9427C39.7087 49.9106 39.6648 49.8564 39.6457 49.7919C39.6266 49.7275 39.6339 49.658 39.666 49.599Z"></path>
  <path fill="#232323" d="M45.606 44.176L44.836 42.9385C44.8076 42.8812 44.8014 42.8155 44.8187 42.7539C44.8359 42.6924 44.8753 42.6394 44.9293 42.6052C44.9833 42.571 45.0481 42.5581 45.1111 42.5688C45.1741 42.5796 45.2309 42.6133 45.2705 42.6635L46.0405 43.9065C46.065 43.9634 46.0682 44.0271 46.0497 44.0862C46.0311 44.1453 45.9919 44.1957 45.9393 44.2284C45.8867 44.261 45.8241 44.2737 45.7629 44.264C45.7018 44.2544 45.6461 44.2232 45.606 44.176V44.176Z"></path>
  <path fill="#232323" d="M50.963 50.27L51.656 48.983C51.6929 48.9328 51.7466 48.8977 51.8073 48.884C51.868 48.8703 51.9316 48.8789 51.9865 48.9083C52.0413 48.9378 52.0837 48.986 52.1059 49.0442C52.128 49.1023 52.1284 49.1665 52.107 49.225L51.414 50.512C51.3771 50.5621 51.3234 50.5973 51.2627 50.611C51.202 50.6247 51.1384 50.616 51.0835 50.5866C51.0287 50.5572 50.9863 50.509 50.9642 50.4508C50.942 50.3926 50.9416 50.3284 50.963 50.27V50.27Z"></path>
  <path fill="#232323" d="M44.55 54.9065L45.43 56.0725C45.4709 56.1265 45.4886 56.1945 45.4793 56.2615C45.47 56.3285 45.4345 56.3892 45.3805 56.43C45.3265 56.4708 45.2586 56.4886 45.1915 56.4793C45.1245 56.47 45.0639 56.4345 45.023 56.3805L44.143 55.2145C44.1228 55.1878 44.108 55.1573 44.0996 55.1249C44.0911 55.0925 44.0891 55.0587 44.0937 55.0255C44.0983 54.9923 44.1094 54.9603 44.1264 54.9314C44.1433 54.9025 44.1658 54.8772 44.1925 54.857C44.2192 54.8368 44.2497 54.822 44.2821 54.8136C44.3145 54.8051 44.3483 54.8031 44.3815 54.8077C44.4147 54.8123 44.4467 54.8234 44.4756 54.8403C44.5045 54.8573 44.5298 54.8798 44.55 54.9065V54.9065Z"></path>
  <path fill="#232323" d="M58.8005 52.4205L58.6245 50.974C58.6157 50.9069 58.634 50.8391 58.6753 50.7854C58.7165 50.7318 58.7774 50.6967 58.8445 50.688C58.9116 50.6792 58.9794 50.6975 59.0331 50.7388C59.0867 50.78 59.1217 50.8409 59.1305 50.908L59.3065 52.36C59.3145 52.4271 59.2956 52.4946 59.2538 52.5478C59.212 52.6009 59.1508 52.6352 59.0837 52.6432C59.0166 52.6513 58.9491 52.6323 58.896 52.5905C58.8429 52.5488 58.8085 52.4876 58.8005 52.4205V52.4205Z"></path>
  <path fill="#232323" d="M59.6475 43.758L58.993 42.4545C58.9631 42.394 58.9585 42.324 58.9801 42.2601C59.0018 42.1961 59.048 42.1434 59.1085 42.1135C59.169 42.0836 59.239 42.079 59.3029 42.1006C59.3669 42.1223 59.4196 42.1685 59.4495 42.229L60.1095 43.5325C60.1313 43.5925 60.1301 43.6584 60.1061 43.7176C60.0822 43.7767 60.0372 43.825 59.9799 43.853C59.9225 43.8809 59.8569 43.8867 59.7955 43.8692C59.7341 43.8517 59.6814 43.8121 59.6475 43.758V43.758Z"></path>
  <path fill="#232323" d="M64.3115 48.048L65.747 48.3175C65.8099 48.3347 65.8641 48.3751 65.8985 48.4306C65.9329 48.486 65.945 48.5524 65.9325 48.6165C65.92 48.6805 65.8837 48.7375 65.8309 48.7759C65.7781 48.8143 65.7128 48.8313 65.648 48.8235L64.218 48.554C64.1563 48.5363 64.1034 48.4962 64.0696 48.4416C64.0358 48.387 64.0235 48.3217 64.0352 48.2586C64.0469 48.1954 64.0816 48.1389 64.1327 48.1C64.1838 48.061 64.2475 48.0425 64.3115 48.048V48.048Z"></path>
  <path fill="#232323" d="M31.9 46.123C32.278 45.7609 32.6223 45.3651 32.9285 44.9405C32.3455 44.88 31.5865 45.0395 31.416 44.638C31.3016 43.6966 31.2557 42.7481 31.2785 41.8C31.2731 41.7633 31.2757 41.7258 31.2861 41.6902C31.2964 41.6545 31.3144 41.6215 31.3386 41.5934C31.3629 41.5653 31.3929 41.5428 31.4267 41.5274C31.4604 41.5119 31.4971 41.5039 31.5343 41.5039C31.5714 41.5039 31.6081 41.5119 31.6418 41.5274C31.6756 41.5428 31.7056 41.5653 31.7299 41.5934C31.7542 41.6215 31.7721 41.6545 31.7825 41.6902C31.7928 41.7258 31.7954 41.7633 31.79 41.8C31.79 42.9 31.8175 44.077 31.867 44.407C32.3345 44.5005 33.4675 44.2475 33.4785 44.836C33.4785 45.199 32.813 45.936 32.241 46.486C32.1913 46.5184 32.1317 46.5322 32.0728 46.5251C32.0139 46.518 31.9593 46.4904 31.9187 46.4471C31.878 46.4039 31.8539 46.3477 31.8505 46.2885C31.8471 46.2292 31.8646 46.1706 31.9 46.123V46.123Z"></path>
  <path fill="#232323" d="M28.05 42.35C28.0015 42.3501 27.954 42.3363 27.9132 42.3102C27.8723 42.2841 27.8398 42.2469 27.8195 42.2028C27.7992 42.1588 27.792 42.1098 27.7988 42.0618C27.8055 42.0138 27.8259 41.9687 27.8575 41.932C28.1032 41.6509 28.4476 41.4752 28.8194 41.4414C29.1912 41.4076 29.5617 41.5183 29.854 41.7505C29.9025 41.792 29.9339 41.85 29.9422 41.9133C29.9504 41.9767 29.935 42.0408 29.8988 42.0934C29.8626 42.146 29.8082 42.1833 29.7461 42.1982C29.684 42.2131 29.6186 42.2044 29.5625 42.174C29.3755 42.0136 29.1331 41.9329 28.8873 41.9494C28.6415 41.9658 28.4119 42.0781 28.248 42.262C28.2238 42.2907 28.1935 42.3136 28.1591 42.3288C28.1248 42.3441 28.0875 42.3513 28.05 42.35V42.35Z"></path>
  <path fill="#232323" d="M35.013 42.13C34.9804 42.1303 34.9481 42.1241 34.9179 42.1118C34.8877 42.0996 34.8602 42.0814 34.837 42.0585C34.7558 41.9772 34.6593 41.9127 34.5532 41.8687C34.447 41.8247 34.3332 41.802 34.2183 41.802C34.1033 41.802 33.9895 41.8247 33.8833 41.8687C33.7772 41.9127 33.6807 41.9772 33.5995 42.0585C33.5511 42.1062 33.4859 42.133 33.418 42.133C33.3501 42.133 33.2849 42.1062 33.2365 42.0585C33.2122 42.0349 33.1929 42.0067 33.1797 41.9756C33.1666 41.9444 33.1598 41.9109 33.1598 41.877C33.1598 41.8432 33.1666 41.8097 33.1797 41.7785C33.1929 41.7473 33.2122 41.7191 33.2365 41.6955C33.3635 41.5661 33.515 41.4634 33.6821 41.3932C33.8493 41.3231 34.0287 41.2869 34.21 41.2869C34.3913 41.2869 34.5707 41.3231 34.7379 41.3932C34.905 41.4634 35.0565 41.5661 35.1835 41.6955C35.2169 41.7312 35.2395 41.7756 35.2487 41.8236C35.2578 41.8715 35.2533 41.9211 35.2354 41.9666C35.2176 42.0121 35.1872 42.0516 35.1478 42.0805C35.1085 42.1094 35.0617 42.1266 35.013 42.13V42.13Z"></path>
  <path fill="#232323" d="M24.497 45.5015C24.3155 45.3585 23.8865 45.0945 23.8865 45.0945C23.853 45.0796 23.8231 45.0578 23.7987 45.0305C23.7743 45.0032 23.756 44.9711 23.7449 44.9362C23.7339 44.9013 23.7304 44.8644 23.7347 44.828C23.739 44.7917 23.7509 44.7566 23.7697 44.7252C23.7886 44.6938 23.8139 44.6668 23.844 44.6459C23.874 44.625 23.9082 44.6108 23.9442 44.6041C23.9802 44.5974 24.0172 44.5984 24.0528 44.6071C24.0883 44.6158 24.1216 44.632 24.1505 44.6545C24.1505 44.6545 24.607 44.9405 24.816 45.1C24.8598 45.145 24.8858 45.2045 24.8889 45.2673C24.8921 45.3301 24.8723 45.3919 24.8332 45.4411C24.794 45.4903 24.7383 45.5236 24.6765 45.5347C24.6146 45.5458 24.5508 45.534 24.497 45.5015V45.5015Z"></path>
  <path fill="#232323" d="M31.603 50.1875C30.547 50.1875 29.92 49.3515 29.7055 48.323C29.6924 48.26 29.6942 48.1948 29.7108 48.1326C29.7274 48.0704 29.7583 48.013 29.801 47.9649C29.8438 47.9168 29.8972 47.8793 29.957 47.8556C30.0168 47.8318 30.0814 47.8224 30.1455 47.828C31.0966 47.8915 32.0513 47.8768 33 47.784C33.0663 47.7763 33.1334 47.7845 33.1958 47.808C33.2583 47.8315 33.3142 47.8697 33.3588 47.9192C33.4035 47.9687 33.4357 48.0282 33.4527 48.0927C33.4697 48.1573 33.471 48.2249 33.4565 48.29C33.055 49.973 32.0815 50.1875 31.603 50.1875ZM30.25 48.345C30.371 48.807 30.701 49.632 31.5645 49.676C32.428 49.72 32.7855 48.818 32.9175 48.3065C32.0307 48.3885 31.1388 48.4013 30.25 48.345V48.345Z"></path>
  <path fill="#232323" d="M28.666 44.517C28.9637 44.517 29.205 44.2067 29.205 43.824C29.205 43.4412 28.9637 43.131 28.666 43.131C28.3683 43.131 28.127 43.4412 28.127 43.824C28.127 44.2067 28.3683 44.517 28.666 44.517Z"></path>
  <path fill="#232323" d="M34.3365 44.4565C34.6342 44.4565 34.8755 44.1462 34.8755 43.7635C34.8755 43.3808 34.6342 43.0705 34.3365 43.0705C34.0388 43.0705 33.7975 43.3808 33.7975 43.7635C33.7975 44.1462 34.0388 44.4565 34.3365 44.4565Z"></path>
  <path fill="#FFD8D0" d="M28.5275 45.8853C28.5597 45.6138 28.2923 45.3589 27.9304 45.316C27.5684 45.2731 27.2489 45.4584 27.2167 45.7299C27.1845 46.0014 27.4519 46.2562 27.8138 46.2991C28.1758 46.342 28.4953 46.1567 28.5275 45.8853Z"></path>
  <path fill="#FFD8D0" d="M35.3614 46.5466C35.7251 46.5231 36.0058 46.283 35.9882 46.0102C35.9706 45.7373 35.6614 45.5352 35.2977 45.5587C34.9339 45.5821 34.6533 45.8223 34.6709 46.0951C34.6885 46.3679 34.9976 46.5701 35.3614 46.5466Z"></path>
  <path fill="#ffffff" d="M29.205 58.5915C28.6907 58.4536 28.2094 58.2136 27.7898 57.8857C27.3703 57.5578 27.0211 57.1487 26.763 56.683C26.7517 56.6621 26.736 56.644 26.717 56.6297C26.698 56.6155 26.6762 56.6055 26.653 56.6005C26.1581 56.5081 25.6547 56.4694 25.1515 56.485C25.1294 56.4857 25.1076 56.4908 25.0874 56.5001C25.0673 56.5094 25.0493 56.5227 25.0344 56.5391C25.0195 56.5555 25.0081 56.5748 25.0008 56.5957C24.9935 56.6167 24.9905 56.6389 24.992 56.661C25.1515 59.862 25.542 61.4405 25.7455 62.04C25.7559 62.0681 25.7735 62.093 25.7966 62.1122C25.8197 62.1313 25.8474 62.1441 25.8769 62.1491C25.9065 62.1541 25.9369 62.1512 25.965 62.1408C25.9931 62.1303 26.0179 62.1126 26.037 62.0895C26.9928 60.9022 28.0795 59.8265 29.2765 58.883C29.3013 58.8634 29.32 58.837 29.3302 58.8071C29.3405 58.7772 29.3419 58.745 29.3344 58.7143C29.3269 58.6835 29.3107 58.6556 29.2877 58.6339C29.2648 58.6121 29.2361 58.5974 29.205 58.5915V58.5915Z"></path>
  <path fill="#ffffff" d="M34.43 56.65C34.43 56.5858 34.4045 56.5243 34.3591 56.4789C34.3137 56.4335 34.2522 56.408 34.188 56.408C33.9535 56.4189 33.7201 56.4465 33.4895 56.4905C33.446 56.4979 33.4055 56.5172 33.3725 56.5464C33.3394 56.5755 33.3152 56.6133 33.3025 56.6555C32.9065 57.7225 31.6525 58.421 31.0035 58.641C30.9655 58.6529 30.9312 58.6741 30.9036 58.7027C30.876 58.7313 30.856 58.7665 30.8456 58.8049C30.8352 58.8432 30.8346 58.8836 30.844 58.9223C30.8533 58.9609 30.8722 58.9966 30.899 59.026C31.8615 60.126 33.1705 61.5505 33.7645 62.183C33.7962 62.2148 33.8359 62.2373 33.8794 62.2483C33.9229 62.2592 33.9685 62.2581 34.0114 62.2451C34.0544 62.2322 34.093 62.2077 34.1231 62.1745C34.1532 62.1413 34.1737 62.1005 34.1825 62.0565C34.3787 60.2614 34.4614 58.4556 34.43 56.65V56.65Z"></path>
</svg>