<svg xmlns="http://www.w3.org/2000/svg" fill="none" viewBox="0 0 400 400">
  <g transform="matrix(2,0,0,2,0,0)">
    <path fill="#EAEAEA" d="M163.894 158.258H145.744C145.617 158.752 145.374 159.208 145.035 159.589C144.696 159.97 144.271 160.264 143.795 160.447C143.87 160.555 146.275 164.028 147.395 165.66C147.653 165.942 147.822 166.295 147.879 166.673C147.879 166.902 147.809 167.126 147.679 167.316C147.55 167.505 147.366 167.651 147.152 167.734C146.938 167.817 146.704 167.834 146.481 167.782C146.257 167.731 146.055 167.613 145.899 167.444C145.41 166.92 143.293 164.751 142.911 164.36C142.67 164.66 142.382 164.919 142.058 165.127C140.944 165.756 139.678 166.062 138.4 166.012C138.666 166.351 138.861 166.741 138.973 167.157C139.084 167.574 139.111 168.009 139.05 168.436C138.99 168.863 138.843 169.273 138.62 169.642C138.397 170.011 138.102 170.331 137.752 170.583C136.867 171.25 135.89 171.786 134.852 172.173C133.552 172.673 132.267 173.214 130.968 173.721C119.668 178.121 108.211 181.793 96.291 183.369C96.291 183.774 96.31 184.208 96.31 184.208C96.3113 184.305 96.3504 184.398 96.4189 184.466C96.4875 184.535 96.5801 184.574 96.677 184.575H163.891C163.988 184.574 164.081 184.535 164.149 184.466C164.218 184.398 164.257 184.305 164.258 184.208V158.625C164.257 158.529 164.218 158.436 164.15 158.368C164.082 158.299 163.99 158.26 163.894 158.258V158.258Z"></path>
    <path fill="#a0a0a0" d="M147.4 165.66C146.278 164.028 143.873 160.56 143.8 160.447C143.665 160.493 143.527 160.526 143.386 160.547C143.689 161.158 143.806 161.845 143.723 162.522C143.64 163.199 143.36 163.837 142.918 164.357C143.891 165.357 144.864 166.357 145.838 167.357C145.983 167.546 146.184 167.685 146.411 167.754C146.639 167.824 146.883 167.82 147.109 167.744C147.335 167.668 147.531 167.523 147.67 167.33C147.81 167.136 147.885 166.904 147.886 166.666C147.827 166.29 147.658 165.94 147.4 165.66V165.66Z"></path>
    <path fill="#a0a0a0" d="M114.394 120.047C114.351 119.984 114.284 119.942 114.21 119.927C114.135 119.913 114.057 119.929 113.994 119.971C113.773 120.122 111.975 121.618 106.853 125.846C106.786 125.916 106.749 126.008 106.749 126.105C106.749 126.201 106.786 126.294 106.853 126.364C111.111 130.964 111.519 131.786 122.353 143.134C126.037 142.878 129.724 143.59 133.047 145.2C126.475 136.02 114.478 120.156 114.394 120.047Z"></path>
    <path fill="#ffffff" d="M117.712 15.851C117.142 14.1109 116.139 12.5441 114.798 11.2976C113.457 10.051 111.821 9.16545 110.044 8.72399C107.999 8.21499 112.793 8.36899 44.062 8.36899C43.352 8.36899 42.637 8.35099 41.929 8.41699C39.1889 8.67028 36.6423 9.93788 34.7883 11.9713C32.9344 14.0047 31.9068 16.6573 31.907 19.409V41.13C38.893 37.904 45.856 41.714 47.048 47.43C53.0049 42.9647 59.3059 38.9779 65.892 35.507C67.63 34.647 69.724 34.068 71.38 35.388C72.0263 35.9158 72.532 36.5954 72.852 37.366C73.172 38.1367 73.2964 38.9746 73.214 39.805C72.806 44.415 67.79 48.264 64.181 51.125H117.932C118.029 51.1234 118.121 51.0842 118.189 51.0157C118.258 50.9472 118.297 50.8548 118.298 50.758V37.979H115.188C115.124 37.9778 115.061 37.9601 115.006 37.9275C114.951 37.895 114.906 37.8486 114.874 37.7931C114.842 37.7376 114.825 37.6748 114.825 37.6108C114.824 37.5468 114.841 37.4838 114.872 37.428C115.103 37.028 116.459 34.705 118.298 31.547V23.56C116.73 24.07 115.178 23.041 115.011 20.906C114.902 19.512 115.481 17.189 113.852 16.435C113.513 16.3173 113.141 16.337 112.816 16.4898C112.491 16.6427 112.239 16.9166 112.114 17.253C111.815 17.9574 111.693 18.7246 111.76 19.487C111.781 20.817 111.95 22.922 110.251 23.298C109.583 23.4491 108.884 23.3573 108.278 23.039C107.657 22.6466 107.202 22.0398 107 21.334C106.694 19.7058 106.699 18.0342 107.016 16.408C107.073 15.946 107.816 15.942 107.748 16.408C107.614 17.382 107.532 18.3623 107.502 19.345C107.435 20.1728 107.604 21.0027 107.988 21.739C108.12 21.9688 108.301 22.1665 108.519 22.3176C108.737 22.4687 108.985 22.5696 109.247 22.6129C109.508 22.6561 109.776 22.6407 110.031 22.5677C110.286 22.4948 110.521 22.3661 110.72 22.191C111.556 20.645 110.384 18.12 111.844 16.356C112.077 16.0687 112.384 15.8508 112.733 15.726C113.081 15.6011 113.457 15.5742 113.819 15.648C114.16 15.7527 114.476 15.9288 114.744 16.1647C115.012 16.4005 115.227 16.6907 115.375 17.016C116.091 18.565 115.351 20.316 115.983 21.875C116.067 22.094 116.195 22.2931 116.36 22.4594C116.526 22.6256 116.724 22.7553 116.943 22.8402C117.161 22.925 117.395 22.963 117.629 22.9518C117.863 22.9405 118.093 22.8803 118.302 22.775V20.623C118.391 19.0099 118.191 17.3939 117.712 15.851V15.851ZM66.662 19.9L61.449 26.2C61.592 26.354 64.949 30.007 66.485 31.679C66.804 32.026 66.285 32.546 65.967 32.197C65.75 31.961 62.254 28.133 60.705 26.472C60.6393 26.4018 60.6027 26.3092 60.6027 26.213C60.6027 26.1168 60.6393 26.0242 60.705 25.954C60.929 25.685 64.554 21.306 66.144 19.386C66.445 19.016 66.961 19.537 66.662 19.9ZM82.12 20.342C82.12 20.342 73.369 29.2 70.23 32.23C70.1602 32.2937 70.0685 32.328 69.974 32.3258C69.8796 32.3236 69.7896 32.2851 69.7228 32.2182C69.6561 32.1513 69.6177 32.0612 69.6156 31.9668C69.6136 31.8723 69.6481 31.7807 69.712 31.711C70.573 30.821 78.463 22.857 81.601 19.822C81.6707 19.7581 81.7623 19.7236 81.8568 19.7257C81.9512 19.7277 82.0413 19.7661 82.1082 19.8328C82.1751 19.8996 82.2136 19.9896 82.2158 20.084C82.218 20.1785 82.1837 20.2702 82.12 20.34V20.342ZM90.736 26.468C90.518 26.703 87.012 30.521 85.475 32.193C85.155 32.542 84.638 32.022 84.957 31.675L89.992 26.196C89.845 26.017 86.37 21.82 84.78 19.896C84.48 19.535 84.997 19.014 85.298 19.378L90.736 25.946C90.8027 26.0161 90.84 26.1092 90.84 26.206C90.84 26.3028 90.8027 26.3959 90.736 26.466V26.468Z"></path>
    <path fill="#a0a0a0" d="M66.1441 19.38L60.7051 25.948C60.6394 26.0182 60.6028 26.1108 60.6028 26.207C60.6028 26.3032 60.6394 26.3958 60.7051 26.466C62.2541 28.127 65.7501 31.955 65.9671 32.191C66.2871 32.539 66.8041 32.02 66.4851 31.673L61.4491 26.194L66.6621 19.894C66.9611 19.537 66.4451 19.016 66.1441 19.38Z"></path>
    <path fill="#a0a0a0" d="M89.9919 26.194L84.9569 31.673C84.6379 32.02 85.1569 32.54 85.4749 32.191C87.0119 30.519 90.5179 26.701 90.7359 26.466C90.8021 26.396 90.8389 26.3033 90.8389 26.207C90.8389 26.1107 90.8021 26.018 90.7359 25.948L85.2999 19.38C84.9999 19.016 84.4829 19.537 84.7819 19.898C90.8639 27.246 89.2199 25.261 89.9919 26.194Z"></path>
    <path fill="#a0a0a0" d="M82.1199 20.34C82.1836 20.2702 82.2179 20.1785 82.2157 20.084C82.2135 19.9896 82.175 19.8996 82.1081 19.8328C82.0412 19.7661 81.9512 19.7277 81.8567 19.7257C81.7622 19.7237 81.6706 19.7582 81.6009 19.822C78.4619 22.857 70.5729 30.822 69.7119 31.711C69.6481 31.7807 69.6135 31.8723 69.6156 31.9668C69.6176 32.0613 69.656 32.1513 69.7227 32.2182C69.7895 32.2851 69.8795 32.3236 69.9739 32.3258C70.0684 32.328 70.1601 32.2937 70.2299 32.23C73.3689 29.2 82.1199 20.34 82.1199 20.34Z"></path>
    <path fill="#EAEAEA" d="M118.028 57.613C118.028 53.432 118.055 53.671 117.967 53.54C118.005 53.6104 118.021 53.6905 118.012 53.77C118.004 53.8495 117.972 53.9247 117.921 53.986C117.921 53.986 94.02 81.543 92.832 82.9C91.2317 84.7472 89.2392 86.2137 86.9998 87.1924C84.7603 88.1711 82.3306 88.6373 79.888 88.557H51.351C51.134 89.023 50.919 89.49 50.699 89.957C55.07 89.064 57.357 90.525 59.79 89.106C59.8326 89.082 59.8795 89.0667 59.9281 89.061C59.9766 89.0554 60.0258 89.0594 60.0728 89.0729C60.1198 89.0864 60.1636 89.1091 60.2018 89.1396C60.2399 89.1702 60.2716 89.2081 60.295 89.251C60.4888 90.3973 60.3834 91.5743 59.989 92.668C59.904 92.916 59.809 93.16 59.701 93.4C59.701 93.4 78.619 93.4 80.401 93.4C82.8724 93.4073 85.3135 92.8569 87.5426 91.7896C89.7717 90.7224 91.7311 89.1658 93.275 87.236C95.208 84.969 117.102 59.773 117.727 59.053C117.88 58.9207 117.985 58.7419 118.027 58.544C118.044 58.2339 118.045 57.9231 118.028 57.613V57.613Z"></path>
    <path fill="#a0a0a0" d="M117.662 53.36H61.4721C58.9151 55.6 56.6441 58.165 56.1341 61.542H71.8801C71.974 61.5469 72.0624 61.5876 72.1271 61.6558C72.1918 61.724 72.2279 61.8145 72.2279 61.9085C72.2279 62.0025 72.1918 62.0929 72.1271 62.1611C72.0624 62.2293 71.974 62.2701 71.8801 62.275H56.0591C55.8948 63.4375 56.1652 64.6197 56.8187 65.5952C57.4721 66.5706 58.4625 67.2706 59.6001 67.561C61.6913 68.0214 63.8047 68.3745 65.9321 68.619C71.2461 69.419 72.8771 69.532 74.7151 70.245H83.3081C83.402 70.2499 83.4904 70.2906 83.5551 70.3588C83.6198 70.427 83.6559 70.5175 83.6559 70.6115C83.6559 70.7055 83.6198 70.7959 83.5551 70.8641C83.4904 70.9323 83.402 70.9731 83.3081 70.978H76.0301C79.0001 73.11 77.9001 77.461 74.7511 79.253H93.4851C93.579 79.2579 93.6674 79.2986 93.7321 79.3668C93.7968 79.435 93.8329 79.5255 93.8329 79.6195C93.8329 79.7135 93.7968 79.8039 93.7321 79.8721C93.6674 79.9403 93.579 79.9811 93.4851 79.986H73.1751C71.5295 80.5117 69.8302 80.8518 68.1091 81C63.5972 81.4513 59.0577 81.5626 54.5291 81.333C53.5471 83.746 52.4461 86.219 51.3511 88.561H79.8881C82.331 88.6407 84.7609 88.1738 87.0003 87.1944C89.2397 86.215 91.2321 84.7478 92.8321 82.9C94.0201 81.541 117.921 53.984 117.921 53.984C117.968 53.9315 118 53.8666 118.012 53.7969C118.024 53.7271 118.016 53.6555 117.989 53.5901C117.962 53.5248 117.917 53.4685 117.859 53.4278C117.801 53.387 117.733 53.3635 117.662 53.36V53.36ZM109.362 62.275H95.1141C95.0202 62.2701 94.9318 62.2293 94.867 62.1611C94.8023 62.0929 94.7662 62.0025 94.7662 61.9085C94.7662 61.8145 94.8023 61.724 94.867 61.6558C94.9318 61.5876 95.0202 61.5469 95.1141 61.542H109.364C109.44 61.5689 109.505 61.6186 109.552 61.6842C109.598 61.7498 109.623 61.8282 109.623 61.9085C109.623 61.9888 109.598 62.0671 109.552 62.1328C109.505 62.1984 109.44 62.2481 109.364 62.275H109.362ZM76.5351 62.275C76.4412 62.2701 76.3528 62.2293 76.288 62.1611C76.2233 62.0929 76.1872 62.0025 76.1872 61.9085C76.1872 61.8145 76.2233 61.724 76.288 61.6558C76.3528 61.5876 76.4412 61.5469 76.5351 61.542H90.4751C90.569 61.5469 90.6574 61.5876 90.7221 61.6558C90.7868 61.724 90.8229 61.8145 90.8229 61.9085C90.8229 62.0025 90.7868 62.0929 90.7221 62.1611C90.6574 62.2293 90.569 62.2701 90.4751 62.275H76.5351ZM87.7561 70.975C87.6622 70.9701 87.5738 70.9293 87.509 70.8611C87.4443 70.7929 87.4082 70.7025 87.4082 70.6085C87.4082 70.5145 87.4443 70.424 87.509 70.3558C87.5738 70.2876 87.6622 70.2469 87.7561 70.242H101.575C101.669 70.2469 101.757 70.2876 101.822 70.3558C101.887 70.424 101.923 70.5145 101.923 70.6085C101.923 70.7025 101.887 70.7929 101.822 70.8611C101.757 70.9293 101.669 70.9701 101.575 70.975H87.7561Z"></path>
    <path fill="#ffffff" d="M74.7129 70.245C72.9019 69.528 70.9849 69.376 65.9299 68.619C61.7699 67.996 61.0199 67.919 59.5979 67.561C57.3979 67.01 55.8879 65.11 56.0589 62.275C56.2799 58.616 58.7159 55.769 61.4719 53.36C65.6899 49.674 72.7219 45.367 73.2139 39.805C73.2963 38.9746 73.172 38.1367 72.852 37.366C72.532 36.5953 72.0263 35.9158 71.3799 35.388C69.7239 34.068 67.6299 34.647 65.8919 35.507C59.3031 38.9735 53.0017 42.9609 47.0479 47.431C46.7003 45.9779 46.0175 44.6264 45.0542 43.4843C44.0908 42.3423 42.8736 41.4415 41.4999 40.854C36.4809 38.633 30.7869 40.654 27.1369 44.631C25.4869 41.66 21.7759 40.564 18.5429 41.018C14.4099 41.599 11.3559 44.831 9.53394 48.39C7.43069 52.8775 6.12776 57.698 5.68394 62.634C5.32294 66.466 5.47194 66.892 5.36694 92.457C5.36824 92.3603 5.40721 92.268 5.47557 92.1996C5.54393 92.1313 5.63628 92.0923 5.73294 92.091C9.47194 92.064 -6.17906 92.091 45.4749 92.091C47.0621 91.0517 48.8343 90.3272 50.6949 89.957C52.4129 86.332 53.6509 83.478 54.5249 81.331C59.0548 81.5615 63.5957 81.4508 68.1089 81C69.8315 80.8629 71.5319 80.5232 73.1749 79.988C78.4139 78.2 79.5119 72.143 74.7129 70.245ZM39.2199 58.136C39.0439 58.568 38.3359 58.379 38.5129 57.942C39.8497 54.6313 41.9636 51.6908 44.6759 49.369C45.0329 49.069 45.5539 49.581 45.1939 49.887C42.5699 52.1178 40.5209 54.947 39.2199 58.136V58.136ZM20.1439 54.192C21.3353 51.491 22.9865 49.0172 25.0239 46.881C25.3499 46.538 25.8669 47.057 25.5419 47.399C23.5512 49.4927 21.9389 51.916 20.7769 54.561C20.5879 54.993 19.9559 54.619 20.1439 54.192Z"></path>
    <path fill="#ffffff" d="M144.277 154.171C141.537 151.068 138.367 148.374 134.862 146.171C129.15 142.757 124.031 142.715 117.536 143.589C113.422 144.142 106.901 145.366 106.621 145.489C106.674 145.479 106.728 145.48 106.78 145.493C106.831 145.506 106.88 145.53 106.921 145.564C106.963 145.597 106.997 145.64 107.02 145.688C107.044 145.736 107.056 145.789 107.057 145.842C107.057 146.385 107.21 165.453 107.057 181.098C107.056 181.173 107.032 181.246 106.989 181.307C106.946 181.368 106.885 181.414 106.814 181.44C112.319 180.144 117.748 178.546 123.077 176.653C130.086 174.182 132.463 173.086 134.855 172.173C135.894 171.786 136.87 171.25 137.755 170.583C138.105 170.331 138.4 170.011 138.623 169.642C138.846 169.273 138.993 168.863 139.053 168.436C139.114 168.009 139.087 167.574 138.976 167.157C138.864 166.741 138.669 166.351 138.403 166.012C139.681 166.062 140.948 165.756 142.061 165.127C142.805 164.659 143.35 163.934 143.594 163.09C143.837 162.246 143.762 161.342 143.382 160.55C144.037 160.409 144.629 160.059 145.07 159.554C145.51 159.048 145.774 158.414 145.824 157.745C145.771 156.403 145.22 155.128 144.277 154.171V154.171ZM124.552 164.145C128.019 164.387 131.474 164.754 134.917 165.245C135.011 165.271 135.09 165.333 135.138 165.418C135.186 165.502 135.199 165.602 135.173 165.696C135.145 165.788 135.082 165.866 134.999 165.914C134.915 165.961 134.816 165.975 134.722 165.952C131.346 165.469 127.956 165.11 124.552 164.874C124.084 164.845 124.082 164.112 124.552 164.145V164.145ZM128 153.24C127.579 153.026 127.951 152.394 128.37 152.607L140.586 158.8C141.007 159.013 140.636 159.645 140.216 159.432L128 153.24Z"></path>
    <path fill="#ffffff" d="M107.057 145.842C107.056 145.794 107.046 145.746 107.027 145.702C107.008 145.658 106.98 145.618 106.946 145.585C106.911 145.551 106.87 145.525 106.826 145.507C106.781 145.49 106.733 145.481 106.685 145.482C105.43 145.503 86.845 150.224 77.618 152.126C76.7659 148.302 75.5494 144.569 73.985 140.978C72.4853 137.436 70.438 134.153 67.918 131.247C59.518 121.698 45.583 119.754 33.061 123.784C35.2283 119.859 37.372 115.92 39.492 111.968C38.9243 110.566 38.6469 109.063 38.6767 107.55C38.7064 106.038 39.0426 104.547 39.665 103.168C40.0864 102.278 40.7435 101.521 41.565 100.978C41.6601 100.687 41.7792 100.404 41.921 100.132C40.884 98.987 41.411 96.995 42.146 95.61C42.9477 94.1775 44.0953 92.9684 45.484 92.093H5.737C5.64025 92.0941 5.54776 92.1329 5.47935 92.2014C5.41094 92.2698 5.37204 92.3623 5.371 92.459C5.31 98.852 5 184.064 5 184.511C5.00104 184.608 5.03994 184.7 5.10835 184.769C5.17676 184.837 5.26925 184.876 5.366 184.877H78.7C78.7968 184.876 78.8894 184.837 78.958 184.769C79.0266 184.7 79.0657 184.608 79.067 184.511C79.067 184.352 79.067 184.194 79.067 184.035C88.3826 184.517 97.719 183.647 106.785 181.451L106.811 181.44C106.881 181.414 106.942 181.368 106.986 181.307C107.029 181.246 107.053 181.173 107.054 181.098C107.058 181 107.061 146.32 107.057 145.842ZM83.119 180H88.163C88.2569 180.005 88.3453 180.046 88.41 180.114C88.4748 180.182 88.5108 180.272 88.5108 180.367C88.5108 180.461 88.4748 180.551 88.41 180.619C88.3453 180.687 88.2569 180.728 88.163 180.733H83.119C83.0251 180.728 82.9367 180.687 82.872 180.619C82.8072 180.551 82.7711 180.461 82.7711 180.367C82.7711 180.272 82.8072 180.182 82.872 180.114C82.9367 180.046 83.0251 180.005 83.119 180V180ZM77.241 152.2C77.702 152.107 77.898 152.814 77.441 152.907C67.486 154.907 63.019 155.407 53.501 151.972C42.924 148.155 34.611 143.821 24.871 140.172C24.433 140.007 24.624 139.299 25.071 139.465C35.609 143.416 51.361 151.301 60.071 153.171C65.829 154.4 71.452 153.369 77.241 152.2ZM23.234 102.656C23.334 103.116 22.634 103.31 22.527 102.851C22.2769 101.77 22.3726 100.637 22.8007 99.6128C23.2288 98.5886 23.9677 97.7248 24.913 97.143C25.6977 96.77 26.5591 96.5868 27.4277 96.6082C28.2962 96.6295 29.1476 96.8549 29.913 97.266C31.0267 97.9771 31.9492 98.9501 32.6 100.1C33.83 101.913 36.613 106.9 37.674 108.821C37.7231 108.905 37.7368 109.005 37.7123 109.099C37.6877 109.193 37.6268 109.273 37.543 109.322C37.5015 109.346 37.4556 109.362 37.408 109.369C37.3604 109.375 37.3119 109.372 37.2654 109.36C37.1714 109.336 37.0911 109.275 37.042 109.191C34.483 104.913 31.807 99.133 29.607 97.94C28.9299 97.5496 28.1647 97.3375 27.3832 97.3237C26.6017 97.3098 25.8295 97.4947 25.139 97.861C24.3699 98.3702 23.7751 99.1026 23.4345 99.9598C23.094 100.817 23.024 101.758 23.234 102.656V102.656ZM8.353 96.781C8.35791 96.6871 8.39866 96.5987 8.46685 96.534C8.53505 96.4692 8.62548 96.4332 8.7195 96.4332C8.81352 96.4332 8.90395 96.4692 8.97215 96.534C9.04034 96.5987 9.08109 96.6871 9.086 96.781V102.726C9.08109 102.82 9.04034 102.908 8.97215 102.973C8.90395 103.038 8.81352 103.074 8.7195 103.074C8.62548 103.074 8.53505 103.038 8.46685 102.973C8.39866 102.908 8.35791 102.82 8.353 102.726V96.781ZM78.708 184.011C61.888 182.872 51.35 177.238 37.774 168.047C27.468 161.07 24.021 158.078 16.944 153.223C16.558 152.958 16.925 152.323 17.314 152.591C25.263 158.044 26.894 159.811 39.448 168.291C52.162 176.881 62.977 182.28 78.708 183.276C79.164 183.307 79.185 184.043 78.708 184.011V184.011Z"></path>
    <path fill="#ffffff" d="M41.3411 102.074C39.2481 104.195 39.0351 108.334 39.9501 111.102C40.9428 109.242 41.9278 107.378 42.9051 105.51C42.3803 105.112 41.9627 104.589 41.6897 103.989C41.4167 103.39 41.2969 102.731 41.3411 102.074V102.074Z"></path>
    <path fill="#000000" d="M60.3409 89.422C60.3395 89.3581 60.3215 89.2957 60.2889 89.2408C60.2563 89.1858 60.21 89.1403 60.1546 89.1085C60.0991 89.0767 60.0364 89.0598 59.9726 89.0593C59.9087 89.0589 59.8458 89.075 59.7899 89.106C57.7179 90.315 55.6219 89.423 52.2639 89.706C48.4639 90.029 43.9639 92.17 42.1409 95.606C41.4089 96.984 40.8809 98.984 41.9159 100.128C43.8379 96.44 48.6839 96.105 51.7679 98.405C52.01 98.5669 52.2305 98.7591 52.4239 98.977C54.5067 98.4648 56.42 97.4183 57.9749 95.941C58.8263 95.0966 59.4801 94.0741 59.8892 92.9469C60.2983 91.8197 60.4525 90.6159 60.3409 89.422V89.422Z"></path>
    <path fill="#ffffff" d="M45.635 101.005C44.886 100.825 44.1047 100.828 43.3573 101.014C42.6098 101.201 41.9182 101.564 41.341 102.074C41.034 105.753 46.291 108.349 50.571 106.302C49.878 103.806 48.149 101.54 45.635 101.005Z"></path>
    <path fill="#ffffff" d="M53.5371 101.056C52.5721 96.364 43.5451 94.927 41.5601 100.976C41.8637 100.774 42.1921 100.612 42.5371 100.493C45.8841 99.31 49.8151 101.193 51.2231 105.913C52.026 105.402 52.6688 104.676 53.0781 103.817C53.4873 102.958 53.6464 102.001 53.5371 101.056V101.056Z"></path>
    <path fill="#000000" d="M32.6001 100.1C31.9471 98.9508 31.0224 97.9792 29.9071 97.27C29.1417 96.8589 28.2903 96.6335 27.4217 96.6121C26.5532 96.5908 25.6917 96.774 24.9071 97.147C23.9617 97.7288 23.2229 98.5926 22.7948 99.6167C22.3667 100.641 22.271 101.774 22.5211 102.855C22.6271 103.314 23.3331 103.12 23.2281 102.66C23.0173 101.761 23.0874 100.818 23.4287 99.9602C23.77 99.1019 24.3663 98.3689 25.1371 97.86C25.8276 97.4937 26.5998 97.3088 27.3813 97.3227C28.1628 97.3365 28.9279 97.5486 29.6051 97.939C31.8051 99.133 34.4281 104.823 37.0401 109.19C37.0891 109.274 37.1695 109.335 37.2634 109.359C37.31 109.371 37.3584 109.374 37.4061 109.368C37.4537 109.361 37.4996 109.345 37.5411 109.321C37.5826 109.297 37.6189 109.264 37.6479 109.226C37.6769 109.188 37.6982 109.144 37.7103 109.098C37.7225 109.051 37.7254 109.003 37.7188 108.955C37.7122 108.907 37.6964 108.862 37.6721 108.82C36.6181 106.9 33.8341 101.909 32.6001 100.1Z"></path>
    <path fill="#000000" d="M68.206 107.019C66.778 99.163 58.682 98.26 56.382 103.166C55.6753 104.671 55.3419 106.324 55.41 107.985C55.297 107.925 55.568 107.944 51.61 107.944C51.343 104.844 49.59 101.639 46.676 100.544C45.3944 99.9982 43.9521 99.966 42.6474 100.454C41.3428 100.942 40.2757 101.913 39.667 103.166C38.5045 105.739 38.3567 108.656 39.253 111.333C39.7339 112.821 40.6827 114.114 41.958 115.019C46.158 118.013 51.736 115.186 51.648 108.676C55.548 108.676 55.318 108.705 55.448 108.61C55.515 109.535 55.6909 110.449 55.972 111.333C57.005 114.585 60.372 116.87 63.695 116.033C66.753 115.256 69.033 111.565 68.206 107.019ZM48.879 114.119C46.093 116.825 41.618 115.145 40.179 111.734C38.911 108.734 39.139 103.388 41.964 101.572C43.0712 100.923 44.3837 100.718 45.636 101C50.666 102.076 52.846 110.271 48.879 114.124V114.119ZM65.596 114.119C62.796 116.837 58.296 115.132 56.896 111.734C55.9947 109.371 55.9165 106.773 56.674 104.36C57.0167 103.234 57.7224 102.254 58.681 101.572C59.7902 100.928 61.1005 100.724 62.353 101C67.415 102.1 69.544 110.29 65.6 114.124L65.596 114.119Z"></path>
    <path fill="#a0a0a0" d="M112.389 118.842L105.571 124.642C105.212 124.948 105.732 125.464 106.09 125.16L112.907 119.36C113.267 119.055 112.746 118.538 112.389 118.842Z"></path>
    <path fill="#a0a0a0" d="M105.15 124.029C107.483 122.168 109.772 120.255 112.015 118.29C112.37 117.979 111.85 117.462 111.497 117.772C109.252 119.736 106.963 121.649 104.632 123.511C104.263 123.805 104.785 124.321 105.15 124.029Z"></path>
    <path fill="#a0a0a0" d="M151.169 112.791C150.209 111.039 142.638 98.134 142.269 97.508C142.236 97.4538 142.189 97.409 142.134 97.378C142.079 97.3469 142.016 97.3306 141.953 97.3306C141.889 97.3306 141.827 97.3469 141.771 97.378C141.716 97.409 141.669 97.4538 141.636 97.508C140.616 99.226 133.095 112.159 132.736 112.791C132.705 112.847 132.688 112.91 132.689 112.974C132.689 113.038 132.706 113.101 132.738 113.156C132.77 113.212 132.815 113.258 132.87 113.291C132.925 113.323 132.988 113.341 133.052 113.342H140.044V110.292C140.049 110.198 140.09 110.11 140.158 110.045C140.226 109.98 140.317 109.944 140.411 109.944C140.505 109.944 140.595 109.98 140.663 110.045C140.731 110.11 140.772 110.198 140.777 110.292V113.342H150.859C150.922 113.338 150.982 113.318 151.035 113.284C151.088 113.251 151.131 113.204 151.162 113.15C151.193 113.095 151.21 113.034 151.211 112.971C151.212 112.909 151.198 112.847 151.169 112.791Z"></path>
    <path fill="#a0a0a0" d="M132.888 84.624H126.483C126.386 84.6251 126.294 84.664 126.225 84.7324C126.157 84.8008 126.118 84.8933 126.117 84.99V91.4C126.118 91.4969 126.157 91.5897 126.225 91.6583C126.293 91.7269 126.386 91.766 126.483 91.767C130.85 91.798 132.3 91.808 132.81 91.774C133.048 91.759 133.24 91.732 133.267 91.321C133.3 90.83 133.286 89.413 133.255 84.995C133.255 84.8972 133.217 84.8033 133.148 84.7338C133.079 84.6643 132.986 84.6248 132.888 84.624Z"></path>
    <path fill="#a0a0a0" d="M158.331 77.97C156.849 77.4267 155.235 77.3545 153.71 77.7633C152.185 78.1722 150.824 79.0421 149.813 80.2541C148.801 81.4662 148.189 82.9611 148.059 84.5344C147.93 86.1077 148.289 87.6827 149.089 89.0438C149.889 90.4049 151.089 91.4857 152.527 92.1385C153.964 92.7912 155.568 92.9839 157.119 92.6903C158.67 92.3966 160.093 91.631 161.192 90.4981C162.292 89.3651 163.014 87.9202 163.261 86.361C163.541 84.6076 163.202 82.8115 162.302 81.2806C161.403 79.7497 159.999 78.5793 158.331 77.97V77.97Z"></path>
    <path fill="#a0a0a0" d="M129.71 61.516C129.679 61.572 129.662 61.6351 129.663 61.6992C129.663 61.7633 129.68 61.8262 129.712 61.8818C129.744 61.9374 129.79 61.9838 129.845 62.0164C129.9 62.0491 129.963 62.0668 130.027 62.068H138.562C138.612 62.0655 138.661 62.0531 138.706 62.0315C138.751 62.01 138.791 61.9797 138.824 61.9425C138.857 61.9053 138.883 61.8619 138.899 61.8148C138.915 61.7677 138.922 61.7178 138.919 61.668C138.905 61.386 134.688 54.32 134.611 54.19C134.578 54.1356 134.532 54.0906 134.476 54.0593C134.421 54.0281 134.358 54.0117 134.295 54.0117C134.231 54.0117 134.168 54.0281 134.113 54.0593C134.057 54.0906 134.011 54.1356 133.978 54.19C132.713 56.32 129.885 61.212 129.71 61.516Z"></path>
    <path fill="#a0a0a0" d="M147.187 30.118C146.699 28.5662 145.729 27.2103 144.418 26.247C143.108 25.2837 141.524 24.7632 139.897 24.761H138.113C138.016 24.7623 137.924 24.8012 137.855 24.8696C137.787 24.9379 137.748 25.0302 137.746 25.127V31.6C137.747 31.6971 137.786 31.79 137.854 31.8586C137.923 31.9273 138.016 31.9662 138.113 31.967C138.407 31.9599 138.699 32.0129 138.972 32.1227C139.244 32.2325 139.492 32.3968 139.699 32.6056C139.906 32.8144 140.068 33.0632 140.175 33.3369C140.283 33.6105 140.333 33.9032 140.323 34.197V38.077C140.324 38.1737 140.363 38.266 140.432 38.3344C140.5 38.4027 140.592 38.4417 140.689 38.443H147.166C147.263 38.442 147.356 38.4031 147.424 38.3347C147.493 38.2663 147.532 38.1738 147.533 38.077C147.576 32.057 147.615 31.562 147.187 30.118Z"></path>
    <path fill="#a0a0a0" d="M128.375 37.428C127.683 36.165 122.209 26.835 121.94 26.382C121.907 26.3275 121.861 26.2825 121.805 26.2513C121.75 26.22 121.687 26.2036 121.624 26.2036C121.56 26.2036 121.497 26.22 121.442 26.2513C121.386 26.2825 121.34 26.3275 121.307 26.382C120.572 27.619 115.134 36.971 114.872 37.428C114.841 37.4838 114.824 37.5468 114.825 37.6108C114.825 37.6748 114.842 37.7376 114.874 37.7931C114.906 37.8486 114.951 37.8949 115.006 37.9275C115.061 37.9601 115.124 37.9778 115.188 37.979H128.059C128.122 37.9754 128.183 37.9562 128.237 37.923C128.29 37.8899 128.335 37.8438 128.366 37.7891C128.398 37.7344 128.415 37.6727 128.417 37.6096C128.418 37.5466 128.404 37.4841 128.375 37.428V37.428Z"></path>
    <path fill="#000000" d="M140.038 128.306C140.043 128.4 140.084 128.488 140.152 128.553C140.22 128.618 140.311 128.654 140.405 128.654C140.499 128.654 140.589 128.618 140.657 128.553C140.725 128.488 140.766 128.4 140.771 128.306V110.292C140.766 110.198 140.725 110.11 140.657 110.045C140.589 109.98 140.499 109.944 140.405 109.944C140.311 109.944 140.22 109.98 140.152 110.045C140.084 110.11 140.043 110.198 140.038 110.292V128.306Z"></path>
    <path fill="#000000" d="M135.535 76.605V92.457C135.535 92.5541 135.573 92.6472 135.642 92.7158C135.711 92.7845 135.804 92.823 135.901 92.823C135.998 92.823 136.091 92.7845 136.16 92.7158C136.228 92.6472 136.267 92.5541 136.267 92.457V76.605C136.267 76.5079 136.228 76.4149 136.16 76.3462C136.091 76.2776 135.998 76.239 135.901 76.239C135.804 76.239 135.711 76.2776 135.642 76.3462C135.573 76.4149 135.535 76.5079 135.535 76.605V76.605Z"></path>
    <path fill="#000000" d="M141.3 53.546V76.246C141.305 76.3399 141.346 76.4283 141.414 76.493C141.482 76.5577 141.573 76.5938 141.667 76.5938C141.761 76.5938 141.851 76.5577 141.919 76.493C141.987 76.4283 142.028 76.3399 142.033 76.246V53.546C142.028 53.4521 141.987 53.3637 141.919 53.2989C141.851 53.2342 141.761 53.1981 141.667 53.1981C141.573 53.1981 141.482 53.2342 141.414 53.2989C141.346 53.3637 141.305 53.4521 141.3 53.546V53.546Z"></path>
    <path fill="#000000" d="M145.262 47.962V65.256C145.267 65.3499 145.308 65.4383 145.376 65.503C145.444 65.5678 145.534 65.6038 145.628 65.6038C145.722 65.6038 145.813 65.5678 145.881 65.503C145.949 65.4383 145.99 65.3499 145.995 65.256V47.962C145.99 47.8681 145.949 47.7797 145.881 47.7149C145.813 47.6502 145.722 47.6141 145.628 47.6141C145.534 47.6141 145.444 47.6502 145.376 47.7149C145.308 47.7797 145.267 47.8681 145.262 47.962Z"></path>
    <path fill="#000000" d="M92.6261 144.925C92.1881 145.089 92.3781 145.798 92.8211 145.631C97.8115 143.758 103.008 142.488 108.3 141.85C108.763 141.794 108.768 141.061 108.3 141.117C102.941 141.752 97.6789 143.031 92.6261 144.925V144.925Z"></path>
    <path fill="#000000" d="M107.435 137.9C102.012 138.771 96.7052 140.254 91.6159 142.319C91.1839 142.494 91.3729 143.203 91.8159 143.026C96.9052 140.961 102.212 139.478 107.635 138.607C108.094 138.534 107.9 137.828 107.435 137.9Z"></path>
    <path fill="#000000" d="M8.91792 28.121C10.6439 30.621 14.8179 36.679 14.8179 36.679C15.0839 37.065 15.7179 36.698 15.4499 36.309L9.54992 27.751C9.28492 27.365 8.64992 27.731 8.91792 28.121Z"></path>
    <path fill="#000000" d="M19.6169 36.005C19.7169 36.466 20.4259 36.271 20.3229 35.811C20.0079 34.389 17.5229 23.179 17.5229 23.179C17.4229 22.718 16.7139 22.913 16.8159 23.379C17.2999 25.585 19.0249 33.345 19.6169 36.005Z"></path>
    <g>
      <path fill="#000000" d="M163.9 158.258H145.741C146.092 156.822 145.283 155.378 144.277 154.171C141.108 150.523 137.301 147.483 133.043 145.199C127.35 137.078 114.963 120.78 114.394 120.047C114.35 119.985 114.284 119.942 114.209 119.928C114.135 119.914 114.057 119.929 113.994 119.971C113.784 120.115 106.968 125.751 106.854 125.846C106.787 125.916 106.75 126.009 106.75 126.105C106.75 126.201 106.787 126.294 106.854 126.364C111.53 131.415 110.929 131.148 122.354 143.134C111.163 143.582 91.942 149.175 77.622 152.126C76.7837 148.299 75.5671 144.564 73.99 140.978C72.4899 137.436 70.4426 134.153 67.923 131.247C59.317 121.596 45.33 119.837 33.066 123.784C35.2333 119.859 37.377 115.92 39.497 111.968C40.988 115.5 45.097 117.268 48.237 115.518C50.667 114.157 51.687 111.357 51.651 108.677C55.551 108.677 55.321 108.705 55.451 108.61C55.5176 109.535 55.6935 110.449 55.975 111.333C56.4398 112.941 57.4913 114.316 58.9213 115.187C60.3514 116.057 62.056 116.359 63.698 116.033C67.366 115.039 68.907 110.833 68.213 107.023C66.791 99.197 58.692 98.242 56.389 103.169C55.6822 104.674 55.3488 106.327 55.417 107.988C55.305 107.929 55.575 107.947 51.617 107.947C51.5627 107.258 51.4336 106.577 51.232 105.916C53.615 104.339 54.506 101.073 52.432 98.982C55.632 98.051 58.343 96.471 59.709 93.403C59.709 93.403 78.627 93.409 80.409 93.403C82.8787 93.4006 85.3167 92.8459 87.5443 91.7793C89.7718 90.7128 91.7326 89.1614 93.283 87.239L114.939 62.278H116.573C116.667 62.2731 116.755 62.2323 116.82 62.1641C116.885 62.0959 116.921 62.0055 116.921 61.9115C116.921 61.8175 116.885 61.727 116.82 61.6588C116.755 61.5906 116.667 61.5499 116.573 61.545H115.573C118.111 58.62 117.973 58.83 118.036 58.545C118.053 58.2349 118.053 57.9241 118.036 57.614C118.036 55.477 118.051 54.479 118.036 53.99C118.017 53.323 117.888 53.39 117.507 53.38C115.755 53.332 106.738 53.361 61.481 53.361C62.36 52.592 63.32 51.814 64.189 51.126H117.94C118.037 51.1244 118.129 51.0852 118.197 51.0167C118.266 50.9482 118.305 50.8557 118.306 50.759V37.979H128.067C128.117 37.9764 128.166 37.964 128.211 37.9425C128.256 37.921 128.296 37.8907 128.329 37.8536C128.363 37.8164 128.388 37.773 128.405 37.7258C128.421 37.6787 128.428 37.6288 128.425 37.579C128.417 37.443 128.84 38.215 121.948 26.379C121.915 26.3245 121.869 26.2795 121.813 26.2483C121.758 26.217 121.695 26.2006 121.632 26.2006C121.568 26.2006 121.505 26.217 121.45 26.2483C121.394 26.2795 121.348 26.3245 121.315 26.379C120.591 27.623 118.306 31.544 118.306 31.544V23.56C118.707 23.4456 119.069 23.222 119.351 22.914C120.884 20.984 119.407 18.507 120.914 17.092C121.051 16.9793 121.209 16.8948 121.379 16.8433C121.549 16.7919 121.727 16.7745 121.903 16.7921C122.08 16.8098 122.251 16.8622 122.408 16.9462C122.564 17.0303 122.702 17.1444 122.814 17.282C123.186 17.718 123.393 18.2708 123.4 18.844C123.564 20.3307 123.566 21.8308 123.406 23.318C123.356 23.787 124.089 23.783 124.139 23.318C124.339 21.4508 124.268 19.5645 123.926 17.718C123.835 17.3944 123.672 17.0954 123.45 16.8427C123.228 16.5901 122.953 16.3901 122.644 16.2575C122.335 16.1248 122 16.0629 121.664 16.0761C121.328 16.0893 121 16.1774 120.702 16.334C120.189 16.7046 119.819 17.2396 119.653 17.85C119.123 19.78 119.742 20.369 119.078 22.025C118.911 22.3508 118.641 22.6123 118.31 22.769V20.623C118.4 19.0101 118.202 17.3941 117.724 15.851C117.142 14.1173 116.136 12.5569 114.797 11.312C113.457 10.0671 111.827 9.17735 110.056 8.72397C108.885 8.48368 107.692 8.36472 106.496 8.36897C101.359 8.25797 43.812 8.23497 41.941 8.41697C39.2005 8.67184 36.6536 9.93953 34.798 11.9723C32.9424 14.005 31.9116 16.6567 31.907 19.409V41.13C30.104 41.9725 28.4846 43.1618 27.141 44.63C25.491 41.659 21.78 40.563 18.547 41.017C14.414 41.598 11.385 44.843 9.538 48.389C7.43426 52.8763 6.13131 57.6969 5.688 62.633C5.333 66.742 5.009 181.4 5 184.511C5.00129 184.608 5.04027 184.7 5.10863 184.768C5.17699 184.837 5.26933 184.876 5.366 184.877H78.7C78.7968 184.876 78.8892 184.837 78.9577 184.768C79.0263 184.7 79.0654 184.608 79.067 184.511C79.067 184.352 79.067 184.194 79.067 184.035C84.8164 184.368 90.5845 184.145 96.291 183.369C96.291 183.769 96.31 184.208 96.31 184.208C96.3115 184.305 96.3507 184.397 96.4192 184.466C96.4877 184.534 96.5801 184.573 96.677 184.575H163.9C163.997 184.573 164.089 184.534 164.157 184.465C164.225 184.397 164.264 184.305 164.266 184.208V158.625C164.264 158.528 164.225 158.436 164.157 158.368C164.089 158.299 163.997 158.26 163.9 158.258V158.258ZM56.673 104.365C57.0099 103.237 57.7169 102.255 58.68 101.577C59.7874 100.928 61.0997 100.724 62.352 101.005C67.361 102.045 69.577 110.271 65.596 114.124C62.858 116.794 58.351 115.188 56.896 111.739C55.9843 109.378 55.9057 106.777 56.673 104.365V104.365ZM107.634 126.145L114.076 120.827C121.115 130.462 126.208 136.919 131.734 144.627C129.07 143.542 126.209 143.026 123.334 143.114C118.151 137.685 112.667 131.844 107.634 126.145ZM107.111 147.26C107.111 146.892 107.142 146.502 107.126 146.128C110.158 145.508 113.204 144.95 116.266 144.502C119.325 143.936 122.441 143.734 125.548 143.902C132.492 144.338 138.292 148.866 143.093 153.941C144.079 154.986 145.13 156.228 145.093 157.741C145.064 158.847 143.86 160.117 142.685 159.78C142.353 159.685 142.036 160.153 142.329 160.392C143.391 161.26 143.134 163.061 142.294 163.992C141.068 165.356 138.882 165.326 137.207 165.249C137.12 165.252 137.037 165.286 136.973 165.344C136.908 165.402 136.867 165.481 136.855 165.567C136.843 165.653 136.861 165.74 136.908 165.814C136.954 165.887 137.024 165.942 137.107 165.969C137.487 166.124 137.811 166.391 138.036 166.734C138.261 167.078 138.376 167.482 138.366 167.892C138.349 168.36 138.219 168.816 137.987 169.223C137.754 169.629 137.426 169.972 137.031 170.223C136.128 170.816 135.159 171.302 134.144 171.67C128.369 173.843 119.569 177.659 107.111 180.616V147.26ZM143.719 161.622C144.004 162.033 146.736 165.979 146.992 166.36C147.137 166.576 147.235 166.809 146.992 167.003C146.765 167.184 146.563 167.061 146.392 166.885C146.063 166.551 143.333 163.731 143.333 163.731C143.676 163.085 143.811 162.348 143.719 161.622V161.622ZM41.341 102.073C41.302 102.602 41.3724 103.134 41.5477 103.635C41.723 104.136 41.9995 104.595 42.36 104.985C41.4727 106.683 40.577 108.377 39.673 110.066C39.141 107.417 39.422 104.019 41.341 102.073ZM42.165 101.465C45.041 99.973 48.791 101.345 50.343 105.594C46.551 107.483 41.19 105.206 42.165 101.465V101.465ZM48.879 114.124C46.151 116.78 41.326 115.304 39.95 111.102C40.9427 109.242 41.9277 107.378 42.905 105.51C43.9837 106.34 45.2721 106.854 46.6261 106.994C47.9801 107.134 49.3464 106.894 50.572 106.302C51.314 108.975 50.951 112.118 48.879 114.124ZM52.637 100.588C52.8911 101.433 52.8671 102.337 52.5686 103.167C52.2701 103.996 51.7128 104.709 50.979 105.198C49.358 100.937 45.689 99.406 42.536 100.498C43.0584 99.5007 43.887 98.6973 44.9 98.206C47.677 97.043 51.445 98.016 52.637 100.588ZM57.955 94.875C56.3323 96.6947 54.1599 97.9348 51.768 98.407C48.702 96.149 44.337 96.56 42.32 99.444C42.1095 99.0209 42.0344 98.5432 42.105 98.076C42.562 94.822 45.385 92.564 48.459 91.37C50.9046 90.4258 53.5494 90.1162 56.147 90.47C57.3353 90.5889 58.535 90.4279 59.65 90C59.7001 91.7776 59.0971 93.5119 57.955 94.875V94.875ZM117.3 58.432C116.173 59.732 94.273 84.973 92.592 86.91C91.1053 88.7135 89.2375 90.1652 87.1229 91.1608C85.0082 92.1564 82.6993 92.6711 80.362 92.668C78.617 92.668 60.028 92.668 59.994 92.668C60.3552 91.6265 60.4759 90.5167 60.347 89.422C60.3458 89.3732 60.3351 89.3252 60.3153 89.2807C60.2956 89.2361 60.2673 89.1959 60.232 89.1622C60.1967 89.1286 60.1551 89.1023 60.1097 89.0847C60.0642 89.0672 60.0157 89.0588 59.967 89.06C58.7946 89.671 57.4635 89.909 56.152 89.742C54.3354 89.5436 52.4993 89.616 50.704 89.957C50.924 89.492 51.139 89.025 51.356 88.557H79.888C82.3295 88.6293 84.7567 88.1595 86.9949 87.1813C89.2331 86.2031 91.2266 84.7409 92.832 82.9C94.02 81.54 115.778 56.453 117.295 54.705L117.3 58.432ZM116.838 54.124L92.587 82.069C91.1003 83.8724 89.2324 85.3239 87.1178 86.3194C85.0031 87.3148 82.6942 87.8293 80.357 87.826C78.61 87.826 51.692 87.826 51.692 87.826C52.682 85.681 53.638 83.519 54.53 81.331C59.0581 81.5928 63.6 81.4821 68.11 81C69.8324 80.8637 71.5325 80.524 73.175 79.988H93.485C93.5789 79.9831 93.6673 79.9423 93.732 79.8741C93.7968 79.8059 93.8328 79.7155 93.8328 79.6215C93.8328 79.5275 93.7968 79.437 93.732 79.3688C93.6673 79.3006 93.5789 79.2599 93.485 79.255H74.751C77.892 77.466 79.015 73.121 76.03 70.98H83.306C83.3933 70.9662 83.4729 70.9218 83.5304 70.8546C83.5878 70.7874 83.6194 70.7019 83.6194 70.6135C83.6194 70.5251 83.5878 70.4396 83.5304 70.3724C83.4729 70.3052 83.3933 70.2607 83.306 70.247H74.713C71.072 68.835 63.247 68.509 59.598 67.563C57.452 67.044 55.892 65.163 56.058 62.277H71.88C71.9739 62.2721 72.0623 62.2313 72.127 62.1631C72.1918 62.0949 72.2279 62.0045 72.2279 61.9105C72.2279 61.8165 72.1918 61.726 72.127 61.6578C72.0623 61.5896 71.9739 61.5489 71.88 61.544H56.135C56.596 58.552 58.448 56.161 60.66 54.095C60.66 54.093 115.957 54.145 116.833 54.124H116.838ZM121.624 27.3L127.424 37.251H115.824C115.926 37.075 121.523 27.467 121.624 27.3ZM32.64 19.409C32.6436 18.0238 32.9255 16.6535 33.4688 15.3794C34.0121 14.1053 34.8059 12.9533 35.8029 11.9918C36.8 11.0302 37.98 10.2788 39.273 9.78206C40.566 9.28531 41.9456 9.05336 43.33 9.09997H107.157C109.892 9.07359 112.525 10.1346 114.477 12.0495C116.429 13.9644 117.541 16.5765 117.567 19.311C117.567 19.346 117.567 20.326 117.567 22.941C117.541 22.941 117.517 22.95 117.49 22.949C117.161 22.9349 116.844 22.8257 116.576 22.6347C116.308 22.4437 116.101 22.1791 115.981 21.873C115.349 20.318 116.109 18.554 115.373 17.014C115.227 16.6876 115.013 16.3964 114.744 16.1604C114.476 15.9243 114.159 15.7489 113.817 15.646C113.455 15.5723 113.079 15.5993 112.731 15.7241C112.382 15.8489 112.075 16.0668 111.842 16.354C110.392 18.107 111.535 20.679 110.719 22.189C110.52 22.3639 110.285 22.4924 110.03 22.5653C109.775 22.6382 109.507 22.6535 109.246 22.6103C108.984 22.567 108.736 22.4662 108.518 22.3152C108.301 22.1642 108.119 21.9667 107.987 21.737C107.602 21.0009 107.433 20.1709 107.5 19.343C107.525 18.36 107.607 17.3794 107.746 16.406C107.804 15.939 107.071 15.944 107.013 16.406C106.699 18.0332 106.695 19.7051 107 21.334C107.207 22.0389 107.662 22.6448 108.282 23.039C108.887 23.3594 109.588 23.4513 110.255 23.298C111.955 22.936 111.785 20.817 111.764 19.487C111.697 18.7246 111.819 17.9574 112.118 17.253C112.243 16.9166 112.495 16.6427 112.82 16.4898C113.145 16.3369 113.517 16.3173 113.856 16.435C115.485 17.189 114.906 19.512 115.015 20.906C115.134 22.43 116.039 23.706 117.569 23.684V32.805C116.937 33.89 115.141 36.972 114.876 37.428C114.845 37.4838 114.828 37.5468 114.829 37.6108C114.829 37.6748 114.846 37.7376 114.878 37.7931C114.91 37.8486 114.955 37.8949 115.01 37.9275C115.065 37.9601 115.128 37.9778 115.192 37.979H117.569V50.392H65.105C67.2392 48.8409 69.1715 47.0296 70.857 45C72.1483 43.5466 72.97 41.7368 73.214 39.808C73.2991 38.9773 73.176 38.1386 72.8558 37.3675C72.5356 36.5963 72.0284 35.917 71.38 35.391C69.724 34.071 67.63 34.65 65.892 35.51C59.3038 38.9765 53.0025 42.9628 47.048 47.431C46.6941 45.9807 46.0089 44.6321 45.0464 43.4909C44.0838 42.3498 42.8699 41.4472 41.5 40.854C40.101 40.2519 38.5949 39.9382 37.0719 39.9316C35.5488 39.9251 34.0401 40.2259 32.636 40.816L32.64 19.409ZM6.207 65.679C6.445 57.668 9.284 44.768 16.949 42.149C20.564 40.915 25.126 41.869 26.742 45.449C26.7706 45.497 26.8098 45.538 26.8566 45.5686C26.9034 45.5993 26.9565 45.619 27.012 45.6261C27.0675 45.6333 27.1239 45.6277 27.1769 45.6098C27.2299 45.5919 27.2782 45.5622 27.318 45.523C32.191 39.91 39.753 38.904 44.318 43.762C45.4629 44.9777 46.2041 46.5177 46.44 48.171C46.4666 48.2647 46.5291 48.344 46.614 48.3918C46.6988 48.4396 46.7991 48.4518 46.893 48.426C52.8809 43.9363 59.2014 39.9083 65.8 36.377C66.7074 35.8312 67.7173 35.4775 68.767 35.338C69.6086 35.3124 70.4319 35.5868 71.0898 36.1121C71.7478 36.6375 72.1976 37.3796 72.359 38.206C72.519 39.142 72.4819 40.1011 72.2501 41.022C72.0184 41.9428 71.597 42.8052 71.013 43.554C67.341 49.065 60.319 51.774 56.802 57.635C55.311 60.12 54.523 63.783 56.39 66.299C57.5312 67.6242 59.1472 68.4483 60.89 68.594C71.007 70.312 75.78 69.926 76.875 73.25C77.0721 74.0276 77.0614 74.8435 76.844 75.6157C76.6265 76.3879 76.2099 77.0894 75.636 77.65C74.2698 78.9052 72.5425 79.6974 70.7 79.914C65.272 80.7127 59.7751 80.9379 54.3 80.586C53.762 80.596 54.3 80.714 49.792 90.172C48.2615 90.5731 46.8067 91.2213 45.485 92.091C45.485 92.091 6.572 92.05 6.111 92.071C6.144 82.373 6.174 66.527 6.207 65.679ZM77.835 183.208C68.5712 182.559 59.5503 179.953 51.367 175.563C38.73 168.733 23.82 157.063 17.315 152.591C16.925 152.323 16.558 152.958 16.945 153.223C23.714 157.867 27.694 161.217 37.774 168.047C51.239 177.163 61.766 182.788 78.338 183.981V184.144C78.338 184.144 5.983 184.131 5.738 184.136C5.738 179.93 6.103 93.464 6.106 92.824H44.493C43.5305 93.5851 42.7307 94.5319 42.141 95.608C41.429 96.995 40.872 98.973 41.912 100.125C41.7732 100.399 41.6555 100.684 41.56 100.976C40.7426 101.523 40.0866 102.28 39.66 103.166C38.5458 105.638 38.3681 108.431 39.16 111.025C38.013 113.17 33.228 121.964 31.982 124.216C31.9476 124.279 31.9322 124.351 31.9378 124.423C31.9435 124.494 31.9698 124.563 32.0137 124.62C32.0575 124.677 32.117 124.72 32.1849 124.744C32.2528 124.768 32.3261 124.771 32.396 124.754C48.939 119.316 65.285 123.725 72.765 140.075C74.5991 143.969 75.9863 148.058 76.9 152.264C71.147 153.423 65.854 154.374 60.061 153.164C50.844 151.131 36.28 143.676 25.061 139.458C24.619 139.292 24.428 140 24.861 140.165C39.167 145.528 54.411 154.065 64.426 154.44C73.634 154.786 90.372 149.64 106.319 146.296V179.66C106.319 180 106.255 180.439 106.289 180.81C96.9811 183.049 87.3864 183.858 77.835 183.208V183.208ZM163.528 183.842H97.046V183.268C108.617 181.65 120.108 177.991 130.971 173.72C132.271 173.214 133.553 172.67 134.855 172.173C135.895 171.789 136.872 171.253 137.755 170.583C138.105 170.331 138.401 170.011 138.624 169.642C138.847 169.273 138.993 168.862 139.054 168.435C139.114 168.008 139.088 167.573 138.976 167.157C138.864 166.74 138.669 166.35 138.403 166.011C139.681 166.062 140.948 165.756 142.061 165.127C142.385 164.919 142.673 164.66 142.914 164.36C143.887 165.36 144.86 166.36 145.834 167.36C145.979 167.549 146.18 167.688 146.408 167.757C146.635 167.827 146.879 167.823 147.105 167.747C147.331 167.671 147.527 167.526 147.666 167.333C147.806 167.139 147.881 166.907 147.882 166.669C147.824 166.291 147.656 165.938 147.398 165.656C146.276 164.024 143.871 160.556 143.798 160.443C144.507 160.17 145.095 159.654 145.458 158.987H163.531L163.528 183.842Z"></path>
      <path fill="#000000" d="M65.9671 32.191C66.2871 32.54 66.8041 32.02 66.4851 31.673C66.4851 31.673 61.5921 26.348 61.4491 26.194L66.6621 19.894C66.9621 19.533 66.4451 19.012 66.1441 19.376L60.7051 25.944C60.6394 26.0142 60.6028 26.1068 60.6028 26.203C60.6028 26.2992 60.6394 26.3918 60.7051 26.462C67.7401 34.017 65.5391 31.726 65.9671 32.191Z"></path>
      <path fill="#000000" d="M89.9919 26.1939L84.9569 31.6729C84.6379 32.0199 85.1569 32.5399 85.4749 32.1909L90.7369 26.4659C90.8028 26.3958 90.8396 26.3032 90.8396 26.2069C90.8396 26.1107 90.8028 26.0181 90.7369 25.9479L85.2999 19.3799C84.9999 19.0159 84.4829 19.5369 84.7819 19.8979L89.9919 26.1939Z"></path>
      <path fill="#000000" d="M70.2299 32.23C73.3709 29.2 82.1199 20.34 82.1199 20.34C82.1836 20.2702 82.2179 20.1785 82.2157 20.084C82.2135 19.9896 82.175 19.8996 82.1081 19.8328C82.0412 19.7661 81.9512 19.7277 81.8567 19.7257C81.7622 19.7237 81.6706 19.7582 81.6009 19.822C78.4619 22.856 70.5729 30.822 69.7119 31.711C69.6481 31.7807 69.6135 31.8723 69.6156 31.9668C69.6176 32.0613 69.656 32.1513 69.7227 32.2182C69.7895 32.2851 69.8795 32.3236 69.9739 32.3258C70.0684 32.328 70.1601 32.2937 70.2299 32.23V32.23Z"></path>
      <path fill="#000000" d="M95.114 62.275H109.364C109.458 62.2701 109.546 62.2293 109.611 62.1611C109.676 62.0929 109.712 62.0025 109.712 61.9085C109.712 61.8145 109.676 61.724 109.611 61.6558C109.546 61.5877 109.458 61.5469 109.364 61.542H95.114C95.0201 61.5469 94.9316 61.5877 94.8669 61.6558C94.8022 61.724 94.7661 61.8145 94.7661 61.9085C94.7661 62.0025 94.8022 62.0929 94.8669 62.1611C94.9316 62.2293 95.0201 62.2701 95.114 62.275V62.275Z"></path>
      <path fill="#000000" d="M76.5371 62.275H90.4771C90.5709 62.2701 90.6594 62.2293 90.7241 62.1611C90.7888 62.0929 90.8249 62.0025 90.8249 61.9085C90.8249 61.8145 90.7888 61.724 90.7241 61.6558C90.6594 61.5877 90.5709 61.5469 90.4771 61.542H76.5371C76.4432 61.5469 76.3547 61.5877 76.29 61.6558C76.2253 61.724 76.1892 61.8145 76.1892 61.9085C76.1892 62.0025 76.2253 62.0929 76.29 62.1611C76.3547 62.2293 76.4432 62.2701 76.5371 62.275V62.275Z"></path>
      <path fill="#000000" d="M76.5369 94.54C76.4398 94.54 76.3467 94.5785 76.2781 94.6472C76.2095 94.7158 76.1709 94.8089 76.1709 94.906C76.1709 95.003 76.2095 95.0961 76.2781 95.1648C76.3467 95.2334 76.4398 95.272 76.5369 95.272H85.6999C85.797 95.272 85.8901 95.2334 85.9587 95.1648C86.0273 95.0961 86.0659 95.003 86.0659 94.906C86.0659 94.8089 86.0273 94.7158 85.9587 94.6472C85.8901 94.5785 85.797 94.54 85.6999 94.54H76.5369Z"></path>
      <path fill="#000000" d="M101.577 70.245H87.758C87.6641 70.2499 87.5757 70.2907 87.511 70.3588C87.4462 70.427 87.4102 70.5175 87.4102 70.6115C87.4102 70.7055 87.4462 70.7959 87.511 70.8641C87.5757 70.9323 87.6641 70.9731 87.758 70.978H101.577C101.671 70.9731 101.759 70.9323 101.824 70.8641C101.889 70.7959 101.925 70.7055 101.925 70.6115C101.925 70.5175 101.889 70.427 101.824 70.3588C101.759 70.2907 101.671 70.2499 101.577 70.245V70.245Z"></path>
      <path fill="#000000" d="M20.7769 54.561C21.9456 51.9199 23.5571 49.498 25.5419 47.4C25.8669 47.058 25.3499 46.539 25.0239 46.882C22.9868 49.0185 21.3356 51.4922 20.1439 54.193C19.9559 54.619 20.5879 54.993 20.7769 54.561Z"></path>
      <path fill="#000000" d="M39.2199 58.136C40.537 54.9544 42.5858 52.1283 45.1999 49.887C45.5589 49.581 45.0379 49.065 44.6809 49.369C41.9687 51.6909 39.8549 54.6313 38.5179 57.942C38.3359 58.378 39.0449 58.568 39.2199 58.136Z"></path>
      <path fill="#000000" d="M25.1431 97.857C25.8337 97.491 26.6058 97.3063 27.3873 97.3201C28.1687 97.3339 28.9339 97.5458 29.6111 97.936C30.5954 98.5826 31.4094 99.457 31.9841 100.485C33.5461 102.793 36.2701 107.885 37.0461 109.185C37.0714 109.226 37.1046 109.262 37.1438 109.29C37.1831 109.318 37.2275 109.338 37.2745 109.348C37.3215 109.359 37.3702 109.36 37.4177 109.352C37.4651 109.344 37.5105 109.326 37.5511 109.3C37.63 109.251 37.6871 109.173 37.7107 109.083C37.7343 108.993 37.7226 108.897 37.6781 108.815C34.0391 102.377 32.0131 98.359 29.9101 97.264C29.1457 96.8498 28.294 96.6227 27.4249 96.6013C26.5557 96.5799 25.6939 96.7649 24.9101 97.141C23.9649 97.7229 23.2263 98.5868 22.7984 99.6109C22.3705 100.635 22.2749 101.768 22.5251 102.849C22.5381 102.895 22.56 102.937 22.5894 102.974C22.6189 103.011 22.6554 103.042 22.6968 103.065C22.7383 103.088 22.7838 103.103 22.8309 103.108C22.8779 103.113 22.9256 103.109 22.9711 103.096C23.0619 103.068 23.1389 103.007 23.1872 102.926C23.2355 102.844 23.2515 102.747 23.2321 102.654C23.0237 101.755 23.095 100.814 23.4366 99.9563C23.7781 99.099 24.3736 98.3665 25.1431 97.857V97.857Z"></path>
      <path fill="#000000" d="M128 153.24L140.216 159.432C140.636 159.645 141.007 159.013 140.586 158.8L128.37 152.607C127.951 152.394 127.58 153.026 128 153.24Z"></path>
      <path fill="#000000" d="M135.173 165.7C135.199 165.606 135.186 165.506 135.138 165.422C135.09 165.337 135.011 165.275 134.917 165.249C131.476 164.757 128.021 164.39 124.552 164.149C124.082 164.116 124.084 164.849 124.552 164.882C127.952 165.119 131.342 165.479 134.722 165.96C134.816 165.983 134.916 165.969 135 165.92C135.084 165.872 135.146 165.793 135.173 165.7V165.7Z"></path>
      <path fill="#000000" d="M112.389 118.843L105.572 124.643C105.212 124.949 105.732 125.465 106.09 125.161L112.907 119.361C113.267 119.055 112.746 118.538 112.389 118.843Z"></path>
      <path fill="#000000" d="M105.15 124.029C107.483 122.168 109.772 120.255 112.015 118.29C112.37 117.979 111.85 117.462 111.496 117.772C109.252 119.737 106.964 121.65 104.632 123.511C104.263 123.805 104.784 124.321 105.15 124.029Z"></path>
      <path fill="#000000" d="M88.1631 180H83.1191C83.0252 180.005 82.9368 180.046 82.872 180.114C82.8073 180.182 82.7712 180.272 82.7712 180.367C82.7712 180.461 82.8073 180.551 82.872 180.619C82.9368 180.687 83.0252 180.728 83.1191 180.733H88.1631C88.257 180.728 88.3454 180.687 88.4101 180.619C88.4749 180.551 88.5109 180.461 88.5109 180.367C88.5109 180.272 88.4749 180.182 88.4101 180.114C88.3454 180.046 88.257 180.005 88.1631 180V180Z"></path>
      <path fill="#000000" d="M8.70703 96.427C8.61417 96.4302 8.526 96.4685 8.4603 96.5342C8.3946 96.5999 8.35626 96.6881 8.35303 96.781V102.726C8.35793 102.82 8.39869 102.908 8.46688 102.973C8.53507 103.038 8.62551 103.074 8.71953 103.074C8.81355 103.074 8.90398 103.038 8.97217 102.973C9.04037 102.908 9.08112 102.82 9.08603 102.726V96.781C9.08264 96.6838 9.04082 96.5919 8.96976 96.5256C8.8987 96.4592 8.80421 96.4237 8.70703 96.427V96.427Z"></path>
      <path fill="#000000" d="M177.03 146.555C175.636 147.031 174.426 147.933 173.573 149.134C172.719 150.335 172.264 151.774 172.272 153.247C172.272 153.906 172.272 184.123 172.272 184.156C172.277 184.25 172.318 184.338 172.386 184.403C172.454 184.468 172.545 184.504 172.639 184.504C172.733 184.504 172.823 184.468 172.891 184.403C172.959 184.338 173 184.25 173.005 184.156C173.005 184.156 173.005 153.379 173.005 153.216C173.049 151.579 173.728 150.023 174.899 148.879C176.07 147.734 177.64 147.09 179.278 147.084C180.915 147.077 182.491 147.709 183.671 148.844C184.851 149.979 185.542 151.529 185.599 153.166C185.599 153.505 185.593 153.844 185.599 154.183C185.604 154.277 185.645 154.365 185.713 154.43C185.781 154.495 185.872 154.531 185.966 154.531C186.06 154.531 186.15 154.495 186.218 154.43C186.286 154.365 186.327 154.277 186.332 154.183C186.403 153.086 186.275 151.986 185.955 150.935C185.663 150.057 185.199 149.246 184.59 148.549C183.981 147.853 183.24 147.284 182.41 146.876C181.579 146.469 180.676 146.23 179.752 146.175C178.829 146.12 177.903 146.249 177.03 146.555Z"></path>
      <path fill="#000000" d="M185.127 145.2C183.611 144.229 181.878 143.649 180.083 143.51C178.288 143.372 176.487 143.68 174.84 144.407C173.217 145.176 171.845 146.391 170.887 147.91C169.929 149.43 169.423 151.191 169.428 152.987C169.422 154.068 169.428 183.573 169.428 183.573C169.469 186.981 167.221 190.755 162.074 190.901C157.711 191.024 144.364 190.816 96.4691 190.901C96.4208 190.902 96.3733 190.913 96.3292 190.933C96.2851 190.952 96.2454 190.981 96.2125 191.016C96.1795 191.051 96.1539 191.093 96.1372 191.138C96.1205 191.184 96.113 191.232 96.1151 191.28C96.1186 191.373 96.157 191.461 96.2226 191.526C96.2883 191.592 96.3763 191.63 96.4691 191.634H162.042C163.081 191.661 164.114 191.484 165.084 191.112C166.054 190.74 166.942 190.18 167.695 189.465C168.449 188.75 169.054 187.894 169.477 186.945C169.9 185.996 170.131 184.973 170.158 183.934C170.158 183.865 170.158 154.79 170.158 154.79C170.067 153.331 170.191 151.867 170.528 150.445C173.437 141.104 189.102 142.215 188.442 154.179C188.442 154.276 188.481 154.369 188.549 154.438C188.618 154.506 188.711 154.545 188.808 154.545C188.905 154.545 188.998 154.506 189.067 154.438C189.136 154.369 189.174 154.276 189.174 154.179C189.36 152.457 189.084 150.718 188.372 149.139C187.661 147.56 186.54 146.2 185.127 145.2V145.2Z"></path>
      <path fill="#000000" d="M168.4 146.687C167.053 148.893 166.366 151.44 166.422 154.024C166.422 154.024 166.414 182.915 166.422 183.414C166.436 183.97 166.328 184.523 166.106 185.033C165.884 185.543 165.553 185.998 165.136 186.367C164.19 187.053 163.019 187.355 161.859 187.213H96.5739C96.48 187.218 96.3916 187.259 96.3269 187.327C96.2622 187.395 96.2261 187.485 96.2261 187.58C96.2261 187.674 96.2622 187.764 96.3269 187.832C96.3916 187.9 96.48 187.941 96.5739 187.946C96.5739 187.946 161.83 187.946 162.631 187.946C163.211 187.96 163.788 187.86 164.33 187.651C164.871 187.443 165.366 187.129 165.787 186.729C166.207 186.329 166.544 185.85 166.779 185.319C167.014 184.789 167.143 184.217 167.157 183.637C167.157 183.622 167.157 154.751 167.157 153.587C167.155 151.957 167.48 150.343 168.114 148.84C168.747 147.338 169.675 145.978 170.844 144.841C172.013 143.704 173.398 142.814 174.917 142.222C176.436 141.63 178.058 141.349 179.688 141.396C181.318 141.443 182.921 141.817 184.404 142.495C185.887 143.173 187.218 144.142 188.32 145.344C189.421 146.546 190.27 147.957 190.816 149.493C191.362 151.029 191.594 152.659 191.498 154.287C191.503 154.381 191.544 154.469 191.612 154.534C191.68 154.599 191.77 154.635 191.864 154.635C191.958 154.635 192.049 154.599 192.117 154.534C192.185 154.469 192.226 154.381 192.231 154.287C192.321 152.461 192.027 150.637 191.368 148.932C190.709 147.227 189.701 145.678 188.407 144.387C187.033 143.028 185.371 141.994 183.544 141.362C181.717 140.731 179.772 140.518 177.852 140.739C175.932 140.959 174.085 141.608 172.449 142.638C170.814 143.667 169.43 145.051 168.4 146.687V146.687Z"></path>
      <path fill="#000000" d="M170.242 140.4C168.185 141.854 166.508 143.783 165.354 146.022C164.2 148.261 163.602 150.746 163.611 153.265C163.611 154.393 163.611 156.979 163.611 156.979C163.611 157.076 163.65 157.169 163.718 157.238C163.787 157.306 163.88 157.345 163.977 157.345C164.074 157.345 164.167 157.306 164.236 157.238C164.304 157.169 164.343 157.076 164.343 156.979C164.213 154.538 164.354 152.089 164.764 149.679C165.63 146.107 167.78 142.98 170.804 140.892C173.828 138.804 177.515 137.902 181.161 138.358C184.808 138.814 188.159 140.597 190.575 143.365C192.992 146.134 194.305 149.695 194.264 153.37V154.13C194.269 154.224 194.31 154.312 194.378 154.377C194.446 154.442 194.536 154.478 194.63 154.478C194.724 154.478 194.815 154.442 194.883 154.377C194.951 154.312 194.992 154.224 194.997 154.13C195.164 151.179 194.495 148.241 193.068 145.652C191.641 143.064 189.512 140.931 186.928 139.497C184.343 138.064 181.406 137.388 178.455 137.548C175.504 137.707 172.657 138.696 170.242 140.4V140.4Z"></path>
      <path fill="#000000" d="M133.147 91.653C133.31 91.43 133.307 92.139 133.255 84.99C133.254 84.893 133.215 84.8004 133.146 84.732C133.078 84.6635 132.985 84.6247 132.888 84.624H126.483C126.386 84.6253 126.294 84.6642 126.225 84.7325C126.157 84.8009 126.118 84.8932 126.116 84.99V91.4C126.117 91.4969 126.156 91.5895 126.225 91.658C126.293 91.7266 126.386 91.7657 126.483 91.767C133.583 91.814 132.966 91.807 133.147 91.653ZM132.522 91.029H126.849V85.356H132.522V91.029Z"></path>
      <path fill="#000000" d="M155.675 92.826C157.192 92.8278 158.676 92.3796 159.939 91.538C161.201 90.6965 162.186 89.4995 162.769 88.0983C163.351 86.6971 163.505 85.1547 163.21 83.6661C162.916 82.1775 162.187 80.8097 161.115 79.7354C160.044 78.6612 158.677 77.9289 157.19 77.6312C155.702 77.3334 154.159 77.4835 152.756 78.0626C151.354 78.6416 150.154 79.6235 149.31 80.8842C148.465 82.1448 148.014 83.6276 148.012 85.145C148.011 86.1526 148.208 87.1506 148.592 88.0819C148.976 89.0133 149.54 89.8598 150.252 90.5731C150.964 91.2864 151.809 91.8525 152.739 92.2391C153.67 92.6256 154.667 92.8251 155.675 92.826V92.826ZM153.234 78.626C154.523 78.1451 155.926 78.0574 157.266 78.3739C158.605 78.6905 159.82 79.397 160.758 80.4043C161.696 81.4115 162.314 82.6741 162.534 84.0326C162.754 85.391 162.566 86.7842 161.994 88.036C161.423 89.2878 160.493 90.3419 159.322 91.0651C158.151 91.7883 156.792 92.1481 155.417 92.099C154.042 92.0498 152.712 91.594 151.596 90.7891C150.479 89.9842 149.627 88.8664 149.146 87.577C148.502 85.8479 148.571 83.9339 149.338 82.2555C150.104 80.5771 151.506 79.2717 153.234 78.626V78.626Z"></path>
      <path fill="#000000" d="M150.127 135.879C150.941 135.566 151.814 135.437 152.683 135.503C153.876 135.65 155.087 135.515 156.218 135.109C156.624 134.931 156.984 134.665 157.275 134.33C157.565 133.996 157.778 133.601 157.898 133.175C157.98 132.721 157.931 132.254 157.759 131.826C157.586 131.398 157.297 131.028 156.923 130.758C155.208 129.447 153.092 130.028 151.123 129.833C150.254 129.746 149.413 129.509 149.217 128.564C149.122 128.161 149.129 127.741 149.237 127.341C149.344 126.941 149.55 126.574 149.834 126.273C150.516 125.683 151.378 125.343 152.279 125.309C153.867 125.233 155.458 125.322 157.027 125.573C157.494 125.631 157.49 124.897 157.027 124.841C155.013 124.452 152.945 124.441 150.927 124.808C150.06 125.056 149.313 125.612 148.827 126.372C148.426 127.126 148.319 128.002 148.527 128.831C149.037 130.958 151.838 130.59 153.487 130.583C154.418 130.518 155.349 130.707 156.18 131.131C156.585 131.32 156.902 131.658 157.066 132.074C157.229 132.491 157.226 132.954 157.057 133.368C156.296 134.874 154.557 134.848 152.977 134.808C152.27 134.697 151.548 134.727 150.853 134.897C150.158 135.066 149.503 135.372 148.927 135.796C148.626 136.09 148.39 136.445 148.237 136.837C148.084 137.23 148.016 137.65 148.039 138.071C148.061 138.491 148.173 138.902 148.367 139.276C148.561 139.65 148.833 139.978 149.164 140.238C149.924 140.741 150.813 141.01 151.724 141.013C152.599 141.004 153.474 141.049 154.344 141.147C155.108 141.232 155.817 141.587 156.344 142.147C157.244 143.423 156.13 145.028 154.457 145.221C152.449 145.48 150.417 145.504 148.403 145.293C147.935 145.243 147.938 145.976 148.403 146.026C150.711 146.271 153.043 146.188 155.327 145.777C156.976 145.218 158.008 143.318 157.006 141.818C156.528 141.198 155.854 140.758 155.094 140.57C154.271 140.367 153.424 140.278 152.577 140.306C151.664 140.358 150.751 140.2 149.908 139.844C149.544 139.645 149.243 139.346 149.041 138.983C148.839 138.62 148.744 138.207 148.767 137.792C148.79 137.378 148.93 136.978 149.171 136.639C149.411 136.301 149.743 136.037 150.127 135.879V135.879Z"></path>
      <path fill="#000000" d="M129.851 62.02C129.977 62.092 129.451 62.068 138.562 62.068C138.625 62.0645 138.686 62.0452 138.74 62.012C138.794 61.9788 138.839 61.9327 138.87 61.8778C138.901 61.823 138.919 61.7611 138.92 61.6979C138.921 61.6347 138.907 61.5722 138.878 61.516L134.611 54.192C134.56 54.108 134.478 54.0476 134.382 54.0242C134.287 54.0008 134.186 54.0161 134.102 54.067C133.968 54.149 134.272 53.704 129.71 61.516C129.686 61.5583 129.671 61.6049 129.665 61.6532C129.659 61.7014 129.663 61.7504 129.676 61.7972C129.689 61.844 129.711 61.8877 129.741 61.926C129.771 61.9642 129.809 61.9961 129.851 62.02V62.02ZM134.294 55.104L137.924 61.335H130.664C130.817 61.074 134.215 55.242 134.294 55.1V55.104Z"></path>
      <path fill="#000000" d="M138.113 31.97C138.407 31.9629 138.699 32.0159 138.972 32.1258C139.245 32.2356 139.492 32.4001 139.699 32.6089C139.906 32.8178 140.068 33.0668 140.175 33.3406C140.283 33.6143 140.333 33.9071 140.323 34.201V38.081C140.324 38.1777 140.363 38.2702 140.432 38.3387C140.5 38.4072 140.592 38.4464 140.689 38.448H147.166C147.263 38.4467 147.356 38.4076 147.424 38.3391C147.493 38.2705 147.532 38.1779 147.533 38.081C147.576 32.146 147.619 31.663 147.187 30.118C146.698 28.5667 145.728 27.2113 144.418 26.2482C143.107 25.285 141.524 24.7641 139.897 24.761H138.113C138.016 24.7623 137.924 24.8012 137.855 24.8696C137.787 24.9379 137.748 25.0302 137.746 25.127V31.6C137.746 31.6977 137.784 31.7915 137.853 31.8608C137.922 31.9302 138.015 31.9695 138.113 31.97V31.97ZM138.479 25.494H139.9C140.853 25.4911 141.797 25.6857 142.671 26.0655C143.545 26.4454 144.331 27.0022 144.979 27.701C145.628 28.3997 146.124 29.2251 146.437 30.1253C146.751 31.0254 146.874 31.9807 146.8 32.931V37.715H141.056V35.385C141.216 34.3319 141.007 33.2559 140.465 32.339C140.226 32.0324 139.926 31.7783 139.584 31.5923C139.243 31.4064 138.867 31.2926 138.479 31.258V25.494Z"></path>
      <path fill="#000000" d="M140.417 128.66C140.51 128.657 140.598 128.618 140.664 128.553C140.729 128.487 140.768 128.399 140.771 128.306V113.342H150.853C150.903 113.339 150.952 113.327 150.997 113.305C151.042 113.284 151.082 113.254 151.115 113.217C151.149 113.179 151.174 113.136 151.191 113.089C151.207 113.042 151.214 112.992 151.211 112.942C151.2 112.704 148.291 107.837 142.266 97.507C142.233 97.4525 142.187 97.4075 142.131 97.3763C142.076 97.345 142.013 97.3286 141.95 97.3286C141.886 97.3286 141.823 97.345 141.768 97.3763C141.712 97.4075 141.666 97.4525 141.633 97.507L132.733 112.789C132.686 112.874 132.675 112.974 132.701 113.068C132.727 113.161 132.789 113.241 132.873 113.289C133.004 113.362 132.592 113.336 140.041 113.336V128.3C140.042 128.348 140.052 128.396 140.072 128.44C140.091 128.485 140.119 128.525 140.154 128.558C140.189 128.592 140.23 128.618 140.275 128.635C140.321 128.653 140.369 128.661 140.417 128.66ZM133.684 112.609L141.95 98.421L150.215 112.609H140.771V110.291C140.766 110.197 140.725 110.109 140.657 110.044C140.589 109.979 140.499 109.943 140.405 109.943C140.311 109.943 140.22 109.979 140.152 110.044C140.084 110.109 140.043 110.197 140.038 110.291V112.609H133.684Z"></path>
      <path fill="#000000" d="M136.267 92.457V76.605C136.262 76.5111 136.221 76.4227 136.153 76.3579C136.085 76.2932 135.994 76.2571 135.9 76.2571C135.806 76.2571 135.716 76.2932 135.648 76.3579C135.58 76.4227 135.539 76.5111 135.534 76.605V92.457C135.539 92.5509 135.58 92.6393 135.648 92.704C135.716 92.7688 135.806 92.8048 135.9 92.8048C135.994 92.8048 136.085 92.7688 136.153 92.704C136.221 92.6393 136.262 92.5509 136.267 92.457V92.457Z"></path>
      <path fill="#000000" d="M142.032 76.244V53.544C142.027 53.4501 141.986 53.3616 141.918 53.2969C141.85 53.2322 141.76 53.1961 141.666 53.1961C141.572 53.1961 141.481 53.2322 141.413 53.2969C141.345 53.3616 141.304 53.4501 141.299 53.544V76.244C141.304 76.3378 141.345 76.4263 141.413 76.491C141.481 76.5557 141.572 76.5918 141.666 76.5918C141.76 76.5918 141.85 76.5557 141.918 76.491C141.986 76.4263 142.027 76.3378 142.032 76.244V76.244Z"></path>
      <path fill="#000000" d="M146 65.256V47.962C145.995 47.8681 145.954 47.7797 145.886 47.7149C145.818 47.6502 145.728 47.6141 145.634 47.6141C145.54 47.6141 145.449 47.6502 145.381 47.7149C145.313 47.7797 145.272 47.8681 145.267 47.962V65.256C145.272 65.3499 145.313 65.4383 145.381 65.503C145.449 65.5678 145.54 65.6038 145.634 65.6038C145.728 65.6038 145.818 65.5678 145.886 65.503C145.954 65.4383 145.995 65.3499 146 65.256Z"></path>
      <path fill="#000000" d="M92.8209 145.632C97.8124 143.762 103.009 142.492 108.3 141.85C108.762 141.794 108.767 141.061 108.3 141.117C102.942 141.752 97.6794 143.031 92.6269 144.925C92.1879 145.089 92.3779 145.8 92.8209 145.632Z"></path>
      <path fill="#000000" d="M107.435 137.9C102.012 138.771 96.7053 140.254 91.6159 142.319C91.1839 142.494 91.3729 143.203 91.8159 143.026C96.9062 140.963 102.213 139.481 107.635 138.607C108.094 138.534 107.9 137.827 107.435 137.9Z"></path>
      <path fill="#000000" d="M14.8181 36.679C15.0841 37.064 15.7181 36.698 15.4501 36.309L9.55008 27.751C9.28408 27.365 8.65008 27.731 8.91708 28.121L14.8181 36.679Z"></path>
      <path fill="#000000" d="M19.6159 36.005C19.7159 36.466 20.4259 36.271 20.3229 35.811C20.0079 34.389 17.5229 23.179 17.5229 23.179C17.4229 22.719 16.7139 22.913 16.8159 23.379C17.1269 24.794 19.2749 34.469 19.6159 36.005Z"></path>
    </g>
  </g>
</svg>