<svg xmlns="http://www.w3.org/2000/svg" viewBox="0 0 200 200" height="100" width="100">
  <g>
    <path d="M36.584,69.829s-2.209,5.153-13.763,8.462c0,0-.654,3.742.319,5.967,1.471,3.363,6.172,5.886,6.43,10.631a12.455,12.455,0,0,1-2.9,8.083S16.288,102.866,9.495,118.4C2.48,134.434,4.6,148.1,15.659,149.08l-.011.976c20.936,10.9,41.111-2.48,41.111-2.48l-3.507-17.608s6.893,5.641,11.041,6.075l.387-16.13s14.355.458,14.97.555,2.936.425,1.393,2.882c-1.772,2.821-1.155,4.226-.958,4.737.669,1.736,5.8,3.426,7.305.344,1.428-2.929-.9-3.761-1.194-5.985-.168-1.291.941-1.989,3.327-2.025s13.061.047,13.061.047.145-13.1.139-14.368-.113-2.133-2.062-1.338c-2.26.922-4.533,1.094-5.93-.47-1.519-1.7-1.175-6.411,2.766-6.473,2.315-.036,3.562,2.264,4.575,2.181s.976-1.819.976-3.266-.217-13.633-.217-13.633l-27.049-.373s-.226-3.171-1.957-3.026a1.85,1.85,0,0,0-2.853-.639s-1.157-1.614-3.182,0c0,0-.9-.356-1.664.819A5.779,5.779,0,0,1,63.314,81.8c-.822.4-2.106,2.152.877,4.52,0,0-2.007.181-2.187.832s-3.183,26-3.183,26-11.146-10.595-18.989-10.378c0,0,3.548-3.706,2.9-4.43s-5.177,2.695-5.177,2.695V97.946s5.142-1.537,6.372-6.6-.87-15.912-1.34-17.358A16.242,16.242,0,0,1,36.584,69.829Z" fill="#ffffff"></path>
    <path d="M143.134,51.386s-2.386,10.2-2.115,14.538,1.22,7.865,6.658,9.872l-.257,2.369s-2.839-.091-3.237.343a9.434,9.434,0,0,0-.994,4.747s-12.232,1.681-17.9,7.214l-6.922,1.673.594,3.4S107.641,108,107.279,120.468h-4.695s-.024,14.888-.078,15.891-.244,2.794-2.631,1.98-2.929-2.462-5.8-1.027-1.139,7.085,1.645,7.428c2.64.326,4.284-2.305,6.22-1.248.747.409.262,16.034.262,16.034l36.326.619v-5.939s15.969,9.745,35.541-3.926l-.435-13.044s17.335,3.238,20.43-9.221c3.317-13.35-13.769-37.573-34.681-42.961,0,0,.463-4.254-.5-5.257s-3.168-.923-3.168-.923l.144-2.671s5.813-2.4,7.332-10.388c0,0,5.91.35,4.845-4.339-.868-3.824-5.966-1.121-5.966-1.121s1.048-6.884-.109-7.727-5.641-.012-6.509-.3.868-2.188.868-2.188-5.213,1.278-5.841.94c-.47-.253.127-1.682.127-1.682S145.178,50.952,143.134,51.386Z" fill="#ffffff"></path>
    <path d="M121.658,108.668s9.543-.488,13.177-7.92,1.085-12.8,1.085-12.8l-17.554,4.231Z" fill="#FF5300"></path>
    <path d="M162.907,120.782l-.33.086a5.6,5.6,0,0,0-.378-.657,50,50,0,0,0-4.528-3.272c-.364-.169-1.287-.633-1.778,0-.346.569.123,1.3.456,1.585a45.252,45.252,0,0,1,4.08,2.892l-1.146.295a38.019,38.019,0,0,0-3.4-2.36,1.716,1.716,0,0,0-1.17-.081.358.358,0,0,0-.177.282c-.284.665,2.127,2.2,2.859,2.644l-14.257,3.664s.011-.178.048-.5A31.055,31.055,0,0,1,147.8,112.3a18.719,18.719,0,0,1,10.58-7.466c.21-.051.322-.073.322-.073l1.98,7.539c-.759-.308-1.357-.413-1.537-.211-.223.252.094.93.357,1.316a11.277,11.277,0,0,1,1.735,1.014l.383,1.462a11.548,11.548,0,0,0-2.6-1.66c-.544-.215-1.409-.36-1.618-.073-.411.569.461,1.653.839,2.028.794.52,2.709,1.8,4.264,3.068Z" fill="#FEB100"></path>
    <polygon points="102.584 120.675 120.685 140.566 139.175 121.822 102.584 120.675" fill="#FF5300"></polygon>
    <polygon points="102.198 159.332 138.524 160.091 120.685 140.566 102.198 159.332" fill="#FF5300"></polygon>
    <path d="M96.1,137.076a12.889,12.889,0,0,1-.383,7.107,3.884,3.884,0,0,0,2.749-.633c1.377-.67,3.056-1.478,3.894-.193l-.161,15.975-38.313-.687.957-38.732,16.4.33a1.593,1.593,0,0,1,.544.443c.771,1.01-.142,2.589-.8,3.685-.672,1.128-1.118,1.87-.649,3.03a12.965,12.965,0,0,1,6.936.183c.364-1.7-1.113-3.431-1.451-4.8-.243-.99-.178-1.925.713-2.433l16.041.325-.177,17.728a1.637,1.637,0,0,1-1.839.7C99.153,138.753,97.784,136.917,96.1,137.076Z" fill="#FEB100"></path>
    <path d="M93.548,99.829l-4.557-1.283a.269.269,0,0,1-.173-.368l2.611-5.841a.268.268,0,0,0-.361-.351L84.72,95.057a.269.269,0,0,1-.377-.175l-1.49-5.825a.269.269,0,0,0-.517-.013l-1.787,5.822a.268.268,0,0,1-.4.148L74.374,91.4a.268.268,0,0,0-.39.329l2.595,6.321a.269.269,0,0,1-.158.355l-5.843,2.084a.268.268,0,0,0,0,.506l5.818,1.974a.268.268,0,0,1,.156.369l-2.94,6.192a.268.268,0,0,0,.36.356l5.549-2.716a.269.269,0,0,1,.371.151l1.873,5.28a.268.268,0,0,0,.508-.01l1.91-6.118a.268.268,0,0,1,.373-.162l5.9,2.856a.268.268,0,0,0,.358-.358l-2.482-5.141a.268.268,0,0,1,.19-.38l5-.976a.267.267,0,0,0,.217-.263v-1.959A.268.268,0,0,0,93.548,99.829Z" fill="#FEB100"></path>
    <ellipse cx="31.464" cy="81.519" rx="0.958" ry="1.311" transform="translate(-10.554 4.904) rotate(-7.636)" fill="#232323"></ellipse>
    <ellipse cx="40.509" cy="80.008" rx="0.941" ry="1.287" transform="translate(-10.273 6.093) rotate(-7.636)" fill="#232323"></ellipse>
    <ellipse cx="30.578" cy="86.227" rx="1.267" ry="0.949" fill="#FFD8D0"></ellipse>
    <ellipse cx="42.259" cy="84.937" rx="1.164" ry="0.837" transform="translate(-10.912 6.369) rotate(-7.636)" fill="#FFD8D0"></ellipse>
    <ellipse cx="144.058" cy="62.804" rx="0.969" ry="1.332" transform="translate(58.282 194.484) rotate(-80.476)" fill="#FFD8D0"></ellipse>
    <ellipse cx="156.649" cy="64.486" rx="1.402" ry="1.02" transform="translate(-4.774 13.105) rotate(-4.719)" fill="#FFD8D0"></ellipse>
    <path d="M39.737,83.141c-.174-.278-2.573-.612-2.8-.733a33.495,33.495,0,0,1-.742-4.471.47.47,0,0,0-.933.112c.243,2.028.6,4.534.941,4.956a7.53,7.53,0,0,0,2.419.677c-.371.458-1.049,1.2-1.656,1.821a.469.469,0,1,0,.671.656C40.068,83.671,39.929,83.449,39.737,83.141Z" fill="#232323"></path>
    <path d="M34.95,89.989a3.924,3.924,0,0,0,3.027-.516.47.47,0,0,0-.531-.775,2.848,2.848,0,0,1-2.2.4c-.7-.235-1.013-1.257-1.072-1.631a.469.469,0,0,0-.928.143A3.346,3.346,0,0,0,34.95,89.989Z" fill="#232323"></path>
    <path d="M28.62,78.886a.47.47,0,0,0,.655-.1,2.457,2.457,0,0,1,2.823-.777.469.469,0,0,0,.324-.881,3.39,3.39,0,0,0-3.9,1.1A.469.469,0,0,0,28.62,78.886Z" fill="#232323"></path>
    <path d="M37.436,75.829a.469.469,0,0,0,.784.515,1.753,1.753,0,0,1,2.469-.447.469.469,0,0,0,.464-.816A2.681,2.681,0,0,0,37.436,75.829Z" fill="#232323"></path>
    <path d="M145.96,79.507a.47.47,0,0,0-.525.407l-.3,2.36a.469.469,0,1,0,.931.117l.3-2.359A.471.471,0,0,0,145.96,79.507Z" fill="#232323"></path>
    <path d="M147.848,79.506a.47.47,0,0,0-.516.419l-.244,2.359a.47.47,0,0,0,.934.1l.244-2.36A.469.469,0,0,0,147.848,79.506Z" fill="#232323"></path>
    <path d="M150.173,79.885a.469.469,0,0,0-.509.426l-.162,1.845a.469.469,0,0,0,.935.082l.162-1.844A.47.47,0,0,0,150.173,79.885Z" fill="#232323"></path>
    <path d="M153.752,80.1a.47.47,0,0,0-.482.456l-.054,1.94a.469.469,0,0,0,.938.026l.054-1.939A.471.471,0,0,0,153.752,80.1Z" fill="#232323"></path>
    <path d="M156.18,80.317a.469.469,0,0,0-.469.47v2.359a.469.469,0,1,0,.938,0V80.787A.469.469,0,0,0,156.18,80.317Z" fill="#232323"></path>
    <path d="M147.478,60.3c-.2.261-.364.486,1.507,3.231A.469.469,0,1,0,149.76,63c-.472-.694-.991-1.515-1.264-2.015a5.59,5.59,0,0,0,1.857.021c.314-.143.5-.229,1.228-5.279l.046-.314a.47.47,0,0,0-.929-.138c-.126.862-.571,4.014-.839,4.867C148.865,60.127,147.825,59.836,147.478,60.3Z" fill="#232323"></path>
    <path d="M149.806,66.841a3.354,3.354,0,0,1-1.8-1.156.47.47,0,0,0-.735.585,4.264,4.264,0,0,0,2.429,1.5,5.108,5.108,0,0,0,2.94-.886.469.469,0,0,0-.51-.788A4.446,4.446,0,0,1,149.806,66.841Z" fill="#232323"></path>
    <path d="M154.391,59.344a3.894,3.894,0,0,1,4.647-.7.469.469,0,0,0,.414-.842,4.823,4.823,0,0,0-5.768.926A.47.47,0,0,0,154.391,59.344Z" fill="#232323"></path>
    <path d="M155.215,54.848a3.955,3.955,0,0,1,3.407.086.469.469,0,0,0,.486-.8,4.872,4.872,0,0,0-4.3-.131A.469.469,0,0,0,155.215,54.848Z" fill="#232323"></path>
    <path d="M145.463,53.7a2.817,2.817,0,0,1,2.554.437.464.464,0,0,0,.3.106.47.47,0,0,0,.3-.832,3.753,3.753,0,0,0-3.467-.594.469.469,0,0,0,.318.883Z" fill="#232323"></path>
    <path d="M143.466,56.409a.468.468,0,0,0,.569.342,3.348,3.348,0,0,1,3.421,1.438.469.469,0,0,0,.773-.532,4.25,4.25,0,0,0-4.422-1.817A.469.469,0,0,0,143.466,56.409Z" fill="#232323"></path>
    <path d="M164.236,63.4a.471.471,0,0,0,.313-.12,2.316,2.316,0,0,1,.83-.487.47.47,0,0,0-.2-.918,3.244,3.244,0,0,0-1.259.707A.47.47,0,0,0,164.236,63.4Z" fill="#232323"></path>
    <ellipse cx="83.482" cy="140.033" rx="12.48" ry="12.449" fill="#ffffff"></ellipse>
    <path d="M78.053,142.691a.469.469,0,1,0-.783.518,7.234,7.234,0,0,0,5.656,3.085,7.89,7.89,0,0,0,6.241-3.075.469.469,0,1,0-.77-.537,7.026,7.026,0,0,1-5.47,2.674A6.4,6.4,0,0,1,78.053,142.691Z" fill="#232323"></path>
    <path d="M86.992,139.568a.469.469,0,0,0,.469-.469V135.79a.469.469,0,1,0-.938,0V139.1A.469.469,0,0,0,86.992,139.568Z" fill="#232323"></path>
    <path d="M79.181,139.568a.469.469,0,0,0,.469-.469V135.79a.47.47,0,0,0-.939,0V139.1A.47.47,0,0,0,79.181,139.568Z" fill="#232323"></path>
    <path d="M194.974,122.244c-.59-12.714-18.483-34.307-35.28-37.646.08-1.089.217-3.811-.314-4.951-.129-.276-.432-.482-.984-.668a14.861,14.861,0,0,0-2.31-.469l.164-1.931a8.222,8.222,0,0,0,4-3.261c9.353-3.109,11.278-16.3,10.924-21.009-.4-5.3-4.827-12.391-11.844-13.724-6.708-1.274-10.288-.378-10.288.542,0,.386,1.411.6,1.411.6s-8.68,2.548-11.608,7.215c-2.173,3.457,1.247,3.036,1.247,3.036s-1.789,2.212-.432,2.652a8.242,8.242,0,0,0,2.964-.389c-3.6,15.55-2.524,21.4,4.64,23.777l-.258,1.861a12.183,12.183,0,0,0-3.02.164c-.979.528-1.2,3.387-1.244,4.951a42.71,42.71,0,0,0-18.571,7.255c-.1.061.566-.1-5.74,1.413a.731.731,0,0,0-.547.872c.11.5.328,1.494.6,2.722-9.905,10.364-11.506,23.525-11.659,25.04l-3.7-.113c.024-2.239.139-14.008.139-14.713a1.526,1.526,0,0,0-.493-1.285,1.766,1.766,0,0,0-1.891-.059c-5.209,2.51-6.891-.773-6.491-3.1.577-3.366,4.3-3.114,5.611-1.727a2.649,2.649,0,0,0,2.2,1.1c1.218-.15,1.333-1.8,1.32-2.964,0-.128-.057-10.285-.081-14.059a.741.741,0,0,0-.729-.732l-26.564-.33c-.166-3.253-1.909-3.154-2.172-3.127a2,2,0,0,0-2.934-.668,2.416,2.416,0,0,0-3.535.145c-1.528-.349-2.043,1.7-2.83,1.976,0,0-3.06,1.07-2.8,3a4.367,4.367,0,0,0,1.559,2.416,6.5,6.5,0,0,0-1.6.314.471.471,0,0,0-.3.384L58.51,112.382a39.519,39.519,0,0,0-9.639-7.132c.8-.912,3.634-4.339,3.875-7.249.561-6.8-3.256-10.7-4.484-13.019-2.224-4.195-2.17-14.773-5.353-18.117-2.385-2.508-5.225-3.087-7.146-2.138a3.3,3.3,0,0,1,2.766-2.108.469.469,0,0,0-.116-.931A4.2,4.2,0,0,0,34.8,64.649c-1.422-1.038-6.067-3.672-12.721.118-6.032,3.433-7,11.707-6.8,14.21C15.608,83,16.6,86.307,16.1,89.3s-3.779,8.633-5.147,12.5c-2.376,6.718-.236,10.763.5,11.868-2.049,3.452-5.552,10.315-6.287,17.951-.584,6.083.448,11.426,3.112,14.413a9.305,9.305,0,0,0,7.051,3.222l-.437,6.117a2.071,2.071,0,0,0,1.011,2.009c19.455,10.138,38.7.842,41.773-.869a2.19,2.19,0,0,0,1.057-2.462c-1.607-6.193-3.409-15.373-4.82-23.066,1.808,1.473,5.772,4.394,9.961,5.491l-.517,21.885a.737.737,0,0,0,.721.757l74.258,1.544a.741.741,0,0,0,.738-.737l-.169-4.991c19.04,8.883,35.366-4.26,35.465-4.321a.47.47,0,0,0,.214-.411l-.356-12.471c5.691.881,12.434.33,16.661-3.586C193.834,131.414,195.212,127.407,194.974,122.244ZM143.623,51.987c2.851-.748,6.128-1.848,6.128-1.848s-.568,1.084.258,1.411,5.275-.652,5.275-.652-1.094,1.172-.541,1.73c.651.657,5.777-.239,6.509.547,1,1.07-.408,6.891.408,7.65.566.531,1.137-.405,3.1-.869,1.918-.451,4.606,1.9,1.974,4.5-1.236,1.22-3.618.609-3.744,1.048-2.571,8.951-7.274,10.262-7.3,10.27a.471.471,0,0,0-.346.413l-.185,2.2c-2.21-.26-4.97-.431-7.2-.493l.223-1.612a16.276,16.276,0,0,0,2.349.416.47.47,0,0,0,.054-.936C140.951,74.68,139.681,68.274,143.623,51.987Zm8.569,32.453c.724,2.537,3.666,12.823,3.806,13.341a2.1,2.1,0,0,0,2.714,1.679,4.674,4.674,0,0,0,1.8-1.414,4.747,4.747,0,0,1,2.2-1.553c4.526-1.1,4.887,4.87,3.452,6.107-.376.324-1.186,1.222-3.994.8a5.387,5.387,0,0,0-2.628.108c-1.384.519-1.332,1.7-1,3.154.282,1.252.88,3.363,1.183,4.412-2.086,0-1.633,1.483-1.445,2-.585-.067-2.666.115-1.58,2.6-.6-.083-2.57.059-1.465,2.583a1.355,1.355,0,0,0-1.62,1.11c-.152.781.478,1.639,2.133,2.833l-16.262,4.084c.051-1.665.1-3.266.142-4.532a.47.47,0,0,0-.455-.483l-15.884-.48c1.188-1.632,2.7-6.718.81-7.054a1.115,1.115,0,0,0-.555.035c-.035-1.381-1.115-1.718-2.014-.963-.276-.919-1.311-1.32-2.4-.147a.987.987,0,0,0-.537-.405c-1.435-.426-2.559,1.956-3.28,3.288-1.969-2.5-1.041-5.07.853-5.834.467.882,1.29,1.749,2.215,1.355a1.1,1.1,0,0,0,.6-.939,3.092,3.092,0,0,0,2.347-.582c1.091-.885.694-2.583.432-3.707-.118-.5.3,1.373-2.91-13.313Zm8.229,38.179c.387.334.9.695.812,1.011-.252.352-1.907-.209-3.634-1.308l-.207-.124c-.732-.448-3.143-1.979-2.859-2.644C155.038,118.382,160.048,122.3,160.421,122.619Zm.541-.769a41.479,41.479,0,0,0-4.565-3.283c-.413-.345-.774-1.187-.362-1.663.329-.38,1.214-.134,1.682.054a52.367,52.367,0,0,1,4.482,3.253c.263.389.865,1.485.673,1.888C162.8,122.252,161.9,122.2,160.962,121.85Zm1.811-2.382a50.155,50.155,0,0,0-4.533-3.291c-.378-.375-1.25-1.459-.839-2.028.209-.287,1.074-.142,1.618.073a11.548,11.548,0,0,1,2.6,1.66,22.091,22.091,0,0,1,2.283,2.1c.239.365.59,1.129.41,1.454C164.208,119.626,163.462,119.637,162.773,119.468Zm-3.272-6.062c-.263-.386-.58-1.064-.357-1.316.18-.2.778-.1,1.537.211a11.147,11.147,0,0,1,2.145,1.2,10.61,10.61,0,0,1,2.913,3.208c.355.727-.521.719-1.226.558A18.411,18.411,0,0,0,159.5,113.406Zm-42.323,6.346c-.148-.078-.121-.711.045-1.263a16.271,16.271,0,0,0,2.178-4.64c.3-.488.845-1.067,1.121-.952.145.062.206.612.126,1.09a19.262,19.262,0,0,1-2.057,4.733C118.039,119.339,117.357,119.8,117.178,119.752Zm-.741-1.783c-.119.2-.615.714-.925.743a.231.231,0,0,1-.2-.078c-.073-.07-.368-.55,1.083-3.114.291-.527,1.335-2.537,1.92-2.36a.813.813,0,0,1,.175.453A15.134,15.134,0,0,1,116.437,117.969Zm2.969,1.217a19.693,19.693,0,0,0,2.151-4.951c.271-.453.719-.917.926-.877a.057.057,0,0,1,.043.035,2.908,2.908,0,0,1-.1,1.572c-.141.773-1.347,3.855-1.644,4.594-.346.488-.982,1.121-1.339,1.116C119.1,120.662,119.312,119.519,119.406,119.186Zm3.914-3.929c.083-.193.356-.638.6-.6.254.212.142,1.824-.352,3.331-.389,1.2-1.164,2.766-1.6,2.766-.271-.07-.308-.633-.305-.864C121.86,119.39,122.965,116.617,123.32,115.257Zm-6.692-7.542c.1-.376.687-.376,1.137.655a2.9,2.9,0,0,1,.231,1.839c-.226.076-.537-.193-.926-.791A2.936,2.936,0,0,1,116.628,107.715Zm2.1-11.35c.807,3.677,2.076,9.513,2.116,9.69.223.947.526,2.247-.11,2.762a2.23,2.23,0,0,1-1.776.357,4.956,4.956,0,0,0-.332-1.183c-.453-1.034-1.348-1.783-2.283-1.3-.775.387-.78,1.321-.533,2.148a4.157,4.157,0,0,0-2.546,3.72,5.851,5.851,0,0,0,1.465,3.76.468.468,0,0,0,.139.105c-.552,1.193-.823,2.3-.2,2.891a1.212,1.212,0,0,0,1.472.161c.008.135.055.888.631,1.118l-9.007-.27A44.7,44.7,0,0,1,118.728,96.365ZM75.337,83.408c-.056,1.324-.619,1.96-.772,1.858a22.181,22.181,0,0,0-.247-5.088C74.4,80.213,75.471,80.358,75.337,83.408Zm-.906,2.837c1.424.545,1.746-2.942,1.746-2.99l26.324.327c.022,3.159.078,13.735.081,13.866.016,1.339-.059,1.974-.537,1.982-1.52.007-1.9-2.511-5.238-1.966-4.007.654-4.56,6.2-1.25,7.982,2.332,1.258,4.058.029,5.59-.424.8-.238,1.024-.115,1.062-.086.174.131.143-.015-.024,15.229-2.618-.043-11.458-.182-13.486-.214a3.306,3.306,0,0,0-2.639.81c-.751.945-.171,2.484.4,3.548a5.113,5.113,0,0,1,.818,3.275,10.4,10.4,0,0,0-6.936-.183c-.764-1.822,1.223-3.245,1.681-5.286a1.549,1.549,0,0,0-.78-1.872,4.411,4.411,0,0,0-1.773-.343c-.123-.006-11.814-.319-14.266-.37l.767-32.384a.984.984,0,0,0,.48-.238c.892-.821-.374-2.3-1.255-3.133.386-.485,1.231-1.271,1.805-1.1.287.086.722,1.349.893,2.043.977,3.954,2.615,2.036,2.666,1.905.969,1.869,1.867.426,1.878.413C72.685,87.238,73.575,88.235,74.431,86.245ZM102.163,135c.019,1.244-.135,3.491-1.37,3.189-1.155-.286-2.7-2.251-4.788-2.049-.051.006-.1.016-.147.022a13.007,13.007,0,0,0-7.682-8.264c.336-1.241-.391-3.03-.871-4.007a7.057,7.057,0,0,1-.563-1.335c-.145-.588-.306-1.669,1.941-1.669,2.036,0,10.93.175,13.515.215C102.182,123.625,102.131,132.951,102.163,135Zm-18.535-4.457c2.057,0,3.519-.63,4.2-1.773a12.06,12.06,0,0,1,7.119,7.628,4.683,4.683,0,0,0-.44,8.306,12.006,12.006,0,1,1-14.639-16.2A4.46,4.46,0,0,0,83.628,130.545Zm-2.787-2.3a11.971,11.971,0,0,1,6.064.2c-.74.976-2.277,1.153-3.277,1.153A3.574,3.574,0,0,1,80.841,128.249Zm14.349,9.063a11.952,11.952,0,0,1-.341,6.506A3.761,3.761,0,0,1,95.19,137.312ZM72.709,79.132c.957.395,1.116,3.447,1.116,4.651,0,2.022-.159,2.687-.491,2.712-.681,0-.461-3.216-.6-4.08a7.428,7.428,0,0,0-1.091-3.154A1.3,1.3,0,0,1,72.709,79.132Zm-3.2-.458c1.121.169,2.191,2.271,2.4,4.039s.335,3.763-.166,3.757c-1.014.07-1.049-3.821-1.365-4.782A5.864,5.864,0,0,0,68.434,79.1,1.576,1.576,0,0,1,69.509,78.674Zm-6.7,4.844c-.41-1.012,2.186-1.991,2.186-1.991.979-.347,1.531-1.895,2.215-1.955.628-.059,1.886,1.288,2.283,2.427.346.985.544,3.981.139,4.418a6.04,6.04,0,0,1-.834-1.98c-.405-1.306-.754-2.432-1.521-2.663a1.493,1.493,0,0,0-.431-.062c-1.288,0-2.5,1.567-2.677,1.942a.465.465,0,0,0,.118.55c.949.829,1.808,1.762,1.534,2.014C65.376,86.5,63.668,85.642,62.8,83.518Zm-.2,9.642.488-4.608a.469.469,0,0,1,.933.1l-.488,4.608a.469.469,0,0,1-.933-.1ZM23.2,78.977s11.634-3.669,13.657-8.226a16.145,16.145,0,0,0,5.369,3.58s1.749,9.439,1.7,12.367c-.045,2.473,0,12.531-12.112,10.351a.469.469,0,0,0-.295.89,13.543,13.543,0,0,0,5.657.3v2.591c-.18.18-1.22.985-3.522,3.183-.791-1.947-2.172-4.728-3.275-4.146-.595.314-.909,2.076.37,6.914-.906-.07-2.706-.566-3.674-3.229,1.046-.775,3.446-3.127,3.02-8.119-.545-6.346-3.473-7.467-4.828-9.129A9.513,9.513,0,0,1,23.2,78.977Zm14.421,25.117c.115.2.392.338.577.2,2.559-1.866,2.414.124.984.778a.436.436,0,0,0-.091.639.46.46,0,0,0,.633.126c1.684-1.183,2.009-.124.708.676a.469.469,0,0,0,.408.831c1.853-.721,1.907,1-2.248,2.953a5.364,5.364,0,0,0-2.752,2.51c-1.1-.367-2.306-.748-3.449-1.064a10.4,10.4,0,0,0-.051-2.776c-1.172-3.914-1.867-7.4-1.644-8.173.491.261,1.561,2.17,2.336,4.206a.469.469,0,0,0,.767.169c3.849-3.777,7.708-6.759,8.414-6.536.15.539-1.942,2.81-4.482,4.86A.469.469,0,0,0,37.622,104.094Zm-.571,11.152a.471.471,0,0,1,.2.633l-1.521,2.983a.47.47,0,0,1-.837-.427l1.521-2.982A.471.471,0,0,1,37.051,115.246Zm-3.09.067-1.445,2.827a.47.47,0,0,1-.837-.429l1.448-2.827a.469.469,0,1,1,.834.429ZM14.454,148.268c-7.288-.626-9.063-9.262-8.36-16.556,1.022-10.627,10.87-29.279,20.064-27.917,1.239,3.5,3.826,3.909,4.845,3.928.131.475.987,2.328.467,3.774-.438-.11-.859-.207-1.248-.284a1.069,1.069,0,0,0-1.129.512c-.877,1.512-6.737,11.6-10.972,18.538.563-6.418,1.306-12.034,1.314-12.1a.47.47,0,0,0-.931-.123c-.008.069-.9,6.823-1.475,13.995-1.132,1.826-2.078,3.3-2.671,4.127a.469.469,0,0,0,.762.548c1.885-2.623,7.08-11.356,10.857-17.788.855.558,3.438,1.76,10.607,2.722C30.936,139.063,25.794,149.242,14.454,148.268Zm16.535-33.842-1.6,2.928a.469.469,0,0,1-.824-.447l1.6-2.932a.469.469,0,0,1,.823.451ZM19.717,152.814l-.759,3.436a.47.47,0,1,1-.918-.2l.762-3.436a.468.468,0,1,1,.915.2Zm3.586.992-.687,3.943a.469.469,0,1,1-.925-.161l.686-3.943a.47.47,0,0,1,.926.161Zm4.162,4.882a.468.468,0,1,1-.933-.086l.359-3.87a.47.47,0,0,1,.936.086Zm3.905.284a.468.468,0,0,1-.933-.075l.29-3.581a.468.468,0,1,1,.933.076Zm3.98-.037a.469.469,0,0,1-.938,0v-3.581a.469.469,0,0,1,.938,0Zm4.2.469a.471.471,0,0,1-.466-.421l-.373-3.581a.469.469,0,1,1,.933-.1l.376,3.58A.471.471,0,0,1,39.545,159.4Zm4.289-.77a.468.468,0,0,1-.553-.367l-.686-3.4a.469.469,0,0,1,.92-.185l.686,3.4A.468.468,0,0,1,43.834,158.634Zm4.323-1.47a.466.466,0,0,1-.568-.34l-.832-3.345a.47.47,0,0,1,.912-.228L48.5,156.6A.473.473,0,0,1,48.157,157.164Zm3.959-1.359a.468.468,0,0,1-.579-.32l-1.014-3.508a.469.469,0,1,1,.9-.26l1.014,3.506A.471.471,0,0,1,52.116,155.805Zm3.189-1.376a.466.466,0,0,1-.585-.314l-1.086-3.581a.469.469,0,0,1,.9-.271l1.086,3.581A.471.471,0,0,1,55.305,154.429Zm8.585-18.917c-4.835-1.346-9.467-5.292-10.248-5.981-1.285-7.083-2.186-12.579-2.205-12.694a.469.469,0,1,0-.925.153c2.694,16.549,4.542,25.152,5.587,29.98-8.862,7.351-30.584,8.512-39.869,2.733l.032-.437c5.4-.11,9.658-2.851,13.274-8.516,3.567-5.589,6.388-13.6,10.057-25.541a1.068,1.068,0,0,0-.654-1.32c-.531-.193-1.306-.472-2.2-.78.263-1.384,1.819-1.8,2.75-2.291.627-.327,4.216-2.6,3.631-3.916a1.228,1.228,0,0,0-1.132-.649c.116-.185.719-1.952-1.091-1.831a.979.979,0,0,0-.092-.926c2.717.419,9.878,2.237,17.571,10.074l-.593,5.024a.469.469,0,1,0,.931.11l2.81-23.815a24.084,24.084,0,0,0,3.326.309ZM101.8,158.964l-37.508-.778.893-37.718c4.093.086,14.1.373,14.247.37,1.647-.018,1.775.633,1.676,1.071-.435,1.934-2.619,3.459-1.668,5.755a12.944,12.944,0,1,0,15.934,17.4c2.171.6,3.568-1.07,5.509-1.438a.6.6,0,0,1,.566.1,1.736,1.736,0,0,1,.343,1.18S101.8,156.523,101.8,158.964Zm36.326.756-35.387-.735c0-2.424.008-13.26-.008-14.051a2.484,2.484,0,0,0-.662-1.915c-.9-.789-2.421-.045-3.6.531a3.916,3.916,0,0,1-2.749.633,12.889,12.889,0,0,0,.383-7.107c1.683-.159,3.068,1.68,4.469,2.027a1.636,1.636,0,0,0,1.839-.7,6.344,6.344,0,0,0,.7-3.417c-.032-2.038.019-11.326.035-13.863,81.975,2.471-55.835-1.691,35.535,1.073-.075,2.371-.4,12.632-.346,13.616a2.309,2.309,0,0,0,2.188,2.345c2.425.1,2.659-1.926,5.533-1.655a2.944,2.944,0,0,1,2.487,2.636c.324,1.738-.271,3.575-1.323,4.1-1.953.964-4.634-.736-7.064-.424a1.914,1.914,0,0,0-1.516.834C137.8,145.1,138.127,159.72,138.127,159.72Zm.77-5.868s-.373-8.607.483-9.642a1.3,1.3,0,0,1,.885-.469c2.226-.285,5.013,1.5,7.362.335,2.891-1.427,2.685-8.119-1.494-8.51-3.131-.29-3.692,1.722-5.584,1.655a1.388,1.388,0,0,1-1.285-1.454c-.029-.558.075-4.562.193-8.5l12.145-3.05c7.644,8.071,18.4,12.665,21.674,13.346l.354,12.405C172.128,150.875,156.633,162.625,138.9,153.852Zm35.991-16.972c-7.731-1-16.615-7.569-22.216-12.936l4.012-1.005c.147-.04,0-.082.411.174,1.411.9,3.977,2.207,4.978,1.016a.95.95,0,0,0-.059-1.043c2.132.19,1.738-1.953,1.445-2.564a1.633,1.633,0,0,0,1.644-2.24,1.784,1.784,0,0,0,1.465-.541c1.912.92,9.417,4.361,16.379,5.208.019,0,.038,0,.057,0a.47.47,0,0,0,.056-.936,45.844,45.844,0,0,1-9.43-2.366l-.392-7.644a.469.469,0,1,0-.936.049l.37,7.247c-3-1.116-5.273-2.2-5.938-2.524-.359-1.482-3-4.377-5.957-5.445-.169-.571-.987-3.393-1.322-4.876-.4-1.765-.021-1.9.416-2.068,1.371-.525,6.463,1.249,7.637-2.411,1.392-4.34-1.79-7.2-4.947-6.413-2.148.534-3.07,2.655-4.141,3a1,1,0,0,1-.816-.035,1.676,1.676,0,0,1-.7-1c-.142-.526-2.993-10.5-3.865-13.539a.733.733,0,0,0-.882-.512l-25.386,6.155c6.021-4.349,16.1-5.72,16.4-5.769.247-.039.5-.171.5-.437a9.926,9.926,0,0,1,.744-4.552c3.26-.491,13.327.3,14.126,1.191.429.982.276,3.841.18,4.865a.471.471,0,0,0,.383.507c16.437,2.965,34.355,24.416,34.929,36.844C194.576,134,186.286,138.295,174.888,136.88Z" fill="#232323"></path>
  </g>
</svg>