<svg xmlns="http://www.w3.org/2000/svg" fill="none" viewBox="0 0 400 400">
  <g transform="matrix(16.666666666666668,0,0,16.666666666666668,0,0)">
    <path fill="#111111" d="M15.2328 11.9664H10.8813C10.1337 11.9664 10.0213 12.8843 10.8225 12.8954C11.6238 12.9066 15.1085 12.9346 15.2328 12.9346C15.3103 12.9346 15.2814 11.9664 15.2328 11.9664Z"></path>
    <path fill="#111111" d="M19.3458 9.67908C19.345 9.47705 19.2684 9.28266 19.1313 9.1343C18.9941 8.98594 18.8064 8.89439 18.605 8.87772C18.149 8.83512 8.19729 8.859 7.67097 8.87772C7.14465 8.89644 6.89757 9.25332 6.87561 9.5718C6.86013 9.79572 6.84237 10.4156 6.93945 10.4156C7.22985 10.4156 19.1755 10.4459 19.3169 10.448C19.4001 10.4492 19.3458 9.76356 19.3458 9.67908ZM16.9717 10.02C16.4965 10.02 16.4531 9.2784 16.9453 9.2784C16.9961 9.27291 17.0475 9.27795 17.0963 9.2932C17.1451 9.30846 17.1902 9.3336 17.2288 9.36706C17.2674 9.40052 17.2988 9.44158 17.3208 9.48768C17.3429 9.53379 17.3552 9.58394 17.357 9.63501C17.3588 9.68609 17.3501 9.73699 17.3314 9.78455C17.3127 9.8321 17.2843 9.87529 17.2482 9.91141C17.212 9.94753 17.1688 9.97582 17.1212 9.9945C17.0737 10.0132 17.0228 10.0219 16.9717 10.02V10.02ZM18.2337 10.02C18.1829 10.0255 18.1316 10.0205 18.0828 10.0053C18.034 9.99009 17.9889 9.96499 17.9503 9.93157C17.9116 9.89816 17.8803 9.85714 17.8582 9.81107C17.8361 9.76501 17.8237 9.71489 17.8218 9.66383C17.8199 9.61278 17.8286 9.56188 17.8473 9.51432C17.8659 9.46676 17.8942 9.42355 17.9303 9.38739C17.9664 9.35123 18.0095 9.32289 18.057 9.30414C18.1046 9.28539 18.1554 9.27663 18.2065 9.2784C18.696 9.27804 18.7387 10.02 18.2337 10.02Z"></path>
    <path fill="#111111" d="M19.3067 13.1782C19.3856 12.3572 19.3924 11.5308 19.3271 10.7086C19.3188 10.6038 19.1569 10.6235 19.1653 10.7283C19.2203 11.4094 19.2373 12.8179 19.1015 13.5123C18.9657 14.2066 18.4679 14.1178 17.9187 14.1243L8.49026 14.2349C6.80534 14.2546 7.01918 14.1509 6.99914 10.7385C6.99914 10.6635 6.87158 10.6618 6.86714 10.7385C6.84062 11.2043 6.82046 13.11 6.8969 13.5861C7.05122 14.5461 8.0129 14.3985 8.79506 14.3901L17.6351 14.2887C18.6493 14.2775 19.1861 14.4335 19.3067 13.1782Z"></path>
    <path fill="#111111" d="M15.5232 11.9783C15.515 11.9786 15.507 11.9806 15.4996 11.984C15.4922 11.9874 15.4855 11.9923 15.48 11.9983C15.4688 12.0104 15.4629 12.0265 15.4636 12.043C15.4643 12.0595 15.4715 12.075 15.4836 12.0862C15.4958 12.0974 15.5119 12.1033 15.5284 12.1026C16.3552 12.1469 17.1923 12.0936 18.0132 12.1409C18.3053 12.1578 18.4436 12.2832 18.4572 12.4159C18.4961 12.8095 17.8244 12.7646 17.5932 12.7706H15.558C15.4549 12.7706 15.462 12.9397 15.5648 12.9386C16.2698 12.9329 16.9744 12.9239 17.6784 12.9208C18.0144 12.9192 18.636 12.9088 18.6031 12.4168C18.5765 12.0166 18.1033 11.9936 17.8061 11.991C17.0849 11.9846 16.2096 11.9506 15.5232 11.9783Z"></path>
    <path fill="#111111" d="M8.78822 11.3124C8.7695 11.257 8.68934 11.2732 8.67074 11.3183C8.63378 11.4084 8.62478 12.1136 8.62046 12.2448C8.51246 12.1596 8.40554 12.075 8.29646 11.9945C8.27594 11.9792 8.10218 11.9792 8.30498 12.1793C8.42356 12.2966 8.5556 12.3995 8.69834 12.4858C8.76902 12.5036 9.04634 12.1882 9.10886 12.1298C9.26042 11.9884 9.13286 11.9357 9.08666 11.945C8.97745 12.0183 8.87714 12.1041 8.78774 12.2005C8.78774 12.0379 8.83034 11.4341 8.78774 11.3081L8.78822 11.3124Z"></path>
    <path fill="#111111" d="M7.82855 12.9916C7.73255 12.9876 7.73615 12.6796 7.73063 12.6024C7.71227 12.3469 7.86767 12.4731 7.86767 12.4731C7.91195 12.5211 7.90859 12.7949 7.90691 12.8537C8.44939 12.8133 8.9943 12.8184 9.53591 12.8691C9.52139 12.6987 9.47291 12.4671 9.59375 12.4585C9.71459 12.45 9.69179 12.6203 9.69347 12.76C9.69503 12.886 9.72407 13.0425 9.63983 13.041C9.02759 13.0306 8.43311 13.0165 7.82855 12.9916Z"></path>
    <path fill="#111111" d="M11.8939 6.61944C11.859 6.56916 11.5838 6.21144 11.5047 6.21924C11.2849 6.23928 10.2674 6.56412 10.373 6.71652C10.5305 7.34832 10.8097 8.48868 10.8609 8.62824C10.8822 8.6862 10.9709 8.65632 10.9622 8.59764C10.9011 8.18268 10.631 7.2036 10.4955 6.70632C10.8189 6.55407 11.1579 6.43738 11.5064 6.35832C11.6077 6.47076 11.7074 6.5814 11.8079 6.699C11.9646 6.81564 14.8559 5.93256 15.1477 5.8542C15.6997 7.62288 15.7086 7.97004 15.9362 8.44812C15.965 8.50812 16.0435 8.46168 16.0358 8.40636C15.8271 7.69272 15.5412 6.38124 15.2371 5.75436C15.18 5.63532 11.8939 6.63468 11.8939 6.61944Z"></path>
    <path fill="#111111" d="M12.8076 3.65341C13.1094 3.92041 14.1474 5.21005 14.354 5.56693C14.3862 5.62237 14.2979 5.66557 14.263 5.62057C13.8384 5.07457 13.6063 4.67365 12.7778 3.76333C11.6197 4.55701 10.5774 5.58229 10.4105 5.52265C10.2436 5.46301 10.0238 5.42389 9.86628 5.37445C9.61174 5.58443 9.37586 5.81606 9.16128 6.06673C9.27624 6.18673 10.1617 7.20325 10.2461 7.35181C10.2806 7.41241 10.1988 7.48693 10.1542 7.43101C9.44975 6.54733 8.9676 6.13201 9.036 6.01741C9.144 5.83657 9.61763 5.37109 9.79199 5.29357C9.81671 5.18029 10.331 5.37877 10.4136 5.41273C10.4138 5.40073 12.6924 3.55201 12.8076 3.65341Z"></path>
    <path fill="#111111" d="M8.15722 6.07525C8.17258 5.94325 8.3641 5.03209 8.4493 4.99897L8.93134 4.85329C9.01642 4.62253 9.79306 2.55853 9.86794 2.57329C10.1702 2.63101 12.0639 3.40249 12.2268 3.52537C12.2754 3.56137 12.242 3.64321 12.1851 3.62245C11.459 3.35845 10.6115 2.93437 9.90634 2.70361C9.8833 2.82541 9.04798 4.92781 9.03034 4.94569C8.94514 5.03089 8.63854 5.06413 8.50834 5.09821C8.49982 5.24545 8.32942 5.83909 8.28094 6.02125L8.68966 6.12601C8.75182 6.15409 8.7433 6.26053 8.66674 6.25201C8.7163 6.25201 8.14798 6.15481 8.15722 6.07525Z"></path>
    <path fill="#111111" d="M5.65369 5.50645C5.56849 5.53453 5.29885 5.86153 5.31301 5.94241C5.37045 6.28146 5.46793 6.6125 5.60341 6.92857C5.64337 7.02001 7.50661 6.43129 7.72549 6.36997C7.73377 6.36847 7.74168 6.36534 7.74875 6.36079C7.75582 6.35623 7.76193 6.35032 7.76672 6.3434C7.77152 6.33648 7.7749 6.32868 7.77668 6.32046C7.77845 6.31223 7.7786 6.30373 7.77709 6.29545C7.77559 6.28717 7.77246 6.27927 7.7679 6.27219C7.76335 6.26512 7.75744 6.25901 7.75052 6.25422C7.7436 6.24943 7.7358 6.24604 7.72757 6.24427C7.71935 6.24249 7.71085 6.24235 7.70257 6.24385C7.02257 6.38707 6.35289 6.57548 5.69797 6.80785C5.59284 6.52765 5.50496 6.24127 5.43481 5.95033C5.49013 5.87965 5.78401 5.56633 5.77549 5.50921C5.60509 4.71469 5.42545 3.89125 5.25085 3.10021C6.01729 2.96905 6.81601 2.77621 7.58845 2.62669C7.63009 3.01165 7.91449 4.13737 8.09929 4.90669C8.10937 4.94845 8.18401 4.91953 8.18449 4.87861C8.18785 4.62313 7.74517 2.90101 7.65481 2.54029C7.62109 2.40565 5.35573 2.93629 5.16661 2.99749C5.00917 3.04897 5.57869 5.21161 5.65117 5.50873L5.65369 5.50645Z"></path>
    <path fill="#111111" d="M5.02604 7.75284C4.27508 7.21056 3.00332 6.32172 2.18264 5.9322C2.01272 5.85156 1.085 7.71276 1.05176 8.03388C1.05176 8.21604 2.6204 9.04188 2.96696 9.17916C2.97296 9.35808 2.978 9.53688 2.984 9.71568C3.02 9.80088 3.36368 9.9714 3.46256 9.99756C3.87788 10.1075 4.03568 10.1483 4.07456 10.0325C4.48892 8.7774 5.04728 7.7682 5.02604 7.75284ZM3.971 9.97716C3.6667 9.92978 3.3732 9.82886 3.10412 9.67908C3.11432 9.6024 3.11684 9.111 3.0266 9.0642C2.36924 8.7234 1.808 8.41452 1.16588 8.0262C1.49636 7.16784 1.76204 6.8136 2.19284 6.07788C3.12368 6.64332 3.99824 7.14912 4.89284 7.7988C4.66928 8.196 4.07912 9.552 3.971 9.97716Z"></path>
    <path fill="#111111" d="M3.77171 11.3047C2.71667 11.2712 1.57727 11.2363 0.521269 11.2613C0.307549 11.2663 0.666709 13.3746 0.739309 13.5919C0.771109 13.6872 2.42963 13.6499 2.77367 13.5979C2.82142 13.7271 2.89896 13.8432 2.99999 13.9368C3.06131 13.9837 4.05251 13.9848 4.07291 13.8559C3.85199 12.3691 3.90203 11.3088 3.77171 11.3047ZM3.08531 13.8247C3.04367 13.7684 2.85035 13.4688 2.79839 13.4662C2.14439 13.4857 1.49807 13.4917 0.844909 13.5028C0.701048 12.8009 0.609675 12.0894 0.571549 11.374L3.69155 11.422C3.75155 12.1884 3.82187 13.011 3.92747 13.7671L3.08531 13.8247Z"></path>
    <path fill="#111111" d="M5.75758 16.5008C5.20558 15.86 4.38598 14.7576 4.31758 14.7884C3.3844 15.1984 2.47772 15.6663 1.60282 16.1892C1.37482 16.3283 2.51086 17.8494 2.7481 18.0626C2.9011 18.2 4.22734 17.2426 4.4623 17.0978C4.59065 17.208 4.74062 17.2901 4.90258 17.3388C4.97698 17.3603 5.84278 16.5998 5.75758 16.5008ZM4.91998 17.1941C4.64062 17.1004 4.4791 16.9243 4.40902 16.9692C3.88234 17.3068 3.3931 17.6394 2.78002 17.9826C2.35827 17.4433 1.99319 16.8621 1.69054 16.248C2.5633 15.737 3.42346 15.3691 4.31494 14.9442C4.50154 15.2142 5.37094 16.3212 5.6281 16.5316C5.39134 16.764 5.16742 16.9718 4.91998 17.1941Z"></path>
    <path fill="#111111" d="M9.44654 18.7813C9.23498 18.6209 7.62254 17.9833 7.20782 17.8966C7.08686 17.8713 5.57462 20.4927 5.6639 20.5637C6.29159 21.0275 7.00116 21.3687 7.75538 21.5694C7.92578 21.613 8.70338 19.8705 8.8061 19.6482C8.9135 19.6482 9.04609 19.6218 9.15409 19.621C9.26689 19.5954 9.53666 18.8497 9.44654 18.7813ZM9.12254 19.5133C9.02894 19.5193 8.72078 19.4989 8.69258 19.5593C8.40002 20.184 8.08802 20.8013 7.78262 21.42C6.93062 21.1645 6.5393 20.9652 5.7857 20.5097C5.7857 20.5097 6.8075 18.5945 7.23338 18.0232C7.67438 18.1739 8.96366 18.7044 9.35198 18.8533C9.27446 19.0734 9.19706 19.2923 9.1229 19.5129L9.12254 19.5133Z"></path>
    <path fill="#111111" d="M14.7295 20.0527C14.6981 19.8211 14.6674 19.4933 14.6359 19.2625C14.5788 19.122 13.6676 19.2757 12.4542 19.2752C12.3128 19.2752 12.53 21.9424 12.5444 22.2234C12.7336 22.4154 14.5193 22.3213 14.5175 22.0896L14.3615 20.3516C14.52 20.246 14.6734 20.1617 14.7295 20.0527ZM14.2468 20.3354C14.2904 20.9114 14.3342 21.4871 14.3779 22.0624C13.8069 22.1625 13.2265 22.1985 12.6475 22.1696C12.6322 21.2628 12.5164 20.3423 12.547 19.3927C13.2019 19.3877 13.8464 19.3732 14.521 19.3264C14.5337 19.4124 14.618 20.0161 14.5873 20.0485C14.5873 20.076 14.3482 20.1701 14.2468 20.3354Z"></path>
    <path fill="#111111" d="M18.932 18.168C19.0171 18.0139 19.0602 17.9449 19.0555 17.8828C19.0498 17.8079 18.6024 17.181 18.5335 17.2194C18.2269 17.3897 17.4937 18.1025 17.3095 18.3562C17.3026 18.5162 18.3552 20.3412 18.4795 20.3828C18.5395 20.606 19.6272 19.481 19.6224 19.4147C19.6156 19.332 19.006 18.2986 18.932 18.168ZM18.5437 20.273C18.1285 19.6664 17.7584 19.03 17.4366 18.369C17.819 18.0036 18.1332 17.715 18.536 17.3778L18.9141 17.9048L18.8127 18.1448C18.7872 18.2062 19.4089 19.1957 19.5068 19.4027C19.2249 19.7335 18.9012 20.0261 18.5437 20.2733V20.273Z"></path>
    <path fill="#111111" d="M22.5195 15.5548C22.4159 15.4456 21.6774 15.0882 21.5412 15.0396C21.5514 14.9851 21.5855 14.7276 21.5547 14.699C21.3717 14.5941 21.181 14.503 20.9843 14.4265C20.8855 14.4265 20.2499 15.7596 20.303 15.8044C20.495 15.9659 21.776 16.8046 22.0154 16.8964C22.0932 16.9256 22.5785 15.6168 22.5195 15.5548ZM21.9908 16.7214C21.8597 16.6363 20.544 15.789 20.4282 15.7494C20.4402 15.7384 20.9391 14.7004 21.0183 14.5573C21.1514 14.6466 21.2942 14.7203 21.4441 14.7769C21.4279 14.8795 21.4259 14.9838 21.4381 15.0869C21.4381 15.1218 22.236 15.5297 22.3902 15.5885C22.2565 15.9644 22.1227 16.3468 21.9908 16.7214Z"></path>
    <path fill="#111111" d="M23.1301 12.0635C23.1301 11.9783 22.5051 11.808 22.4101 11.7739C22.41 11.6978 22.3988 11.622 22.3769 11.5491C22.3436 11.4819 21.8328 11.2936 21.7902 11.3191C21.6906 11.3719 21.4765 12.465 21.5688 12.5157C21.7259 12.6017 22.8014 13.0625 22.9533 13.0265C23.0393 13.0063 23.1446 12.0899 23.1301 12.0635ZM22.8951 12.8818C22.4804 12.7387 22.0682 12.5727 21.657 12.4338L21.8435 11.4478L22.2692 11.6112C22.2769 11.6649 22.2896 11.8488 22.3382 11.8667L23.0016 12.1095C22.9622 12.3447 22.8951 12.8383 22.8951 12.8818Z"></path>
    <path fill="#111111" d="M22.9837 8.53631C22.9516 8.50451 22.265 8.52431 22.104 8.51927L21.8869 8.31659C21.8094 8.31659 21.416 8.29787 21.3802 8.34467C21.3443 8.39147 21.6042 9.36719 21.662 9.44663C21.6914 9.48695 23.0918 9.48659 23.1157 9.44663C23.1032 9.13945 23.059 8.83439 22.9837 8.53631V8.53631ZM21.7396 9.33839C21.6578 9.03439 21.5772 8.73183 21.4978 8.43071C21.6042 8.43071 21.7532 8.44691 21.8554 8.43743C21.913 8.50858 21.9798 8.57187 22.0538 8.62571C22.3311 8.64849 22.6095 8.65502 22.8875 8.64527C22.915 8.88645 22.9599 9.12532 23.022 9.35999C22.6048 9.35891 22.1576 9.33839 21.7396 9.33839Z"></path>
    <path fill="#111111" d="M21.2167 4.56972C21.1702 4.52352 20.4554 4.81836 20.3647 4.85076C20.2957 4.79338 20.2199 4.74473 20.139 4.70592C20.091 4.70592 19.5691 4.90872 19.6195 5.00148C19.7515 5.24352 20.1245 5.83092 20.3477 6.01224C20.4197 6.07104 21.5567 5.58636 21.637 5.51244C21.7309 5.42616 21.2975 4.64988 21.2167 4.56972ZM20.4 5.9058C20.1632 5.61288 19.9741 5.30976 19.7502 5.004L20.1206 4.8414C20.1607 4.86612 20.32 4.98096 20.3566 4.9716C20.6335 4.90072 20.9035 4.80468 21.163 4.68468C21.2771 4.93332 21.4184 5.18196 21.5291 5.4306C21.36 5.51556 20.4 5.8938 20.4 5.9058Z"></path>
    <path fill="#111111" d="M0.123588 7.41312C0.101388 7.47312 0.190068 7.52208 0.216468 7.45992C0.847668 5.97312 1.59803 4.99416 2.72519 3.888C2.76515 3.84876 2.70647 3.7764 2.66123 3.81216C2.66123 3.74796 0.934188 5.20944 0.123588 7.41312Z"></path>
    <path fill="#111111" d="M9.98638 8.42723C9.74782 8.17703 9.3697 7.80899 9.0727 7.64207C9.01714 7.61099 8.97118 7.69247 9.0139 7.73327C9.3019 8.00759 9.6109 8.22203 9.90634 8.52011C9.9619 8.57615 10.04 8.48399 9.98638 8.42723Z"></path>
    <path fill="#111111" d="M12.5734 2.69629C12.0983 2.16829 11.032 1.76029 10.4446 1.67449C10.4293 1.67223 10.4138 1.67612 10.4014 1.6853C10.389 1.69448 10.3808 1.7082 10.3786 1.72345C10.3763 1.73869 10.3802 1.75421 10.3894 1.76659C10.3986 1.77896 10.4123 1.78719 10.4275 1.78945C11.4919 1.96213 11.902 2.33773 12.5062 2.77717C12.5542 2.81197 12.6032 2.73037 12.57 2.69209L12.5734 2.69629Z"></path>
    <path fill="#111111" d="M5.01668 6.54275C4.86764 6.53771 4.65452 6.86063 4.60448 6.96851C4.5776 7.02659 4.67516 7.07243 4.70672 7.01711C4.82912 6.80243 5.04728 6.66119 5.066 6.61595C5.06874 6.60793 5.06956 6.59939 5.06841 6.59099C5.06726 6.5826 5.06417 6.57459 5.05938 6.5676C5.05459 6.56061 5.04824 6.55483 5.04083 6.55073C5.03342 6.54662 5.02515 6.5443 5.01668 6.54395V6.54275Z"></path>
    <path fill="#111111" d="M4.49892 4.0469C3.87 4.2035 3.204 4.8875 2.89092 5.44262C2.85348 5.50898 2.96088 5.55422 2.99892 5.48942C3.35374 4.88689 3.89359 4.41501 4.53816 4.14398C4.58664 4.12358 4.55088 4.03394 4.49892 4.0469Z"></path>
    <path fill="#111111" d="M4.09785 5.35403C4.14813 5.33951 4.18305 5.41403 4.14585 5.43911C3.87113 5.60636 3.65198 5.8511 3.51597 6.14255C3.48333 6.21047 3.38397 6.15011 3.41469 6.08255C3.52269 5.84039 3.82089 5.43371 4.09593 5.35283L4.09785 5.35403Z"></path>
    <path fill="#111111" d="M2.28002 9.25919C2.02538 9.55199 1.88882 10.1602 1.88666 10.5374C1.88666 10.6021 1.99574 10.6094 2.00078 10.5443C2.04554 9.97031 2.19038 9.61931 2.3873 9.33167C2.42798 9.27203 2.32934 9.20231 2.28002 9.25919Z"></path>
    <path fill="#111111" d="M1.50994 9.3384C1.30222 9.62796 1.20766 10.3994 1.2085 10.7563C1.21079 10.7704 1.218 10.7832 1.22885 10.7924C1.2397 10.8016 1.25348 10.8067 1.26772 10.8067C1.28196 10.8067 1.29574 10.8016 1.30659 10.7924C1.31744 10.7832 1.32465 10.7704 1.32694 10.7563C1.34072 10.285 1.43824 9.81986 1.61494 9.38268C1.63894 9.32268 1.55026 9.28056 1.51018 9.33588L1.50994 9.3384Z"></path>
    <path fill="#111111" d="M3.31022 19.8126C2.13338 18.9755 1.52954 18.0566 0.965058 16.7766C0.960284 16.7641 0.950724 16.7539 0.938482 16.7484C0.92624 16.743 0.912317 16.7426 0.899778 16.7473C0.887239 16.7521 0.877109 16.7617 0.871618 16.7739C0.866127 16.7861 0.865724 16.8001 0.870498 16.8126C1.23158 18.0047 2.21618 19.1826 3.24206 19.8952C3.29834 19.9343 3.36722 19.8526 3.31022 19.8101V19.8126Z"></path>
    <path fill="#111111" d="M22.8108 13.4966C22.8091 13.4848 22.8033 13.474 22.7943 13.4662C22.7853 13.4584 22.7738 13.4541 22.7618 13.4541C22.7499 13.4541 22.7384 13.4584 22.7294 13.4662C22.7204 13.474 22.7145 13.4848 22.7129 13.4966C22.6688 13.8086 22.6794 13.9679 22.517 14.2571C22.4868 14.311 22.5816 14.3651 22.613 14.3116C22.7345 14.0992 22.8679 13.7426 22.8108 13.4966Z"></path>
    <path fill="#111111" d="M22.168 13.3842C22.0888 13.5247 21.892 14.2674 21.846 14.4307C21.8267 14.4989 21.931 14.5158 21.9516 14.4513C22.0032 14.2893 22.2505 13.5753 22.2624 13.4157C22.2648 13.4037 22.2627 13.3912 22.2566 13.3807C22.2504 13.3701 22.2406 13.3621 22.229 13.3583C22.2175 13.3544 22.2049 13.3549 22.1936 13.3597C22.1824 13.3645 22.1732 13.3732 22.168 13.3842V13.3842Z"></path>
    <path fill="#111111" d="M19.4693 18.2015C19.461 18.211 19.4563 18.223 19.4559 18.2356C19.4555 18.2481 19.4594 18.2604 19.467 18.2704C19.4746 18.2804 19.4855 18.2875 19.4977 18.2904C19.5099 18.2934 19.5228 18.292 19.5341 18.2866C19.8295 18.0839 20.3592 17.5654 20.4657 17.2066C20.4819 17.1521 20.4087 17.0976 20.3805 17.1529C20.3386 17.17 20.1456 17.7029 19.4693 18.2015Z"></path>
    <path fill="#111111" d="M20.0033 16.678C19.9462 16.906 19.5473 17.2651 19.3673 17.3874C19.311 17.4256 19.2623 17.3394 19.3136 17.3022C19.7262 17.0066 19.7936 16.7563 19.9174 16.6328C19.9244 16.6042 20.0153 16.6118 20.0033 16.678Z"></path>
    <path fill="#111111" d="M16.3279 21C16.3139 21.0045 16.3023 21.0143 16.2954 21.0272C16.2886 21.0402 16.287 21.0553 16.2911 21.0694C16.2952 21.0834 16.3047 21.0953 16.3174 21.1026C16.3302 21.1098 16.3453 21.1117 16.3594 21.108C16.6227 21.0305 17.3702 20.7513 17.5762 20.5417C17.6122 20.5057 17.5694 20.4319 17.5234 20.4567C17.493 20.4411 16.8994 20.8265 16.3279 21Z"></path>
    <path fill="#111111" d="M15.897 20.361C15.5182 20.5131 15.3963 20.6641 14.9236 20.649C14.9105 20.65 14.8981 20.6556 14.8888 20.665C14.8795 20.6744 14.8739 20.6868 14.873 20.7C14.8722 20.7132 14.8762 20.7263 14.8842 20.7367C14.8923 20.7472 14.9039 20.7544 14.9168 20.757C15.1981 20.7774 15.4797 20.7214 15.7318 20.5951C16.0966 20.4111 15.9499 20.34 15.897 20.361Z"></path>
    <path fill="#111111" d="M16.7486 19.0522C16.2473 19.2538 15.7149 19.3671 15.1749 19.3868C15.1111 19.3884 15.1187 19.4864 15.1826 19.4856C15.6026 19.4798 16.4186 19.3631 16.7929 19.1449C16.845 19.1146 16.7979 19.0393 16.7486 19.0598V19.0522Z"></path>
    <path fill="#111111" d="M11.7584 19.8764C11.2131 19.845 11.0186 19.9092 10.4487 19.7138C10.3841 19.6916 10.3568 19.7921 10.4207 19.816C10.8023 19.9588 11.3687 20.0714 11.7696 19.9693C11.7798 19.9656 11.7885 19.9586 11.7942 19.9494C11.7999 19.9401 11.8023 19.9292 11.801 19.9184C11.7997 19.9077 11.7948 19.8976 11.787 19.89C11.7793 19.8824 11.7692 19.8776 11.7584 19.8764V19.8764Z"></path>
    <path fill="#111111" d="M11.4971 20.9673C10.7374 20.9293 10.2985 20.9458 9.5538 20.6565C9.48996 20.6317 9.43968 20.7262 9.50436 20.7525C10.0643 20.9821 10.9134 21.1764 11.515 21.0659C11.5762 21.0549 11.5499 20.9699 11.4971 20.9673Z"></path>
    <path fill="#111111" d="M4.80721 19.2012C4.29901 18.9679 3.98389 18.85 3.64057 18.3732C3.59713 18.3132 3.50677 18.381 3.54865 18.4414C3.81121 18.8207 4.30801 19.247 4.78081 19.298C4.79265 19.2989 4.80442 19.2957 4.81412 19.2888C4.82382 19.282 4.83083 19.272 4.83395 19.2605C4.83707 19.2491 4.83611 19.2369 4.83123 19.2261C4.82635 19.2152 4.81786 19.2064 4.80721 19.2012V19.2012Z"></path>
    <path fill="#111111" d="M5.88192 18.5872C5.8896 18.5872 6.03792 18.7992 5.51064 18.571C5.18349 18.4288 4.88129 18.2351 4.61556 17.9971C4.56204 17.9491 4.64472 17.8758 4.70076 17.9221C5.1342 18.2801 5.42076 18.3479 5.88612 18.5872H5.88192Z"></path>
    <path fill="#111111" d="M6.46093 17.8361C6.27961 17.6982 6.09145 17.5668 5.90653 17.4334C5.84869 17.3916 5.79265 17.4876 5.85037 17.5294C6.03325 17.6597 6.21229 17.7942 6.39625 17.9202C6.44425 17.9534 6.51037 17.8742 6.46093 17.835V17.8361Z"></path>
    <path fill="#111111" d="M1.83357 15.1887C1.6408 14.8785 1.56221 14.5108 1.61133 14.1489C1.61841 14.0928 1.53441 14.0832 1.51533 14.1353C1.39185 14.4676 1.55265 14.9574 1.73673 15.2423C1.77489 15.3018 1.87197 15.2497 1.83357 15.1887Z"></path>
    <path fill="#111111" d="M2.8938 14.997C2.74484 14.7646 2.63252 14.5106 2.5608 14.244C2.54592 14.188 2.4756 14.244 2.47056 14.2926C2.46456 14.4305 2.72568 14.9742 2.79588 15.0486C2.84496 15.1012 2.93544 15.049 2.8938 14.997Z"></path>
    <path fill="#111111" d="M23.7398 9.72674C23.7912 10.6885 23.6923 11.6524 23.4469 12.5837C23.4437 12.5967 23.4456 12.6104 23.4524 12.6219C23.4591 12.6335 23.4701 12.6419 23.483 12.6455C23.4959 12.649 23.5096 12.6474 23.5213 12.641C23.5331 12.6345 23.5418 12.6237 23.5457 12.6109C23.7663 11.8209 23.9621 10.5451 23.8446 9.7157C23.8446 9.65714 23.7366 9.66434 23.7398 9.72674Z"></path>
    <path fill="#111111" d="M19.7418 3.04285C19.6926 2.99485 19.6058 3.06049 19.6567 3.11185C20.0249 3.48989 20.3562 3.9022 20.6461 4.34317C20.6781 4.39117 20.7602 4.34317 20.7365 4.28953C20.7661 4.28953 20.4143 3.70705 19.7418 3.04285Z"></path>
    <path fill="#111111" d="M19.812 4.08001C19.8456 4.12801 19.7744 4.17373 19.7353 4.14001C19.4795 3.91657 18.8305 3.14941 18.5713 2.85085C18.5313 2.80477 18.5966 2.73685 18.6393 2.78269C18.9143 3.07669 19.6118 3.79201 19.812 4.08001Z"></path>
    <path fill="#111111" d="M21.9048 6.30781C21.9008 6.30221 21.8958 6.29745 21.89 6.29379C21.8843 6.29013 21.8778 6.28764 21.8711 6.28647C21.8643 6.2853 21.8574 6.28547 21.8507 6.28697C21.8441 6.28847 21.8378 6.29127 21.8322 6.29521C21.8266 6.29915 21.8218 6.30415 21.8181 6.30993C21.8145 6.31571 21.812 6.32216 21.8108 6.3289C21.8097 6.33564 21.8098 6.34255 21.8113 6.34922C21.8128 6.3559 21.8156 6.36221 21.8196 6.36781C22.1995 6.95581 22.2766 7.33633 22.3918 7.80865C22.4061 7.86745 22.4878 7.84357 22.4898 7.78825C22.5092 7.34941 21.9433 6.30781 21.9048 6.30781Z"></path>
    <path fill="#111111" d="M21.3683 6.32136C21.3435 6.25668 21.2385 6.28536 21.2627 6.35208C21.3081 6.47832 21.5279 7.13412 21.5987 7.23252C21.6249 7.26924 21.6962 7.25988 21.6907 7.20612C21.6726 7.03596 21.4397 6.50796 21.3683 6.32136Z"></path>
    <path fill="#111111" d="M22.9403 10.212C22.9326 10.1627 22.8412 10.14 22.8457 10.1984C22.8594 10.6351 22.8281 11.0719 22.7521 11.5021C22.7401 11.5711 22.844 11.5703 22.8594 11.5021C22.941 11.0767 22.9682 10.6426 22.9403 10.2103V10.212Z"></path>
    <path fill="#111111" d="M9.27025 2.67504C9.02845 2.51076 8.46481 2.56992 8.19637 2.6682C8.12149 2.69556 8.14777 2.817 8.22457 2.79C8.76457 2.59968 9.03433 2.77044 9.24133 2.7738C9.25292 2.77378 9.26418 2.77001 9.27344 2.76306C9.28271 2.75611 9.28947 2.74635 9.29272 2.73523C9.29598 2.72412 9.29555 2.71225 9.2915 2.7014C9.28745 2.69055 9.28 2.6813 9.27025 2.67504V2.67504Z"></path>
    <path fill="#111111" d="M16.7503 6.16379C16.7411 6.09827 16.6515 6.12299 16.6447 6.17747C16.5677 6.79067 16.5955 7.43315 16.5042 8.08067C16.4952 8.14463 16.6062 8.16071 16.6166 8.09687C16.7001 7.58567 16.8203 6.65999 16.7503 6.16379Z"></path>
    <path fill="#111111" d="M13.1082 1.941C13.0547 1.893 12.9762 1.96752 13.0273 2.0202C14.1275 3.1518 14.4714 4.02588 14.8153 5.01852C14.8381 5.08416 14.9657 5.05188 14.9473 4.98444C14.604 3.72 13.8034 2.56128 13.1082 1.941Z"></path>
  </g>
</svg>