<svg xmlns="http://www.w3.org/2000/svg" fill="none" viewBox="0 0 400 400">
  <g transform="matrix(16.666666666666668,0,0,16.666666666666668,0,0)">
    <path fill="#111111" d="M11.2128 12.518C11.2128 20.8967 11.2488 20.5264 11.1288 20.861C11.0506 21.1029 10.906 21.3179 10.7116 21.4816C10.495 21.6764 10.2362 21.8184 9.95558 21.8965C9.8915 21.9114 6.47714 22.5181 3.01118 23.003C1.70726 23.1856 0.844337 23.1208 0.945737 21.4004C0.946457 21.3884 0.618737 5.57112 0.618137 5.559C0.582271 4.38574 0.612679 3.21139 0.709217 2.04156C0.774017 1.32 1.36802 1.032 2.07854 0.92652C2.66858 0.83916 9.19322 1.99308 9.95786 2.31348C10.2302 2.44234 10.4588 2.64813 10.6155 2.90544C11.2366 3.80472 11.0577 5.0448 11.0675 5.82636C11.0835 7.08636 11.086 5.6448 11.2329 12.5165C11.2263 12.5179 11.2195 12.5184 11.2128 12.518V12.518ZM1.15274 20.6532C1.15838 21.9584 0.910697 22.9765 2.39762 22.8554C4.24178 22.7053 8.05862 21.9586 9.39146 21.8378C10.3372 21.7522 11.1161 21.2491 11.1075 20.3148C11.0398 12.7951 11.1315 14.4304 10.9985 7.91184C10.9822 7.10904 10.96 6.30612 10.9452 5.50332C10.9265 4.48332 11.0623 3.75048 10.5055 2.93088C10.1239 2.3694 9.54626 2.22348 8.63858 2.0856C4.91654 1.52016 2.93366 1.0542 2.24402 1.11504C1.75202 1.15848 0.928457 1.464 0.888017 1.92252C0.648017 4.6206 1.15202 20.4644 1.15274 20.6532Z"></path>
    <path fill="#111111" d="M12.7606 12.4817C12.9899 4.2816 12.9202 7.17924 12.9151 4.82796C12.9131 3.9222 13.1177 2.89908 13.8779 2.40852C14.5534 1.9728 21.3428 0.848516 21.9179 0.926516C22.4884 1.00428 23.1828 1.28256 23.2585 1.85052C23.3016 2.17452 23.3443 2.4996 23.3558 2.82576C23.466 5.9478 23.3399 5.52144 23.3257 6.47376C23.3137 7.25376 23.3491 10.142 23.2897 12.7111C23.2345 15.0871 23.0804 19.0906 23.0401 20.6778C23.0281 21.1645 23.1338 21.6095 22.9714 22.3082C22.8476 22.8406 22.4344 23.096 21.9097 23.0771C21.1138 23.0317 20.3214 22.9383 19.5367 22.7974C16.4156 22.3042 19.032 22.7408 15.5857 22.1561C14.0483 21.8951 14.0176 21.9325 13.6432 21.7279C13.4226 21.6208 13.2315 21.4617 13.0862 21.2642C12.941 21.0667 12.846 20.8368 12.8094 20.5944C12.7895 20.4624 12.7955 21.0464 12.7955 12.4831C12.7829 12.4825 12.7721 12.4825 12.7606 12.4817ZM23.1196 12.0806C23.1149 12.0808 23.1103 12.0805 23.1056 12.0799C23.1164 11.3288 23.1374 10.5785 23.1358 9.8274C23.1224 3.5922 23.2938 6.7074 23.1328 2.08404C23.1313 1.95761 23.0971 1.83371 23.0336 1.72438C22.9701 1.61504 22.8794 1.52398 22.7704 1.46004C22.3089 1.16118 21.7538 1.04213 21.2104 1.12548C20.2796 1.23348 19.0471 1.47408 17.7199 1.70148C15.2612 2.12364 14.9864 2.10216 14.4406 2.29416C13.8166 2.51352 13.6338 2.59416 13.2946 3.29868C12.9887 3.93468 13.0657 4.50516 13.0396 6.13692C12.886 15.7369 12.9407 8.88204 12.8989 20.3194C12.8899 20.5268 12.9314 20.7333 13.02 20.9211C13.1086 21.1089 13.2415 21.2724 13.4074 21.3973C13.7027 21.6342 14.059 21.7826 14.4352 21.8254C16.2023 22.0129 14.9897 21.9176 19.9672 22.6544C20.6189 22.7663 21.277 22.8371 21.9376 22.8662C22.4148 22.8763 22.773 22.5488 22.807 22.2271C22.905 21.2977 22.8437 20.8026 22.8494 19.943C22.8526 19.5392 22.7945 21.6035 23.1196 12.0806Z"></path>
    <path fill="#111111" d="M1.95599 20.8417C1.90343 20.1531 1.83071 18.5591 1.73111 17.0477C1.57871 14.7345 1.62623 13.656 1.53911 6.37261C1.52243 4.99321 1.63379 3.92917 1.65803 3.51205C3.14447 3.83605 5.71715 3.98569 10.214 4.50805C10.3856 4.52797 10.3811 4.53277 10.391 4.70821C10.5493 7.49605 10.511 10.2873 10.5425 13.0775C10.5641 14.988 10.5942 19.4068 10.5942 19.6765C9.10379 19.8731 9.37415 19.8168 7.65419 20.0088C2.62307 20.5703 2.44907 20.8692 1.95599 20.8417ZM9.92399 14.1852L9.90539 13.9325C10.0754 13.9873 10.2446 14.0411 10.4223 14.0982C10.4223 14.0862 10.3769 7.09753 10.2801 4.75453C10.2771 4.67965 10.2547 4.65553 10.1821 4.64869C7.12211 4.36069 3.56267 4.05253 1.81739 3.68509C1.80539 3.73453 1.74647 5.35093 1.74707 5.99557C1.74803 7.05337 1.82663 8.72402 1.82663 15.1876C1.88195 15.2034 1.82663 15.2075 2.07467 15.0585C2.30975 14.9172 2.54567 14.7777 2.78063 14.637C2.94059 14.6741 3.10007 14.71 3.26063 14.7471C2.79304 14.9296 2.34647 15.162 1.92863 15.4402C1.90424 15.4526 1.88443 15.4724 1.87209 15.4969C1.85975 15.5213 1.85551 15.549 1.85999 15.576C1.88843 16.0512 1.91027 16.5265 1.93655 17.0009C2.15939 21.0229 2.12123 20.1681 2.12123 20.6343C7.10267 19.7553 6.90671 19.9445 10.4588 19.5439C10.4588 17.3535 10.4731 19.084 10.4271 14.427C10.4265 14.3652 10.4187 14.3263 10.3467 14.3088C10.2045 14.2739 10.0645 14.2277 9.92399 14.1852Z"></path>
    <path fill="#111111" d="M5.43904 21.5766C5.21104 21.4495 5.25904 20.9058 5.79376 20.861C6.19324 20.8277 6.59356 20.8001 6.99376 20.7698C7.40536 20.7389 7.471 21.177 7.17928 21.3688C6.88756 21.5605 5.66728 21.7036 5.43904 21.5766ZM6.06112 21.4862C6.40996 21.4392 6.8242 21.4063 7.14292 21.2744C7.17564 21.2637 7.2051 21.2448 7.22856 21.2196C7.25203 21.1944 7.26873 21.1637 7.27712 21.1303C7.2855 21.0969 7.2853 21.0619 7.27652 21.0286C7.26774 20.9953 7.25068 20.9648 7.22692 20.9399C7.11268 20.8235 7.06492 20.8615 5.78692 20.96C5.4124 20.9888 5.269 21.4616 5.64172 21.4854C5.7652 21.4933 5.8888 21.4862 6.06112 21.4862V21.4862Z"></path>
    <path fill="#111111" d="M5.83923 2.84052C5.83923 2.81652 5.84091 2.45868 6.19827 2.45868C6.71007 2.45868 6.85659 3.39612 6.32271 3.39612C6.21603 3.396 5.83923 3.36576 5.83923 2.84052ZM6.24087 2.57508C6.16248 2.58275 6.0897 2.61914 6.03653 2.67725C5.98336 2.73536 5.95357 2.81108 5.95287 2.88984C5.95287 2.89848 5.96031 3.29328 6.30735 3.29328C6.73035 3.29328 6.59331 2.57508 6.24087 2.57508Z"></path>
    <path fill="#111111" d="M22.0463 20.8402C21.9897 20.8443 21.9328 20.8438 21.8763 20.8387C20.8323 20.6579 19.7931 20.45 18.7443 20.3016C17.2712 20.093 16.4397 20.0616 13.618 19.7028C13.4117 19.6765 13.4127 19.6696 13.4133 19.4602C13.4243 15.3163 13.5189 4.66873 13.6404 4.53217C13.6764 4.49197 13.7734 4.50673 13.8437 4.49893C17.7293 4.06573 17.9782 4.08541 21.0848 3.72541C21.431 3.68533 21.7742 3.61741 22.118 3.56077C22.1921 3.54877 22.2647 3.52837 22.3482 3.50977C22.3544 3.59641 22.3582 3.66577 22.3652 3.73465C22.5444 5.50573 22.432 7.27909 22.4177 9.05173C22.3817 13.5037 22.4746 14.0221 22.2238 17.8622C22.1375 19.188 22.085 20.5501 22.0463 20.8402ZM13.6223 15.3442C13.5873 15.3853 13.5671 15.437 13.5651 15.4909C13.5644 15.6683 13.5382 19.1404 13.5473 19.3205C13.956 18.9172 14.3393 18.5123 14.8392 18.2441C14.6746 17.9392 14.4893 17.69 14.6453 17.0016C15.0202 15.3473 15.88 13.8816 15.8408 13.862C15.8406 13.8865 14.783 14.053 13.6222 15.3439L13.6223 15.3442ZM17.7231 9.15217C17.6975 9.13653 17.6676 9.12928 17.6377 9.13143C17.6078 9.13358 17.5793 9.14502 17.5562 9.16416C17.3943 9.27132 17.2287 9.28237 17.1227 9.17041C17.0868 9.13645 17.0434 9.11158 16.9959 9.09786C16.9485 9.08414 16.8984 9.08199 16.85 9.09157C16.91 9.27157 16.8609 9.34297 16.6691 9.36205C16.6541 9.36665 16.6403 9.37451 16.6287 9.38507C16.6171 9.39563 16.6079 9.40862 16.6019 9.42313C16.5548 9.54313 16.493 9.67333 16.3553 9.66313C16.2568 9.66034 16.1612 9.69677 16.0895 9.76441C16.0601 9.78517 16.0208 9.79224 15.9906 9.8124C15.9698 9.82632 15.9426 9.85417 15.9435 9.87421C15.994 10.9328 15.914 11.7102 16.5786 12.1352C16.7655 12.2421 16.9591 12.3369 17.1582 12.4188C17.2262 12.4506 17.2845 12.4867 17.2834 12.5718C17.2804 12.8183 17.2778 13.0656 17.2679 13.3121C17.2605 13.5013 16.7477 13.6252 16.6058 13.6698C16.7738 13.7695 16.8864 13.9418 17.4495 13.9578C17.7842 13.9659 18.117 13.9059 18.4278 13.7816C18.5894 13.7183 18.7431 13.6356 18.8999 13.5613C18.8891 13.5217 18.3998 13.3916 18.3876 13.3883C18.3558 13.3815 18.3276 13.3628 18.309 13.3361C18.2903 13.3094 18.2826 13.2766 18.2872 13.2443C18.296 12.4412 18.2889 12.7096 18.3018 12.4763C17.9224 12.6038 17.8578 12.6108 17.771 12.5243C17.819 12.4981 17.8622 12.4711 17.9085 12.451C18.0165 12.404 18.1264 12.365 18.2315 12.3134C18.87 12 19.0569 11.6009 19.2155 10.9016C19.3438 10.9634 19.462 11.023 19.5927 10.9394C19.5866 10.9317 19.5817 10.9231 19.5779 10.914C19.5053 10.785 19.5899 10.7726 19.6714 10.8082C19.712 10.8136 19.7286 10.8833 19.8082 10.819C20.1597 10.5348 19.8036 10.036 19.462 10.2449C19.4405 10.2591 19.4164 10.2687 19.391 10.2731C19.3656 10.2774 19.3396 10.2765 19.3147 10.2703C19.2897 10.2642 19.2663 10.2529 19.2459 10.2372C19.2255 10.2215 19.2086 10.2017 19.1962 10.1791C19.1733 10.1261 19.1567 10.0706 19.1468 10.0138C18.9173 10.0385 18.8663 9.98593 18.8228 9.66301C18.6872 9.66301 18.5484 9.67009 18.431 9.54781C18.2966 9.40777 18.323 9.25981 18.339 9.08965C18.1541 9.21877 17.9838 9.28885 17.723 9.15205L17.7231 9.15217ZM22.1892 3.67813C22.0386 3.71413 21.8994 3.75997 21.7572 3.77941C19.1782 4.13185 20.5667 3.97345 13.8461 4.64485C13.7621 4.65325 13.7271 4.67341 13.7248 4.77001C13.707 5.50489 13.6721 6.23977 13.6622 6.97537C13.6622 6.98737 13.5581 15.0101 13.5734 15.1166C13.6355 15.1512 14.1216 14.3069 15.4719 13.7915C16.4498 13.4182 16.6145 13.5676 17.0706 13.2862C17.0836 13.2754 17.0941 13.2619 17.1014 13.2467C17.1088 13.2315 17.1127 13.215 17.1131 13.1981C17.1131 13.0218 17.0969 12.8456 17.1054 12.6701C17.1101 12.5741 17.0722 12.5442 16.9942 12.5131C16.7344 12.4317 16.4932 12.2996 16.2848 12.1244C16.2718 12.1159 16.2573 12.1101 16.242 12.1073C16.2267 12.1046 16.2111 12.1049 16.196 12.1082C16.0776 12.1233 15.9574 12.1067 15.8475 12.0602C15.7377 12.0136 15.6422 11.9387 15.5708 11.8432C15.4664 11.6886 15.425 11.5001 15.455 11.316C15.485 11.132 15.5841 10.9663 15.732 10.8528C15.76 10.8251 15.7766 10.7879 15.7785 10.7485C15.7847 10.4556 15.7858 10.162 15.7854 9.86916C15.7852 9.85425 15.7819 9.83954 15.7757 9.82598C15.7695 9.81241 15.7606 9.80027 15.7494 9.79033C15.5078 9.62065 15.6519 9.47725 15.6414 9.35305C15.6263 9.25626 15.6165 9.15871 15.612 9.06085C15.6093 8.80267 15.6625 8.54697 15.768 8.31133C15.701 8.31157 15.6359 8.28864 15.5838 8.24642C15.5317 8.20419 15.4957 8.14527 15.4821 8.07961C15.4541 7.92193 15.5795 7.84849 15.6845 7.77205C15.4836 7.38721 15.6112 7.11985 15.8546 7.02949C15.8235 6.91891 15.8215 6.80218 15.8488 6.69062C15.8762 6.57905 15.9319 6.47645 16.0106 6.39277C16.0751 6.29754 16.1675 6.22464 16.2752 6.1841C16.3829 6.14355 16.5004 6.13734 16.6118 6.16633C16.6958 5.84713 16.9371 5.73121 17.2184 5.69413C17.3555 5.68214 17.4936 5.69948 17.6235 5.745C17.7534 5.79052 17.8721 5.86317 17.9717 5.95813C18.1556 5.74213 18.317 5.71645 18.5536 5.85913C18.7225 5.95096 18.8572 6.09491 18.9376 6.26953C19.1524 6.13585 19.3336 6.16321 19.524 6.35521C19.6391 6.47368 19.7117 6.62694 19.7304 6.79105C19.7544 6.96409 19.6563 7.08937 19.5404 7.21993C19.6153 7.19526 19.696 7.19442 19.7714 7.21753C19.8468 7.24063 19.9132 7.28653 19.9614 7.34893C20.0138 7.40655 20.043 7.48144 20.0436 7.55929C20.0442 7.63713 20.016 7.71246 19.9646 7.77085C20.0231 7.79681 20.0751 7.83534 20.1171 7.8837C20.159 7.93206 20.1898 7.98907 20.2072 8.05066C20.2246 8.11226 20.2282 8.17693 20.2178 8.24009C20.2074 8.30324 20.1832 8.36333 20.147 8.41609C20.2033 8.46016 20.2453 8.51993 20.2677 8.58787C20.2901 8.65581 20.2919 8.72886 20.2728 8.79781C20.2555 8.86433 20.2142 8.92212 20.1569 8.96006C20.0996 8.998 20.0303 9.01342 19.9623 9.00337C19.9623 9.43309 19.7448 9.46645 19.7583 9.53137C19.7934 9.71656 19.7741 9.90798 19.7026 10.0824C20.15 10.1929 20.2203 10.5924 19.8626 10.9694C19.9299 11.0664 19.972 11.1786 19.9851 11.296C19.9982 11.4133 19.9818 11.532 19.9374 11.6414C19.9014 11.7611 19.8228 11.8634 19.7164 11.9291C19.6101 11.9947 19.4834 12.0191 19.3602 11.9976C19.2457 11.9626 19.1344 11.9173 19.028 11.8624C18.88 12.0651 18.6939 12.237 18.4802 12.3685C18.4202 12.4045 18.4451 12.494 18.4516 13.0802C18.4532 13.2263 18.45 13.231 18.5956 13.2649C20.0128 13.5958 20.5091 13.6052 22.1865 14.5925C22.1865 13.7579 22.2168 9.36049 22.2398 7.47421C22.2646 5.47693 22.2866 5.68357 22.1892 3.67813ZM20.556 14.016C20.386 13.9427 20.709 14.0489 19.3313 13.6466C19.0002 13.5499 19.2233 13.6812 18.6366 13.9333C18.1857 14.1435 17.6836 14.2188 17.1909 14.1504C16.4799 14.0374 16.4811 13.6859 16.3733 13.703C16.2005 13.7305 16.0458 13.7734 15.9669 13.9642C15.7124 14.5795 15.1509 15.6398 14.8311 17.0682C14.7855 17.2338 14.7738 17.4069 14.7968 17.5772C14.8197 17.7474 14.8769 17.9112 14.9648 18.0588C15.3202 18.6397 15.3407 18.9044 15.4469 19.6738C15.4754 19.8804 15.432 19.5678 20.6481 20.4032C20.9069 19.6712 21.066 18.9204 21.2732 18.1886C21.0324 18.0808 20.8136 17.9294 20.6279 17.742C20.0366 17.1244 19.9691 16.1885 20.0546 15.342C20.0872 14.8602 20.2617 14.3988 20.556 14.016V14.016ZM21.2369 17.9653C21.1208 17.7577 21.074 17.7013 21.022 17.596C21.0088 17.569 21.029 17.5256 21.034 17.4894C21.0672 17.4971 21.109 17.4947 21.1329 17.5141C21.179 17.5506 21.2185 17.5948 21.2496 17.6447C21.8736 18.6871 21.7599 18.5159 21.9404 18.8957C21.9651 18.745 21.9138 19.2812 22.1745 14.9324C22.1776 14.9068 22.1727 14.8808 22.1606 14.858C22.1484 14.8352 22.1296 14.8167 22.1066 14.8049C21.6977 14.5455 21.2697 14.3177 20.8262 14.1234C20.8017 14.1082 20.7724 14.103 20.7442 14.1091C20.7161 14.1151 20.6914 14.1319 20.6754 14.1558C20.2491 14.6264 20.1996 15.5251 20.2326 16.1618C20.2403 16.6276 20.384 17.081 20.646 17.4661C20.7828 17.6929 20.9903 17.8684 21.2366 17.9657L21.2369 17.9653ZM21.8712 20.6344C21.9206 19.4405 21.9293 19.4656 21.8984 19.3817C21.7747 19.0101 21.6185 18.6502 21.4316 18.3061C21.257 19.0417 21.1076 19.755 20.8335 20.438C21.1778 20.504 21.5193 20.568 21.8709 20.6347L21.8712 20.6344ZM15.28 19.738C15.2043 19.2673 15.184 18.7991 14.9192 18.394C14.4433 18.7329 14.0052 19.122 13.6125 19.5546C14.1792 19.617 14.7256 19.6772 15.2796 19.7383L15.28 19.738ZM19.1273 8.12941C19.0998 8.16915 19.0667 8.20478 19.0292 8.23525C19.0013 8.25094 18.9792 8.27523 18.9662 8.30448C18.9532 8.33374 18.9501 8.3664 18.9572 8.39761C18.9684 8.53775 18.9255 8.67688 18.8372 8.78629C18.7967 8.82923 18.7525 8.86851 18.7052 8.90365C19.1039 9.19273 19.4092 9.53113 19.5572 10.0126C19.5741 9.97344 19.5888 9.93337 19.6012 9.89257C19.6298 9.78328 19.6354 9.66923 19.6176 9.55767C19.5997 9.44612 19.5589 9.33949 19.4976 9.24457C19.4781 9.20981 19.4611 9.17372 19.4466 9.13657C19.6005 9.14509 19.6306 9.27649 19.707 9.35989C19.8384 9.13969 19.8537 8.98789 19.743 8.80969C19.6096 8.59705 19.4625 8.29201 19.127 8.12977L19.1273 8.12941ZM17.784 9.05244C17.845 9.05784 17.9022 9.06781 17.9586 9.06781C18.0136 9.0721 18.0689 9.06359 18.12 9.04295C18.1711 9.02232 18.2168 8.99011 18.2534 8.94886C18.29 8.90762 18.3166 8.85845 18.331 8.80521C18.3454 8.75198 18.3473 8.69613 18.3365 8.64205C18.2986 8.35405 18.1703 8.08501 17.8944 7.98685C17.6186 7.88869 17.4639 7.94893 17.478 8.28205C17.4794 8.34091 17.4951 8.39856 17.5236 8.45005C17.7608 8.84257 17.9097 8.83116 17.784 9.05244ZM18.6556 7.34233L18.6742 7.31689C18.1995 6.92533 17.2742 6.81649 17.182 7.35289C17.1729 7.42617 17.1714 7.5002 17.1774 7.57381C17.1808 7.65889 17.3466 7.73989 17.4107 7.68517C17.72 7.42117 18.0894 7.50277 18.1526 7.46029C18.3022 7.36545 18.4794 7.32389 18.6556 7.34233V7.34233ZM17.5028 7.75885C17.5607 7.84153 17.5614 7.84705 17.6573 7.82845C18.0437 7.75333 18.543 8.22913 18.4709 8.83993C18.5337 8.81496 18.5907 8.77717 18.6381 8.72898C18.6855 8.68078 18.7223 8.62323 18.7463 8.56C18.7702 8.49677 18.7807 8.42925 18.777 8.36174C18.7734 8.29424 18.7558 8.22823 18.7252 8.16793C18.5098 7.67641 18.0321 7.50313 17.5028 7.75885ZM16.3289 8.33761C16.3138 8.40954 16.3153 8.48396 16.3331 8.55526C16.3509 8.62656 16.3847 8.6929 16.4319 8.74927C16.479 8.80564 16.5384 8.8506 16.6054 8.88074C16.6724 8.91089 16.7454 8.92545 16.8189 8.92333C17.0794 8.93533 17.2592 8.94001 17.4286 8.74333C17.4448 8.72438 17.4566 8.702 17.4629 8.67786C17.4693 8.65372 17.4701 8.62846 17.4652 8.60397C17.4604 8.57949 17.45 8.55642 17.435 8.53652C17.4199 8.51661 17.4006 8.50038 17.3783 8.48904C17.2873 8.44657 17.1887 8.42284 17.0883 8.41927C16.988 8.4157 16.8879 8.43237 16.7942 8.46829C16.7551 8.49073 16.7089 8.49737 16.6651 8.48686C16.6213 8.47636 16.5831 8.44949 16.5585 8.41177C16.5105 8.35705 16.4668 8.36401 16.3289 8.33761V8.33761ZM19.3049 11.1403C19.27 11.3488 19.2076 11.5517 19.1194 11.7438C19.4208 11.9014 19.6679 11.8194 19.7747 11.5278C19.7983 11.4605 19.8069 11.3889 19.7999 11.3179C19.793 11.2469 19.7707 11.1783 19.7345 11.1168C19.7236 11.1051 19.7101 11.096 19.6951 11.0904C19.6801 11.0848 19.6639 11.0827 19.648 11.0843C19.538 11.0972 19.4291 11.1194 19.3055 11.1403H19.3049ZM17.07 7.65301C17.0335 7.55491 17.0201 7.44967 17.0311 7.34555C17.0421 7.24144 17.0771 7.1413 17.1334 7.05301C16.9129 7.12791 16.7152 7.258 16.5592 7.43089C16.4852 7.50351 16.4291 7.59234 16.3953 7.69037C16.3615 7.78839 16.351 7.89293 16.3646 7.99572C16.365 8.03926 16.3753 8.08213 16.3945 8.12118C16.4138 8.16023 16.4415 8.19445 16.4758 8.22133C16.4982 7.90573 16.6142 7.68697 17.07 7.65301ZM17.359 8.30977C17.3464 8.23377 17.3514 8.15591 17.3735 8.08213C17.3956 8.00834 17.4343 7.94058 17.4866 7.88401C17.3395 7.81554 17.1756 7.79192 17.0152 7.81609C16.9248 7.82659 16.8378 7.85665 16.7602 7.90416C16.6182 8.01324 16.6025 8.1846 16.6906 8.38248C16.8908 8.17608 17.1218 8.23801 17.359 8.30977ZM16.267 8.78269C16.2632 8.77429 16.2515 8.75257 16.2414 8.73013C16.2048 8.66532 16.1844 8.59262 16.182 8.51823C16.1796 8.44384 16.1952 8.36997 16.2275 8.30293C16.2441 8.27713 16.2514 8.24648 16.2484 8.21597C16.2453 8.18547 16.232 8.1569 16.2106 8.13493C16.1838 8.16059 16.1537 8.18244 16.121 8.19985C16.0277 8.23373 15.9471 8.2955 15.8901 8.37679C15.8332 8.45807 15.8026 8.55491 15.8026 8.65416C15.7859 8.82024 15.7701 8.9856 15.7516 9.16572C15.9372 9.02772 16.0988 8.90713 16.2664 8.78269H16.267ZM15.8003 10.9726C15.6056 11.2067 15.5663 11.4424 15.6858 11.689C15.7698 11.8612 15.93 11.9153 16.1286 11.937C15.8939 11.6503 15.864 11.3111 15.7997 10.9726H15.8003ZM18.9143 8.13985C18.9702 8.07846 19.0024 7.99921 19.0053 7.91625C19.0081 7.83329 18.9814 7.75202 18.9298 7.68697C18.8637 7.60202 18.7713 7.54139 18.6671 7.51455C18.5629 7.48772 18.4527 7.49619 18.3538 7.53865C18.4823 7.59671 18.598 7.67977 18.6942 7.78298C18.7903 7.8862 18.8649 8.00751 18.9137 8.13985H18.9143ZM17.1863 9.07717C17.2816 9.09564 17.3803 9.08381 17.4686 9.04333C17.5568 9.00284 17.6302 8.93574 17.6783 8.85145C17.6444 8.81545 17.6104 8.77813 17.5733 8.73865C17.5004 8.91337 17.4533 8.95429 17.186 9.07717H17.1863Z"></path>
    <path fill="#111111" d="M18.3388 21.64C17.6774 21.5423 16.8555 21.6056 16.6728 21.1832C16.6508 21.1403 16.6402 21.0924 16.6421 21.0441C16.6439 20.9959 16.6582 20.9489 16.6836 20.9078C16.7089 20.8667 16.7445 20.8329 16.7867 20.8095C16.829 20.7862 16.8765 20.7741 16.9248 20.7745C17.1081 20.7727 16.9293 20.7779 18.1898 20.8585C18.7409 20.8939 18.8018 21.4355 18.5708 21.5725C18.4969 21.6055 18.4188 21.6282 18.3388 21.64V21.64ZM17.0375 20.8619C16.6739 20.8391 16.6508 21.1571 16.8413 21.2645C16.901 21.296 16.9643 21.3202 17.0298 21.3365C17.4663 21.4487 17.9162 21.4994 18.3666 21.4872C18.5961 21.4849 18.5933 21.3298 18.552 21.1812C18.5325 21.1108 18.432 20.9752 18.1788 20.9548C17.1512 20.872 17.0961 20.8727 17.0375 20.8619Z"></path>
    <path fill="#111111" d="M17.8056 2.45496C18.0013 2.45496 18.1886 2.61228 18.168 2.79096C18.156 3.4224 17.7276 3.39972 17.712 3.39972C17.6302 3.39972 17.3491 3.3966 17.3491 3.00576C17.349 2.67456 17.5998 2.45496 17.8056 2.45496ZM17.7005 3.29412C17.9834 3.29412 18.0499 3.03012 18.0499 2.88852C18.0531 2.80964 18.0252 2.73267 17.9722 2.67418C17.9192 2.61569 17.8453 2.58036 17.7665 2.5758C17.4049 2.5758 17.2844 3.29412 17.7 3.29412H17.7005Z"></path>
    <path fill="#111111" d="M3.8326 4.28855C3.65908 4.24343 2.36524 4.13039 2.35204 4.12943C2.28172 4.12403 2.29984 4.44863 2.29876 6.34319C2.29876 6.49235 2.29792 6.49691 2.44396 6.49391C2.9038 6.48443 3.36352 6.47219 3.82396 6.46067C3.94756 6.45755 3.96592 6.44447 3.96688 6.32315C3.9716 5.70579 3.9752 5.08839 3.97768 4.47095C3.97768 4.33499 3.96484 4.32299 3.8326 4.28855ZM2.47492 6.39035C2.47492 5.89295 2.41672 5.87759 2.70592 5.67875C2.73198 5.66307 2.75971 5.65035 2.7886 5.64083C2.79351 5.63878 2.79897 5.63851 2.80406 5.64007C2.80914 5.64162 2.81352 5.64491 2.81644 5.64935C2.85194 5.71184 2.87009 5.78268 2.86901 5.85454C2.86794 5.9264 2.84767 5.99667 2.81032 6.05807C2.788 6.08543 2.71708 6.09755 2.73148 6.09755C2.73604 6.07283 2.74156 6.04811 2.74612 6.02339C2.72212 6.03023 2.68612 6.03023 2.67664 6.04655C2.62588 6.13667 2.49736 6.36647 2.47492 6.39035ZM2.74696 6.37187C2.68586 6.37854 2.62446 6.38214 2.563 6.38267C2.58912 6.32401 2.62041 6.26779 2.65648 6.21467C2.65648 6.21467 2.74924 6.36719 2.74696 6.37199V6.37187ZM3.44932 6.30227C3.4414 6.32483 3.47884 6.30455 2.79556 6.34787C2.79075 6.3482 2.78597 6.34695 2.78194 6.3443C2.77791 6.34166 2.77485 6.33777 2.77324 6.33323C2.74924 6.26291 2.73928 6.25295 2.7562 6.23975C2.9884 6.05795 3.02356 5.91359 2.9146 5.56775C2.9626 5.55575 2.9866 5.53571 3.0274 5.55575C3.16156 5.62031 3.30556 5.64995 3.42616 5.54183C3.44392 5.58359 3.45952 5.61383 3.4702 5.64767C3.4942 5.72099 3.50848 5.79695 3.53668 5.86871C3.56027 5.91908 3.56916 5.97508 3.56233 6.03028C3.55549 6.08548 3.53321 6.13762 3.49804 6.18071C3.47579 6.21855 3.45936 6.25953 3.44932 6.30227V6.30227ZM2.90692 4.99943C2.91761 4.99432 2.92959 4.99254 2.9413 4.99434C2.95301 4.99614 2.9639 5.00143 2.97256 5.00951C2.9831 5.02131 2.99619 5.03055 3.01084 5.03654C3.02549 5.04253 3.04131 5.04509 3.05709 5.04405C3.07288 5.04301 3.08823 5.03839 3.10196 5.03053C3.1157 5.02268 3.12746 5.01179 3.13636 4.99871C3.16444 4.95071 3.23236 4.92671 3.28036 4.89287C3.30592 4.91987 3.32212 4.95287 3.34612 4.95935C3.37376 4.96245 3.3992 4.97586 3.41738 4.9969C3.43556 5.01795 3.44512 5.04508 3.44416 5.07287C3.44908 5.16095 3.47044 5.24663 3.38416 5.29547C3.30916 5.33783 3.28816 5.37119 3.31468 5.48747C3.35068 5.64743 3.11752 5.54159 3.11752 5.54159C3.09832 5.54315 3.10672 5.40167 3.10672 5.40167C3.10904 5.39415 3.10984 5.38624 3.10906 5.37841C3.10827 5.37058 3.10593 5.36298 3.10216 5.35607C3.06952 5.31527 3.08188 5.32991 3.0442 5.28347C3.01968 5.23737 3.00125 5.18828 2.98936 5.13743C2.98384 5.12543 2.91352 5.11739 2.89732 5.09183C2.87428 5.05523 2.8852 5.00183 2.90692 4.99943ZM2.87524 4.94459C2.87219 4.90579 2.87115 4.86686 2.87212 4.82795C2.92035 4.84294 2.97155 4.84578 3.02114 4.83621C3.07074 4.82665 3.1172 4.80497 3.1564 4.77311C3.17643 4.75491 3.2021 4.74414 3.22911 4.74259C3.25613 4.74104 3.28286 4.7488 3.30484 4.76459C3.36292 4.80059 3.43612 4.75859 3.47944 4.76459C3.53116 4.77179 3.49948 4.89443 3.49648 4.89203C3.4496 4.86396 3.3935 4.85564 3.34048 4.86887C3.31526 4.88029 3.28792 4.88627 3.26023 4.88641C3.23254 4.88656 3.20514 4.88087 3.1798 4.86971C3.17272 4.86575 2.88364 4.94927 2.87524 4.94459ZM3.72004 6.34019L3.57604 6.32699C3.57262 6.32663 3.56933 6.32551 3.56641 6.3237C3.56348 6.3219 3.561 6.31946 3.55915 6.31657C3.55729 6.31368 3.55611 6.31041 3.55569 6.307C3.55527 6.30359 3.55562 6.30013 3.55672 6.29687L3.59536 6.18947C3.59669 6.18582 3.59893 6.18258 3.60188 6.18004C3.60482 6.17751 3.60836 6.17578 3.61217 6.175C3.61597 6.17423 3.61991 6.17445 3.62361 6.17564C3.62731 6.17683 3.63064 6.17895 3.63328 6.18179L3.7384 6.30179C3.74157 6.30514 3.74365 6.30937 3.74436 6.31392C3.74508 6.31847 3.7444 6.32314 3.74241 6.3273C3.74042 6.33145 3.73722 6.33491 3.73323 6.33721C3.72923 6.33952 3.72464 6.34055 3.72004 6.34019V6.34019ZM3.80044 6.21419C3.7324 6.14771 3.65332 6.11687 3.66292 5.99711C3.65311 5.90578 3.62749 5.81686 3.5872 5.73431C3.5764 5.69951 3.56632 5.66483 3.5512 5.61431C3.83812 5.73695 3.80092 5.89463 3.80092 6.21419H3.80044ZM3.83212 4.57907C3.8296 4.69991 3.81124 5.50643 3.79888 5.67407C3.55276 5.41895 3.33004 5.47547 3.33364 5.41835C3.33581 5.39907 3.34525 5.38135 3.36004 5.36879C3.38091 5.35239 3.40288 5.33743 3.4258 5.32403C3.44119 5.31509 3.45464 5.30317 3.46538 5.28898C3.47611 5.27478 3.48391 5.25859 3.48832 5.24135C3.49578 5.17924 3.49298 5.11632 3.48004 5.05511C3.469 5.00027 3.49444 5.01911 3.50944 4.96703C3.52989 4.89361 3.53191 4.81628 3.51534 4.74189C3.49876 4.6675 3.46409 4.59834 3.4144 4.54055C3.37648 4.49723 3.3286 4.56455 3.30928 4.52855C3.30255 4.51263 3.29156 4.49886 3.27753 4.48877C3.2635 4.47867 3.24696 4.47263 3.22972 4.47131C3.11992 4.48019 3.14308 4.51055 3.09064 4.52159C3.04732 4.53071 3.00388 4.49279 2.96932 4.51847C2.92816 4.54907 2.93248 4.62371 2.90824 4.66451C2.8222 4.80971 2.8504 4.82951 2.84956 4.88051C2.85008 4.91739 2.85851 4.95373 2.87428 4.98707C2.88232 5.00495 2.81524 5.08235 2.93836 5.14787C2.97076 5.16503 2.968 5.23727 2.98636 5.26787C3.01157 5.30086 3.03895 5.33213 3.06832 5.36147C3.09364 5.39555 3.06604 5.44019 3.0598 5.46191C2.85568 5.49389 2.6637 5.57949 2.50348 5.70995C2.48872 5.72303 2.48032 4.30739 2.48032 4.30739C2.48023 4.30416 2.48085 4.30095 2.48214 4.29798C2.48343 4.29502 2.48536 4.29238 2.48779 4.29024C2.49022 4.28811 2.49309 4.28654 2.4962 4.28565C2.4993 4.28475 2.50257 4.28456 2.50576 4.28507C3.82804 4.48799 3.83824 4.30595 3.8326 4.57907H3.83212Z"></path>
    <path fill="#111111" d="M9.28179 7.04725C9.19983 7.14685 9.10875 7.23805 9.01911 7.33153C8.94711 7.40653 8.87511 7.34473 8.93175 7.26433C9.02416 7.14125 9.12484 7.02458 9.23307 6.91513C9.27171 6.86101 9.49659 6.73201 9.28179 7.04725Z"></path>
    <path fill="#111111" d="M9.43395 8.20163C9.3416 8.19737 9.2498 8.18496 9.15963 8.16455C9.10635 8.14979 9.04227 8.04239 9.17439 8.04239C9.27327 8.04407 9.37179 8.05468 9.46875 8.07407C9.73923 8.08955 9.67035 8.22347 9.43395 8.20163Z"></path>
    <path fill="#111111" d="M9.42241 7.63909C9.30816 7.65842 9.1961 7.68897 9.08785 7.73029C9.04225 7.75429 8.98765 7.69969 9.03685 7.64629C9.05022 7.62956 9.06783 7.61671 9.08785 7.60909C9.19993 7.58173 9.31513 7.56625 9.42625 7.53337C9.62341 7.47601 9.57385 7.62517 9.42241 7.63909Z"></path>
    <path fill="#111111" d="M8.81424 18.7237C8.79216 19.3194 8.34948 19.5466 8.04072 19.2997C7.88619 19.1578 7.79405 18.9605 7.78436 18.7509C7.77467 18.5413 7.84823 18.3364 7.989 18.1808C8.31444 17.869 8.79204 18.1508 8.81424 18.7237ZM8.16744 18.7246C8.16132 18.7222 8.15436 18.7199 8.14812 18.7176C8.15508 18.6859 8.1582 18.6278 8.16828 18.6264C8.24538 18.6136 8.32379 18.6104 8.40168 18.617C8.47116 18.6248 8.4558 18.689 8.45028 18.737C8.43408 18.8785 8.56512 18.8318 8.63496 18.8281C8.69832 18.8249 8.71644 18.791 8.69916 18.7346C8.65884 18.6026 8.58948 18.4932 8.44176 18.4751C8.33838 18.4623 8.23386 18.4618 8.13036 18.4735C8.07451 18.4812 8.02297 18.5078 7.98432 18.5488C7.94568 18.5899 7.92226 18.6429 7.91796 18.6991C7.91028 18.7386 7.92408 18.8158 7.9434 18.8212C8.00254 18.836 8.0645 18.8355 8.1234 18.8197C8.14428 18.816 8.1528 18.7585 8.16744 18.7246Z"></path>
    <path fill="#111111" d="M4.66704 19.8697C4.44556 19.8596 4.23658 19.7642 4.08383 19.6035C3.93107 19.4429 3.84638 19.2293 3.84748 19.0076C3.84858 18.7859 3.93539 18.5732 4.08973 18.4141C4.24407 18.2549 4.45399 18.1616 4.67556 18.1537C4.7868 18.1575 4.8962 18.1832 4.99746 18.2294C5.09871 18.2757 5.18982 18.3415 5.26552 18.4231C5.34123 18.5047 5.40004 18.6004 5.43857 18.7049C5.47709 18.8093 5.49457 18.9203 5.49 19.0315C5.49163 19.2517 5.40593 19.4635 5.25168 19.6206C5.09743 19.7777 4.8872 19.8673 4.66704 19.8697V19.8697ZM5.36304 19.0243C5.35901 18.8895 5.31539 18.7588 5.23762 18.6485C5.15985 18.5383 5.05136 18.4534 4.92568 18.4044C4.79999 18.3553 4.66266 18.3444 4.53078 18.3729C4.39891 18.4013 4.27833 18.468 4.18406 18.5645C4.0898 18.661 4.02601 18.7831 4.00064 18.9156C3.97528 19.0481 3.98946 19.1851 4.04142 19.3096C4.09338 19.4341 4.18083 19.5406 4.29286 19.6158C4.4049 19.6909 4.53657 19.7315 4.67148 19.7323C4.76336 19.7313 4.85415 19.7121 4.93863 19.676C5.02311 19.6398 5.09963 19.5874 5.16382 19.5216C5.22801 19.4559 5.2786 19.3781 5.3127 19.2928C5.3468 19.2074 5.36374 19.1162 5.36256 19.0243H5.36304Z"></path>
    <path fill="#111111" d="M7.37075 18.8527C7.34819 19.4956 6.73331 19.7927 6.33299 19.4207C6.18287 19.2715 6.09309 19.0721 6.08085 18.8608C6.0686 18.6495 6.13475 18.4411 6.26663 18.2755C6.32667 18.2012 6.40394 18.1425 6.49175 18.1048C6.57955 18.067 6.67525 18.0512 6.77054 18.0587C6.86583 18.0663 6.95784 18.0969 7.03861 18.148C7.11938 18.1992 7.18647 18.2692 7.23407 18.3521C7.32878 18.5015 7.3764 18.6759 7.37075 18.8527V18.8527ZM7.27343 18.859C7.27607 18.247 6.72323 17.995 6.38099 18.3351C6.26591 18.4614 6.19984 18.6247 6.19473 18.7955C6.18963 18.9663 6.24582 19.1333 6.35315 19.2663C6.39914 19.3266 6.45866 19.3754 6.52693 19.4085C6.59519 19.4417 6.67029 19.4584 6.74618 19.4572C6.82207 19.456 6.89662 19.4371 6.96383 19.4018C7.03105 19.3666 7.08904 19.316 7.13315 19.2543C7.22129 19.1411 7.27049 19.0024 7.27343 18.859V18.859Z"></path>
    <path fill="#111111" d="M21.8778 5.832C21.8753 5.95788 21.859 6.084 21.8461 6.20976C21.8413 6.25692 21.8252 6.29532 21.7643 6.30336C20.6472 6.44904 20.7464 6.4698 20.4637 6.41916C20.4451 6.41287 20.4284 6.40213 20.4149 6.38786C20.4014 6.37359 20.3916 6.35624 20.3864 6.33732C20.2579 5.07732 20.288 5.45256 20.3462 4.3074C20.3448 4.27615 20.3554 4.24554 20.3758 4.22184C20.3962 4.19813 20.4249 4.18311 20.456 4.17984C20.8409 4.10604 21.224 4.02384 21.6104 3.9612C21.8522 3.92232 21.888 3.95808 21.894 4.2012C21.9012 4.48872 21.8828 5.57592 21.8778 5.832ZM21.648 5.28612C21.6658 4.9014 21.6828 4.5204 21.7006 4.13412C21.3046 4.19292 20.9178 4.25004 20.5176 4.30884V5.4756C20.5538 5.44372 20.5934 5.41598 20.6358 5.39292C20.7575 5.34252 20.7448 5.44248 20.6922 5.47944C20.574 5.5626 20.489 5.64408 20.5206 5.81544C20.5357 5.9667 20.5375 6.11901 20.526 6.2706L21.6596 6.10596C21.6596 5.895 21.6566 5.7018 21.6612 5.50872C21.6642 5.47991 21.6579 5.4509 21.6431 5.42599C21.6283 5.40107 21.6059 5.38156 21.5792 5.37036C21.4645 5.30832 21.4592 5.2638 21.648 5.28612Z"></path>
    <path fill="#111111" d="M18.9539 19.0398C18.96 18.8884 19.0106 18.7421 19.0993 18.6192C19.1881 18.4964 19.3111 18.4024 19.4529 18.349C19.5948 18.2957 19.7492 18.2853 19.8969 18.3192C20.0447 18.3532 20.1791 18.4298 20.2835 18.5397C20.3879 18.6496 20.4575 18.7878 20.4838 18.9371C20.5101 19.0864 20.4918 19.2401 20.4312 19.379C20.3707 19.5179 20.2705 19.6359 20.1433 19.7182C20.016 19.8006 19.8673 19.8436 19.7158 19.8419C19.6131 19.8393 19.5118 19.8165 19.4179 19.7748C19.324 19.7331 19.2393 19.6733 19.1685 19.5988C19.0977 19.5243 19.0424 19.4366 19.0055 19.3407C18.9687 19.2448 18.9512 19.1425 18.9539 19.0398V19.0398ZM20.2876 19.0614C20.2633 18.9826 20.2173 18.9122 20.1548 18.8583C20.0924 18.8045 20.016 18.7693 19.9344 18.757C19.7824 18.7345 19.6291 18.7219 19.4754 18.719C19.4067 18.7166 19.3388 18.735 19.2808 18.7718C19.2227 18.8087 19.1771 18.8622 19.1501 18.9254C19.0705 19.0934 19.1348 19.11 19.297 19.1317C19.4515 19.1525 19.4611 19.1464 19.4592 18.9895C19.4582 18.9115 19.4924 18.8768 19.562 18.8837C19.6648 18.8939 19.7668 18.912 19.8688 18.9324C19.9222 18.9431 19.9298 18.9818 19.9175 19.0328C19.8815 19.1813 19.8918 19.1966 20.0426 19.2097C20.2345 19.2265 20.3551 19.2289 20.2876 19.0614V19.0614Z"></path>
    <path fill="#111111" d="M17.3582 18.2678C17.4238 18.224 17.4973 18.1936 17.5747 18.1783C17.652 18.1631 17.7316 18.1634 17.8089 18.1791C17.8861 18.1948 17.9595 18.2257 18.0247 18.27C18.0899 18.3143 18.1457 18.371 18.1889 18.437C18.297 18.5947 18.3466 18.7853 18.3289 18.9757C18.3113 19.1661 18.2276 19.3443 18.0923 19.4795C18.0256 19.5479 17.9435 19.5993 17.8528 19.6294C17.7622 19.6595 17.6656 19.6674 17.5713 19.6524C17.4769 19.6374 17.3876 19.6 17.3107 19.5432C17.2338 19.4865 17.1717 19.4122 17.1295 19.3265C17.0296 19.1531 16.9976 18.9487 17.0399 18.7531C17.0821 18.5574 17.1956 18.3845 17.3582 18.2678V18.2678ZM17.7677 18.2972C17.6746 18.2778 17.5778 18.2861 17.4894 18.3211C17.4009 18.3562 17.3247 18.4164 17.2702 18.4943C17.1748 18.6114 17.1218 18.7573 17.1196 18.9083C17.1174 19.0593 17.1662 19.2066 17.2582 19.3265C17.2978 19.3819 17.3484 19.4286 17.4069 19.4635C17.4654 19.4985 17.5305 19.521 17.5981 19.5296C17.6657 19.5382 17.7343 19.5328 17.7997 19.5137C17.8651 19.4945 17.9259 19.4621 17.9782 19.4184C18.3674 19.0997 18.264 18.4013 17.7677 18.2972Z"></path>
    <path fill="#111111" d="M16.4333 18.3968C16.5159 18.5461 16.5494 18.7175 16.5291 18.8869C16.5087 19.0563 16.4356 19.2149 16.32 19.3404C16.044 19.614 15.6185 19.5049 15.4847 19.1216C15.2056 18.3233 16.0458 17.7664 16.4333 18.3968ZM16.3707 18.5027C16.3471 18.4393 16.3081 18.3828 16.2572 18.3384C16.2063 18.2939 16.1451 18.2629 16.0791 18.2482C16.0131 18.2334 15.9445 18.2354 15.8795 18.254C15.8145 18.2725 15.7552 18.307 15.7069 18.3544C15.6019 18.4618 15.536 18.6014 15.5199 18.7508C15.5038 18.9002 15.5383 19.0507 15.618 19.178C15.975 19.6874 16.6567 19.1496 16.3707 18.5027Z"></path>
    <path fill="#111111" d="M17.4502 10.0747C17.4579 10.2662 17.4447 10.4579 17.4107 10.6465C17.3599 11.0015 17.1128 11.1618 17.4092 11.2763C17.5182 11.3184 17.563 11.4228 17.4308 11.4417C17.3824 11.4447 17.3338 11.4369 17.2888 11.4188C17.2437 11.4007 17.2033 11.3727 17.1704 11.3369C17.1376 11.3011 17.1132 11.2584 17.099 11.212C17.0848 11.1655 17.0812 11.1165 17.0885 11.0685C17.0952 11.0224 17.1101 10.9779 17.1325 10.9371C17.2645 10.7211 17.2433 10.4778 17.3234 9.91549C17.3291 9.87601 17.411 9.57169 17.4502 10.0747Z"></path>
    <path fill="#111111" d="M18.1502 11.5962C17.9334 11.989 17.2913 11.8666 17.3822 11.6966C17.4136 11.6381 17.7943 11.9197 18.1142 11.4223C18.1502 11.3767 18.301 11.2246 18.1502 11.5962Z"></path>
    <path fill="#111111" d="M18.4554 9.74472C18.4601 9.75819 18.4593 9.77293 18.4533 9.78587C18.4474 9.7988 18.4366 9.80892 18.4234 9.81411C18.4101 9.8193 18.3953 9.81916 18.3822 9.81372C18.369 9.80828 18.3584 9.79797 18.3527 9.78492C18.2366 9.681 18.1168 9.50544 17.954 9.58476C17.8552 9.63276 17.8088 9.53376 17.9092 9.48516C18.156 9.36528 18.4037 9.56952 18.4554 9.74472Z"></path>
    <path fill="#111111" d="M18.0737 10.0361C18.1164 10.042 18.1558 10.0624 18.1854 10.0937C18.215 10.125 18.2331 10.1654 18.2368 10.2084C18.2372 10.252 18.2206 10.294 18.1904 10.3254C18.1602 10.3569 18.1188 10.3752 18.0752 10.3764C17.8864 10.3744 17.8792 10.0398 18.0737 10.0361Z"></path>
    <path fill="#111111" d="M17.0607 9.54611C16.9492 9.55524 16.8455 9.60678 16.771 9.69011C16.7122 9.81683 16.6637 9.73883 16.6852 9.63527C16.7185 9.47459 16.9919 9.37403 17.1442 9.43823C17.244 9.44879 17.3172 9.58091 17.0607 9.54611Z"></path>
    <path fill="#111111" d="M17.028 10.2331C17.0309 10.252 17.0296 10.2713 17.0244 10.2897C17.0191 10.3081 17.01 10.3251 16.9976 10.3397C16.9852 10.3542 16.9698 10.366 16.9525 10.3741C16.9352 10.3822 16.9164 10.3865 16.8973 10.3867C16.8782 10.387 16.8592 10.3831 16.8417 10.3754C16.8242 10.3677 16.8086 10.3563 16.7959 10.342C16.7832 10.3278 16.7736 10.311 16.768 10.2927C16.7623 10.2745 16.7606 10.2552 16.7629 10.2362C16.7632 9.99853 17.0291 10.02 17.028 10.2331Z"></path>
    <path fill="#111111" d="M6.73957 11.4563C6.63916 11.4741 6.53572 11.4613 6.44261 11.4198C6.3495 11.3782 6.27099 11.3096 6.21721 11.223C6.12187 11.0969 6.05802 10.9499 6.03097 10.7941C5.98417 10.4821 6.28297 10.661 6.63289 10.7431C6.78577 10.7791 6.94045 10.8064 7.09573 10.8312C7.23097 10.8528 7.27909 10.9145 7.23025 11.0422C7.18191 11.1416 7.11327 11.2299 7.02876 11.3012C6.94425 11.3725 6.84574 11.4253 6.73957 11.4563V11.4563ZM6.21949 10.8289C6.2331 10.9231 6.2737 11.0112 6.33638 11.0828C6.39905 11.1543 6.48112 11.2061 6.57265 11.232C6.64631 11.2403 6.7208 11.2275 6.78751 11.1953C6.85423 11.163 6.91046 11.1125 6.94969 11.0496C6.70801 10.9765 6.46213 10.9022 6.21949 10.8289V10.8289Z"></path>
    <path fill="#111111" d="M7.19234 10.4626C7.05866 10.5489 6.94622 10.5025 7.06034 10.3491C7.10522 10.2834 7.13352 10.2078 7.1428 10.1288C7.15208 10.0498 7.14207 9.96974 7.11362 9.89545C6.94658 9.33145 6.74162 8.73145 6.73118 8.66137C6.72734 8.63665 6.74114 8.59261 6.75818 8.58565C6.77233 8.58263 6.78703 8.58332 6.80085 8.58765C6.81466 8.59198 6.82712 8.59981 6.83702 8.61037C7.01578 9.01037 7.17202 9.42005 7.30502 9.83749C7.35335 9.94051 7.36846 10.056 7.34828 10.168C7.32809 10.28 7.2736 10.3829 7.19234 10.4626V10.4626Z"></path>
    <path fill="#111111" d="M7.73713 8.71547C7.75333 8.86079 7.66705 8.81987 7.63201 8.77343C7.61245 8.74751 7.37317 8.57255 7.24945 8.62355C7.16377 8.66759 7.07713 8.58191 7.16293 8.48447C7.35901 8.26187 7.71697 8.53547 7.73713 8.71547Z"></path>
    <path fill="#111111" d="M6.20809 9.567C6.08881 9.567 6.02881 9.4392 6.02881 9.351C6.02881 9.25224 6.06193 9.10956 6.16309 9.10956C6.43729 9.11004 6.46801 9.567 6.20809 9.567Z"></path>
    <path fill="#111111" d="M7.47279 9.49512C7.26075 9.49116 7.25163 9.102 7.45431 9.08016C7.67331 9.05664 7.69527 9.49944 7.47279 9.49512Z"></path>
    <path fill="#111111" d="M6.22564 8.60195C6.15266 8.60363 6.08133 8.62396 6.01844 8.66102C5.95555 8.69807 5.9032 8.75061 5.86636 8.81363C5.80072 8.93879 5.75836 8.79815 5.76436 8.78195C5.77196 8.70851 5.80429 8.63984 5.85604 8.58719C5.91083 8.53225 5.97965 8.4934 6.055 8.47486C6.13034 8.45633 6.20933 8.45882 6.28336 8.48207C6.41884 8.51147 6.41572 8.60111 6.22564 8.60195Z"></path>
    <path fill="#111111" d="M4.81549 19.2731C4.65397 19.2731 4.49149 19.2742 4.32781 19.2731C4.30686 19.275 4.28573 19.2726 4.2658 19.2658C4.24586 19.2591 4.22758 19.2482 4.21213 19.2339C4.19667 19.2196 4.1844 19.2022 4.17611 19.1829C4.16782 19.1636 4.1637 19.1427 4.16401 19.1217C4.15693 19.036 4.15633 18.9486 4.15633 18.8628C4.1547 18.8441 4.15702 18.8252 4.16314 18.8074C4.16926 18.7896 4.17904 18.7733 4.19185 18.7596C4.20467 18.7458 4.22023 18.7349 4.23753 18.7275C4.25483 18.7201 4.27349 18.7165 4.29229 18.7168C4.46161 18.7102 4.63081 18.7145 4.81549 18.7145V19.2731Z"></path>
    <path fill="#111111" d="M5.16471 19.2175C5.10759 19.1865 5.05263 19.1519 4.99395 19.127C4.96742 19.1124 4.94498 19.0914 4.92869 19.0659C4.9124 19.0403 4.90277 19.0111 4.9007 18.9809C4.89862 18.9507 4.90415 18.9205 4.9168 18.8929C4.92944 18.8654 4.94879 18.8415 4.97307 18.8234C5.03307 18.7883 5.08899 18.7461 5.16507 18.6943L5.16471 19.2175Z"></path>
    <path fill="#111111" d="M6.83691 19.1109H6.93423V19.236C6.82683 19.2407 6.72027 19.2454 6.60819 19.2508V19.1326L6.73875 19.1178C6.71019 19.0746 6.69159 19.0444 6.67155 19.0143C6.49839 18.7546 6.52755 18.8343 6.57555 18.7291C6.59799 18.7485 6.63351 18.7632 6.64131 18.7871C6.66195 18.8506 6.68991 18.9061 6.76263 18.9071C6.83991 18.9087 6.85863 18.8459 6.87771 18.7842C6.88539 18.7602 6.91371 18.7433 6.93339 18.7242C6.97947 18.8091 7.01415 18.7527 6.87699 18.9946C6.85851 19.0271 6.83367 19.0564 6.81207 19.0873C6.81987 19.0954 6.82803 19.1032 6.83691 19.1109Z"></path>
    <path fill="#111111" d="M6.84615 18.5839C6.8509 18.6421 6.84985 18.7006 6.84303 18.7585C6.83607 18.7925 6.79671 18.8203 6.77271 18.8504C6.74103 18.8234 6.68499 18.7986 6.68163 18.7686C6.66718 18.6403 6.66173 18.5112 6.66531 18.3822C6.66615 18.3544 6.72531 18.3034 6.74799 18.308C6.76819 18.3141 6.78668 18.3247 6.80198 18.3392C6.81728 18.3537 6.82896 18.3716 6.83607 18.3914C6.84446 18.4551 6.84579 18.5195 6.84003 18.5834L6.84615 18.5839Z"></path>
    <path fill="#111111" d="M20.8176 5.38968C20.7361 5.3394 20.8115 5.09616 20.8246 4.86972C20.8441 4.53216 21.2527 4.47372 21.326 4.70892C21.3792 4.87872 21.4304 5.04912 21.4752 5.22132C21.4791 5.24333 21.4784 5.26588 21.4734 5.28765C21.4684 5.30942 21.459 5.32995 21.4459 5.34804C21.4103 5.40297 21.3598 5.44661 21.3003 5.47384C21.2408 5.50106 21.1748 5.51075 21.1099 5.50176C21.0079 5.47778 20.9095 5.44007 20.8176 5.38968V5.38968ZM21.108 4.752C20.9779 4.74288 20.9576 4.87068 20.9782 5.00232C20.9902 5.07732 21.0262 5.13996 21.1096 5.14764C21.1696 5.15304 21.2284 5.07108 21.2363 4.98684C21.2468 4.8678 21.228 4.76064 21.108 4.752ZM21.074 5.36784C21.002 5.2998 20.9449 5.24496 20.8786 5.1816C20.8663 5.30088 20.9351 5.36808 21.0734 5.36808L21.074 5.36784ZM21.3776 5.31528C21.3656 5.3022 21.3518 5.28828 21.3395 5.27508C21.3035 5.31108 21.2683 5.34624 21.2336 5.38176C21.2436 5.39256 21.2537 5.4042 21.2645 5.415C21.301 5.382 21.3392 5.34876 21.377 5.316L21.3776 5.31528Z"></path>
    <path fill="#111111" d="M17.8126 19.3411C17.6951 19.331 17.5861 19.3218 17.4766 19.3117V19.1944H17.6125C17.5863 19.1479 17.5695 19.117 17.5525 19.0854C17.4137 18.8293 17.4411 18.9034 17.4892 18.8073C17.5092 18.8289 17.5409 18.8475 17.5492 18.8729C17.5845 18.9888 17.6537 19.0316 17.7307 18.9726C17.7547 18.9541 17.763 18.9153 17.784 18.8907C17.8058 18.8695 17.8296 18.8506 17.8552 18.8342C17.8919 18.9391 17.9446 18.8668 17.6789 19.1974C17.7424 19.2075 17.7755 19.2128 17.8204 19.2198C17.8173 19.2569 17.8149 19.2948 17.8126 19.3411Z"></path>
    <path fill="#111111" d="M17.7623 18.8419C17.7577 18.8999 17.7238 18.9514 17.6642 18.9362C17.6439 18.9269 17.6261 18.9128 17.6125 18.895C17.5989 18.8772 17.5898 18.8563 17.5861 18.8342C17.5818 18.7207 17.5888 18.6071 17.607 18.495C17.6148 18.4741 17.6277 18.4554 17.6444 18.4406C17.6611 18.4257 17.6813 18.4153 17.703 18.41C17.7608 18.4028 17.7835 18.4541 17.7794 18.5112C17.7577 18.815 17.7672 18.7807 17.7623 18.8419Z"></path>
    <path fill="#111111" d="M16.0647 18.564C16.0539 18.7224 16.0446 18.8623 16.0353 19.008C15.9225 18.9996 15.8182 18.9925 15.7146 18.984C15.7006 18.984 15.6867 18.9811 15.6739 18.9754C15.6611 18.9697 15.6496 18.9613 15.6402 18.9509C15.6308 18.9405 15.6237 18.9282 15.6193 18.9149C15.615 18.9015 15.6135 18.8874 15.6149 18.8735C15.6086 18.5139 15.6131 18.564 16.0647 18.564Z"></path>
    <path fill="#111111" d="M16.284 18.9981C16.2128 18.9417 16.0956 18.9355 16.1008 18.8142C16.1057 18.6999 16.1194 18.6828 16.3079 18.5932C16.2996 18.732 16.2911 18.8652 16.284 18.9981Z"></path>
    <path fill="#111111" d="M21.0735 5.36809C20.9351 5.36809 20.8663 5.30089 20.878 5.18185C20.9443 5.24521 21.0016 5.29933 21.0735 5.36809Z"></path>
    <path fill="#111111" d="M21.377 5.31599C21.3392 5.34923 21.3018 5.38247 21.2639 5.41571C21.2538 5.40491 21.2438 5.39327 21.233 5.38247C21.269 5.34647 21.3041 5.31143 21.3389 5.27579C21.352 5.28851 21.364 5.30159 21.377 5.31599Z"></path>
    <path fill="#111111" d="M7.53923 6.65459C7.49432 6.61414 7.44655 6.57696 7.39631 6.54335C7.11457 6.37556 6.78147 6.31586 6.45899 6.37535C4.74071 6.67535 3.82967 8.68427 4.01411 10.3217C4.05191 10.6577 4.16579 10.2188 4.19963 9.77147C4.225 9.25562 4.34576 8.74894 4.55579 8.27711C4.84163 7.67279 5.20559 7.13327 5.82455 6.81815C6.37199 6.53927 6.93263 6.40199 7.53923 6.65459ZM8.87447 11.4293C8.85287 11.1375 8.74247 11.1929 8.71499 11.2651C8.67359 11.3749 8.64215 11.4876 8.60519 11.5988C8.38523 12.2618 7.83623 13.2509 7.25375 13.7339C6.88715 14.0378 6.51323 14.2351 6.43043 14.3547C6.46559 14.3742 6.48371 14.4185 6.63443 14.3699C7.05841 14.2284 7.43657 13.9756 7.72931 13.6379C8.12374 13.1861 8.44404 12.6746 8.67827 12.1225C8.79362 11.9086 8.8606 11.6719 8.87447 11.4293V11.4293ZM6.94799 14.8292C6.95027 14.8362 6.95147 14.8428 6.95375 14.8505C7.16723 14.8555 7.37745 14.7974 7.55807 14.6835C8.1423 14.3373 8.62848 13.8476 8.97059 13.2609C8.99307 13.2111 8.99875 13.1552 8.98679 13.1018C8.98177 13.0837 8.9725 13.067 8.95975 13.0532C8.947 13.0394 8.93113 13.0288 8.91347 13.0223C8.70443 12.9743 8.75399 13.5343 7.39811 14.5223C7.25159 14.6298 7.09799 14.7272 6.94799 14.8292ZM8.65511 8.71391C8.56535 8.73635 8.66711 8.61227 8.49323 9.99671C8.45723 10.278 8.38871 10.5546 8.34251 10.835C8.31575 10.9974 8.24207 11.1527 8.27051 11.325C8.28371 11.4045 8.31299 11.4023 8.36711 11.369C8.41108 11.3374 8.44831 11.2973 8.47661 11.2511C8.50492 11.2049 8.52375 11.1535 8.53199 11.1C8.77319 10.1531 8.74907 9.81947 8.71271 8.91707C8.70177 8.84727 8.68243 8.77906 8.65511 8.71391ZM6.51383 13.3109C6.51383 13.3001 6.51383 13.2884 6.51467 13.2776C6.28132 13.2038 6.05287 13.1152 5.83067 13.0125C5.43877 12.8157 5.12236 12.4957 4.93007 12.1015C4.88075 11.9964 4.85519 11.8799 4.80755 11.7731C4.75643 11.6587 4.68503 11.6462 4.64375 11.7851C4.62074 11.8882 4.63524 11.9961 4.68467 12.0895C4.86324 12.5134 5.17382 12.8684 5.57027 13.1017C5.95859 13.3394 6.24683 13.3643 6.51383 13.3109ZM4.86983 14.6731C4.81966 14.6108 4.76293 14.5541 4.70063 14.5039C4.41306 14.3344 4.08953 14.2351 3.75635 14.2141C3.65217 14.206 3.54832 14.2335 3.46187 14.2922C3.31787 14.3798 3.42587 14.4655 3.51215 14.4591C4.15655 14.4109 4.77407 14.8365 4.87031 14.6731H4.86983Z"></path>
    <path fill="#111111" d="M8.65273 7.71407C8.85589 8.26103 8.80957 8.59079 8.84905 8.68919C9.03817 9.16091 9.06757 9.95375 9.04801 10.416C9.02305 10.9948 9.26401 10.7905 9.33385 11.6809C9.36091 12.0291 9.32638 12.3793 9.23185 12.7156C9.20891 12.861 9.20488 13.0088 9.21985 13.1552C9.21985 13.2137 9.31453 13.2673 9.58849 13.5625C9.68809 13.6705 9.74137 13.7425 9.90601 13.9322L9.92461 14.185C9.90118 14.2207 9.87975 14.2577 9.86041 14.2958C9.76132 14.5459 9.61524 14.7746 9.43009 14.9696C9.19457 15.1968 8.93008 15.392 8.64349 15.55C7.87105 15.9883 7.22053 15.7994 7.01689 15.8398C6.64129 15.914 6.09997 16.1749 5.38417 15.9541C4.62673 15.7204 4.37245 15.1901 4.11769 14.9881C3.87025 14.792 3.56905 14.751 3.26221 14.747C3.10225 14.711 2.94121 14.6741 2.78125 14.637C3.02053 14.291 3.25393 14.4577 3.42997 13.969C3.69397 13.237 3.37165 13.0046 3.23293 10.0165C3.19248 9.55434 3.21692 9.08879 3.30553 8.63339C3.51817 7.73159 3.97465 6.99359 4.78213 6.50447C6.10933 5.70059 8.09533 6.21335 8.65273 7.71407ZM8.05933 9.79343C8.00449 9.22547 7.99045 8.80439 7.73629 8.49527C7.4931 8.18407 7.2172 7.89988 6.91333 7.64759C6.80761 7.56359 6.60133 7.64855 6.48217 7.71095C5.99906 7.94489 5.58661 8.30273 5.28685 8.74799C5.1449 8.93601 5.04953 9.155 5.00857 9.38699C4.97998 9.61348 4.96991 9.84191 4.97845 10.07C5.04145 11.0608 5.55025 11.5904 6.36013 12.1038C6.41818 12.1391 6.48733 12.1515 6.55405 12.1386C6.68416 12.1111 6.80875 12.062 6.92269 11.9934C7.71973 11.4523 8.05201 10.7624 8.05933 9.79343ZM7.53925 6.65459C7.49434 6.61414 7.44657 6.57696 7.39633 6.54335C7.11459 6.37557 6.78149 6.31587 6.45901 6.37535C4.74073 6.67535 3.82969 8.68427 4.01413 10.3217C4.05193 10.6577 4.16581 10.2188 4.19965 9.77147C4.22502 9.25563 4.34578 8.74895 4.55581 8.27711C4.84165 7.67279 5.20561 7.13327 5.82457 6.81815C6.37201 6.53927 6.93265 6.40199 7.53925 6.65459ZM8.87449 11.4293C8.85289 11.1376 8.74249 11.1929 8.71501 11.2651C8.67361 11.3749 8.64217 11.4876 8.60521 11.5988C8.38525 12.2618 7.83625 13.2509 7.25377 13.7339C6.88717 14.0378 6.51325 14.2351 6.43045 14.3548C6.46561 14.3742 6.48373 14.4185 6.63445 14.3699C7.05843 14.2284 7.43659 13.9756 7.72933 13.6379C8.12376 13.1861 8.44406 12.6746 8.67829 12.1225C8.79364 11.9086 8.86062 11.6719 8.87449 11.4293V11.4293ZM6.94801 14.8292C6.95029 14.8362 6.95149 14.8428 6.95377 14.8505C7.16725 14.8555 7.37746 14.7974 7.55809 14.6836C8.14232 14.3373 8.6285 13.8476 8.97061 13.261C8.99309 13.2111 8.99877 13.1552 8.98681 13.1018C8.98179 13.0837 8.97252 13.067 8.95977 13.0532C8.94701 13.0394 8.93115 13.0288 8.91349 13.0223C8.70445 12.9743 8.75401 13.5343 7.39813 14.5223C7.25161 14.6298 7.09801 14.7272 6.94801 14.8292ZM8.65513 8.71391C8.56537 8.73635 8.66713 8.61227 8.49325 9.99671C8.45725 10.278 8.38873 10.5546 8.34253 10.835C8.31577 10.9974 8.24209 11.1527 8.27053 11.325C8.28373 11.4046 8.31301 11.4023 8.36713 11.369C8.4111 11.3374 8.44832 11.2973 8.47663 11.2511C8.50494 11.2049 8.52377 11.1535 8.53201 11.1C8.77321 10.1531 8.74909 9.81947 8.71273 8.91707C8.70179 8.84728 8.68245 8.77906 8.65513 8.71391ZM6.51385 13.3109C6.51385 13.3001 6.51385 13.2884 6.51469 13.2776C6.28134 13.2038 6.05288 13.1152 5.83069 13.0126C5.43879 12.8157 5.12237 12.4957 4.93009 12.1015C4.88077 11.9964 4.85521 11.8799 4.80757 11.7731C4.75645 11.6587 4.68505 11.6462 4.64377 11.7851C4.62075 11.8882 4.63526 11.9961 4.68469 12.0895C4.86325 12.5134 5.17384 12.8684 5.57029 13.1017C5.95861 13.3394 6.24685 13.3643 6.51385 13.3109ZM4.86985 14.6731C4.81967 14.6108 4.76295 14.5541 4.70065 14.5039C4.41308 14.3344 4.08955 14.2351 3.75637 14.2141C3.65219 14.206 3.54833 14.2335 3.46189 14.2922C3.31789 14.3798 3.42589 14.4655 3.51217 14.4592C4.15657 14.4109 4.77409 14.8366 4.87033 14.6731H4.86985Z"></path>
  </g>
</svg>