<svg width="1128" height="792" viewBox="0 0 1128 792" fill="none" xmlns="http://www.w3.org/2000/svg">
  <path fill-rule="evenodd" clip-rule="evenodd" d="M884.225 251.334C883.692 250.946 882.426 250.809 881.838 250.692C879.39 250.21 876.869 250 874.374 250C866.681 250.012 858.863 250.767 851.298 252.074C846.494 252.903 840.687 255.696 835.909 254.179C827.585 251.537 819.172 251.667 811.274 255.439C804.053 258.888 798.572 265.439 795.373 272.517C794.89 273.586 792.932 277.519 792.378 280.17C792.141 280.712 791.913 281.257 791.708 281.811C791.126 283.384 790.603 284.984 790.118 286.588C789.91 287.272 789.389 288.782 790.008 289.074C789.019 290.901 788.141 292.783 787.411 294.726C785.286 300.378 782.962 306.578 782.215 312.568C781.939 314.786 781.928 317.017 782.185 319.239C782.312 320.338 782.26 322.546 783.004 323.382C784.585 325.154 785.396 322.673 785.218 321.491C783.858 312.485 786.485 304.027 789.598 295.561C791.612 290.087 794.92 285.078 798.626 280.543C801.625 276.871 804.842 273.98 808.953 271.546C813.981 268.569 819.356 266.163 824.681 263.749C828.184 262.161 831.691 260.615 835.291 259.247C836.092 258.942 837.351 258.161 838.239 258.158C840.116 258.152 842.777 259.537 844.59 260.052C850.554 261.748 856.594 263.919 862.758 264.785C866.712 265.341 870.416 264.715 874.113 263.398C874.491 263.264 875.125 262.918 875.901 262.424C878.646 261.368 881.243 260.039 883.504 258.121C884.806 257.017 885.989 255.589 887.067 254.282C887.389 253.892 887.532 253.444 887.537 253.018C887.781 252.891 887.943 252.741 887.98 252.567C888.249 251.281 885.796 251.258 884.225 251.334" fill="#EBEEF2" />
  <path fill-rule="evenodd" clip-rule="evenodd" d="M259.273 358.541C257.764 359.763 256.284 361.012 254.84 362.31C253.739 363.301 251.791 364.485 251.396 365.985C250.985 367.544 252.282 369.003 253.306 369.945C258.723 374.929 264.823 378.298 272.329 378.859C283.887 379.722 293.946 376.77 303.974 370.963C311.018 366.883 315.684 360.849 316.703 352.701C325.092 356.187 333.205 360.993 340.1 366.891C343.502 369.801 346.432 373.025 349.142 376.599C350.878 378.889 352.557 381.215 354.115 383.631C354.792 384.68 355.481 386.542 356.599 387.146C357.912 387.856 359.499 386.743 359.434 385.284C359.379 384.069 358.068 382.66 357.454 381.667C356.436 380.018 355.402 378.379 354.313 376.776C352.551 374.179 350.73 371.62 348.744 369.19C344.28 363.73 338.601 359.221 332.714 355.375C321.42 347.997 309.025 343.349 295.283 342.955C286.833 342.713 279.725 345.6 272.499 349.911C268 352.595 263.356 355.235 259.273 358.541" fill="#DDE3E9" />
  <path fill-rule="evenodd" clip-rule="evenodd" d="M368.883 322.856C360.077 313.787 351.241 304.832 341.403 296.847C335.605 292.141 329.495 287.863 323.511 283.401C324.201 284.006 324.878 284.628 325.539 285.266C323.671 283.998 321.226 283.281 319.246 282.107C317.037 280.798 314.925 279.301 312.854 277.791C308.811 274.845 304.829 271.843 300.673 269.051C296.043 265.94 291.245 263.066 286.536 260.072C282.539 257.532 278.494 254.751 274.218 252.674C271.888 251.542 269.553 250.201 267.213 249.02C266.43 248.625 258.484 243.608 258.504 243.593C258.943 243.262 262.942 245.14 263.56 245.393C265.366 246.131 267.094 247.013 268.83 247.893C267.877 246.013 267.123 244.038 266.712 241.958C266.585 241.317 265.569 236.644 266.089 236.252C266.348 236.057 268.883 244.416 269.013 245.22C269.119 245.872 269.103 246.812 269.317 247.431C269.662 248.429 269.645 248.127 270.405 248.69C271.798 249.721 273.647 250.365 275.154 251.227C275.968 251.68 278.485 253.48 280.001 253.993C284.588 256.221 289.238 259.649 293.597 262.495C292.453 260.345 291.582 258.097 290.948 255.741C290.797 255.182 289.167 250.165 289.563 249.867C290.008 249.532 293.112 257.195 293.296 257.92C293.637 259.268 293.708 260.768 294.136 262.079C294.605 263.518 296.07 264.028 297.39 264.867C302.247 267.953 306.938 271.232 311.55 274.662C316.583 265.711 310.78 254.903 305.89 247.393C302.364 241.98 297.619 237.34 292.608 233.289C285.92 227.882 278.269 223.563 270.627 219.612C261.723 215.009 252.099 212.156 242.093 210.839C236.86 210.149 231.507 210.169 226.221 210.39C223.639 210.498 221.16 210.84 218.686 211.682C217.57 212.062 216.492 212.541 215.442 213.077C214.644 213.484 212.713 213.914 212.255 214.521C208.477 219.438 206.545 224.337 206.84 230.515C207.119 236.363 208.966 242.214 211.472 247.431C214.264 253.24 217.854 258.512 222.55 262.936C226.132 266.312 230.137 269.25 234.116 272.15C248.267 282.463 266.208 291.433 284.536 289.128C290.469 288.383 296.112 286.308 301.385 283.489C302.628 282.824 303.863 282.152 305.036 281.368C305.827 280.839 307.941 278.456 308.736 278.37C309.827 278.251 312.175 280.469 313.198 281.144C320.972 286.275 328.542 291.685 335.953 297.313C343.839 303.301 351.337 309.697 358.615 316.393C361.71 319.242 364.786 322.096 367.791 325.04C368.491 325.725 370.202 328.247 371.471 328.361C372.273 328.434 372.814 327.749 372.7 327.006C372.501 325.715 369.785 323.784 368.883 322.856" fill="#EBEEF2" />
  <path fill-rule="evenodd" clip-rule="evenodd" d="M874.98 287.66C871.57 286.915 867.803 286.972 864.329 287.033C845.695 287.287 827.397 296.109 815.489 310.205C805.351 322.205 802.563 337.125 800.56 352.207C800.362 353.704 800.277 355.192 800.165 356.693C800.141 357.015 800.105 357.302 800.066 357.573C799.279 358.277 798.865 359.098 799.332 360C797.597 363.797 796.129 367.69 794.869 371.706C791.162 383.526 787.392 395.571 789.714 408C790.257 401.16 791.399 394.166 792.764 387.438C792.842 387.052 792.927 386.669 793.015 386.287C793.025 386.247 793.033 386.206 793.042 386.166C793.525 384.106 794.153 382.108 794.917 380.141C794.925 380.119 794.933 380.098 794.941 380.077C795.042 379.818 795.149 379.56 795.255 379.303C795.474 378.77 795.699 378.238 795.937 377.709C796.018 377.528 796.095 377.346 796.17 377.163C797.282 374.437 797.751 371.365 798.748 368.545C798.986 367.904 799.235 367.265 799.496 366.629C799.512 366.592 799.527 366.555 799.543 366.518C800.249 364.807 801.028 363.118 801.853 361.446C802.301 361.11 802.54 360.274 802.927 359.515C803.006 359.365 803.631 358.368 803.817 357.793C804.303 356.854 804.786 355.915 805.275 354.977C805.261 354.983 805.246 354.988 805.231 354.994C805.72 354.093 806.211 353.197 806.698 352.304C806.805 352.108 806.913 351.912 807.021 351.715C807.196 351.402 807.371 351.089 807.545 350.777C809.177 347.856 810.908 344.994 812.705 342.167C813.347 341.158 814.879 339.711 815.173 338.579C815.184 338.536 815.186 338.497 815.193 338.457C819.093 332.979 823.582 327.927 828.967 323.924C828.316 324.628 826.932 327.015 826.567 327.488C825.447 328.935 824.232 330.282 823.013 331.646C820.828 334.089 818.696 336.609 816.801 339.274C813.335 344.148 810.346 349.277 807.519 354.51C807.493 354.54 807.463 354.569 807.438 354.601C806.017 356.352 805.123 358.998 804.101 361.001C808.147 359.127 812.622 357.906 816.774 356.242C820.916 354.583 824.944 352.735 828.834 350.566C834.003 347.682 839.366 344.427 844.25 340.743C849.847 337.271 854.551 332.492 858.703 327.477C863.615 321.543 868.117 315.558 870.901 308.353C872.269 304.813 873.345 301.121 873.983 297.386C874.011 297.224 874.046 297.047 874.085 296.864C874.738 295.574 875.321 294.255 875.811 292.906C876.588 290.766 878.425 288.412 874.98 287.66" fill="#EBEEF2" />
  <path fill-rule="evenodd" clip-rule="evenodd" d="M157.018 299.014C155.39 297.666 153.56 296.45 151.412 295.583C150.869 295.364 146.824 293.896 146.561 294.218C145.947 294.968 156.529 298.583 157.018 299.014M176.196 290.012C176.183 290.069 177.586 291.887 177.967 292.446C178.78 293.635 179.531 294.847 180.237 296.061C179.191 293.916 178.118 291.928 176.196 290.012M78.1142 304.814C76.7634 305.146 75.1393 303.836 76.8915 303.514C78.3092 303.254 78.2397 303.193 78.8763 302.321C79.3932 301.612 79.7116 300.748 80.1652 300.005C81.1274 298.427 82.2188 296.923 83.5585 295.514C86.4297 292.493 89.9279 289.89 93.8515 287.696C100.699 283.868 108.376 280.369 116.521 278.611C129.47 275.816 144.208 275.643 157.178 277.581C165.21 278.781 172.551 280.867 177.885 285.809C180.551 288.279 182.643 291.172 183.558 294.358C183.797 295.19 183.752 296.116 184.051 296.932C184.51 298.185 184.307 297.851 186.226 298.095C188.321 298.362 190.415 298.633 192.508 298.91C197.987 299.634 203.499 300.403 208.838 301.578C210.596 301.965 212.314 302.437 213.993 302.987C215.263 303.402 220.319 304.704 220.934 305.965C221.957 308.062 218.53 307.111 217.465 306.655C216.532 306.255 215.575 305.881 214.603 305.538C212.157 304.673 209.608 304.004 207.002 303.471C204.185 302.895 201.311 302.466 198.448 302.035C195.778 301.634 193.098 301.27 190.414 300.921C188.924 300.727 187.432 300.539 185.94 300.35C185.43 300.286 184.531 299.949 184.599 300.455C181.462 299.993 178.07 300.06 174.875 299.932C170.962 299.777 167.034 299.649 163.107 299.742C160.275 299.81 157.441 299.952 154.623 300.242C152.977 300.412 151.357 300.661 149.741 300.976C148.854 301.149 145.355 301.515 144.872 302.106C145.079 301.852 148.941 302.099 149.432 302.084C151.398 302.028 153.349 301.879 155.308 301.712C158.942 301.402 162.579 301.24 166.225 301.263C166.211 301.752 163.72 302.623 163.112 302.947C161.749 303.674 160.444 304.467 159.226 305.337C157.08 306.869 154.511 308.766 153.026 310.581C153.464 310.046 155.622 309.35 156.387 308.942C157.614 308.287 158.816 307.588 159.953 306.841C161.003 306.152 161.982 305.407 162.946 304.646C163.909 303.885 165.216 302.303 166.482 301.796C166.558 301.765 167.11 302.098 167.423 301.985C167.739 301.871 168.133 301.301 168.213 301.277C169.391 300.93 171.629 301.362 172.868 301.406C176.08 301.519 179.289 301.667 182.499 301.802C183.493 301.843 184.338 301.671 184.714 302.231C185.114 302.829 184.381 304.4 184.172 305.051C183.398 307.469 182.024 309.638 179.86 311.511C175.807 315.02 170.811 317.359 165.166 318.924C143.544 324.918 120.541 327.318 98.9259 321.083C89.9773 318.502 76.5006 313.889 78.1142 304.814" fill="#EBEEF2" />
  <g opacity="0.6" clip-path="url(#clip0_3_3411)">
    <path fill-rule="evenodd" clip-rule="evenodd" d="M1068.01 587.189C1082.72 663.272 726.025 712.899 419.012 678.266C111.999 643.633 -28.8437 508.387 117.658 436.322C264.159 364.258 1053.3 511.106 1068.01 587.189Z" fill="#DDE3E9" />
  </g>
  <g clip-path="url(#clip1_3_3411)">
    <rect x="332" y="132" width="159" height="302" rx="8" fill="#F2F2F2" />
    <path fill-rule="evenodd" clip-rule="evenodd" d="M411 415C419.284 415 426 408.284 426 400C426 391.716 419.284 385 411 385C402.716 385 396 391.716 396 400C396 408.284 402.716 415 411 415Z" fill="white" />
    <path fill-rule="evenodd" clip-rule="evenodd" d="M398 152C399.105 152 400 151.105 400 150C400 148.895 399.105 148 398 148C396.895 148 396 148.895 396 150C396 151.105 396.895 152 398 152Z" fill="white" />
    <rect x="405" y="148" width="21" height="4" rx="2" fill="white" />
    <g clip-path="url(#clip2_3_3411)">
      <g clip-path="url(#clip3_3_3411)">
        <rect x="346" y="160" width="131" height="54" rx="4" fill="white" />
        <g clip-path="url(#clip4_3_3411)">
          <rect x="385" y="176.2" width="73" height="8.1" rx="3" fill="#DDE3E9" />
          <rect x="385" y="189.7" width="49" height="8.1" rx="3" fill="#DDE3E9" />
        </g>
        <path fill-rule="evenodd" clip-rule="evenodd" d="M367 199C373.627 199 379 193.627 379 187C379 180.373 373.627 175 367 175C360.373 175 355 180.373 355 187C355 193.627 360.373 199 367 199Z" fill="#C5CFD6" />
      </g>
      <g clip-path="url(#clip5_3_3411)">
        <rect x="346" y="222" width="131" height="42" rx="4" fill="white" />
        <g clip-path="url(#clip6_3_3411)">
          <rect x="385" y="234.6" width="73" height="6.3" rx="3" fill="#DDE3E9" />
          <rect x="385" y="245.1" width="49" height="6.3" rx="3" fill="#DDE3E9" />
        </g>
        <path fill-rule="evenodd" clip-rule="evenodd" d="M367 255C373.627 255 379 249.627 379 243C379 236.373 373.627 231 367 231C360.373 231 355 236.373 355 243C355 249.627 360.373 255 367 255Z" fill="#C5CFD6" />
      </g>
      <g clip-path="url(#clip7_3_3411)">
        <rect x="346" y="272" width="131" height="42" rx="4" fill="white" />
        <g clip-path="url(#clip8_3_3411)">
          <rect x="385" y="284.6" width="73" height="6.3" rx="3" fill="#DDE3E9" />
          <rect x="385" y="295.1" width="49" height="6.3" rx="3" fill="#DDE3E9" />
        </g>
        <path fill-rule="evenodd" clip-rule="evenodd" d="M367 305C373.627 305 379 299.627 379 293C379 286.373 373.627 281 367 281C360.373 281 355 286.373 355 293C355 299.627 360.373 305 367 305Z" fill="#AFB9C5" />
      </g>
      <g clip-path="url(#clip9_3_3411)">
        <rect x="346" y="322" width="131" height="42" rx="4" fill="white" />
        <g clip-path="url(#clip10_3_3411)">
          <rect x="385" y="334.6" width="73" height="6.3" rx="3" fill="#DDE3E9" />
          <rect x="385" y="345.1" width="49" height="6.3" rx="3" fill="#DDE3E9" />
        </g>
        <path fill-rule="evenodd" clip-rule="evenodd" d="M367 355C373.627 355 379 349.627 379 343C379 336.373 373.627 331 367 331C360.373 331 355 336.373 355 343C355 349.627 360.373 355 367 355Z" fill="#C5CFD6" />
      </g>
    </g>
  </g>
  <g clip-path="url(#clip11_3_3411)">
    <path fill-rule="evenodd" clip-rule="evenodd" d="M362.14 376C360.815 376 359.494 376.027 358.171 376.095C357.162 376.148 355.621 375.939 354.768 376.568C353.881 377.221 353.942 378.557 354.081 379.501C354.813 384.493 356.6 388.919 360.339 392.456C366.096 397.901 372.695 400.668 380.504 401.9C385.99 402.766 391.054 401.564 395.092 397.663C398.043 403.139 400.281 409.199 401.404 415.315C401.958 418.333 402.127 421.315 402.03 424.388C401.967 426.356 401.859 428.32 401.648 430.279C401.556 431.13 401.122 432.418 401.455 433.223C401.846 434.167 403.165 434.259 403.757 433.453C404.25 432.783 404.16 431.466 404.261 430.673C404.429 429.355 404.584 428.036 404.695 426.712C404.876 424.569 405.009 422.42 405 420.268C404.977 415.435 403.902 410.583 402.432 405.995C399.612 397.192 395.037 389.369 387.921 383.231C383.545 379.457 378.537 377.929 372.856 377.108C369.318 376.597 365.723 376 362.14 376" fill="#EBEEF2" />
    <path fill-rule="evenodd" clip-rule="evenodd" d="M382.571 411C368.272 411 358.642 422.524 354.089 434.502C352.372 439.016 351.97 443.974 351.308 448.714C351.096 450.236 351.175 452.554 350.557 453.909C350.333 454.401 349.819 454.577 350.065 455.247C350.214 455.652 350.505 455.901 350.944 455.981C351.843 456.147 353.115 455.167 353.886 454.781C360.282 451.573 364.484 446.613 367.912 440.545C370.038 436.784 372.194 432.879 373.456 428.75C374.227 426.227 374.676 423.571 374.94 420.954C375.044 419.923 375.144 418.868 375.138 417.832C375.132 416.803 374.653 416.259 374.309 415.364C379.08 413.558 384.466 413.066 389.299 414.937C393.769 416.668 397.482 420.013 399.561 424.216C400.101 425.308 400.518 426.46 400.821 427.636C401.02 428.406 401.029 429.404 401.398 430.1C402.29 431.788 404.168 430.66 403.988 429.089C403.485 424.708 400.979 420.309 397.775 417.263C393.734 413.421 388.258 411 382.571 411" fill="#EBEEF2" />
    <rect x="398" y="158" width="159" height="302" rx="8" fill="#DDE3E9" />
    <path fill-rule="evenodd" clip-rule="evenodd" d="M477 441C485.284 441 492 434.284 492 426C492 417.716 485.284 411 477 411C468.716 411 462 417.716 462 426C462 434.284 468.716 441 477 441Z" fill="white" />
    <path fill-rule="evenodd" clip-rule="evenodd" d="M464 178C465.105 178 466 177.105 466 176C466 174.895 465.105 174 464 174C462.895 174 462 174.895 462 176C462 177.105 462.895 178 464 178Z" fill="white" />
    <rect x="471" y="174" width="21" height="4" rx="2" fill="white" />
    <g clip-path="url(#clip12_3_3411)">
      <g clip-path="url(#clip13_3_3411)">
        <rect x="412" y="186" width="131" height="54" rx="4" fill="white" />
        <g clip-path="url(#clip14_3_3411)">
          <rect x="421" y="202.2" width="73" height="8.1" rx="3" fill="#DDE3E9" />
          <rect x="421" y="215.7" width="49" height="8.1" rx="3" fill="#DDE3E9" />
        </g>
        <path fill-rule="evenodd" clip-rule="evenodd" d="M529 220C532.866 220 536 216.866 536 213C536 209.134 532.866 206 529 206C525.134 206 522 209.134 522 213C522 216.866 525.134 220 529 220Z" fill="#DDE3E9" />
        <path fill-rule="evenodd" clip-rule="evenodd" d="M529 216C530.657 216 532 214.657 532 213C532 211.343 530.657 210 529 210C527.343 210 526 211.343 526 213C526 214.657 527.343 216 529 216Z" fill="#F2F2F2" />
      </g>
      <g clip-path="url(#clip15_3_3411)">
        <rect x="412" y="248" width="131" height="42" rx="4" fill="white" />
        <g clip-path="url(#clip16_3_3411)">
          <rect x="451" y="260.6" width="73" height="6.3" rx="3" fill="#DDE3E9" />
          <rect x="451" y="271.1" width="49" height="6.3" rx="3" fill="#DDE3E9" />
        </g>
        <path fill-rule="evenodd" clip-rule="evenodd" d="M433 281C439.627 281 445 275.627 445 269C445 262.373 439.627 257 433 257C426.373 257 421 262.373 421 269C421 275.627 426.373 281 433 281Z" fill="#C5CFD6" />
      </g>
      <g clip-path="url(#clip17_3_3411)">
        <rect x="412" y="298" width="131" height="42" rx="4" fill="white" />
        <g clip-path="url(#clip18_3_3411)">
          <rect x="421" y="310.6" width="73" height="6.3" rx="3" fill="#DDE3E9" />
          <rect x="421" y="321.1" width="49" height="6.3" rx="3" fill="#AFB9C5" />
        </g>
        <path fill-rule="evenodd" clip-rule="evenodd" d="M529 326C532.866 326 536 322.866 536 319C536 315.134 532.866 312 529 312C525.134 312 522 315.134 522 319C522 322.866 525.134 326 529 326Z" fill="#DDE3E9" />
        <path fill-rule="evenodd" clip-rule="evenodd" d="M529 322C530.657 322 532 320.657 532 319C532 317.343 530.657 316 529 316C527.343 316 526 317.343 526 319C526 320.657 527.343 322 529 322Z" fill="#F2F2F2" />
      </g>
      <g clip-path="url(#clip19_3_3411)">
        <rect x="412" y="348" width="131" height="42" rx="4" fill="white" />
        <g clip-path="url(#clip20_3_3411)">
          <rect x="451" y="360.6" width="73" height="6.3" rx="3" fill="#DDE3E9" />
          <rect x="451" y="371.1" width="49" height="6.3" rx="3" fill="#DDE3E9" />
        </g>
        <path fill-rule="evenodd" clip-rule="evenodd" d="M433 381C439.627 381 445 375.627 445 369C445 362.373 439.627 357 433 357C426.373 357 421 362.373 421 369C421 375.627 426.373 381 433 381Z" fill="#C5CFD6" />
      </g>
    </g>
  </g>
  <g clip-path="url(#clip21_3_3411)">
    <rect x="464" y="183" width="335" height="346" rx="8" fill="#F2F2F2" />
    <rect x="713" y="226" width="70" height="81" rx="8" fill="white" />
    <path fill-rule="evenodd" clip-rule="evenodd" d="M748 273C756.837 273 764 265.837 764 257C764 248.163 756.837 241 748 241C739.163 241 732 248.163 732 257C732 265.837 739.163 273 748 273Z" fill="#DDE3E9" />
    <rect x="723" y="277" width="50" height="6" rx="3" fill="#DDE3E9" />
    <rect x="731" y="287" width="34" height="6" rx="3" fill="#DDE3E9" />
    <path d="M464 191C464 186.582 467.582 183 472 183H791C795.418 183 799 186.582 799 191V210H464V191Z" fill="#C5CFD6" />
    <path fill-rule="evenodd" clip-rule="evenodd" d="M477 201C479.209 201 481 199.209 481 197C481 194.791 479.209 193 477 193C474.791 193 473 194.791 473 197C473 199.209 474.791 201 477 201Z" fill="#F2F2F2" />
    <path fill-rule="evenodd" clip-rule="evenodd" d="M489 201C491.209 201 493 199.209 493 197C493 194.791 491.209 193 489 193C486.791 193 485 194.791 485 197C485 199.209 486.791 201 489 201Z" fill="#F2F2F2" />
    <path fill-rule="evenodd" clip-rule="evenodd" d="M501 201C503.209 201 505 199.209 505 197C505 194.791 503.209 193 501 193C498.791 193 497 194.791 497 197C497 199.209 498.791 201 501 201Z" fill="#F2F2F2" />
    <g clip-path="url(#clip22_3_3411)">
      <rect x="713" y="315" width="70" height="194" rx="8" fill="white" />
      <g clip-path="url(#clip23_3_3411)">
        <rect x="731" y="333" width="34" height="26" rx="4" fill="#DDE3E9" />
        <rect x="731" y="367" width="34" height="25" rx="4" fill="#AFB9C5" />
        <rect x="731" y="400" width="34" height="25" rx="4" fill="#DDE3E9" />
        <rect x="731" y="466" width="34" height="25" rx="4" fill="#DDE3E9" />
        <rect x="731" y="433" width="34" height="25" rx="4" fill="#C5CFD6" />
      </g>
    </g>
    <g clip-path="url(#clip24_3_3411)">
      <g clip-path="url(#clip25_3_3411)">
        <rect x="480" y="227" width="225" height="47" rx="4" fill="white" />
        <g clip-path="url(#clip26_3_3411)">
          <rect x="489" y="241.1" width="167" height="7.05" rx="3" fill="#DDE3E9" />
          <rect x="489" y="252.85" width="112.096" height="7.05" rx="3" fill="#DDE3E9" />
        </g>
        <path fill-rule="evenodd" clip-rule="evenodd" d="M680.954 257.5C684.82 257.5 687.954 254.366 687.954 250.5C687.954 246.634 684.82 243.5 680.954 243.5C677.088 243.5 673.954 246.634 673.954 250.5C673.954 254.366 677.088 257.5 680.954 257.5Z" fill="#DDE3E9" />
        <path fill-rule="evenodd" clip-rule="evenodd" d="M680.954 253.5C682.611 253.5 683.954 252.157 683.954 250.5C683.954 248.843 682.611 247.5 680.954 247.5C679.297 247.5 677.954 248.843 677.954 250.5C677.954 252.157 679.297 253.5 680.954 253.5Z" fill="#F2F2F2" />
      </g>
      <g clip-path="url(#clip27_3_3411)">
        <rect x="480" y="282" width="225" height="39" rx="4" fill="white" />
        <g clip-path="url(#clip28_3_3411)">
          <rect x="489" y="293.7" width="167" height="5.85" rx="2.925" fill="#DDE3E9" />
          <rect x="489" y="303.45" width="112.096" height="5.85" rx="2.925" fill="#DDE3E9" />
        </g>
        <path fill-rule="evenodd" clip-rule="evenodd" d="M680.954 308.5C684.82 308.5 687.954 305.366 687.954 301.5C687.954 297.634 684.82 294.5 680.954 294.5C677.088 294.5 673.954 297.634 673.954 301.5C673.954 305.366 677.088 308.5 680.954 308.5Z" fill="#DDE3E9" />
        <path fill-rule="evenodd" clip-rule="evenodd" d="M680.954 304.5C682.611 304.5 683.954 303.157 683.954 301.5C683.954 299.843 682.611 298.5 680.954 298.5C679.297 298.5 677.954 299.843 677.954 301.5C677.954 303.157 679.297 304.5 680.954 304.5Z" fill="#F2F2F2" />
      </g>
      <g clip-path="url(#clip29_3_3411)">
        <rect x="480" y="329" width="225" height="39" rx="4" fill="white" />
        <g clip-path="url(#clip30_3_3411)">
          <rect x="489" y="340.7" width="167" height="5.85" rx="2.925" fill="#DDE3E9" />
          <rect x="489" y="350.45" width="112.096" height="5.85" rx="2.925" fill="#DDE3E9" />
        </g>
        <path fill-rule="evenodd" clip-rule="evenodd" d="M680.954 355.5C684.82 355.5 687.954 352.366 687.954 348.5C687.954 344.634 684.82 341.5 680.954 341.5C677.088 341.5 673.954 344.634 673.954 348.5C673.954 352.366 677.088 355.5 680.954 355.5Z" fill="#DDE3E9" />
        <path fill-rule="evenodd" clip-rule="evenodd" d="M680.954 351.5C682.611 351.5 683.954 350.157 683.954 348.5C683.954 346.843 682.611 345.5 680.954 345.5C679.297 345.5 677.954 346.843 677.954 348.5C677.954 350.157 679.297 351.5 680.954 351.5Z" fill="#AFB9C5" />
      </g>
      <g clip-path="url(#clip31_3_3411)">
        <rect x="480" y="470" width="225" height="39" rx="4" fill="white" />
        <g clip-path="url(#clip32_3_3411)">
          <rect x="489" y="481.7" width="167" height="5.85" rx="2.925" fill="#DDE3E9" />
          <rect x="489" y="491.45" width="112.096" height="5.85" rx="2.925" fill="#DDE3E9" />
        </g>
        <path fill-rule="evenodd" clip-rule="evenodd" d="M680.954 496.5C684.82 496.5 687.954 493.366 687.954 489.5C687.954 485.634 684.82 482.5 680.954 482.5C677.088 482.5 673.954 485.634 673.954 489.5C673.954 493.366 677.088 496.5 680.954 496.5Z" fill="#DDE3E9" />
        <path fill-rule="evenodd" clip-rule="evenodd" d="M680.954 492.5C682.611 492.5 683.954 491.157 683.954 489.5C683.954 487.843 682.611 486.5 680.954 486.5C679.297 486.5 677.954 487.843 677.954 489.5C677.954 491.157 679.297 492.5 680.954 492.5Z" fill="#F2F2F2" />
      </g>
      <g clip-path="url(#clip33_3_3411)">
        <rect x="480" y="423" width="225" height="39" rx="4" fill="white" />
        <g clip-path="url(#clip34_3_3411)">
          <rect x="489" y="434.7" width="167" height="5.85" rx="2.925" fill="#DDE3E9" />
          <rect x="489" y="444.45" width="112.096" height="5.85" rx="2.925" fill="#DDE3E9" />
        </g>
        <path fill-rule="evenodd" clip-rule="evenodd" d="M680.954 449.5C684.82 449.5 687.954 446.366 687.954 442.5C687.954 438.634 684.82 435.5 680.954 435.5C677.088 435.5 673.954 438.634 673.954 442.5C673.954 446.366 677.088 449.5 680.954 449.5Z" fill="#DDE3E9" />
        <path fill-rule="evenodd" clip-rule="evenodd" d="M680.954 445.5C682.611 445.5 683.954 444.157 683.954 442.5C683.954 440.843 682.611 439.5 680.954 439.5C679.297 439.5 677.954 440.843 677.954 442.5C677.954 444.157 679.297 445.5 680.954 445.5Z" fill="#F2F2F2" />
      </g>
      <g clip-path="url(#clip35_3_3411)">
        <rect x="480" y="376" width="225" height="39" rx="4" fill="white" />
        <g clip-path="url(#clip36_3_3411)">
          <rect x="489" y="387.7" width="167" height="5.85" rx="2.925" fill="#DDE3E9" />
          <rect x="489" y="397.45" width="112.096" height="5.85" rx="2.925" fill="#DDE3E9" />
        </g>
        <path fill-rule="evenodd" clip-rule="evenodd" d="M680.954 402.5C684.82 402.5 687.954 399.366 687.954 395.5C687.954 391.634 684.82 388.5 680.954 388.5C677.088 388.5 673.954 391.634 673.954 395.5C673.954 399.366 677.088 402.5 680.954 402.5Z" fill="#DDE3E9" />
        <path fill-rule="evenodd" clip-rule="evenodd" d="M680.954 398.5C682.611 398.5 683.954 397.157 683.954 395.5C683.954 393.843 682.611 392.5 680.954 392.5C679.297 392.5 677.954 393.843 677.954 395.5C677.954 397.157 679.297 398.5 680.954 398.5Z" fill="#F2F2F2" />
      </g>
    </g>
  </g>
  <path fill-rule="evenodd" clip-rule="evenodd" d="M881.986 353.376C878.041 350.701 872.796 350 868.076 350C849.64 350 832.311 356.84 817.341 367.032C809.138 372.616 801.8 379.728 795.322 387.132C791.582 391.407 788.248 396.03 785.887 401.173C784.294 404.644 783.201 408.261 782.46 411.991C781.557 416.537 780.839 421.175 780.515 425.797C780.387 427.617 779.33 437.274 782.356 437.438C782.338 437.676 782.334 437.903 782.353 438.106C775.782 448.38 771.723 460.42 767.958 471.835C764.683 481.769 761.764 491.786 759.87 502.063C757.375 515.592 755.737 529.326 754.958 543.05C754.791 545.999 754.676 548.95 754.577 551.903C754.493 554.422 754.408 556.941 754.325 559.461C754.233 562.284 753.736 565.534 754.185 568.34C754.576 570.784 756.691 570.414 756.785 567.982C756.898 565.045 756.879 562.102 757.008 559.163C757.179 555.262 757.355 551.361 757.546 547.461C758.875 520.369 763.86 493.675 773.061 468.084C776.785 457.728 781.051 447.925 786.535 438.345C791.356 429.922 797.156 421.767 803.084 414.173C808.845 406.792 814.836 399.583 821.895 393.33C827.624 388.256 833.926 383.835 840.404 379.722C848.631 374.498 856.843 369.401 865.755 365.391C870.388 363.307 875.108 361.441 879.777 359.44C880.617 359.081 881.517 358.732 882.325 358.315C885.02 356.925 884.133 354.832 881.986 353.376" fill="#EBEEF2" />
  <path fill-rule="evenodd" clip-rule="evenodd" d="M807.818 448C815.295 448 821.949 448.972 828.838 451.943C834.785 454.508 840.205 457.903 845.467 461.599C852.868 466.798 858.698 472.848 862.779 480.865C865.217 485.654 867.006 492.431 865.368 497.655C863.44 503.807 858.144 508.939 851.169 507.855C846.856 507.185 842.903 504.33 839.625 501.643C835.703 498.428 832.564 494.563 829.972 490.27C825.744 483.267 823.26 475.351 819.668 468.033C817.964 464.56 816.317 461.063 814.275 457.762C813.265 456.128 812.189 454.509 810.656 453.294C809.836 452.644 806.378 451.52 807.7 450.061C788.31 450.315 771.132 465.207 767.409 483.641C767.063 485.359 766.792 487.091 766.505 488.82C766.325 489.911 766.398 493.937 765.422 494.634C763.27 496.172 764.174 491.499 764.267 490.826C764.506 489.087 764.76 487.35 765.027 485.615C766.481 476.181 770.681 467.411 777.685 460.683C785.694 452.99 796.501 448 807.818 448" fill="#EBEEF2" />
  <path fill-rule="evenodd" clip-rule="evenodd" d="M74.9379 480.736C93.6043 512.052 115.345 542.374 128.401 576.613C127.875 572.577 127.317 568.545 126.692 564.52C123.38 543.179 119.262 521.994 114.936 500.835C112.733 490.062 110.402 479.327 108.012 468.594C106.727 462.829 105.457 457.061 104.145 451.302C103.827 449.906 103.554 447.469 103.157 445C115.845 486.637 128.081 528.305 137.031 570.942C138.205 576.538 139.205 582.124 140.024 587.7C140.304 586.428 140.58 585.156 140.881 583.887C144.503 568.68 149.935 553.594 156.403 539.374C159.495 532.575 163.046 525.924 167.228 519.726C169.836 515.863 175.986 511.271 178.364 507.314C165.355 531.176 160.657 561.032 153.145 586.973C151.312 593.304 149.467 599.624 147.659 605.955C158.987 583.237 176.563 564.571 201 556.483C171.42 576.027 153.678 610.254 141.722 645.26C141.683 645.675 141.636 646.09 141.595 646.506C145.114 639.829 149.545 633.789 155.551 629.56C168.407 620.504 182.667 623.142 195.137 630.91C185.35 624.689 167.663 630.354 159.428 636.677C153.533 641.203 148.495 647.275 144.12 653.2C143.072 654.62 141.641 656.277 140.13 658.044C138.012 671.795 134.56 685.452 129.672 699C130.479 695.111 129.896 688.892 130.12 685.993C130.144 685.679 130.164 685.365 130.188 685.053C129.445 688.019 128.727 690.951 128.036 693.837C129.41 688.331 130.156 682.583 130.739 676.776C130.889 674.281 131.036 671.785 131.19 669.29C131.141 664.553 130.946 659.799 130.616 655.036C129.447 650.408 128.137 646.042 127.056 642.411C123.159 629.31 117.444 616.76 110.411 605.051C103.994 594.366 96.3124 584.688 87.4448 575.935C82.6643 571.217 77.6614 566.725 72.7289 562.17C70.9453 560.523 67.7572 556.474 65 554.363C85.0805 565.434 105.749 577.41 120.398 595.248C118.68 588.653 116.815 582.151 114.842 575.78C104.831 543.454 92.1913 509.953 74.9379 480.736Z" fill="#DDE3E9" />
  <path fill-rule="evenodd" clip-rule="evenodd" d="M95 658C95 693.899 97.8428 723 136 723C174.157 723 177 693.899 177 658" fill="#C5CFD6" />
  <path fill-rule="evenodd" clip-rule="evenodd" d="M318.007 164.986C318.003 164.996 317.999 165.006 317.993 165.018C317.999 165.008 318.007 164.968 318.007 164.986" fill="#C5CFD6" />
  <path fill-rule="evenodd" clip-rule="evenodd" d="M317.998 165.001C317.998 165.003 317.996 165.007 317.996 165.011C317.996 165.001 318.014 164.971 317.998 165.001" fill="#C5CFD6" />
  <path fill-rule="evenodd" clip-rule="evenodd" d="M318.067 164.832C318.053 164.872 318.035 164.91 318.019 164.95C318.027 164.93 318.035 164.914 318.043 164.894C317.835 165.414 317.967 165.076 318.067 164.832" fill="#C5CFD6" />
  <path fill-rule="evenodd" clip-rule="evenodd" d="M318.022 164.953C318.014 164.971 318.006 164.991 317.998 165.009C317.94 165.121 318.022 164.953 318.022 164.953" fill="#C5CFD6" />
  <path fill-rule="evenodd" clip-rule="evenodd" d="M317.999 165.002C317.999 165 317.999 165 318.001 164.998C317.999 165 317.999 165 317.999 165.002" fill="#C5CFD6" />
  <path fill-rule="evenodd" clip-rule="evenodd" d="M317.99 165.016C317.978 165.04 318.046 164.924 317.99 165.016Z" fill="#C5CFD6" />
  <path fill-rule="evenodd" clip-rule="evenodd" d="M317.998 165.002L318.002 164.998C318 165 318 165.002 317.998 165.002" fill="#C5CFD6" />
  <rect x="270" y="113" width="95" height="63" rx="4" fill="#DDE3E9" />
  <path fill-rule="evenodd" clip-rule="evenodd" d="M306 131L278 176H334L306 131Z" fill="#AFB9C5" />
  <path fill-rule="evenodd" clip-rule="evenodd" d="M333.5 143L309 176H358L333.5 143Z" fill="#C5CFD6" />
  <path fill-rule="evenodd" clip-rule="evenodd" d="M344 143C348.971 143 353 138.971 353 134C353 129.029 348.971 125 344 125C339.029 125 335 129.029 335 134C335 138.971 339.029 143 344 143Z" fill="white" />
  <path fill-rule="evenodd" clip-rule="evenodd" d="M794.993 591.986C794.997 591.996 795.001 592.006 795.007 592.018C795.001 592.008 794.993 591.968 794.993 591.986" fill="#C5CFD6" />
  <path fill-rule="evenodd" clip-rule="evenodd" d="M795.002 592.001C795.002 592.003 795.004 592.007 795.004 592.011C795.004 592.001 794.986 591.971 795.002 592.001" fill="#C5CFD6" />
  <path fill-rule="evenodd" clip-rule="evenodd" d="M794.933 591.832C794.947 591.872 794.965 591.91 794.981 591.95C794.973 591.93 794.965 591.914 794.957 591.894C795.165 592.414 795.033 592.076 794.933 591.832" fill="#C5CFD6" />
  <path fill-rule="evenodd" clip-rule="evenodd" d="M794.978 591.953C794.986 591.971 794.994 591.991 795.002 592.009C795.06 592.121 794.978 591.953 794.978 591.953" fill="#C5CFD6" />
  <path fill-rule="evenodd" clip-rule="evenodd" d="M795.001 592.002C795.001 592 795.001 592 794.999 591.998C795.001 592 795.001 592 795.001 592.002" fill="#C5CFD6" />
  <path fill-rule="evenodd" clip-rule="evenodd" d="M795.01 592.016C795.022 592.04 794.954 591.924 795.01 592.016Z" fill="#C5CFD6" />
  <path fill-rule="evenodd" clip-rule="evenodd" d="M795.002 592.002L794.998 591.998C795 592 795 592.002 795.002 592.002" fill="#C5CFD6" />
  <rect width="142" height="94" rx="4" transform="matrix(-1 0 0 1 866 515)" fill="#DDE3E9" />
  <path fill-rule="evenodd" clip-rule="evenodd" d="M813.274 542L854.329 609H772.219L813.274 542Z" fill="#AFB9C5" />
  <path fill-rule="evenodd" clip-rule="evenodd" d="M770.944 559.946L807.239 609H734.649L770.944 559.946Z" fill="#C5CFD6" />
  <path fill-rule="evenodd" clip-rule="evenodd" d="M755.5 560C748.044 560 742 553.956 742 546.5C742 539.044 748.044 533 755.5 533C762.956 533 769 539.044 769 546.5C769 553.956 762.956 560 755.5 560Z" fill="white" />
  <path fill-rule="evenodd" clip-rule="evenodd" d="M306.558 325.486C313.444 329.557 320.209 331.524 323.385 330.721C331.349 328.708 332.081 300.129 325.919 288.863C319.757 277.597 288.08 272.686 286.484 295.008C285.93 302.756 289.246 309.67 294.146 315.312L285.36 355.481H310.88L306.558 325.486Z" fill="#B28B67" />
  <path fill-rule="evenodd" clip-rule="evenodd" d="M307.834 297.474C310.041 294.249 312.16 291.79 314.917 290.362C326.137 290.536 327.45 288.563 327.45 281.913C325.638 280.641 319.244 278.499 312.084 277.897C308.431 276.871 304.104 277.064 299.935 278.775C294.79 280.207 290.433 283.291 288.508 289.066C281.545 300.853 286.83 313.124 293.952 317.315C295.848 315.112 297.502 312.977 298.979 310.933C297.793 309.796 297.057 308.21 297.057 306.456C297.057 302.999 299.913 300.197 303.437 300.197C303.696 300.197 303.951 300.212 304.202 300.242C304.361 304.563 305.013 319.184 306.727 324.263C308.748 330.25 320.539 331.72 324.651 331.72C328.203 331.72 328.082 328.421 327.996 326.056C327.983 325.716 327.971 325.394 327.971 325.105C327.971 324.501 327.17 324.503 326.265 324.504C325.09 324.507 323.74 324.509 323.74 323.187C323.74 321.745 325.771 320.639 327.588 319.65C328.722 319.032 329.773 318.46 330.195 317.88C331.528 316.05 331.977 313.581 329.966 313.581C328.867 313.581 327.359 314.203 325.545 314.951C322.805 316.08 319.368 317.496 315.586 317.496C309.338 317.496 307.852 297.721 307.834 297.474Z" fill="#191847" />
  <path fill-rule="evenodd" clip-rule="evenodd" d="M281.107 457.703L319.658 590.411L347.785 688.224H368.3L338.411 457.703H281.107Z" fill="#191847" />
  <path fill-rule="evenodd" clip-rule="evenodd" d="M270.797 457.703C269.905 526.102 266.865 563.409 265.928 569.624C264.992 575.838 250.836 615.372 223.459 688.224H244.712C279.564 618.335 299.019 578.801 303.078 569.624C307.136 560.446 319.662 523.139 338.527 457.703H270.797Z" fill="#2F3676" />
  <g clip-path="url(#clip37_3_3411)">
    <path fill-rule="evenodd" clip-rule="evenodd" d="M221.56 707L222.623 685.095L244.953 685.095C260.836 696.048 286.423 702.828 286.423 702.828V707H246.017L232.193 704.914V707H221.56Z" fill="#191847" />
  </g>
  <g clip-path="url(#clip38_3_3411)">
    <path fill-rule="evenodd" clip-rule="evenodd" d="M344.907 707L345.97 685.095L368.3 685.095C384.182 696.048 409.77 702.828 409.77 702.828V707H369.363L355.54 704.914V707H344.907Z" fill="#191847" />
  </g>
  <path fill-rule="evenodd" clip-rule="evenodd" d="M412.279 328.321L371.975 340.19L382.265 357.006L413.603 338.915C428.231 338.061 435.143 336.645 434.338 334.669C433.659 333.003 432.044 332.719 430.556 332.458C429.397 332.254 428.315 332.064 427.814 331.245C426.669 329.373 430.682 324.502 434.693 320.04C438.703 315.577 435.494 315.37 433.555 315.727C426.89 318.382 419.798 322.58 412.279 328.321ZM402.332 434.329L368.414 409.897L360.916 428.079L394.504 441.742C404.003 452.688 409.315 457.251 410.439 455.431C411.387 453.896 410.646 452.46 409.964 451.137C409.432 450.106 408.936 449.145 409.301 448.259C410.135 446.235 416.516 446.448 422.563 446.905C428.61 447.361 426.847 444.721 425.389 443.418C419.217 439.794 411.531 436.764 402.332 434.329Z" fill="#B28B67" />
  <path fill-rule="evenodd" clip-rule="evenodd" d="M315.73 344.097C334.2 377.882 360.91 403.781 399.632 430.704L384.97 446.92C341.736 431.159 318.918 421.65 307.712 389.73C304.9 381.719 302.934 356.181 301.248 342.743L315.73 344.097Z" fill="#2026A2" />
  <path fill-rule="evenodd" clip-rule="evenodd" d="M264.093 456.66H345.97C345.97 456.66 318.15 373.43 317.547 342.413C317.527 341.358 315.542 339.501 314.664 339.744C305.032 342.413 294.049 337.748 294.049 337.748C274.639 368.372 267.926 406.075 264.093 456.66Z" fill="#F2F2F2" />
  <path fill-rule="evenodd" clip-rule="evenodd" d="M314.587 384.469C327.375 438.278 326.785 482.326 298.553 482.326H254.897C247.963 436.616 266.186 373.238 283.08 341.27C283.725 340.05 285.099 337.748 288.334 337.748H301.019C301.025 337.765 301.031 337.781 301.036 337.798C304.854 337.828 309.057 337.965 313.61 338.114C337.047 338.877 369.726 339.941 406.498 328.361L410.833 349.612C377.643 370.552 344.036 386.772 314.587 384.469Z" fill="#1F28CF" />
  <defs>
    <clipPath id="clip0_3_3411">
      <rect width="1009.1" height="272.541" fill="white" transform="translate(59.4486 416.965)" />
    </clipPath>
    <clipPath id="clip1_3_3411">
      <rect width="159" height="302" fill="white" transform="translate(332 132)" />
    </clipPath>
    <clipPath id="clip2_3_3411">
      <rect width="131" height="204" fill="white" transform="translate(346 160)" />
    </clipPath>
    <clipPath id="clip3_3_3411">
      <rect width="131" height="54" fill="white" transform="translate(346 160)" />
    </clipPath>
    <clipPath id="clip4_3_3411">
      <rect width="73" height="21.6" fill="white" transform="translate(385 176.2)" />
    </clipPath>
    <clipPath id="clip5_3_3411">
      <rect width="131" height="42" fill="white" transform="translate(346 222)" />
    </clipPath>
    <clipPath id="clip6_3_3411">
      <rect width="73" height="16.8" fill="white" transform="translate(385 234.6)" />
    </clipPath>
    <clipPath id="clip7_3_3411">
      <rect width="131" height="42" fill="white" transform="translate(346 272)" />
    </clipPath>
    <clipPath id="clip8_3_3411">
      <rect width="73" height="16.8" fill="white" transform="translate(385 284.6)" />
    </clipPath>
    <clipPath id="clip9_3_3411">
      <rect width="131" height="42" fill="white" transform="translate(346 322)" />
    </clipPath>
    <clipPath id="clip10_3_3411">
      <rect width="73" height="16.8" fill="white" transform="translate(385 334.6)" />
    </clipPath>
    <clipPath id="clip11_3_3411">
      <rect width="207" height="302" fill="white" transform="translate(350 158)" />
    </clipPath>
    <clipPath id="clip12_3_3411">
      <rect width="131" height="204" fill="white" transform="translate(412 186)" />
    </clipPath>
    <clipPath id="clip13_3_3411">
      <rect width="131" height="54" fill="white" transform="translate(412 186)" />
    </clipPath>
    <clipPath id="clip14_3_3411">
      <rect width="73" height="21.6" fill="white" transform="translate(421 202.2)" />
    </clipPath>
    <clipPath id="clip15_3_3411">
      <rect width="131" height="42" fill="white" transform="translate(412 248)" />
    </clipPath>
    <clipPath id="clip16_3_3411">
      <rect width="73" height="16.8" fill="white" transform="translate(451 260.6)" />
    </clipPath>
    <clipPath id="clip17_3_3411">
      <rect width="131" height="42" fill="white" transform="translate(412 298)" />
    </clipPath>
    <clipPath id="clip18_3_3411">
      <rect width="73" height="16.8" fill="white" transform="translate(421 310.6)" />
    </clipPath>
    <clipPath id="clip19_3_3411">
      <rect width="131" height="42" fill="white" transform="translate(412 348)" />
    </clipPath>
    <clipPath id="clip20_3_3411">
      <rect width="73" height="16.8" fill="white" transform="translate(451 360.6)" />
    </clipPath>
    <clipPath id="clip21_3_3411">
      <rect width="335" height="346" fill="white" transform="translate(464 183)" />
    </clipPath>
    <clipPath id="clip22_3_3411">
      <rect width="70" height="194" fill="white" transform="translate(713 315)" />
    </clipPath>
    <clipPath id="clip23_3_3411">
      <rect width="34" height="158" fill="white" transform="translate(731 333)" />
    </clipPath>
    <clipPath id="clip24_3_3411">
      <rect width="225" height="282" fill="white" transform="translate(480 227)" />
    </clipPath>
    <clipPath id="clip25_3_3411">
      <rect width="225" height="47" fill="white" transform="translate(480 227)" />
    </clipPath>
    <clipPath id="clip26_3_3411">
      <rect width="167" height="18.8" fill="white" transform="translate(489 241.1)" />
    </clipPath>
    <clipPath id="clip27_3_3411">
      <rect width="225" height="39" fill="white" transform="translate(480 282)" />
    </clipPath>
    <clipPath id="clip28_3_3411">
      <rect width="167" height="15.6" fill="white" transform="translate(489 293.7)" />
    </clipPath>
    <clipPath id="clip29_3_3411">
      <rect width="225" height="39" fill="white" transform="translate(480 329)" />
    </clipPath>
    <clipPath id="clip30_3_3411">
      <rect width="167" height="15.6" fill="white" transform="translate(489 340.7)" />
    </clipPath>
    <clipPath id="clip31_3_3411">
      <rect width="225" height="39" fill="white" transform="translate(480 470)" />
    </clipPath>
    <clipPath id="clip32_3_3411">
      <rect width="167" height="15.6" fill="white" transform="translate(489 481.7)" />
    </clipPath>
    <clipPath id="clip33_3_3411">
      <rect width="225" height="39" fill="white" transform="translate(480 423)" />
    </clipPath>
    <clipPath id="clip34_3_3411">
      <rect width="167" height="15.6" fill="white" transform="translate(489 434.7)" />
    </clipPath>
    <clipPath id="clip35_3_3411">
      <rect width="225" height="39" fill="white" transform="translate(480 376)" />
    </clipPath>
    <clipPath id="clip36_3_3411">
      <rect width="167" height="15.6" fill="white" transform="translate(489 387.7)" />
    </clipPath>
    <clipPath id="clip37_3_3411">
      <rect width="64.8633" height="41.7233" fill="white" transform="translate(221.56 665.277)" />
    </clipPath>
    <clipPath id="clip38_3_3411">
      <rect width="64.8633" height="41.7233" fill="white" transform="translate(344.907 665.277)" />
    </clipPath>
  </defs>
</svg>