<svg xmlns="http://www.w3.org/2000/svg" fill="none" height="600" width="600" viewBox="0 0 400 400">
  <g transform="matrix(2,0,0,2,0,0)">
    <path fill="#d7d7d7" d="M169.583 71.947C169.583 71.947 156.932 81.274 151.518 89.994C148.683 86.9436 146.32 83.4859 144.508 79.736C138.524 67.521 130.945 67.336 127.601 66.343C125.455 69.043 121.409 71.586 117.819 73.143C115.359 82.5561 113.781 92.1781 113.107 101.884C112.98 103.642 113.37 105.398 114.228 106.937L130.565 135.737C134.526 134.637 138.235 132.779 141.488 130.266C137.468 118.947 134.122 108.477 127.915 101.147C129.153 98.742 130.869 95.593 132.902 91.342C135.58 95.842 140.082 100.309 145.667 104.488C147.446 105.813 149.657 106.421 151.863 106.192C154.069 105.963 156.109 104.914 157.578 103.253L178.264 79.888C175.879 76.734 172.937 74.0427 169.583 71.947V71.947Z"></path>
    <path fill="#353535" d="M107.808 47.385C107.921 48.316 108.681 48.829 110.391 49.133C110.658 48.563 110.905 47.993 111.132 47.423C109.46 47.936 108.017 48.126 107.808 47.385Z"></path>
    <path fill="#353535" d="M122.473 47.461C122.473 47.461 125.417 42.333 120.82 39.578C111.968 34.278 110.03 40.623 110.03 40.623C110.52 40.5636 111.018 40.6023 111.493 40.737C111.132 41.724 111.093 43.073 111.702 42.389C112.785 41.211 113.943 42.978 111.854 44.422C112.871 50.2572 115.239 55.7737 118.768 60.531C119.751 61.9686 121.139 63.0824 122.755 63.7316C124.371 64.3807 126.144 64.5361 127.848 64.178C129.007 63.987 130.096 63.5 131.012 62.7642C131.927 62.0284 132.637 61.0686 133.072 59.978C136.739 50.558 122.473 47.461 122.473 47.461Z"></path>
    <path fill="#353535" d="M107.048 62.981C106.505 63.4207 105.939 63.8322 105.354 64.214C105.354 64.214 107.332 66.114 110.03 68.224L107.048 62.981Z"></path>
    <path fill="#353535" d="M65.978 41.781L74.944 38.571L65.218 19.651L46.431 26.376L48.586 36.429L35.052 31.675L34.159 33.784L49.735 41.784L50.9 47.2L52.382 46.669C51.907 46.155 52.647 45.795 54.832 45.776L64.672 42.261C64.287 41.135 64.192 40.281 65.978 41.781Z"></path>
    <path fill="#353535" d="M143.786 137.56C142.343 135.49 141.486 134.389 140.786 133.288C138.389 134.311 136.113 135.598 134 137.124L135.064 139.004C137.021 149.281 138.901 153.118 141.808 157.677C143.52 153.327 144.451 141.359 143.786 137.56Z"></path>
    <path fill="#353535" d="M175.32 67.73C173.838 69.763 173.04 70.921 172.243 71.93C173.978 73.8695 175.921 75.6132 178.036 77.13L179.518 75.516C188.6 70.333 191.638 67.312 195 63.1C190.327 62.886 178.7 65.869 175.32 67.73Z"></path>
    <path fill="#353535" d="M50.5 164.687C48.9796 162.264 46.8158 160.31 44.25 159.045C43.9703 161.907 44.5953 164.784 46.0369 167.271C47.4785 169.759 49.6641 171.732 52.286 172.912C52.4727 170.057 51.8539 167.207 50.5 164.687V164.687Z"></path>
    <path fill="#353535" d="M67.611 93.736C66.3366 97.306 64.0843 100.446 61.111 102.797C60.0652 99.1541 60.0614 95.291 61.1 91.646C62.3732 88.0754 64.6258 84.9353 67.6 82.585C68.643 86.2283 68.6468 90.0906 67.611 93.736Z"></path>
    <path fill="#353535" d="M34.463 66.742C33.2841 65.5201 32.4687 63.9941 32.108 62.335C33.7789 62.6341 35.3321 63.3964 36.591 64.535C37.7695 65.7572 38.5848 67.283 38.946 68.942C37.2751 68.6429 35.7219 67.8806 34.463 66.742V66.742Z"></path>
    <path fill="#353535" d="M47.02 126.3C44.2327 124.143 41.6622 121.719 39.345 119.063C38.6216 121.611 38.3578 124.267 38.566 126.908C39.1468 131.567 41.0225 135.97 43.98 139.617C46.2018 135.543 47.2539 130.934 47.02 126.3Z"></path>
    <g>
      <path stroke="#353535" stroke-linecap="round" stroke-linejoin="round" stroke-width=".75" d="M83.245 27.268C94.0028 28.0141 104.291 31.964 112.784 38.609"></path>
      <path stroke="#353535" stroke-linecap="round" stroke-linejoin="round" stroke-width=".75" d="M121.447 119.647C115.567 126.183 108.203 131.21 99.9746 134.305C91.746 137.4 82.8941 138.472 74.1646 137.431C65.4351 136.39 57.0836 133.266 49.8136 128.323C42.5437 123.38 36.5683 116.762 32.3907 109.026C28.2131 101.291 25.9558 92.6647 25.8088 83.8745C25.6618 75.0844 27.6295 66.3876 31.5461 58.5169C35.4627 50.6461 41.2136 43.8319 48.3142 38.6483C55.4148 33.4646 63.6571 30.0634 72.347 28.731"></path>
      <path stroke="#353535" stroke-linecap="round" stroke-linejoin="round" stroke-width=".75" d="M134.459 93.66C133.673 97.6266 132.45 101.494 130.812 105.191"></path>
      <path stroke="#353535" stroke-linecap="round" stroke-linejoin="round" stroke-width=".75" d="M131.515 62.373C132.263 64.2171 132.909 66.1006 133.452 68.015"></path>
      <path stroke="#353535" stroke-linecap="round" stroke-linejoin="round" stroke-width=".75" d="M88.925 61.556C101.843 51.356 107.807 50.235 110.925 52.21C113.615 53.916 115.418 57.473 117.256 58.264"></path>
      <path stroke="#353535" stroke-linecap="round" stroke-linejoin="round" stroke-width=".75" d="M125.36 64.368C126.074 65.0639 126.829 65.7171 127.62 66.324"></path>
      <path stroke="#353535" stroke-linecap="round" stroke-linejoin="round" stroke-width=".75" d="M110.03 40.623C110.03 40.623 111.968 34.276 120.82 39.578C125.42 42.331 122.473 47.461 122.473 47.461C122.473 47.461 136.725 50.552 133.073 59.98C132.637 61.0705 131.928 62.0301 131.012 62.7659C130.097 63.5016 129.008 63.9887 127.849 64.18C126.144 64.539 124.372 64.3841 122.755 63.7349C121.139 63.0857 119.752 61.9713 118.769 60.533C115.241 55.7751 112.874 50.2589 111.855 44.424C113.944 42.98 112.775 41.204 111.703 42.391C111.089 43.07 111.133 41.727 111.494 40.739C111.018 40.6046 110.521 40.5651 110.03 40.623V40.623Z"></path>
      <path stroke="#353535" stroke-linecap="round" stroke-linejoin="round" stroke-width=".75" d="M110.391 49.133C106.364 48.411 107.617 46.549 110.03 40.623"></path>
      <path stroke="#353535" stroke-linecap="round" stroke-linejoin="round" stroke-width=".75" d="M109.156 51.526C109.92 50.2153 110.574 48.844 111.113 47.426C109.441 47.939 107.997 48.126 107.788 47.369"></path>
      <path stroke="#353535" stroke-linecap="round" stroke-linejoin="round" stroke-width=".75" d="M101.6 53.16C95.5 49.931 79.146 38.02 79.146 38.02C80.191 34.145 82.146 31.333 85.092 29.681C85.092 29.681 99.567 40.205 108.324 44.84"></path>
      <path stroke="#353535" stroke-linecap="round" stroke-linejoin="round" stroke-width=".75" d="M132.92 91.323C135.599 95.823 140.1 100.291 145.686 104.469C147.465 105.794 149.676 106.402 151.882 106.173C154.088 105.945 156.127 104.895 157.596 103.234L178.264 79.888C175.864 76.7416 172.925 74.0464 169.583 71.928C169.583 71.928 152.771 84.314 149.6 93.888"></path>
      <path stroke="#353535" stroke-linecap="round" stroke-linejoin="round" stroke-width=".75" d="M127.905 101.258C134.136 108.591 137.461 118.906 141.488 130.247C138.235 132.76 134.526 134.618 130.565 135.718L114.228 106.938C113.369 105.399 112.98 103.643 113.107 101.885C113.78 92.1728 115.357 82.5445 117.818 73.125C121.409 71.567 125.455 69.025 127.601 66.325C130.945 67.313 138.524 67.503 144.508 79.718C146.317 83.4643 148.677 86.9188 151.508 89.967"></path>
      <path stroke="#353535" stroke-linecap="round" stroke-linejoin="round" stroke-width=".75" d="M126.576 103.956C127.62 101.524 130.134 97.12 132.276 92.71C139.418 77.997 135.276 74.835 134.076 73.315"></path>
      <path stroke="#353535" stroke-linecap="round" stroke-linejoin="round" stroke-width=".75" d="M105.354 64.214C105.939 63.8322 106.505 63.4207 107.048 62.981L110.03 68.224"></path>
      <path stroke="#353535" stroke-linecap="round" stroke-linejoin="round" stroke-width=".75" d="M117.837 73.125C113.865 71.472 108.48 67.213 105.354 64.214C102.045 66.4765 98.6081 68.5466 95.061 70.414C90.597 72.541 88.055 71.114 83.378 67.773C77.968 63.911 70.233 58.313 70.233 58.313C70.4943 56.3355 71.2193 54.4478 72.3489 52.8038C73.4785 51.1598 74.9807 49.806 76.733 48.853C86.3 55.269 92 59.163 92 59.163"></path>
      <path stroke="#353535" stroke-linecap="round" stroke-linejoin="round" stroke-width=".75" d="M76.027 29.225C77.227 30.402 78.707 28.976 77.622 27.762C76.807 26.849 75.798 25.806 75.134 25.122C74.942 24.8923 74.668 24.7465 74.3702 24.7156C74.0724 24.6847 73.7743 24.7711 73.5393 24.9566C73.3042 25.142 73.1508 25.4118 73.1115 25.7086C73.0722 26.0054 73.1503 26.3058 73.329 26.546C73.852 27.181 74.925 28.142 76.027 29.225Z"></path>
      <path stroke="#353535" stroke-linecap="round" stroke-linejoin="round" stroke-width=".75" d="M80 23.317C79.6 22.842 79.3 22.496 78.917 22.044C78.7348 21.8089 78.468 21.6542 78.1734 21.6128C77.8788 21.5714 77.5797 21.6465 77.3397 21.8223C77.0997 21.9981 76.9377 22.2606 76.8883 22.5539C76.8389 22.8472 76.9059 23.1483 77.075 23.393C77.4926 23.9363 77.9449 24.4521 78.429 24.937"></path>
      <path stroke="#353535" stroke-linecap="round" stroke-linejoin="round" stroke-width=".75" d="M78.382 24.989C77.964 24.533 76.975 23.527 76.559 23.07C76.3725 22.8256 76.0966 22.6653 75.792 22.6243C75.4873 22.5833 75.1789 22.665 74.9345 22.8515C74.6901 23.0379 74.5298 23.3138 74.4888 23.6185C74.4478 23.9231 74.5296 24.2316 74.716 24.476C75.225 25.125 76.47 26.331 77.565 27.458C78.483 28.403 79.503 27.42 79.408 26.527"></path>
      <path stroke="#353535" stroke-linecap="round" stroke-linejoin="round" stroke-width=".75" d="M72.987 29.453C72.987 29.453 72.609 32.427 79.551 36.692"></path>
      <path stroke="#353535" stroke-linecap="round" stroke-linejoin="round" stroke-width=".75" d="M67.5 24.571C69.38 21.189 73.756 17.849 77.643 19.993C78.2557 20.3403 78.7822 20.8212 79.1835 21.4C79.5848 21.9787 79.8505 22.6404 79.961 23.336"></path>
      <path stroke="#353535" stroke-linecap="round" stroke-linejoin="round" stroke-width=".75" d="M49.717 41.743L34.159 33.784L35.052 31.675L48.577 36.405"></path>
      <path stroke="#353535" stroke-linecap="round" stroke-linejoin="round" stroke-width=".75" d="M54.827 45.771L64.65 42.262"></path>
      <path stroke="#353535" stroke-linecap="round" stroke-linejoin="round" stroke-width=".75" d="M65.978 41.781L74.944 38.59L65.218 19.651L46.412 26.375L50.895 47.176L52.358 46.663"></path>
      <path stroke="#353535" stroke-linecap="round" stroke-linejoin="round" stroke-width=".75" d="M5 62.924L8.267 56.067L18.829 52.552L22.344 41.23"></path>
      <path stroke="#353535" stroke-linecap="round" stroke-linejoin="round" stroke-width=".75" d="M18.392 43.548L22.363 41.174L24.357 45.334"></path>
      <path stroke="#353535" stroke-linecap="round" stroke-linejoin="round" stroke-width=".75" d="M132.787 135.053L135.067 139.004C137.024 149.281 138.904 153.118 141.811 157.677C143.52 153.346 144.451 141.359 143.786 137.56C142.315 135.612 140.947 133.59 139.686 131.5"></path>
      <path stroke="#353535" stroke-linecap="round" stroke-linejoin="round" stroke-width=".75" d="M140.781 133.288C138.381 134.314 136.103 135.604 133.989 137.135"></path>
      <path stroke="#353535" stroke-linecap="round" stroke-linejoin="round" stroke-width=".75" d="M175.225 76.411L164.606 87.353"></path>
      <path stroke="#353535" stroke-linecap="round" stroke-linejoin="round" stroke-width=".75" d="M172.205 71.928C173.954 73.8679 175.909 75.6115 178.036 77.128"></path>
      <path stroke="#353535" stroke-linecap="round" stroke-linejoin="round" stroke-width=".75" d="M176.973 78.311L179.48 75.519C188.56 70.352 191.6 67.331 194.962 63.114C190.289 62.905 178.662 65.888 175.282 67.749C174.037 69.5935 172.693 71.3692 171.255 73.068"></path>
      <path stroke="#353535" stroke-linecap="round" stroke-linejoin="round" stroke-width=".75" d="M136.142 133.586L127.336 116.74"></path>
      <path stroke="#353535" stroke-linecap="round" stroke-linejoin="round" stroke-width=".75" d="M70.518 56.9C67.9973 54.638 65.2761 52.61 62.388 50.841C60.0769 49.5697 57.6298 48.5634 55.093 47.841C51.372 46.788 51.085 45.716 55.302 45.771C59.7822 46.1309 64.1921 47.1023 68.409 48.658"></path>
      <path stroke="#353535" stroke-linecap="round" stroke-linejoin="round" stroke-width=".75" d="M66.187 47.86C68.371 47.955 65.31 44.024 64.876 42.883C64.284 41.327 63.704 39.572 67.023 42.75C69.7756 45.1664 72.6733 47.4123 75.7 49.475"></path>
      <path stroke="#353535" stroke-linecap="round" stroke-linejoin="round" stroke-width=".75" d="M58.493 49C57.524 48.981 55.511 49.08 54.922 49.114C52.245 49.267 52.47 49.992 52.889 50.102C54.538 50.535 57.276 50.902 58.797 51.336C61.245 52.03 66.035 53.217 67.744 54.642"></path>
      <path stroke="#353535" stroke-linecap="round" stroke-linejoin="round" stroke-width=".75" d="M58.615 51.286C58.173 51.378 57.824 51.452 57.615 51.507C54.994 52.077 55.336 52.782 55.773 52.818C57.482 52.959 60.237 52.891 61.814 53.065C63.7169 53.32 65.5917 53.7526 67.414 54.357"></path>
      <path stroke="#353535" stroke-linecap="round" stroke-linejoin="round" stroke-width=".75" d="M47.514 77.532C47.5142 79.2304 47.0107 80.8907 46.0673 82.3029C45.1239 83.7152 43.7828 84.816 42.2138 85.466C40.6447 86.1161 38.9182 86.2863 37.2524 85.9551C35.5866 85.6239 34.0564 84.8061 32.8554 83.6053C31.6544 82.4044 30.8365 80.8743 30.5051 79.2086C30.1737 77.5429 30.3437 75.8162 30.9936 74.2471C31.6435 72.678 32.7441 71.3368 34.1562 70.3932C35.5684 69.4496 37.2286 68.946 38.927 68.946C41.2039 68.947 43.3873 69.8519 44.9974 71.4619C46.6075 73.0718 47.5127 75.2551 47.514 77.532V77.532Z"></path>
      <path stroke="#353535" stroke-linecap="round" stroke-linejoin="round" stroke-width=".75" d="M82.675 98.181C82.8772 100.367 82.4267 102.563 81.3806 104.493C80.3344 106.423 78.7396 107.999 76.7977 109.023C74.8558 110.046 72.654 110.471 70.4707 110.243C68.2875 110.016 66.2207 109.146 64.5318 107.744C62.8429 106.341 61.6076 104.47 60.9822 102.366C60.3568 100.262 60.3693 98.0193 61.0182 95.9222C61.667 93.8252 62.9231 91.9676 64.6275 90.5844C66.332 89.2011 68.4083 88.3543 70.594 88.151C73.5255 87.8817 76.4441 88.7866 78.7091 90.6671C80.9741 92.5476 82.4005 95.2499 82.675 98.181V98.181Z"></path>
      <path stroke="#353535" stroke-linecap="round" stroke-linejoin="round" stroke-width=".75" d="M33.19 130.969C37.5127 132.805 41.2319 135.82 43.923 139.669C39.3414 140.695 34.5642 140.418 30.132 138.869C25.8097 137.032 22.0907 134.018 19.399 130.169C23.9805 129.142 28.7579 129.42 33.19 130.969Z"></path>
      <path stroke="#353535" stroke-linecap="round" stroke-linejoin="round" stroke-width=".75" d="M50.5 164.687C51.8567 167.206 52.4758 170.057 52.286 172.912C49.6641 171.732 47.4785 169.759 46.0369 167.271C44.5953 164.784 43.9703 161.907 44.25 159.045C46.8176 160.308 48.982 162.262 50.5 164.687Z"></path>
      <path stroke="#353535" stroke-linecap="round" stroke-linejoin="round" stroke-width=".75" d="M83.53 104.45C80.9185 107.191 77.587 109.14 73.918 110.073C74.3216 106.291 75.9029 102.731 78.4388 99.8959C80.9747 97.0609 84.337 95.094 88.051 94.273C87.5203 98.0199 85.9546 101.544 83.53 104.45V104.45Z"></path>
      <path stroke="#353535" stroke-linecap="round" stroke-linejoin="round" stroke-width=".75" d="M67.611 93.736C66.3366 97.306 64.0843 100.446 61.111 102.797C60.0652 99.1541 60.0614 95.291 61.1 91.646C62.3732 88.0754 64.6258 84.9353 67.6 82.585C68.643 86.2283 68.6468 90.0906 67.611 93.736Z"></path>
      <path stroke="#353535" stroke-linecap="round" stroke-linejoin="round" stroke-width=".75" d="M34.463 66.742C33.2841 65.5201 32.4687 63.9941 32.108 62.335C33.7789 62.6341 35.3321 63.3964 36.591 64.535C37.7695 65.7572 38.5848 67.283 38.946 68.942C37.2751 68.6429 35.7219 67.8806 34.463 66.742V66.742Z"></path>
      <path stroke="#353535" stroke-linecap="round" stroke-linejoin="round" stroke-width=".75" d="M40.106 86.038C40.751 96.706 41.44 103.793 52.775 121.318C62.892 136.968 51.861 151.469 52.136 169.564"></path>
      <path stroke="#353535" stroke-linecap="round" stroke-linejoin="round" stroke-width=".75" d="M65.978 108.8C65.978 108.8 57.223 117.555 56.978 133.7"></path>
      <path stroke="#353535" stroke-linecap="round" stroke-linejoin="round" stroke-width=".75" d="M43.98 139.612C43.98 139.612 53.763 145.292 52.699 161.324"></path>
      <path stroke="#353535" stroke-linecap="round" stroke-linejoin="round" stroke-width=".75" d="M65.674 172.152C65.5019 171.518 65.0852 170.977 64.5152 170.65C63.9453 170.322 63.2688 170.234 62.634 170.405L42.347 175.837C42.0326 175.922 41.738 176.068 41.48 176.266C41.222 176.465 41.0056 176.712 40.8432 176.995C40.6809 177.277 40.5757 177.588 40.5337 177.911C40.4917 178.234 40.5137 178.562 40.5985 178.876C40.6833 179.191 40.8291 179.485 41.0278 179.744C41.2264 180.002 41.4739 180.218 41.7561 180.38C42.0384 180.543 42.3498 180.648 42.6727 180.69C42.9956 180.732 43.3236 180.71 43.638 180.625L63.926 175.192C64.5604 175.02 65.1007 174.603 65.4284 174.033C65.7561 173.463 65.8444 172.787 65.674 172.152Z"></path>
      <path stroke="#353535" stroke-linecap="round" stroke-linejoin="round" stroke-width=".75" d="M41.4 73.9L37.562 74.242C37.1328 74.3053 36.7441 74.5303 36.4754 74.8709C36.2068 75.2115 36.0785 75.6419 36.1168 76.074C36.1551 76.5061 36.3572 76.9073 36.6817 77.1952C37.0061 77.4832 37.4284 77.6362 37.862 77.623L40.009 77.433C40.4441 77.4174 40.8686 77.5694 41.1949 77.8575C41.5213 78.1457 41.7247 78.548 41.7631 78.9817C41.8016 79.4154 41.6722 79.8473 41.4017 80.1883C41.1311 80.5294 40.74 80.7537 40.309 80.815L36.472 81.176"></path>
      <path stroke="#353535" stroke-linecap="round" stroke-linejoin="round" stroke-width=".75" d="M38.509 72.878L39.364 82.186"></path>
      <path stroke="#353535" stroke-linecap="round" stroke-linejoin="round" stroke-width=".75" d="M76.635 97.269L72.55 94.933C72.0689 94.6585 71.4984 94.5864 70.9642 94.7325C70.4299 94.8786 69.9755 95.2309 69.701 95.712C69.4265 96.1931 69.3544 96.7636 69.5004 97.2978C69.6465 97.8321 69.9989 98.2865 70.48 98.561L72.759 99.872C72.9972 100.008 73.2063 100.189 73.3744 100.406C73.5425 100.623 73.6662 100.871 73.7385 101.135C73.8109 101.4 73.8304 101.676 73.796 101.948C73.7616 102.22 73.6739 102.483 73.538 102.721C73.4021 102.959 73.2206 103.168 73.0038 103.336C72.7871 103.504 72.5394 103.628 72.2748 103.701C72.0103 103.773 71.7341 103.792 71.462 103.758C71.1899 103.724 70.9272 103.636 70.689 103.5L66.589 101.164"></path>
      <path stroke="#353535" stroke-linecap="round" stroke-linejoin="round" stroke-width=".75" d="M74.45 94.23L68.789 104.184"></path>
      <path stroke="#353535" stroke-linecap="round" stroke-linejoin="round" stroke-width=".75" d="M75.647 157.829C76.2397 158.078 76.9061 158.087 77.5053 157.854C78.1046 157.621 78.5898 157.164 78.8585 156.58C79.1272 155.996 79.1584 155.33 78.9454 154.724C78.7324 154.117 78.2919 153.617 77.717 153.329L65.066 147.573C64.4729 147.322 63.8053 147.311 63.2046 147.544C62.604 147.776 62.1175 148.234 61.8482 148.819C61.5789 149.404 61.548 150.071 61.7621 150.678C61.9762 151.286 62.4184 151.786 62.995 152.073L75.647 157.829Z"></path>
      <path stroke="#353535" stroke-linecap="round" stroke-linejoin="round" stroke-width=".75" d="M103.894 142.765C103.93 143.499 103.747 144.228 103.368 144.859C102.99 145.489 102.433 145.993 101.768 146.307C101.103 146.622 100.36 146.731 99.633 146.623C98.9056 146.515 98.2267 146.193 97.6821 145.699C97.1375 145.205 96.7517 144.561 96.5734 143.847C96.3951 143.134 96.4323 142.383 96.6804 141.691C96.9285 140.999 97.3763 140.396 97.9672 139.958C98.5581 139.52 99.2655 139.268 100 139.232C100.488 139.208 100.975 139.281 101.435 139.445C101.895 139.61 102.317 139.864 102.679 140.192C103.041 140.52 103.334 140.916 103.542 141.357C103.751 141.799 103.87 142.277 103.894 142.765Z"></path>
      <path stroke="#353535" stroke-linecap="round" stroke-linejoin="round" stroke-width=".75" d="M113.943 151.731C113.979 152.466 113.796 153.194 113.417 153.825C113.039 154.455 112.482 154.959 111.817 155.273C111.152 155.588 110.409 155.697 109.682 155.589C108.955 155.481 108.276 155.159 107.731 154.665C107.186 154.171 106.801 153.527 106.622 152.813C106.444 152.1 106.481 151.349 106.729 150.657C106.978 149.965 107.425 149.362 108.016 148.924C108.607 148.486 109.315 148.234 110.049 148.198C110.537 148.173 111.025 148.245 111.485 148.41C111.945 148.574 112.368 148.828 112.73 149.156C113.091 149.484 113.385 149.881 113.593 150.322C113.801 150.764 113.92 151.243 113.943 151.731V151.731Z"></path>
      <path stroke="#353535" stroke-linecap="round" stroke-linejoin="round" stroke-width=".75" d="M97.113 156.271L113.278 138.434"></path>
      <path stroke="#353535" stroke-linecap="round" stroke-linejoin="round" stroke-width=".75" d="M153.474 53.616L153.911 62.696"></path>
      <path stroke="#353535" stroke-linecap="round" stroke-linejoin="round" stroke-width=".75" d="M158.242 57.928L149.143 58.384"></path>
      <path stroke="#353535" stroke-linecap="round" stroke-linejoin="round" stroke-width=".75" d="M84.176 30.27C82.827 28.522 83.553 25.423 82.315 23.963C80.78 22.155 80.559 22.57 77.815 25.616C77.149 26.355 78.195 27.743 80.646 25.73C79.8287 26.2794 79.2231 27.091 78.9289 28.0308C78.6348 28.9707 78.6697 29.9827 79.028 30.9"></path>
      <path stroke="#353535" stroke-linecap="round" stroke-linejoin="round" stroke-width=".75" d="M72.19 33.423L74.697 31.03"></path>
      <path stroke="#353535" stroke-linecap="round" stroke-linejoin="round" stroke-width=".75" d="M74.7 31.03C75.894 32.13 77.3 30.73 76.22 29.586C75.42 28.735 74.814 28.161 74.149 27.496C73.9573 27.2786 73.6883 27.1445 73.3993 27.1223C73.1103 27.1002 72.824 27.1916 72.6014 27.3773C72.3788 27.5629 72.2373 27.8281 72.2072 28.1164C72.1771 28.4047 72.2606 28.6933 72.44 28.921C72.941 29.5 73.592 30.007 74.7 31.03Z"></path>
      <path stroke="#353535" stroke-linecap="round" stroke-linejoin="round" stroke-width=".75" d="M46.948 125.6C46.2822 121.133 44.4309 116.927 41.587 113.419C39.3313 117.539 38.2842 122.212 38.566 126.9C39.1468 131.559 41.0225 135.962 43.98 139.609C46.3456 135.34 47.3793 130.461 46.948 125.6V125.6Z"></path>
      <path stroke="#353535" stroke-linecap="round" stroke-linejoin="round" stroke-width=".75" d="M73.956 61.025C74.6829 57.0662 76.8735 53.5261 80.092 51.109"></path>
      <path stroke="#353535" stroke-linecap="round" stroke-linejoin="round" stroke-width=".75" d="M82.448 40.4C83.4931 37.063 85.5264 34.1217 88.279 31.965"></path>
    </g>
  </g>
</svg>