<svg xmlns="http://www.w3.org/2000/svg" fill="none" viewBox="0 0 400 400">
  <g transform="matrix(2,0,0,2,0,0)">
    <path fill="#000000" d="M159.823 108.267C161.115 109.331 164.066 111.758 164.248 111.909C164.611 112.209 165.134 111.69 164.768 111.389L160.342 107.747C159.98 107.449 159.457 107.966 159.823 108.267Z"></path>
    <path fill="#000000" d="M161.085 106.88L164.255 108.034C164.7 108.197 164.892 107.487 164.455 107.326L161.285 106.171C160.836 106.009 160.644 106.719 161.085 106.88Z"></path>
    <path fill="#000000" d="M127.867 108.416L124.467 110.994C124.095 111.276 124.461 111.914 124.838 111.629L128.238 109.05C128.61 108.768 128.244 108.13 127.867 108.416Z"></path>
    <path fill="#000000" d="M127.867 106.306L122.052 108.982C121.623 109.182 121.996 109.813 122.423 109.616L128.238 106.94C128.667 106.743 128.294 106.109 127.867 106.306Z"></path>
    <path fill="#a0a0a0" d="M140.2 85.0998C139.957 84.5688 139.553 83.8648 138.875 83.8898C138.286 83.9118 138.132 84.5788 138.121 85.0568C138.096 86.0634 138.337 87.0588 138.819 87.9428C139.301 88.8268 140.007 89.5683 140.867 90.0928C141.015 88.3997 140.787 86.6947 140.2 85.0998Z"></path>
    <path fill="#a0a0a0" d="M146.658 85.292C146.596 84.9837 146.453 84.6972 146.245 84.4617C146.037 84.2262 145.77 84.05 145.471 83.951C145.191 83.8901 144.898 83.9363 144.651 84.0805C144.403 84.2247 144.219 84.4565 144.134 84.73C143.929 85.4111 143.892 86.1316 144.026 86.83C144.093 87.899 144.393 88.9404 144.905 89.881C145.621 89.3781 146.171 88.6725 146.484 87.8547C146.796 87.037 146.857 86.1445 146.658 85.292V85.292Z"></path>
    <path fill="#a0a0a0" d="M152.334 86.023C152.372 84.123 150.6 84.837 150.414 85.984C150.166 87.3544 149.99 88.737 149.888 90.126C150.565 89.6568 151.134 89.0477 151.556 88.3399C151.978 87.6321 152.243 86.842 152.334 86.023Z"></path>
    <path fill="#a0a0a0" d="M148.984 91.4709C147.995 91.9288 146.871 92.0001 145.832 91.6709C145.386 91.4942 144.991 91.2073 144.686 90.8369C143.727 91.3007 142.635 91.4146 141.601 91.1589C141.701 98.7959 142.984 115.542 143.415 120.959H145.587C146.145 115.788 146.968 108.008 148.984 91.4709Z"></path>
    <path fill="#a0a0a0" d="M166.685 76.8168C165.174 73.3216 162.857 70.2344 159.922 67.8084C156.987 65.3823 153.519 63.6866 149.802 62.8602C146.085 62.0339 142.226 62.1005 138.539 63.0545C134.853 64.0086 131.446 65.8229 128.597 68.3487C125.747 70.8745 123.537 74.0398 122.148 77.585C120.759 81.1302 120.23 84.9541 120.605 88.7433C120.979 92.5324 122.247 96.1788 124.304 99.3832C126.36 102.588 129.147 105.259 132.436 107.178V120.952H142.679C142.671 120.852 140.909 97.4168 140.861 90.9138C139.835 90.3876 138.971 89.5941 138.359 88.6172C137.747 87.6403 137.41 86.5162 137.384 85.3638C137.314 84.7404 137.483 84.1137 137.858 83.6108C138.843 82.5758 140.338 83.3828 140.874 84.8228C141.488 86.6141 141.735 88.5109 141.6 90.3998C142.473 90.6685 143.414 90.6095 144.247 90.2338C143.582 88.9315 143.235 87.49 143.236 86.0278C143.163 85.2998 143.34 84.5687 143.736 83.9538C143.935 83.7032 144.193 83.5054 144.487 83.3777C144.781 83.25 145.102 83.1964 145.421 83.2214C145.74 83.2465 146.049 83.3496 146.319 83.5215C146.589 83.6935 146.813 83.9291 146.971 84.2078C148.058 85.8318 147.548 88.9257 145.337 90.4647C146.281 91.4727 147.966 91.2167 149.084 90.6287C149.635 86.0217 149.52 86.7207 149.654 85.9787C149.901 84.6067 151.243 83.6228 152.405 84.3698C153.531 85.1908 153.035 87.0568 152.533 88.0838C151.921 89.3293 150.963 90.3712 149.772 91.0838C149.593 92.5838 146.491 119.346 146.318 120.957H156.74V107.166C161.82 104.196 165.637 99.4694 167.469 93.8777C169.302 88.286 169.023 82.2168 166.685 76.8168V76.8168Z"></path>
    <path fill="#000000" d="M149.776 91.0785C150.967 90.366 151.925 89.3241 152.537 88.0785C153.037 87.0515 153.537 85.1855 152.409 84.3645C151.246 83.6175 149.909 84.6025 149.658 85.9735C149.508 86.8065 149.536 86.8735 149.088 90.6235C147.956 91.2185 146.288 91.4665 145.341 90.4595C147.541 88.9255 148.064 85.8295 146.975 84.2025C146.817 83.9239 146.593 83.6883 146.323 83.5163C146.053 83.3443 145.744 83.2413 145.425 83.2162C145.106 83.1912 144.785 83.2448 144.491 83.3725C144.197 83.5002 143.939 83.698 143.74 83.9485C143.344 84.5635 143.167 85.2946 143.24 86.0225C143.239 87.4848 143.586 88.9263 144.251 90.2285C143.418 90.6044 142.477 90.6634 141.604 90.3945C141.743 88.5072 141.496 86.6114 140.879 84.8225C140.342 83.3805 138.848 82.5755 137.863 83.6105C137.488 84.1135 137.319 84.7402 137.389 85.3635C137.415 86.5159 137.752 87.6397 138.364 88.6165C138.976 89.5934 139.841 90.3869 140.866 90.9135C140.878 92.5255 141.316 101.766 141.366 102.602C141.596 106.351 142.495 118.583 142.683 120.952H143.419C143.274 119.137 141.934 99.8435 141.845 97.9675C141.769 96.3555 141.614 91.8135 141.605 91.1565C142.639 91.4119 143.731 91.298 144.69 90.8345C144.995 91.2049 145.39 91.4919 145.836 91.6685C146.875 91.9977 147.999 91.9264 148.988 91.4685C148.612 94.5515 145.588 120.95 145.588 120.95H146.323C148.453 101.085 148.882 98.5795 149.776 91.0785ZM138.116 85.0525C138.127 84.5745 138.281 83.9075 138.87 83.8855C139.548 83.8605 139.952 84.5645 140.195 85.0955C140.779 86.6913 141.007 88.3955 140.862 90.0885C140.002 89.564 139.296 88.8224 138.814 87.9384C138.332 87.0544 138.091 86.0591 138.116 85.0525V85.0525ZM144.026 86.8275C143.892 86.1291 143.929 85.4086 144.134 84.7275C144.219 84.454 144.403 84.2222 144.651 84.078C144.898 83.9338 145.191 83.8876 145.471 83.9485C145.769 84.0475 146.037 84.2237 146.245 84.4592C146.453 84.6947 146.596 84.9812 146.658 85.2895C146.856 86.1418 146.795 87.0338 146.483 87.8511C146.171 88.6685 145.621 89.3738 144.905 89.8765C144.392 88.9367 144.092 87.8959 144.026 86.8275ZM150.414 85.9835C150.605 84.8095 152.371 84.1385 152.334 86.0225C152.243 86.8411 151.978 87.6306 151.556 88.3378C151.134 89.0451 150.565 89.6537 149.888 90.1225C149.991 88.7347 150.167 87.3532 150.414 85.9835V85.9835Z"></path>
    <path fill="#ffffff" d="M102.115 113.134C99.4569 114.434 97.2869 115.394 94.8149 116.392C94.9523 116.975 95.2166 117.52 95.5891 117.989C95.9616 118.458 96.433 118.839 96.9697 119.105C97.5065 119.371 98.0952 119.515 98.694 119.527C99.2928 119.539 99.8869 119.418 100.434 119.174C100.981 118.93 101.467 118.568 101.858 118.115C102.249 117.661 102.535 117.127 102.696 116.55C102.856 115.973 102.887 115.367 102.787 114.777C102.687 114.186 102.457 113.625 102.115 113.134V113.134Z"></path>
    <path fill="#a0a0a0" d="M148.974 43.1499C146.523 44.2839 145.25 43.9309 142.839 45.1369C141.751 45.7007 140.87 46.5953 140.323 47.6919C138.733 50.7779 139.501 54.2869 140.423 57.4329C140.45 57.5268 140.512 57.6063 140.597 57.6539C140.683 57.7016 140.783 57.7134 140.877 57.6869C140.971 57.6604 141.05 57.5977 141.098 57.5125C141.146 57.4274 141.158 57.3268 141.131 57.2329C140.431 54.4549 139.622 51.4809 140.678 48.6809C141.095 47.5567 141.868 46.5991 142.878 45.9529C143.799 45.4685 144.782 45.1142 145.8 44.8999C147.712 44.4719 149.932 44.0379 151.076 42.2599C153.31 38.7889 148.933 33.4769 151.638 29.5119C151.964 28.9664 152.433 28.5206 152.995 28.223C153.556 27.9254 154.189 27.7873 154.823 27.8239C155.285 27.8889 155.485 27.1809 155.018 27.1159C152.418 26.7539 150.372 29.1599 150.085 31.5419C149.62 35.3889 151.454 37.9909 150.929 40.6479C150.823 41.1894 150.591 41.6982 150.251 42.133C149.911 42.5678 149.474 42.9162 148.974 43.1499V43.1499Z"></path>
    <path fill="#EAEAEA" d="M174.059 120.952H115.1C115.003 120.953 114.911 120.992 114.842 121.061C114.773 121.129 114.734 121.222 114.733 121.319V144.805C118.18 144.485 121.133 142.33 127.684 140.465V130.378C127.689 130.284 127.73 130.195 127.798 130.13C127.867 130.065 127.957 130.029 128.052 130.029C128.146 130.029 128.236 130.065 128.305 130.13C128.373 130.195 128.414 130.284 128.419 130.378V140.258C131.564 139.333 134.85 138.986 138.119 139.235C140.627 139.487 143.022 140.41 145.05 141.907C147.079 143.403 148.668 145.418 149.649 147.741C150.284 149.42 150.765 151.154 151.086 152.921H154.13C154.227 152.922 154.319 152.961 154.388 153.03C154.456 153.098 154.495 153.191 154.497 153.288V155.851C154.496 155.948 154.457 156.04 154.388 156.109C154.32 156.178 154.227 156.217 154.13 156.219C153.269 156.225 152.409 156.219 151.55 156.219C151.773 159.025 151.689 164.107 147.888 163.302C146.268 162.959 145.563 161.18 145.178 159.563C145.092 160.194 144.967 160.82 144.803 161.436C144.652 162.029 144.345 162.571 143.915 163.006C143.484 163.442 142.945 163.755 142.354 163.913C141.785 164.012 141.201 163.957 140.66 163.754C140.12 163.551 139.644 163.207 139.282 162.758C138.469 161.758 138.161 160.416 137.582 158.407C137.396 159.025 137.209 159.643 137.027 160.263C136.876 161.298 136.411 162.263 135.695 163.027C133.801 164.606 130.358 163.709 130.87 159.727C130.897 159.315 130.942 158.906 130.987 158.496C128.956 160.805 126.5 162.701 123.751 164.081C120.913 165.552 117.88 166.61 114.742 167.221V170.73C114.743 170.827 114.782 170.92 114.851 170.988C114.92 171.057 115.013 171.096 115.11 171.097C176.11 171.526 174.115 171.163 174.325 170.988C174.494 170.763 174.813 174.507 174.434 121.318C174.434 121.269 174.423 121.221 174.404 121.176C174.385 121.131 174.357 121.091 174.322 121.057C174.288 121.023 174.246 120.996 174.201 120.978C174.156 120.96 174.108 120.951 174.059 120.952V120.952ZM160.108 130.378V142.731C160.103 142.825 160.062 142.914 159.994 142.978C159.926 143.043 159.835 143.08 159.741 143.08C159.646 143.08 159.556 143.043 159.487 142.978C159.419 142.914 159.378 142.825 159.373 142.731V130.378C159.378 130.284 159.419 130.195 159.487 130.13C159.556 130.065 159.646 130.029 159.741 130.029C159.835 130.029 159.926 130.065 159.994 130.13C160.062 130.195 160.103 130.284 160.108 130.378ZM155.685 152.032L159.765 145.956C160.028 145.565 160.665 145.933 160.4 146.326L156.32 152.403C156.057 152.794 155.421 152.426 155.685 152.032V152.032ZM160.108 150.512V162.865C160.103 162.959 160.062 163.048 159.994 163.112C159.926 163.177 159.835 163.214 159.741 163.214C159.646 163.214 159.556 163.177 159.487 163.112C159.419 163.048 159.378 162.959 159.373 162.865V150.512C159.378 150.418 159.419 150.329 159.487 150.264C159.556 150.199 159.646 150.163 159.741 150.163C159.835 150.163 159.926 150.199 159.994 150.264C160.062 150.329 160.103 150.418 160.108 150.512V150.512Z"></path>
    <path fill="#a0a0a0" d="M128.42 130.378C128.415 130.283 128.374 130.195 128.306 130.13C128.237 130.065 128.147 130.029 128.052 130.029C127.958 130.029 127.867 130.065 127.799 130.13C127.731 130.195 127.69 130.283 127.685 130.378V140.465C127.929 140.396 128.174 140.324 128.42 140.258V130.378Z"></path>
    <path fill="#a0a0a0" d="M157.63 43.1496C155.181 44.2826 153.904 43.9316 151.496 45.1366C150.407 45.6998 149.526 46.5946 148.98 47.6916C147.39 50.7776 148.159 54.2856 149.075 57.4326C149.101 57.5266 149.164 57.6063 149.249 57.654C149.335 57.7017 149.435 57.7136 149.529 57.6871C149.623 57.6606 149.703 57.5978 149.751 57.5126C149.799 57.4274 149.81 57.3266 149.784 57.2326C149.084 54.4546 148.275 51.4806 149.33 48.6806C149.748 47.5565 150.52 46.5989 151.53 45.9526C152.451 45.4647 153.435 45.1073 154.455 44.8906C156.366 44.4626 158.586 44.0286 159.731 42.2506C161.963 38.7806 157.589 33.4656 160.292 29.5026C160.618 28.957 161.087 28.5111 161.649 28.2135C162.21 27.9159 162.842 27.7779 163.477 27.8146C163.94 27.8796 164.14 27.1716 163.677 27.1066C161.077 26.7446 159.031 29.1516 158.743 31.5326C158.278 35.3796 160.112 37.9816 159.587 40.6386C159.482 41.1819 159.25 41.6927 158.91 42.1291C158.57 42.5656 158.131 42.9153 157.63 43.1496V43.1496Z"></path>
    <path fill="#a0a0a0" d="M166.311 43.1496C163.857 44.2856 162.59 43.9286 160.177 45.1366C159.088 45.6998 158.207 46.5946 157.661 47.6916C156.071 50.7776 156.838 54.2866 157.756 57.4326C157.782 57.5267 157.845 57.6063 157.931 57.654C158.016 57.7018 158.116 57.7137 158.21 57.6871C158.304 57.6606 158.384 57.5978 158.432 57.5126C158.48 57.4274 158.491 57.3267 158.465 57.2326C157.765 54.4546 156.956 51.4806 158.011 48.6806C158.429 47.5565 159.201 46.5989 160.211 45.9526C161.132 45.4647 162.116 45.1073 163.136 44.8906C165.047 44.4626 167.267 44.0286 168.411 42.2506C170.645 38.7796 166.269 33.4676 168.973 29.5026C169.299 28.9572 169.768 28.5114 170.33 28.2138C170.891 27.9162 171.524 27.7782 172.158 27.8146C172.621 27.8796 172.821 27.1716 172.358 27.1066C169.758 26.7446 167.712 29.1506 167.424 31.5326C166.959 35.3796 168.793 37.9816 168.268 40.6386C168.163 41.1819 167.931 41.6927 167.591 42.1291C167.251 42.5656 166.812 42.9153 166.311 43.1496V43.1496Z"></path>
    <path fill="#EAEAEA" d="M55.467 111.131C55.4657 111.228 55.4265 111.321 55.3577 111.389C55.289 111.458 55.1961 111.497 55.099 111.498H31.099C31.099 111.498 30.763 124.005 30.681 126.218C31.534 126.418 32.381 126.631 33.227 126.867C34.3906 127.093 35.5019 127.534 36.504 128.167C36.515 128.178 36.525 128.19 36.535 128.202L36.578 128.224C36.8251 128.433 37.0137 128.702 37.1255 129.006C37.2373 129.309 37.2685 129.637 37.2159 129.956C37.1633 130.275 37.0287 130.575 36.8254 130.827C36.6222 131.079 36.357 131.273 36.056 131.392C35.3394 131.725 34.5722 131.936 33.786 132.017C32.6585 132.129 31.5231 132.138 30.394 132.044C30.6097 133.858 30.7073 135.685 30.686 137.512C30.643 140.556 28.064 141.727 26.602 140.239C25.718 139.339 25.593 137.917 25.39 136.739C25.14 135.281 25.436 136.039 24.938 138.368C24.152 142.045 21.522 142.321 20.154 140.044C19.5796 138.912 19.264 137.667 19.23 136.399C19.217 136.748 19.205 137.099 19.204 137.446C19.204 138.987 18.617 141.314 16.674 141.32C14.731 141.326 13.962 138.994 13.847 137.42C13.818 137.027 13.847 139.144 13.724 111.5H9.93901C9.84189 111.498 9.74918 111.459 9.6805 111.39C9.61182 111.322 9.57255 111.229 9.57101 111.132C9.54501 112.301 6.47101 169.439 6.47101 169.467C6.47127 169.564 6.50999 169.658 6.57873 169.726C6.64747 169.795 6.74066 169.834 6.83801 169.835C7.31001 169.835 25.106 169.681 25.292 169.68C24.841 165.016 27.449 159.391 29.226 155.341C35.469 141.103 42.771 129.732 56.306 122.05C55.917 117.245 55.472 111.265 55.467 111.131Z"></path>
    <path fill="#a0a0a0" d="M103.709 111.91C102.827 109.91 100.409 108.971 98.34 108.997C97.4115 108.983 96.4939 109.197 95.667 109.62C94.8402 110.043 94.1293 110.661 93.5962 111.421C93.0632 112.182 92.7242 113.061 92.6087 113.982C92.4933 114.904 92.605 115.839 92.934 116.708C93.039 116.918 93.17 117.062 93.386 116.964C96.807 115.641 100.516 113.973 103.577 112.412C103.659 112.361 103.719 112.281 103.744 112.187C103.768 112.094 103.756 111.994 103.709 111.91V111.91Z"></path>
    <path fill="#ffffff" d="M105.01 138.6C101.156 132.661 102.01 125.548 95.124 120.645C90.196 117.135 83.731 116.107 77.811 116.163C63.058 116.301 49.939 124.063 40.851 135.201C35.297 142.008 31.505 149.942 28.051 158.056C28.029 158.165 28.08 157.876 28.368 157.874C83.656 157.449 80.885 157.739 83.336 158.185C84.153 156.322 85.3085 154.626 86.744 153.185C86.931 153.485 87.117 153.785 87.312 154.075L87.329 154.093C87.2947 154.024 87.2826 153.945 87.2943 153.869C87.3059 153.793 87.3407 153.722 87.394 153.666C92.677 148.35 98.7525 143.886 105.404 140.433C105.524 140.368 105.642 140.3 105.761 140.233C105.831 140.193 105.913 140.176 105.993 140.187C106.073 140.197 106.148 140.233 106.206 140.29C106.352 140.47 105.711 139.678 105.01 138.6ZM86.487 152.779C83.144 147.373 80.405 139.404 79.879 128.845C79.856 128.372 80.591 128.375 80.614 128.845C80.8537 137.109 83.0864 145.192 87.122 152.408C87.1667 152.492 87.1772 152.59 87.1512 152.681C87.1253 152.773 87.065 152.851 86.9828 152.899C86.9007 152.947 86.8032 152.961 86.7108 152.939C86.6183 152.916 86.5381 152.859 86.487 152.779V152.779Z"></path>
    <path fill="#a0a0a0" d="M80.6139 128.845C80.5909 128.375 79.8559 128.372 79.8789 128.845C80.4049 139.405 83.1429 147.37 86.4869 152.779C86.5381 152.859 86.6183 152.916 86.7108 152.939C86.8032 152.961 86.9007 152.947 86.9828 152.899C87.0649 152.851 87.1253 152.773 87.1512 152.681C87.1772 152.59 87.1667 152.492 87.122 152.408C83.0864 145.192 80.8537 137.109 80.6139 128.845V128.845Z"></path>
    <path fill="#000000" d="M190.164 135.555C189.143 136.134 181.54 140.694 181.171 140.92C181.091 140.971 181.034 141.051 181.011 141.144C180.989 141.236 181.003 141.334 181.051 141.416C181.099 141.498 181.177 141.558 181.269 141.584C181.36 141.61 181.458 141.6 181.542 141.555C182.563 140.975 190.167 136.416 190.535 136.19C190.615 136.139 190.672 136.059 190.695 135.966C190.717 135.874 190.703 135.776 190.655 135.694C190.607 135.612 190.529 135.552 190.437 135.526C190.346 135.5 190.248 135.51 190.164 135.555Z"></path>
    <path fill="#000000" d="M194.586 146.741C193.086 146.716 181.342 146.761 181.342 146.761C181.248 146.766 181.159 146.807 181.094 146.875C181.029 146.943 180.993 147.034 180.993 147.128C180.993 147.223 181.029 147.313 181.094 147.382C181.159 147.45 181.248 147.491 181.342 147.496C181.342 147.496 194.042 147.485 194.586 147.476C194.68 147.471 194.769 147.43 194.834 147.362C194.899 147.293 194.935 147.203 194.935 147.108C194.935 147.014 194.899 146.923 194.834 146.855C194.769 146.787 194.68 146.746 194.586 146.741V146.741Z"></path>
    <path fill="#000000" d="M190.535 157.3L181.542 152.681C181.122 152.466 180.75 153.1 181.171 153.316L190.164 157.934C190.584 158.152 190.957 157.518 190.535 157.3Z"></path>
    <path fill="#ffffff" d="M151.546 156.222C151.306 156.222 138.382 156.273 132.83 156.274C132.45 156.681 131.938 157.274 131.73 157.524C131.438 157.877 130.95 157.399 131.191 157.041C131.249 156.917 132.178 155.888 132.404 155.647C135.232 152.632 137.382 152.961 141.491 152.921H151.082C150.761 151.154 150.28 149.42 149.645 147.741C148.664 145.418 147.075 143.403 145.046 141.906C143.018 140.41 140.623 139.487 138.115 139.235C136.328 139.045 134.525 139.092 132.75 139.373C121.103 141.111 116.05 147.1 110.322 143.979C108.717 143.056 107.322 141.807 106.227 140.314C106.172 140.247 106.095 140.203 106.01 140.188C105.925 140.174 105.837 140.19 105.763 140.234C98.891 144.1 92.93 147.816 87.4 153.666C87.3456 153.725 87.3108 153.799 87.3004 153.879C87.29 153.959 87.3045 154.04 87.342 154.111C91.38 160.151 97.587 165.236 104.778 167.076C111.034 168.676 117.923 167.045 123.747 164.082C126.496 162.702 128.952 160.806 130.983 158.497C130.761 159.595 130.767 160.728 131.002 161.825C131.158 162.278 131.425 162.686 131.777 163.011C132.13 163.337 132.558 163.57 133.022 163.689C133.487 163.809 133.974 163.811 134.44 163.696C134.906 163.581 135.335 163.352 135.691 163.03C136.407 162.266 136.872 161.301 137.023 160.266C137.205 159.646 137.392 159.028 137.578 158.41C138.138 160.338 138.478 161.777 139.278 162.761C139.64 163.21 140.116 163.554 140.656 163.757C141.197 163.96 141.781 164.015 142.35 163.916C142.941 163.757 143.48 163.445 143.911 163.009C144.341 162.574 144.648 162.032 144.799 161.439C145.342 159.359 145.039 159.153 145.317 160.125C145.695 161.453 146.396 162.99 147.884 163.305C151.685 164.11 151.769 159.028 151.546 156.222ZM108.083 164.922C106.474 164.989 104.872 164.69 103.396 164.046C102.963 163.857 103.337 163.226 103.767 163.411C105.128 163.994 106.604 164.259 108.083 164.187C108.556 164.169 108.554 164.905 108.083 164.926V164.922Z"></path>
    <path fill="#a0a0a0" d="M160.108 142.731V130.378C160.103 130.283 160.062 130.195 159.994 130.13C159.926 130.065 159.835 130.029 159.741 130.029C159.646 130.029 159.556 130.065 159.487 130.13C159.419 130.195 159.378 130.283 159.373 130.378V142.731C159.378 142.825 159.419 142.913 159.487 142.978C159.556 143.043 159.646 143.079 159.741 143.079C159.835 143.079 159.926 143.043 159.994 142.978C160.062 142.913 160.103 142.825 160.108 142.731Z"></path>
    <path fill="#a0a0a0" d="M154.126 152.921H141.491C137.381 152.961 135.23 152.633 132.404 155.647C132.355 155.699 132.322 155.764 132.309 155.835C132.296 155.905 132.304 155.978 132.331 156.045C132.359 156.111 132.405 156.168 132.464 156.208C132.523 156.249 132.592 156.272 132.664 156.274C132.719 156.274 153.264 156.225 154.126 156.219C154.223 156.217 154.316 156.178 154.384 156.109C154.453 156.041 154.492 155.948 154.493 155.851V153.288C154.491 153.191 154.452 153.099 154.384 153.03C154.315 152.962 154.223 152.922 154.126 152.921Z"></path>
    <path fill="#a0a0a0" d="M159.765 145.956L155.685 152.032C155.421 152.426 156.057 152.794 156.32 152.403L160.4 146.326C160.664 145.933 160.028 145.565 159.765 145.956Z"></path>
    <path fill="#ffffff" d="M82.4 59.228C82.24 59.228 81.119 59.241 68.434 59.237C68.3776 59.2362 68.3222 59.2226 68.2719 59.1973C68.2215 59.172 68.1776 59.1355 68.1434 59.0907C68.1093 59.046 68.0857 58.994 68.0745 58.9388C68.0634 58.8836 68.0649 58.8265 68.079 58.772C67.8849 59.9489 67.444 61.0715 66.7853 62.0659C66.1266 63.0604 65.265 63.9042 64.257 64.542C62.166 65.722 59.683 65.967 57.342 66.226C50.581 66.975 39.351 67.854 35.042 67.707C27.535 67.45 18.953 70.435 14.605 77.324C11.217 82.694 10.815 88.465 10.329 94.86C9.82896 101.384 9.57496 109.425 9.56696 111.13C9.56774 111.227 9.60676 111.32 9.67561 111.389C9.74445 111.458 9.8376 111.497 9.93496 111.498H13.72V115.826C13.721 115.729 13.7599 115.637 13.8282 115.568C13.8966 115.499 13.9891 115.46 14.086 115.459H30.633C30.7301 115.46 30.8229 115.499 30.8917 115.568C30.9604 115.636 30.9997 115.729 31.001 115.826C31.037 114.384 31.095 111.498 31.095 111.498H55.095C55.1923 111.498 55.2856 111.459 55.3545 111.39C55.4235 111.322 55.4624 111.228 55.463 111.131C55.413 107.337 55.183 103.547 55.043 99.756C54.82 93.725 54.743 88.593 53.316 83.244C56.425 83.182 59.532 83.062 62.64 82.959C65.0999 82.9 67.5503 82.6323 69.965 82.159C71.3454 81.8889 72.6588 81.3484 73.8295 80.5685C75.0001 79.7886 76.0049 78.7848 76.786 77.615C79.96 73.1 81.908 64.4 82.715 58.968C82.7076 59.0442 82.6703 59.1144 82.6113 59.1632C82.5522 59.2119 82.4762 59.2352 82.4 59.228V59.228ZM74.161 76.662L71.711 78.962C71.366 79.286 70.846 78.767 71.192 78.442L73.641 76.142C73.986 75.818 74.507 76.337 74.161 76.662ZM46.542 72.068C49.0759 74.5748 51.0696 77.5741 52.4 80.881C52.577 81.321 51.866 81.51 51.691 81.081C50.4002 77.8939 48.4706 75.0049 46.021 72.592C45.685 72.255 46.205 71.736 46.542 72.068ZM30.51 109.78V89.88C30.5149 89.7858 30.5557 89.6971 30.6241 89.6322C30.6925 89.5673 30.7832 89.5311 30.8775 89.5311C30.9717 89.5311 31.0624 89.5673 31.1308 89.6322C31.1992 89.6971 31.24 89.7858 31.245 89.88V109.78C31.24 109.874 31.1992 109.963 31.1308 110.028C31.0624 110.093 30.9717 110.129 30.8775 110.129C30.7832 110.129 30.6925 110.093 30.6241 110.028C30.5557 109.963 30.5149 109.874 30.51 109.78V109.78ZM13.944 109.933C13.939 110.027 13.8982 110.116 13.8298 110.181C13.7614 110.246 13.6707 110.282 13.5765 110.282C13.4822 110.282 13.3915 110.246 13.3231 110.181C13.2547 110.116 13.2139 110.027 13.209 109.933V90.033C13.2139 89.9388 13.2547 89.8501 13.3231 89.7852C13.3915 89.7203 13.4822 89.6841 13.5765 89.6841C13.6707 89.6841 13.7614 89.7203 13.8298 89.7852C13.8982 89.8501 13.939 89.9388 13.944 90.033C14.012 93.949 14.033 104.806 13.944 109.933V109.933ZM15.766 109.367C16.566 108.536 17.3826 107.719 18.216 106.917C18.2858 106.853 18.3779 106.818 18.4729 106.82C18.5678 106.822 18.6584 106.86 18.7256 106.927C18.7928 106.995 18.8314 107.085 18.8333 107.18C18.8352 107.275 18.8003 107.367 18.736 107.437C17.936 108.267 17.1193 109.083 16.286 109.886C16.2158 109.948 16.1246 109.981 16.0308 109.979C15.9371 109.976 15.8479 109.938 15.7815 109.871C15.7151 109.805 15.6766 109.716 15.6737 109.622C15.6708 109.529 15.7038 109.437 15.766 109.367V109.367Z"></path>
    <path fill="#ffffff" d="M37.211 129.208C37.1098 128.803 36.869 128.446 36.531 128.201C36.521 128.189 36.511 128.177 36.5 128.166C35.4978 127.533 34.3865 127.092 33.223 126.866C32.38 126.63 31.53 126.417 30.677 126.217C30.762 124.005 30.993 117.077 31.001 115.825C31.0004 115.728 30.9615 115.634 30.8925 115.566C30.8236 115.497 30.7303 115.458 30.633 115.458H14.086C13.9891 115.459 13.8966 115.498 13.8283 115.567C13.7599 115.636 13.721 115.728 13.72 115.825C13.72 115.825 13.784 136.614 13.843 137.417C13.958 138.987 14.726 141.317 16.67 141.317C18.614 141.317 19.198 138.984 19.2 137.443C19.2 137.094 19.213 136.743 19.226 136.396C19.26 137.664 19.5756 138.91 20.15 140.041C21.52 142.321 24.15 142.041 24.934 138.365C25.434 136.035 25.134 135.282 25.386 136.736C25.586 137.919 25.714 139.336 26.598 140.236C28.068 141.736 30.639 140.544 30.682 137.509C30.7032 135.682 30.6057 133.855 30.39 132.041C31.5191 132.136 32.6545 132.126 33.782 132.014C34.5681 131.933 35.3354 131.722 36.052 131.389C36.4629 131.21 36.8011 130.896 37.0115 130.5C37.2219 130.104 37.2922 129.649 37.211 129.208V129.208ZM25.427 130.194C25.4221 130.288 25.3812 130.377 25.3128 130.442C25.2444 130.507 25.1538 130.543 25.0595 130.543C24.9652 130.543 24.8745 130.507 24.8061 130.442C24.7377 130.377 24.6969 130.288 24.692 130.194V127.744C24.6969 127.65 24.7377 127.561 24.8061 127.496C24.8745 127.431 24.9652 127.395 25.0595 127.395C25.1538 127.395 25.2444 127.431 25.3128 127.496C25.3812 127.561 25.4221 127.65 25.427 127.744V130.194ZM18.823 128C18.8279 127.906 18.8687 127.817 18.9371 127.752C19.0055 127.687 19.0962 127.651 19.1905 127.651C19.2848 127.651 19.3754 127.687 19.4438 127.752C19.5122 127.817 19.5531 127.906 19.558 128V130.347C19.5531 130.441 19.5122 130.53 19.4438 130.595C19.3754 130.66 19.2848 130.696 19.1905 130.696C19.0962 130.696 19.0055 130.66 18.9371 130.595C18.8687 130.53 18.8279 130.441 18.823 130.347V128Z"></path>
    <path fill="#ffffff" d="M69.458 48.9468C68.497 56.5728 68.444 57.2468 68.082 58.7718C68.0679 58.8279 68.067 58.8865 68.0793 58.9429C68.0917 58.9994 68.117 59.0523 68.1532 59.0973C68.1895 59.1424 68.2357 59.1785 68.2882 59.2026C68.3407 59.2268 68.3982 59.2385 68.456 59.2368C69.771 59.2598 82.367 59.2368 82.403 59.2278C82.4788 59.2345 82.5541 59.2109 82.6126 59.1621C82.6711 59.1134 82.7079 59.0435 82.715 58.9678C83.233 55.648 83.5728 52.3029 83.733 48.9468H69.458Z"></path>
    <path fill="#000000" d="M31.926 175.838C29.156 175.623 26.796 174.443 25.787 171.817C21.1713 171.203 16.4804 171.494 11.976 172.674C9.65864 173.279 7.40901 174.118 5.26198 175.18C5.22174 175.195 5.18519 175.219 5.15464 175.25C5.12409 175.28 5.10021 175.317 5.08451 175.357C5.06882 175.397 5.06164 175.44 5.06344 175.483C5.06525 175.527 5.07599 175.569 5.09498 175.608C5.11175 175.684 5.15473 175.752 5.21647 175.8C5.2782 175.848 5.3548 175.873 5.43298 175.871C33.185 175.358 31.93 175.938 31.926 175.838Z"></path>
    <path fill="#a0a0a0" d="M82.591 158.061C80.576 157.778 84.329 157.441 28.37 157.871C28.2904 157.874 28.2136 157.902 28.1503 157.95C28.0869 157.998 28.04 158.065 28.016 158.141C27.1054 160.166 26.3694 162.266 25.816 164.417C24.739 168.694 24.916 173.456 28.998 175.136C29.933 175.521 30.9227 175.758 31.931 175.836C31.9756 176.836 32.2225 177.818 32.6569 178.72C33.0912 179.623 33.7039 180.428 34.4581 181.087C35.2122 181.746 36.0921 182.245 37.0446 182.555C37.9971 182.864 39.0025 182.978 40 182.888H79.184C81.855 182.926 84.5022 182.38 86.94 181.288C97.871 176.309 96.588 160.023 82.591 158.061ZM41.426 163.048C44.0383 161.374 46.9083 160.143 49.921 159.402C50.381 159.289 50.576 160.002 50.121 160.11C47.1704 160.836 44.3594 162.043 41.801 163.682C41.4 163.939 41.029 163.3 41.426 163.048V163.048ZM32.281 175.871C32.1868 175.866 32.0982 175.825 32.0332 175.757C31.9683 175.688 31.9322 175.598 31.9322 175.503C31.9322 175.409 31.9683 175.318 32.0332 175.25C32.0982 175.182 32.1868 175.141 32.281 175.136H74.954C75.0481 175.141 75.1368 175.182 75.2017 175.25C75.2666 175.318 75.3028 175.409 75.3028 175.503C75.3028 175.598 75.2666 175.688 75.2017 175.757C75.1368 175.825 75.0481 175.866 74.954 175.871H32.281Z"></path>
    <path fill="#EAEAEA" d="M119.62 172.759C119.595 174.214 119.61 175.671 119.62 177.126C119.627 177.422 119.518 177.709 119.316 177.926C119.115 178.144 118.836 178.274 118.54 178.289C118.244 178.305 117.954 178.204 117.731 178.009C117.508 177.813 117.37 177.539 117.346 177.244C117.339 177.144 117.346 172.821 117.346 172.759C117.341 172.664 117.3 172.576 117.232 172.511C117.163 172.446 117.073 172.41 116.978 172.41C116.884 172.41 116.794 172.446 116.725 172.511C116.657 172.576 116.616 172.664 116.611 172.759C116.532 177.297 116.591 177.088 116.645 177.509C116.746 177.985 117.029 178.404 117.432 178.678C117.836 178.951 118.33 179.057 118.811 178.974C119.291 178.891 119.72 178.624 120.009 178.231C120.297 177.838 120.422 177.349 120.357 176.866V172.759C120.354 172.661 120.312 172.569 120.24 172.502C120.169 172.436 120.074 172.4 119.977 172.404C119.883 172.405 119.794 172.443 119.727 172.509C119.661 172.575 119.622 172.665 119.62 172.759V172.759Z"></path>
    <path fill="#EAEAEA" d="M171.552 172.759C171.527 174.214 171.542 175.671 171.552 177.126C171.559 177.422 171.45 177.71 171.248 177.927C171.047 178.144 170.768 178.274 170.472 178.29C170.176 178.305 169.886 178.204 169.663 178.009C169.44 177.814 169.302 177.539 169.278 177.244C169.271 177.144 169.278 172.821 169.278 172.759C169.273 172.665 169.232 172.576 169.164 172.511C169.095 172.446 169.005 172.41 168.91 172.41C168.816 172.41 168.725 172.446 168.657 172.511C168.589 172.576 168.548 172.665 168.543 172.759C168.463 177.318 168.524 177.098 168.577 177.509C168.678 177.986 168.961 178.405 169.364 178.678C169.768 178.951 170.262 179.057 170.742 178.974C171.223 178.891 171.652 178.625 171.941 178.232C172.229 177.839 172.354 177.349 172.289 176.866V172.759C172.284 172.665 172.243 172.576 172.175 172.511C172.106 172.446 172.016 172.41 171.921 172.41C171.827 172.41 171.737 172.446 171.668 172.511C171.6 172.576 171.559 172.665 171.554 172.759H171.552Z"></path>
    <path fill="#ffffff" d="M36.592 58.6387C33.608 58.7867 31.259 58.8057 28.592 58.7387C28.4918 59.3264 28.5221 59.929 28.6807 60.5037C28.8392 61.0785 29.1222 61.6113 29.5096 62.0645C29.897 62.5178 30.3792 62.8803 30.9223 63.1264C31.4653 63.3725 32.0558 63.4962 32.652 63.4888C33.2482 63.4813 33.8354 63.3429 34.3721 63.0833C34.9089 62.8236 35.3819 62.4492 35.7579 61.9864C36.1338 61.5237 36.4034 60.9839 36.5475 60.4054C36.6917 59.8269 36.7069 59.2237 36.592 58.6387V58.6387Z"></path>
    <path fill="#a0a0a0" d="M34.2 53.1398C33.3624 52.8595 32.4708 52.7791 31.5965 52.905C30.7222 53.0309 29.8896 53.3597 29.1652 53.8651C28.4407 54.3705 27.8446 55.0384 27.4246 55.8154C27.0045 56.5924 26.7721 57.4569 26.746 58.3398C26.7395 58.4081 26.7555 58.4767 26.7916 58.535C26.8277 58.5933 26.8819 58.6382 26.946 58.6628C27.7342 58.7905 28.5348 58.8241 29.331 58.7628C34.007 58.8448 37.031 58.6078 38.175 58.5628C38.2718 58.5608 38.3641 58.5215 38.4326 58.4531C38.5012 58.3848 38.5407 58.2926 38.543 58.1958C38.558 55.7708 36.377 53.8148 34.2 53.1398Z"></path>
    <path fill="#a0a0a0" d="M159.373 150.512V162.865C159.378 162.959 159.419 163.048 159.487 163.113C159.556 163.178 159.646 163.214 159.741 163.214C159.835 163.214 159.926 163.178 159.994 163.113C160.062 163.048 160.103 162.959 160.108 162.865V150.512C160.103 150.418 160.062 150.329 159.994 150.264C159.926 150.199 159.835 150.163 159.741 150.163C159.646 150.163 159.556 150.199 159.487 150.264C159.419 150.329 159.378 150.418 159.373 150.512Z"></path>
    <path fill="#a0a0a0" d="M125.867 51.9998H108.067C106.08 51.997 104.169 51.2361 102.724 49.8724C101.279 48.5087 100.409 46.645 100.292 44.6616C100.174 42.6782 100.818 40.7247 102.091 39.1998C103.365 37.6748 105.172 36.6934 107.145 36.4558C108.154 36.3558 123.651 36.4277 125.874 36.4037C125.938 36.4025 126.001 36.3847 126.056 36.3521C126.112 36.3194 126.157 36.2729 126.189 36.2173C126.222 36.1616 126.239 36.0986 126.239 36.0343C126.239 35.9701 126.223 35.9069 126.192 35.8508C124.46 32.0901 121.602 28.9614 118.012 26.8984C114.423 24.8353 110.28 23.9402 106.159 24.337C102.038 24.7338 98.1429 26.403 95.0131 29.113C91.8832 31.8231 89.6741 35.4398 88.692 39.4618H87.513C87.7497 40.2645 87.8795 41.095 87.899 41.9317C87.939 43.1897 88.119 44.7458 87.041 45.6528C86.84 45.822 86.6077 45.9501 86.3572 46.0295C86.1068 46.109 85.8431 46.1383 85.5813 46.1159C85.3195 46.0934 85.0647 46.0195 84.8315 45.8986C84.5982 45.7776 84.3911 45.6118 84.222 45.4107C83.8738 44.9748 83.6082 44.479 83.438 43.9478C83.256 43.4118 82.658 41.7158 82.551 41.3998C82.6025 42.3087 82.6005 43.22 82.545 44.1288C82.286 46.9348 79.369 47.0968 78.037 44.7288C77.3491 43.42 76.7982 42.0437 76.393 40.6218C76.172 42.8438 76.322 43.7437 75.877 44.8137C75.7257 45.253 75.4281 45.627 75.0339 45.873C74.6397 46.1189 74.173 46.2219 73.712 46.1648C72.581 46.0128 71.912 44.8787 71.593 43.8837C71.128 42.4497 71.243 40.9257 70.837 39.4677C70.168 39.4787 69.499 39.4987 68.829 39.5007C68.7804 39.5005 68.7323 39.4906 68.6876 39.4717C68.6428 39.4528 68.6023 39.4252 68.5683 39.3905C68.5342 39.3558 68.5074 39.3147 68.4893 39.2697C68.4713 39.2246 68.4623 39.1763 68.463 39.1277C68.4617 39.0753 68.4738 39.0233 68.498 38.9768C67.5053 37.0308 65.9794 35.4076 64.0985 34.2967C62.2176 33.1859 60.0594 32.6332 57.8761 32.7034C55.6928 32.7735 53.5745 33.4636 51.7688 34.6929C49.9631 35.9223 48.5446 37.6401 47.679 39.6458C47.6477 39.7022 47.6315 39.7657 47.6321 39.8302C47.6327 39.8947 47.65 39.958 47.6823 40.0138C47.7147 40.0696 47.7609 40.1161 47.8166 40.1487C47.8723 40.1813 47.9355 40.1989 48 40.1998C48 40.1998 57.031 40.2148 58.133 40.1998C58.6607 40.1891 59.1854 40.2828 59.6769 40.4756C60.1683 40.6683 60.6168 40.9563 60.9966 41.323C61.3763 41.6897 61.6799 42.1278 61.8898 42.6121C62.0997 43.0965 62.2117 43.6176 62.2196 44.1454C62.2274 44.6733 62.1309 45.1974 61.9355 45.6878C61.7401 46.1782 61.4496 46.6252 61.0809 47.0029C60.7122 47.3807 60.2725 47.6819 59.787 47.8892C59.3015 48.0965 58.7798 48.2058 58.252 48.2107H48C47.9359 48.2124 47.8734 48.2305 47.8184 48.2633C47.7634 48.2961 47.7178 48.3426 47.686 48.3981C47.6541 48.4537 47.6371 48.5165 47.6366 48.5805C47.6361 48.6446 47.652 48.7077 47.683 48.7638C48.566 50.8123 50.0255 52.56 51.8837 53.7941C53.742 55.0281 55.919 55.6955 58.1497 55.7147C60.3803 55.734 62.5685 55.1045 64.4478 53.9027C66.3272 52.7009 67.8166 50.9787 68.735 48.9457H88.686C89.6677 52.968 91.8767 56.5851 95.0066 59.2955C98.1365 62.0059 102.032 63.6752 106.154 64.0719C110.275 64.4687 114.418 63.5732 118.007 61.5097C121.596 59.4462 124.455 56.3169 126.186 52.5557C126.218 52.4994 126.234 52.4359 126.234 52.3712C126.234 52.3066 126.217 52.2431 126.185 52.1871C126.152 52.131 126.106 52.0843 126.05 52.0514C125.995 52.0186 125.932 52.0008 125.867 51.9998V51.9998Z"></path>
    <path fill="#ffffff" d="M87.8999 41.9356C87.8805 41.0989 87.7507 40.2684 87.5139 39.4656C87.1783 38.403 86.6003 37.4329 85.8256 36.6318C85.0509 35.8308 84.1007 35.2207 83.0499 34.8496C80.4594 33.9809 77.6957 33.7595 74.9999 34.2046C71.9999 34.7046 69.5099 36.1886 68.4739 39.0376C68.4489 39.1326 68.4625 39.2336 68.5118 39.3185C68.5611 39.4034 68.6421 39.4653 68.7369 39.4906C68.8439 39.5186 68.9479 39.5006 70.8369 39.4696C71.2449 40.9426 71.1289 42.4556 71.5929 43.8856C71.9159 44.8806 72.5809 46.0146 73.7119 46.1666C74.173 46.2238 74.6397 46.1208 75.0339 45.8748C75.428 45.6289 75.7257 45.2549 75.8769 44.8156C76.3249 43.7396 76.1699 42.8636 76.3929 40.6236C76.7962 42.0462 77.3472 43.4227 78.0369 44.7306C79.3699 47.1016 82.2859 46.9306 82.5449 44.1306C82.6005 43.2219 82.6025 42.3106 82.5509 41.4016C82.6589 41.7166 83.2509 43.4136 83.4379 43.9496C83.6084 44.4808 83.874 44.9765 84.2219 45.4126C84.3906 45.6144 84.5976 45.7808 84.8308 45.9022C85.0641 46.0236 85.3191 46.0977 85.5811 46.1202C85.8431 46.1427 86.107 46.1132 86.3575 46.0332C86.6081 45.9533 86.8403 45.8247 87.0409 45.6546C88.1199 44.7506 87.9389 43.1936 87.8999 41.9356ZM81.6409 37.9156C81.1754 37.2129 80.626 36.5695 80.0049 35.9996C79.6559 35.6776 80.1779 35.1586 80.5249 35.4796C81.1894 36.0942 81.7767 36.7873 82.2739 37.5436C82.5349 37.9406 81.8999 38.3086 81.6399 37.9156H81.6409ZM75.5749 37.9056C75.053 37.3774 74.5841 36.7993 74.1749 36.1796C73.9129 35.7796 74.5499 35.4156 74.8089 35.8086C75.1844 36.375 75.6144 36.9032 76.0929 37.3856C76.4269 37.7226 75.9069 38.2426 75.5739 37.9056H75.5749Z"></path>
    <path fill="#ffffff" d="M30.51 89.8746V109.78C30.5149 109.874 30.5558 109.962 30.6242 110.027C30.6925 110.092 30.7832 110.128 30.8775 110.128C30.9718 110.128 31.0625 110.092 31.1309 110.027C31.1992 109.962 31.2401 109.874 31.245 109.78V89.8796C31.2401 89.7854 31.1992 89.6968 31.1309 89.6319C31.0625 89.567 30.9718 89.5308 30.8775 89.5308C30.7832 89.5308 30.6925 89.567 30.6242 89.6319C30.5558 89.6968 30.5149 89.7854 30.51 89.8796V89.8746Z"></path>
    <path fill="#ffffff" d="M13.209 90.0279V109.933C13.2139 110.027 13.2548 110.116 13.3231 110.181C13.3915 110.246 13.4822 110.282 13.5765 110.282C13.6708 110.282 13.7614 110.246 13.8298 110.181C13.8982 110.116 13.9391 110.027 13.944 109.933V90.0329C13.9391 89.9388 13.8982 89.8501 13.8298 89.7852C13.7614 89.7203 13.6708 89.6841 13.5765 89.6841C13.4822 89.6841 13.3915 89.7203 13.3231 89.7852C13.2548 89.8501 13.2139 89.9388 13.209 90.0329V90.0279Z"></path>
    <path fill="#ffffff" d="M16.286 109.886C17.116 109.086 17.9327 108.269 18.736 107.437C18.8004 107.367 18.8353 107.275 18.8333 107.18C18.8314 107.085 18.7928 106.994 18.7256 106.927C18.6584 106.86 18.5679 106.821 18.4729 106.819C18.3779 106.817 18.2858 106.852 18.216 106.917C17.386 107.717 16.5693 108.533 15.766 109.367C15.7038 109.437 15.6708 109.528 15.6737 109.622C15.6766 109.716 15.7152 109.805 15.7816 109.871C15.8479 109.937 15.9371 109.976 16.0309 109.979C16.1246 109.981 16.2159 109.948 16.286 109.886V109.886Z"></path>
    <path fill="#ffffff" d="M71.711 78.9576L74.161 76.6576C74.507 76.3326 73.986 75.8136 73.641 76.1376L71.192 78.4377C70.846 78.7627 71.366 79.2816 71.711 78.9576Z"></path>
    <path fill="#ffffff" d="M46.542 72.0676C46.205 71.7356 45.685 72.2546 46.022 72.5876C48.4716 75.0006 50.4013 77.8896 51.692 81.0766C51.867 81.5096 52.578 81.3206 52.401 80.8766C51.0698 77.5711 49.0758 74.5732 46.542 72.0676V72.0676Z"></path>
    <path fill="#ffffff" d="M18.823 128V130.347C18.8279 130.441 18.8688 130.53 18.9372 130.594C19.0055 130.659 19.0962 130.696 19.1905 130.696C19.2848 130.696 19.3755 130.659 19.4438 130.594C19.5122 130.53 19.5531 130.441 19.558 130.347V128C19.5531 127.906 19.5122 127.817 19.4438 127.752C19.3755 127.687 19.2848 127.651 19.1905 127.651C19.0962 127.651 19.0055 127.687 18.9372 127.752C18.8688 127.817 18.8279 127.906 18.823 128Z"></path>
    <path fill="#ffffff" d="M24.692 127.744V130.194C24.6969 130.288 24.7377 130.377 24.8061 130.442C24.8745 130.506 24.9652 130.543 25.0595 130.543C25.1537 130.543 25.2444 130.506 25.3128 130.442C25.3812 130.377 25.422 130.288 25.427 130.194V127.744C25.422 127.65 25.3812 127.561 25.3128 127.496C25.2444 127.431 25.1537 127.395 25.0595 127.395C24.9652 127.395 24.8745 127.431 24.8061 127.496C24.7377 127.561 24.6969 127.65 24.692 127.744V127.744Z"></path>
    <path fill="#ffffff" d="M75.5739 37.9057C75.9069 38.2427 76.4269 37.7227 76.0939 37.3857C75.6154 36.9032 75.1854 36.375 74.8099 35.8087C74.5509 35.4157 73.9099 35.7837 74.1759 36.1797C74.5844 36.7993 75.0527 37.3774 75.5739 37.9057V37.9057Z"></path>
    <path fill="#ffffff" d="M81.64 37.9156C81.899 38.3086 82.535 37.9406 82.274 37.5446C81.7767 36.7883 81.1894 36.0952 80.525 35.4806C80.178 35.1596 79.656 35.6806 80.005 36.0006C80.6256 36.5703 81.1747 37.2133 81.64 37.9156V37.9156Z"></path>
    <path fill="#000000" d="M77.025 27.8658V17.4548C77.0201 17.3606 76.9793 17.272 76.9109 17.207C76.8425 17.1421 76.7518 17.106 76.6575 17.106C76.5633 17.106 76.4726 17.1421 76.4042 17.207C76.3358 17.272 76.295 17.3606 76.29 17.4548V27.8658C76.295 27.9599 76.3358 28.0486 76.4042 28.1135C76.4726 28.1784 76.5633 28.2146 76.6575 28.2146C76.7518 28.2146 76.8425 28.1784 76.9109 28.1135C76.9793 28.0486 77.0201 27.9599 77.025 27.8658Z"></path>
    <path fill="#000000" d="M74.467 27.3999L70.793 23.7249C70.7231 23.6605 70.631 23.6256 70.536 23.6275C70.4411 23.6295 70.3505 23.668 70.2833 23.7352C70.2161 23.8024 70.1775 23.893 70.1756 23.988C70.1737 24.0829 70.2086 24.175 70.273 24.2449L73.948 27.9199C74.0182 27.982 74.1095 28.015 74.2032 28.0121C74.297 28.0093 74.3861 27.9707 74.4524 27.9043C74.5186 27.8379 74.557 27.7487 74.5597 27.655C74.5624 27.5612 74.5293 27.47 74.467 27.3999Z"></path>
    <path fill="#000000" d="M79.1629 28.1258L82.8369 24.4508C82.8993 24.3807 82.9324 24.2895 82.9297 24.1957C82.927 24.102 82.8886 24.0128 82.8223 23.9464C82.7561 23.88 82.667 23.8414 82.5732 23.8386C82.4795 23.8357 82.3882 23.8687 82.3179 23.9308L78.6429 27.6058C78.5786 27.6757 78.5437 27.7678 78.5456 27.8627C78.5475 27.9577 78.5861 28.0483 78.6533 28.1155C78.7205 28.1827 78.8111 28.2213 78.906 28.2232C79.001 28.2251 79.0931 28.1902 79.1629 28.1258V28.1258Z"></path>
    <g>
      <path fill="#000000" d="M159.779 108.31L164.205 111.952C164.628 112.3 165.238 111.697 164.811 111.346L160.386 107.704C159.963 107.356 159.352 107.959 159.779 108.31Z"></path>
      <path fill="#000000" d="M164.239 108.094C164.759 108.283 164.982 107.454 164.467 107.267C163.41 106.883 162.353 106.498 161.297 106.112C160.778 105.923 160.554 106.751 161.069 106.939L164.239 108.094Z"></path>
      <path fill="#000000" d="M127.836 108.363L124.436 110.941C124.34 111.001 124.271 111.095 124.243 111.204C124.214 111.313 124.229 111.429 124.283 111.528C124.311 111.577 124.349 111.619 124.394 111.653C124.439 111.688 124.49 111.712 124.544 111.727C124.599 111.741 124.655 111.744 124.711 111.736C124.767 111.729 124.821 111.71 124.869 111.681C126.002 110.823 127.136 109.963 128.269 109.103C128.365 109.044 128.435 108.95 128.463 108.841C128.492 108.732 128.478 108.616 128.423 108.517C128.395 108.468 128.357 108.426 128.312 108.392C128.267 108.357 128.216 108.333 128.161 108.318C128.107 108.304 128.05 108.301 127.994 108.308C127.938 108.316 127.885 108.335 127.836 108.363Z"></path>
      <path fill="#000000" d="M127.836 106.253L122.021 108.929C121.521 109.16 121.956 109.899 122.454 109.669L128.268 106.993C128.769 106.763 128.334 106.024 127.836 106.253Z"></path>
      <path fill="#000000" d="M142.907 46.0113C143.824 45.5259 144.803 45.1705 145.818 44.9553C147.748 44.5243 149.975 44.0813 151.13 42.2863C153.369 38.8083 149.011 33.4693 151.691 29.5393C152.01 29.005 152.469 28.5681 153.018 28.2755C153.567 27.983 154.186 27.8459 154.807 27.8793C154.917 27.9064 155.033 27.8905 155.131 27.8346C155.229 27.7788 155.302 27.6874 155.335 27.5793C155.35 27.525 155.354 27.4682 155.347 27.4123C155.34 27.3564 155.322 27.3024 155.294 27.2535C155.266 27.2045 155.229 27.1615 155.185 27.127C155.14 27.0925 155.089 27.0671 155.035 27.0523C152.401 26.6853 150.321 29.1013 150.027 31.5213C149.559 35.3703 151.386 37.9913 150.871 40.6263C150.765 41.16 150.535 41.6615 150.2 42.0906C149.865 42.5197 149.435 42.8644 148.943 43.0973C146.425 44.2313 145.162 43.9053 142.808 45.0833C141.709 45.6502 140.82 46.553 140.27 47.6603C138.658 50.7553 139.435 54.2853 140.36 57.4483C140.395 57.5527 140.468 57.6398 140.565 57.6916C140.662 57.7435 140.775 57.756 140.881 57.7268C140.987 57.6975 141.078 57.6286 141.135 57.5344C141.191 57.4401 141.21 57.3277 141.186 57.2203C140.444 54.4633 139.656 51.4823 140.733 48.7013C141.141 47.5896 141.906 46.644 142.907 46.0113V46.0113Z"></path>
      <path fill="#000000" d="M106.249 140.246L106.264 140.266L106.249 140.246Z"></path>
      <path fill="#000000" d="M5.03797 175.625C5.05716 175.714 5.10715 175.794 5.17919 175.85C5.25122 175.906 5.34071 175.935 5.43197 175.932H31.869C31.9238 176.933 32.1798 177.912 32.6216 178.812C33.0634 179.711 33.6819 180.513 34.4403 181.168C35.1987 181.823 36.0814 182.318 37.0356 182.625C37.9898 182.931 38.9959 183.042 39.994 182.951H79.184C81.8654 182.994 84.5235 182.447 86.971 181.351C97.831 176.306 96.605 160.605 83.428 158.135C84.2302 156.334 85.3508 154.692 86.736 153.289C86.91 153.563 87.081 153.84 87.262 154.111L87.278 154.128L87.285 154.147C93.225 163.032 103.451 169.419 114.196 167.392C114.355 167.365 114.513 167.331 114.673 167.301V170.736C114.675 170.849 114.72 170.957 114.8 171.037C114.88 171.117 114.988 171.163 115.101 171.165H174.058C174.171 171.162 174.278 171.116 174.358 171.036C174.438 170.956 174.484 170.849 174.487 170.736V121.319C174.485 121.206 174.44 121.098 174.36 121.017C174.279 120.937 174.171 120.892 174.058 120.89H156.805V107.2C161.38 104.516 164.944 100.4 166.947 95.4889C168.951 90.5775 169.282 85.1432 167.89 80.0249C166.498 74.9066 163.46 70.3887 159.245 67.1686C155.03 63.9486 149.872 62.2053 144.568 62.2079C139.264 62.2105 134.108 63.9588 129.896 67.1831C125.684 70.4073 122.65 74.9281 121.263 80.0478C119.876 85.1675 120.213 90.6014 122.221 95.5108C124.229 100.42 127.797 104.532 132.375 107.212V120.89H115.1C114.987 120.892 114.879 120.938 114.799 121.018C114.719 121.098 114.674 121.206 114.672 121.319V144.751C113.182 144.917 111.676 144.63 110.352 143.926C108.742 143.024 107.35 141.778 106.275 140.278L106.263 140.266C106.215 140.213 106.155 140.172 106.087 140.147C106.147 140.168 106.202 140.202 106.248 140.247C106.125 140.086 105.586 139.369 105.061 138.567C101.921 133.7 102.012 128.286 98.179 123.401C93.502 117.724 85.255 116.035 77.81 116.101C70.2764 116.18 62.8896 118.194 56.359 121.951C55.368 109.703 55.545 111.598 55.107 99.7591C54.892 93.9261 54.825 88.7261 53.398 83.3071C64.26 83.0881 66.617 82.8991 69.984 82.2211C72.7818 81.6565 75.2452 80.0139 76.842 77.6481C80.009 73.1941 81.951 64.3791 82.773 58.9871C83.2827 55.6813 83.6221 52.3516 83.79 49.0111H88.637C89.6304 53.0386 91.8511 56.6577 94.9917 59.3678C98.1323 62.0778 102.038 63.7448 106.167 64.1379C110.297 64.5311 114.446 63.6311 118.042 61.5624C121.638 59.4938 124.501 56.3587 126.237 52.5911C126.273 52.5256 126.292 52.452 126.291 52.3773C126.29 52.3026 126.271 52.2293 126.233 52.1645C126.196 52.0997 126.143 52.0455 126.079 52.0073C126.015 51.969 125.942 51.9479 125.867 51.9461H108.067C106.096 51.9442 104.199 51.1901 102.765 49.8378C101.331 48.4854 100.467 46.6367 100.349 44.6689C100.231 42.7011 100.869 40.7626 102.132 39.249C103.395 37.7354 105.188 36.7608 107.145 36.5241C107.851 36.4521 106.567 36.4721 125.874 36.4721C125.949 36.4705 126.022 36.4496 126.086 36.4114C126.151 36.3732 126.204 36.319 126.241 36.2541C126.278 36.1892 126.298 36.1158 126.299 36.0409C126.299 35.9661 126.28 35.8924 126.244 35.8271C124.508 32.0594 121.644 28.9244 118.049 26.8558C114.453 24.7872 110.303 23.8873 106.174 24.2806C102.044 24.6739 98.139 26.3409 94.9984 29.0511C91.8579 31.7612 89.6373 35.3805 88.644 39.4081H87.564C87.2163 38.3472 86.6306 37.3799 85.8517 36.5802C85.0728 35.7805 84.1213 35.1695 83.07 34.7941C80.4722 33.9103 77.695 33.6886 74.99 34.1491C72.124 34.6341 69.528 36.0851 68.49 38.8381C67.4755 36.904 65.9343 35.2965 64.0446 34.2016C62.1549 33.1067 59.9939 32.5691 57.8114 32.6509C55.629 32.7327 53.5142 33.4306 51.7118 34.6639C49.9093 35.8972 48.4928 37.6155 47.626 39.6201C47.5899 39.6855 47.5712 39.7591 47.5719 39.8338C47.5725 39.9085 47.5923 39.9818 47.6295 40.0466C47.6667 40.1115 47.72 40.1656 47.7841 40.2039C47.8483 40.2421 47.9213 40.2632 47.996 40.2651C47.996 40.2651 57.027 40.2811 58.129 40.2651C58.6486 40.2546 59.1652 40.3469 59.6491 40.5367C60.133 40.7264 60.5746 41.01 60.9485 41.371C61.3224 41.732 61.6214 42.1633 61.8281 42.6402C62.0348 43.117 62.1453 43.6301 62.1531 44.1498C62.161 44.6695 62.066 45.1856 61.8738 45.6685C61.6815 46.1514 61.3957 46.5915 61.0329 46.9636C60.67 47.3357 60.2371 47.6324 59.7592 47.8367C59.2813 48.041 58.7677 48.1489 58.248 48.1541H48C47.9253 48.1559 47.8523 48.177 47.7881 48.2153C47.7239 48.2535 47.6707 48.3077 47.6335 48.3725C47.5963 48.4373 47.5765 48.5106 47.5759 48.5853C47.5752 48.66 47.5939 48.7336 47.63 48.7991C48.517 50.8545 49.9815 52.6084 51.8457 53.8478C53.71 55.0872 55.894 55.7588 58.1325 55.7813C60.3711 55.8037 62.568 55.176 64.4568 53.9742C66.3456 52.7724 67.8449 51.0483 68.773 49.0111H69.393C68.431 56.6461 68.405 57.1021 68.027 58.7581C67.8394 59.9298 67.4033 61.0478 66.7478 62.0369C66.0924 63.0261 65.2329 63.8636 64.227 64.4931C62.147 65.6671 59.675 65.9101 57.344 66.1681C50.475 66.9291 39.303 67.7931 35.044 67.6491C30.1529 67.4857 25.3112 68.6713 21.049 71.0761C18.423 72.6072 16.1972 74.7387 14.554 77.2961C11.123 82.8331 10.768 88.2961 10.27 94.8641C9.90397 99.6811 9.68297 104.507 9.55197 109.336C9.53597 109.936 6.40997 169.436 6.40897 169.469C6.41027 169.582 6.45592 169.691 6.53612 169.771C6.61632 169.851 6.72469 169.896 6.83797 169.897L25.238 169.743C25.3055 170.426 25.4594 171.098 25.696 171.743C18.7055 170.83 11.601 172 5.27197 175.105C5.21924 175.119 5.17031 175.145 5.12873 175.18C5.08715 175.216 5.05396 175.26 5.03156 175.31C5.00916 175.359 4.99811 175.413 4.99922 175.468C5.00033 175.523 5.01357 175.576 5.03797 175.625V175.625ZM88.084 160.771C97.344 166.387 94.691 182.061 79.184 182.094C79.184 182.094 39.789 182.094 39.302 182.094C37.6266 182.1 36.0125 181.465 34.7899 180.319C33.5674 179.174 32.829 177.604 32.726 175.932H74.954C75.064 175.927 75.1678 175.879 75.2438 175.799C75.3199 175.72 75.3623 175.614 75.3623 175.504C75.3623 175.393 75.3199 175.287 75.2438 175.208C75.1678 175.128 75.064 175.08 74.954 175.075H32.28C30.542 175.086 28.8655 174.433 27.593 173.249C24.405 169.766 26.817 162.984 28.655 158.667H75.955C80.6 158.667 83.885 158.3 88.084 160.771V160.771ZM124.358 74.8271C126.134 71.7177 128.604 69.06 131.575 67.0603C134.545 65.0606 137.937 63.7729 141.487 63.2972C145.036 62.8216 148.647 63.1708 152.039 64.3177C155.432 65.4646 158.514 67.3784 161.047 69.9103C163.579 72.4421 165.494 75.5239 166.641 78.916C167.789 82.3081 168.139 85.9192 167.664 89.4686C167.19 93.018 165.903 96.4101 163.904 99.3813C161.905 102.353 159.248 104.823 156.139 106.6C156.059 106.643 155.996 106.712 155.961 106.796C155.926 106.88 155.921 106.974 155.948 107.061V120.89H146.39C146.56 119.3 149.765 91.6601 149.83 91.1181C151.018 90.3991 151.976 89.3554 152.59 88.1101C153.104 87.0501 153.601 85.1521 152.44 84.3101C151.223 83.5321 149.84 84.5861 149.599 85.9551C149.46 86.6911 149.512 86.5701 149.032 90.5801C147.968 91.1331 146.332 91.3871 145.432 90.4671C147.622 88.8991 148.126 85.8081 147.032 84.1671C146.868 83.8794 146.637 83.6363 146.357 83.4592C146.078 83.2821 145.759 83.1763 145.429 83.1512C145.099 83.1261 144.768 83.1825 144.465 83.3153C144.162 83.4482 143.896 83.6534 143.691 83.9131C143.288 84.5352 143.107 85.2752 143.178 86.0131C143.179 87.4633 143.517 88.8935 144.167 90.1901C143.376 90.5279 142.493 90.5813 141.667 90.3411C141.811 88.4573 141.562 86.564 140.934 84.7821C140.427 83.3681 138.87 82.4601 137.822 83.5581C137.434 84.0732 137.258 84.7173 137.33 85.3581C137.352 86.5163 137.687 87.6471 138.299 88.6307C138.911 89.6142 139.777 90.4139 140.807 90.9451C140.863 98.2451 142.225 115.894 142.62 120.883C142.62 120.883 133.42 120.875 133.239 120.872V106.972C133.242 106.897 133.225 106.822 133.188 106.757C133.151 106.692 133.096 106.638 133.03 106.602C130.374 105.085 128.043 103.06 126.17 100.642C124.297 98.2243 122.918 95.4612 122.113 92.5106C121.308 89.56 121.092 86.4797 121.477 83.4456C121.862 80.4114 122.841 77.4829 124.358 74.8271V74.8271ZM145.815 91.7271C146.833 92.0538 147.936 91.9973 148.915 91.5681C148.542 94.6171 145.826 118.191 145.536 120.889H143.475C143.332 119.095 141.995 99.8431 141.906 97.9671C141.83 96.3551 141.675 91.8671 141.666 91.2331C142.677 91.465 143.737 91.3502 144.675 90.9071C144.982 91.27 145.373 91.552 145.815 91.7281V91.7271ZM144.087 86.8271C143.955 86.1349 143.992 85.4212 144.193 84.7461C144.274 84.4881 144.448 84.2695 144.681 84.1332C144.915 83.9969 145.191 83.9526 145.455 84.0091C145.743 84.1055 146.001 84.2766 146.202 84.5049C146.403 84.7332 146.54 85.0107 146.599 85.3091C146.792 86.1384 146.736 87.0063 146.438 87.8038C146.139 88.6014 145.612 89.293 144.922 89.7921C144.441 88.8728 144.156 87.8633 144.087 86.8281V86.8271ZM149.964 89.9871C150.064 88.6502 150.234 87.3194 150.472 86.0001C150.648 84.8951 152.31 84.2181 152.272 86.0231C152.187 86.8089 151.937 87.568 151.54 88.2511C151.142 88.9342 150.605 89.526 149.964 89.9881V89.9871ZM140.801 89.9781C139.976 89.4529 139.301 88.7233 138.841 87.8601C138.382 86.997 138.153 86.0296 138.178 85.0521C138.192 84.6101 138.32 83.9691 138.87 83.9461C139.523 83.9191 139.91 84.6181 140.142 85.1261C140.712 86.6766 140.936 88.3328 140.8 89.9791L140.801 89.9781ZM115.53 121.748H173.63V170.3H115.53V167.125C118.399 166.499 121.171 165.492 123.774 164.133C126.477 162.79 128.897 160.938 130.9 158.68C130.694 159.724 130.707 160.8 130.939 161.839C131.099 162.303 131.371 162.719 131.731 163.052C132.091 163.384 132.529 163.622 133.003 163.744C133.478 163.867 133.976 163.869 134.452 163.752C134.928 163.634 135.367 163.401 135.731 163.072C136.454 162.301 136.924 161.326 137.078 160.28C137.241 159.727 137.408 159.18 137.578 158.624C138.1 160.41 138.421 161.819 139.24 162.802C139.608 163.261 140.093 163.613 140.644 163.819C141.195 164.025 141.792 164.078 142.371 163.973C142.974 163.815 143.523 163.498 143.962 163.054C144.4 162.611 144.711 162.059 144.863 161.454C145.321 159.815 145.101 159.575 145.263 160.139C145.647 161.488 146.363 163.039 147.873 163.363C151.706 164.174 151.835 159.137 151.616 156.282H154.13C154.243 156.281 154.351 156.235 154.432 156.155C154.512 156.075 154.557 155.966 154.559 155.853V153.29C154.557 153.177 154.512 153.069 154.432 152.989C154.352 152.909 154.244 152.864 154.131 152.862H151.131C150.807 151.111 150.329 149.393 149.703 147.726C147.852 142.944 143.097 139.795 138.115 139.176C134.87 138.923 131.605 139.262 128.481 140.176V130.376C128.481 130.262 128.436 130.153 128.355 130.073C128.275 129.992 128.166 129.947 128.052 129.947C127.938 129.947 127.829 129.992 127.749 130.073C127.668 130.153 127.623 130.262 127.623 130.376V140.417C121.69 142.107 118.714 144.067 115.53 144.632V121.748ZM150.771 156.285C150.997 158.444 150.907 162.485 148.671 162.591C148.359 162.611 148.047 162.558 147.76 162.435C147.472 162.313 147.218 162.125 147.016 161.886C146.153 160.509 145.676 158.926 145.634 157.301C145.61 156.845 144.885 156.686 144.792 157.187C144.592 158.265 144.392 159.345 144.203 160.425C144.178 160.973 144.007 161.505 143.709 161.965C143.41 162.426 142.994 162.798 142.503 163.044C142.056 163.195 141.574 163.208 141.119 163.081C140.665 162.954 140.259 162.693 139.955 162.332C139.375 161.538 138.971 160.629 138.768 159.667C138.501 158.78 138.242 157.889 137.989 156.996C137.962 156.908 137.907 156.831 137.832 156.776C137.758 156.721 137.668 156.692 137.575 156.692C137.483 156.692 137.393 156.721 137.319 156.776C137.244 156.831 137.189 156.908 137.162 156.996C135.738 161.696 135.912 161.455 135.523 162.052C135.308 162.356 135.017 162.6 134.68 162.759C134.344 162.919 133.971 162.989 133.6 162.962C133.228 162.936 132.869 162.815 132.558 162.609C132.247 162.404 131.994 162.122 131.823 161.791C131.412 160.585 131.667 159.812 131.873 157.445C132.189 157.067 132.513 156.696 132.849 156.335C138.4 156.334 150.343 156.285 150.771 156.285V156.285ZM133.727 155.476C134.28 154.953 134.924 154.535 135.627 154.243C136.667 153.909 137.754 153.743 138.847 153.75C139.73 153.75 153.702 153.717 153.702 153.717V155.423C151.612 155.425 134.642 155.476 133.727 155.476ZM113.976 145.66C117.543 145.526 119.324 144.147 124.822 142.211C131.477 139.867 138.429 138.421 144.297 142.367C146.342 143.735 147.936 145.679 148.877 147.952C149.477 149.546 149.942 151.188 150.266 152.86H141.491C139.004 152.884 136.21 152.634 134.054 154.119C132.965 154.929 131.994 155.885 131.167 156.961L131.14 157.007C129.343 159.435 127.023 161.429 124.353 162.842C121.492 164.468 118.398 165.643 115.179 166.327C112.266 167.05 109.232 167.145 106.279 166.606C99.028 165.216 92.488 160.222 88.212 153.973C93.261 148.673 99.461 144.618 105.846 141.1C107.874 143.616 110.6 145.786 113.976 145.66ZM75.405 117.042C84.276 116.486 94.512 118.304 98.918 126.022C101.712 131.047 101.396 135.154 105.318 140.411C98.953 143.923 92.762 148 87.731 153.243C83.043 145.995 81.103 137.368 80.68 128.843C80.652 128.293 79.794 128.29 79.822 128.843C80.336 139.143 82.879 146.803 86.276 152.527C84.6983 154.091 83.4366 155.945 82.56 157.986C81.6531 157.863 80.7391 157.8 79.824 157.798C77.681 157.791 29.229 157.791 29.031 157.79C31.961 150.963 35.15 144.19 39.55 138.175C43.9841 132.078 49.6114 126.946 56.09 123.09C61.963 119.583 68.5806 117.511 75.405 117.042V117.042ZM81.205 35.1251C82.6567 35.3825 84.0075 36.0406 85.105 37.0251C85.8302 37.7464 86.3866 38.6195 86.7341 39.5816C87.0817 40.5436 87.2117 41.5707 87.115 42.5891C87.1888 43.2153 87.1351 43.8501 86.957 44.4551C86.9071 44.6119 86.8268 44.7573 86.7207 44.8831C86.6146 45.0088 86.4847 45.1125 86.3386 45.188C86.1924 45.2636 86.0328 45.3097 85.8688 45.3236C85.7049 45.3375 85.5398 45.319 85.383 45.2691C85.1022 45.1309 84.8551 44.933 84.6589 44.6892C84.4626 44.4455 84.3221 44.1618 84.247 43.8581C83.792 42.6361 83.008 40.2371 82.467 38.7431C82.315 38.3241 81.567 38.3431 81.625 38.8571C81.7526 40.3167 81.8024 41.7821 81.774 43.2471C81.774 44.1201 81.692 45.3961 80.693 45.5761C80.2754 45.5768 79.8665 45.4577 79.5148 45.2327C79.163 45.0077 78.8833 44.6864 78.709 44.3071C78.1714 43.2989 77.733 42.241 77.4 41.1481C77.127 40.3481 76.869 39.5481 76.637 38.7411C76.6065 38.644 76.5428 38.5608 76.4569 38.5063C76.3711 38.4517 76.2687 38.4293 76.1679 38.4429C76.0671 38.4565 75.9744 38.5054 75.9061 38.5808C75.8379 38.6563 75.7985 38.7534 75.795 38.8551C75.388 42.1621 75.495 42.8901 75.357 43.7551C75.244 44.4761 74.927 45.2941 74.116 45.3911C73.211 45.4991 72.64 44.4811 72.393 43.7641C71.864 42.2241 72.041 40.5391 71.532 38.9861C71.5252 38.9714 71.5171 38.9574 71.508 38.9441C71.4837 38.8612 71.4319 38.7891 71.3613 38.7395C71.2906 38.6899 71.2052 38.6658 71.119 38.6711L69.494 38.6981C71.373 34.8271 77.037 34.2001 81.2 35.1251H81.205ZM68.5 48.1511C68.4249 48.1499 68.351 48.169 68.2859 48.2063C68.2208 48.2436 68.1669 48.2978 68.13 48.3631C67.3367 50.2529 66.0179 51.8755 64.33 53.0383C62.6422 54.2011 60.6562 54.8553 58.6077 54.9232C56.5593 54.9911 54.5343 54.4699 52.7732 53.4214C51.012 52.3729 49.5887 50.8412 48.672 49.0081H58.249C59.4272 49.0124 60.5659 48.5833 61.4481 47.8024C62.3304 47.0215 62.8947 45.9433 63.0334 44.7733C63.1721 43.6032 62.8757 42.423 62.2005 41.4575C61.5253 40.4919 60.5185 39.8083 59.372 39.5371C58.2924 39.3702 57.1975 39.3259 56.108 39.4051H48.689C49.3973 37.9849 50.4129 36.7403 51.6622 35.7616C52.9114 34.7829 54.3628 34.0945 55.9112 33.7466C57.4596 33.3986 59.066 33.3998 60.6138 33.75C62.1617 34.1001 63.6122 34.7905 64.86 35.7711C66.2879 36.904 67.4113 38.3745 68.129 40.0501C68.1661 40.1152 68.22 40.1692 68.2851 40.2065C68.3501 40.2438 68.424 40.263 68.499 40.2621H70.952C71.0582 41.4878 71.2527 42.7043 71.534 43.9021C71.65 44.4495 71.913 44.9549 72.2946 45.3642C72.6762 45.7734 73.162 46.071 73.7 46.2251C74.1763 46.2838 74.6584 46.1776 75.066 45.9241C75.4735 45.6707 75.782 45.2853 75.94 44.8321C76.38 43.7721 76.251 42.8321 76.429 40.9321C76.8034 42.2638 77.3264 43.5492 77.988 44.7641C79.35 47.1861 82.33 47.0081 82.61 44.1351C82.6778 43.3594 82.6832 42.5796 82.626 41.8031C82.69 41.9911 83.201 43.4341 83.383 43.9701C83.5591 44.5099 83.83 45.0141 84.183 45.4591C84.5361 45.8766 85.0406 46.1368 85.5855 46.1825C86.1304 46.2283 86.6712 46.0558 87.089 45.7031C88.181 44.7831 88.009 43.2151 87.965 41.9381C87.9489 41.3761 87.8881 40.8163 87.783 40.2641H88.974C89.0676 40.2631 89.1584 40.2319 89.2328 40.1752C89.3072 40.1184 89.3613 40.0391 89.387 39.9491C90.2584 36.0974 92.2994 32.6095 95.2305 29.9631C98.1615 27.3168 101.839 25.6415 105.759 25.1667C109.68 24.692 113.651 25.4412 117.129 27.3115C120.607 29.1818 123.421 32.0817 125.187 35.6141C125.187 35.6141 107.798 35.6141 107.153 35.6651C104.967 35.9019 102.955 36.9674 101.531 38.6425C100.107 40.3176 99.379 42.4748 99.497 44.6702C99.615 46.8657 100.57 48.9324 102.165 50.4452C103.761 51.9581 105.875 52.8019 108.074 52.8031H125.183C123.413 56.3281 120.597 59.2206 117.121 61.0854C113.645 62.9502 109.679 63.6964 105.763 63.222C101.847 62.7476 98.1727 61.0757 95.2426 58.4348C92.3126 55.7939 90.2693 52.3128 89.392 48.4671C89.3661 48.3772 89.312 48.2981 89.2376 48.2416C89.1631 48.185 89.0724 48.1539 88.979 48.1531L68.5 48.1511ZM70.236 49.0971H82.929C82.776 52.2254 82.4629 55.3438 81.991 58.4401H68.96C69.292 56.8191 69.435 55.4741 70.235 49.1001L70.236 49.0971ZM12.084 86.2341C13.084 80.6391 15.684 75.7341 20.333 72.5401C24.622 69.7589 29.6563 68.3497 34.766 68.5001C40.402 68.6281 51.266 67.6951 57.116 67.0521C61.107 66.6131 64.963 66.1841 67.261 62.8521C67.9654 61.7648 68.4732 60.5622 68.761 59.2991H81.851C81.371 62.3742 80.7079 65.418 79.865 68.4141C79.1726 71.133 78.1295 73.7502 76.762 76.2001C76.1178 77.3944 75.2424 78.4486 74.1867 79.3012C73.131 80.1538 71.9162 80.7877 70.613 81.1661C68.2482 81.7428 65.8283 82.0639 63.395 82.1241C59.88 82.2431 56.364 82.3881 52.847 82.4571C52.7813 82.4581 52.7167 82.4741 52.6581 82.5038C52.5995 82.5334 52.5484 82.576 52.5086 82.6283C52.4688 82.6805 52.4415 82.7412 52.4285 82.8056C52.4156 82.87 52.4175 82.9365 52.434 83.0001C54.156 89.5251 53.997 92.9001 54.655 110.7H30.736C30.6228 110.702 30.5148 110.747 30.4347 110.827C30.3546 110.907 30.3088 111.015 30.307 111.128C30.281 112.551 30.25 113.974 30.214 115.395H14.514C14.514 113.973 14.514 112.551 14.514 111.128C14.5124 111.015 14.4668 110.907 14.3869 110.827C14.307 110.747 14.199 110.702 14.086 110.7H10.379C10.516 104.933 11.043 91.6241 12.084 86.2341ZM29.884 136.313C29.901 137.451 29.996 138.772 29.105 139.638C28.8798 139.892 28.5652 140.05 28.2268 140.078C27.8883 140.106 27.552 140.003 27.288 139.789C26.9232 139.445 26.6688 139 26.557 138.511C26.115 136.449 25.7987 134.361 25.61 132.26C25.552 131.724 24.754 131.695 24.753 132.26C24.714 133.912 24.536 135.56 24.339 137.198C24.2536 137.99 24.0441 138.764 23.718 139.491C23.5228 139.941 23.1948 140.32 22.778 140.577C22.5457 140.685 22.2849 140.717 22.0333 140.668C21.7818 140.619 21.5523 140.491 21.378 140.303C20.253 139.241 20.16 137.609 19.994 136.103C19.8566 134.857 19.7156 133.612 19.571 132.368C19.571 132.254 19.5258 132.145 19.4453 132.065C19.3649 131.984 19.2557 131.939 19.142 131.939C19.0282 131.939 18.9191 131.984 18.8386 132.065C18.7582 132.145 18.713 132.254 18.713 132.368C18.629 133.846 18.485 135.322 18.423 136.801C18.4611 137.636 18.3597 138.471 18.123 139.273C18.0065 139.59 17.8237 139.878 17.587 140.118C17.379 140.328 17.1105 140.468 16.819 140.518C16.6195 140.541 16.4173 140.516 16.23 140.443C15.9743 140.337 15.7455 140.175 15.56 139.969C15.0089 139.263 14.6913 138.402 14.651 137.507C14.613 136.853 14.522 116.383 14.522 116.261H30.191C30.11 119.461 29.874 126.289 29.871 126.511C29.8701 126.605 29.9006 126.697 29.9576 126.772C30.0147 126.846 30.095 126.9 30.186 126.924C33.178 127.691 35.414 128.11 36.244 129.017C36.4152 129.229 36.4961 129.499 36.469 129.77C36.446 129.91 36.3927 130.044 36.313 130.162C35.469 131.507 31.562 131.393 29.983 131.225C29.9267 131.225 29.8709 131.236 29.8189 131.257C29.7668 131.279 29.7195 131.31 29.6797 131.35C29.6398 131.39 29.6082 131.437 29.5866 131.489C29.5651 131.541 29.554 131.597 29.554 131.653C29.723 133.2 29.856 134.751 29.879 136.313H29.884ZM25.194 168.883C23.264 168.899 7.86397 169.009 7.29897 169.027C7.31597 168.727 10.359 111.635 10.361 111.56H13.666C13.666 112.982 13.728 136.616 13.787 137.417C13.905 139.024 14.693 141.381 16.675 141.375C18.581 141.369 19.252 139.231 19.27 137.288C19.3403 138.265 19.6244 139.214 20.102 140.069C20.3304 140.566 20.7153 140.974 21.1977 141.231C21.6801 141.488 22.2334 141.579 22.773 141.492C24.608 141.008 25.117 138.331 25.285 136.447C25.511 137.819 25.637 139.347 26.56 140.281C28.06 141.814 30.686 140.629 30.748 137.511C30.7645 135.707 30.6693 133.903 30.463 132.111C31.5695 132.206 32.6825 132.196 33.787 132.079C34.5843 132.002 35.3624 131.788 36.087 131.446C36.5101 131.26 36.8578 130.936 37.0734 130.527C37.2889 130.118 37.3596 129.648 37.274 129.194C36.883 127.706 34.815 127.249 33.244 126.81C32.416 126.578 31.581 126.369 30.744 126.172C30.828 123.972 31.133 112.984 31.159 111.561C31.159 111.561 54.223 111.58 54.7 111.568C54.732 112.157 55.418 120.874 55.544 122.422C41.189 130.985 34.381 143.035 28.004 158.022V158.045C27.991 158.069 27.978 158.095 27.965 158.125C27.0532 160.151 26.3153 162.25 25.759 164.401C25.3802 165.865 25.1886 167.371 25.189 168.883H25.194ZM26.123 172.666C26.7038 173.726 27.6106 174.571 28.709 175.075C5.42597 175.075 9.69397 175.081 7.45197 175.057C13.3392 172.572 19.7944 171.745 26.118 172.666H26.123Z"></path>
      <path fill="#000000" d="M151.564 46.0113C152.48 45.5259 153.46 45.1705 154.474 44.9553C156.404 44.5243 158.632 44.0813 159.786 42.2863C162.031 38.8003 157.666 33.4703 160.348 29.5393C160.667 29.005 161.126 28.5681 161.675 28.2755C162.224 27.983 162.843 27.8459 163.464 27.8793C163.574 27.9069 163.69 27.8911 163.788 27.8352C163.886 27.7793 163.959 27.6876 163.991 27.5793C164.006 27.525 164.01 27.4682 164.003 27.4123C163.996 27.3564 163.978 27.3024 163.95 27.2535C163.923 27.2045 163.885 27.1615 163.841 27.127C163.796 27.0925 163.745 27.0671 163.691 27.0523C161.057 26.6853 158.976 29.1013 158.682 31.5213C158.207 35.4343 160.049 37.9543 159.526 40.6263C159.421 41.1604 159.191 41.6625 158.857 42.0921C158.522 42.5217 158.092 42.867 157.6 43.1003C155.011 44.2663 153.869 43.8833 151.466 45.0863C150.367 45.6532 149.478 46.556 148.928 47.6633C147.316 50.7583 148.096 54.2873 149.017 57.4513C149.049 57.5591 149.122 57.65 149.22 57.7046C149.318 57.7592 149.434 57.7731 149.542 57.7432C149.651 57.7133 149.743 57.6421 149.8 57.5449C149.856 57.4477 149.872 57.3322 149.844 57.2233C149.101 54.4663 148.313 51.4853 149.39 48.7043C149.798 47.5916 150.562 46.6449 151.564 46.0113Z"></path>
      <path fill="#000000" d="M172.145 27.8793C172.255 27.9067 172.37 27.8908 172.469 27.8349C172.567 27.779 172.64 27.6875 172.672 27.5793C172.687 27.525 172.691 27.4682 172.684 27.4123C172.677 27.3564 172.659 27.3024 172.631 27.2535C172.604 27.2045 172.566 27.1615 172.522 27.127C172.477 27.0925 172.426 27.0671 172.372 27.0523C169.738 26.6853 167.657 29.1013 167.363 31.5213C166.887 35.4343 168.73 37.9543 168.207 40.6263C168.101 41.1605 167.872 41.6626 167.538 42.0923C167.203 42.5219 166.772 42.8671 166.28 43.1003C163.757 44.2373 162.505 43.9003 160.146 45.0863C159.047 45.6528 158.158 46.5557 157.608 47.6633C155.996 50.7583 156.773 54.2883 157.697 57.4513C157.729 57.5591 157.802 57.65 157.9 57.7046C157.998 57.7592 158.114 57.7731 158.222 57.7432C158.331 57.7133 158.423 57.6421 158.48 57.5449C158.536 57.4477 158.552 57.3322 158.524 57.2233C157.781 54.4663 156.993 51.4853 158.071 48.7043C158.479 47.5921 159.243 46.646 160.245 46.0133C161.161 45.5279 162.141 45.1725 163.155 44.9573C165.085 44.5263 167.313 44.0833 168.468 42.2883C170.713 38.7993 166.344 33.4773 169.029 29.5413C169.348 29.0065 169.806 28.569 170.355 28.2761C170.905 27.9831 171.523 27.8459 172.145 27.8793V27.8793Z"></path>
      <path fill="#000000" d="M103.762 111.879C102.871 109.856 100.427 108.91 98.3399 108.936C97.4034 108.927 96.4786 109.145 95.6455 109.573C94.8124 110.001 94.0959 110.625 93.5579 111.392C93.0199 112.159 92.6766 113.045 92.5576 113.974C92.4386 114.903 92.5475 115.847 92.8749 116.724C92.8879 116.75 92.9037 116.775 92.9219 116.797C92.9351 116.846 92.9587 116.891 92.9911 116.93C93.0235 116.968 93.064 117 93.1096 117.021C93.1553 117.043 93.2051 117.054 93.2556 117.054C93.306 117.055 93.356 117.044 93.4019 117.023C93.8559 116.835 94.3139 116.658 94.7689 116.474C94.9186 117.056 95.1933 117.598 95.574 118.063C95.9547 118.527 96.4322 118.903 96.9732 119.164C97.5141 119.426 98.1055 119.566 98.7062 119.575C99.3068 119.584 99.9022 119.462 100.451 119.217C100.999 118.972 101.488 118.611 101.883 118.158C102.277 117.705 102.568 117.172 102.736 116.595C102.903 116.018 102.942 115.411 102.851 114.818C102.759 114.224 102.54 113.657 102.207 113.157C102.674 112.927 103.144 112.702 103.607 112.465C103.703 112.406 103.773 112.312 103.801 112.203C103.83 112.094 103.816 111.978 103.762 111.879ZM102.037 115.622C101.994 116.294 101.745 116.937 101.325 117.464C100.904 117.99 100.332 118.375 99.6863 118.566C99.0402 118.757 98.351 118.745 97.712 118.532C97.0729 118.318 96.5148 117.914 96.1129 117.373C95.8493 117.008 95.6643 116.593 95.5699 116.153C97.5479 115.339 99.5013 114.468 101.43 113.54C101.855 114.149 102.068 114.88 102.037 115.622ZM93.5509 116.045C93.2553 115.105 93.2637 114.096 93.575 113.161C93.8864 112.226 94.4847 111.413 95.2849 110.838C96.4314 110.003 97.8581 109.648 99.2622 109.847C100.666 110.047 101.937 110.786 102.806 111.907C99.7879 113.431 96.7029 114.81 93.5509 116.045Z"></path>
      <path fill="#000000" d="M190.134 135.5C189.113 136.081 181.14 140.866 181.14 140.866C181.046 140.926 180.98 141.02 180.954 141.127C180.928 141.235 180.944 141.349 181 141.445C181.056 141.54 181.147 141.611 181.254 141.641C181.361 141.671 181.475 141.659 181.573 141.606C182.595 141.026 190.566 136.241 190.566 136.241C190.662 136.18 190.73 136.084 190.755 135.973C190.78 135.862 190.761 135.746 190.7 135.649C190.643 135.557 190.552 135.49 190.447 135.462C190.341 135.435 190.23 135.448 190.134 135.5V135.5Z"></path>
      <path fill="#000000" d="M194.586 146.68C193.086 146.656 181.886 146.689 181.342 146.7C181.232 146.706 181.128 146.753 181.052 146.833C180.976 146.913 180.934 147.019 180.934 147.129C180.934 147.239 180.976 147.345 181.052 147.425C181.128 147.505 181.232 147.552 181.342 147.557C182.842 147.582 194.042 147.537 194.586 147.536C194.7 147.536 194.808 147.491 194.889 147.411C194.969 147.331 195.014 147.222 195.014 147.108C195.014 146.995 194.969 146.886 194.889 146.806C194.808 146.726 194.7 146.68 194.586 146.68V146.68Z"></path>
      <path fill="#000000" d="M190.566 157.249L181.573 152.63C181.083 152.379 180.649 153.118 181.14 153.37L190.134 157.99C190.623 158.241 191.057 157.5 190.566 157.249Z"></path>
      <path fill="#000000" d="M159.755 143.145C159.864 143.141 159.967 143.096 160.044 143.02C160.12 142.943 160.165 142.84 160.169 142.731V130.378C160.164 130.268 160.116 130.164 160.036 130.088C159.957 130.012 159.851 129.97 159.741 129.97C159.63 129.97 159.524 130.012 159.445 130.088C159.365 130.164 159.317 130.268 159.312 130.378V142.731C159.314 142.787 159.327 142.843 159.35 142.894C159.373 142.945 159.406 142.992 159.448 143.03C159.489 143.068 159.537 143.098 159.59 143.118C159.643 143.138 159.699 143.147 159.755 143.145V143.145Z"></path>
      <path fill="#000000" d="M103.366 164.1C104.85 164.75 106.464 165.053 108.083 164.984C108.633 164.959 108.636 164.102 108.083 164.127C106.615 164.199 105.15 163.937 103.798 163.359C103.699 163.305 103.583 163.29 103.474 163.319C103.365 163.348 103.271 163.417 103.212 163.513C103.183 163.562 103.165 163.615 103.157 163.671C103.149 163.727 103.153 163.784 103.167 163.839C103.181 163.893 103.206 163.944 103.24 163.989C103.275 164.034 103.317 164.072 103.366 164.1V164.1Z"></path>
      <path fill="#000000" d="M156.373 152.434C157.561 150.664 160.281 146.613 160.452 146.357C160.761 145.898 160.018 145.469 159.712 145.925C158.524 147.695 155.804 151.745 155.633 152.001C155.324 152.46 156.066 152.89 156.373 152.434Z"></path>
      <path fill="#000000" d="M117.405 172.759C117.4 172.649 117.352 172.545 117.272 172.469C117.193 172.393 117.087 172.351 116.976 172.351C116.866 172.351 116.76 172.393 116.681 172.469C116.601 172.545 116.553 172.649 116.548 172.759C116.469 177.3 116.529 177.098 116.584 177.525C116.69 178.015 116.982 178.445 117.398 178.725C117.813 179.005 118.321 179.114 118.815 179.029C119.309 178.944 119.752 178.672 120.05 178.269C120.348 177.866 120.479 177.363 120.416 176.866V172.759C120.416 172.645 120.371 172.536 120.29 172.456C120.21 172.375 120.101 172.33 119.987 172.33C119.873 172.33 119.764 172.375 119.684 172.456C119.603 172.536 119.558 172.645 119.558 172.759C119.532 174.214 119.544 175.67 119.558 177.126C119.574 177.411 119.475 177.691 119.285 177.904C119.094 178.117 118.827 178.245 118.541 178.261C118.256 178.276 117.976 178.178 117.764 177.987C117.551 177.797 117.423 177.529 117.407 177.244C117.354 176.572 117.407 175.877 117.407 175.203L117.405 172.759Z"></path>
      <path fill="#000000" d="M169.337 172.759C169.337 172.645 169.292 172.536 169.211 172.456C169.131 172.375 169.022 172.33 168.908 172.33C168.794 172.33 168.685 172.375 168.605 172.456C168.524 172.536 168.479 172.645 168.479 172.759C168.395 177.604 168.47 177.169 168.516 177.525C168.623 178.015 168.914 178.445 169.33 178.725C169.745 179.005 170.253 179.114 170.747 179.029C171.241 178.944 171.684 178.672 171.982 178.269C172.28 177.866 172.411 177.363 172.348 176.866V172.759C172.343 172.649 172.295 172.545 172.215 172.469C172.136 172.393 172.03 172.351 171.92 172.351C171.809 172.351 171.703 172.393 171.624 172.469C171.544 172.545 171.496 172.649 171.491 172.759C171.464 174.214 171.477 175.67 171.491 177.126C171.499 177.407 171.397 177.68 171.207 177.886C171.016 178.093 170.753 178.217 170.472 178.233C170.192 178.248 169.917 178.153 169.705 177.969C169.493 177.784 169.362 177.524 169.339 177.244C169.286 176.572 169.339 175.877 169.339 175.203L169.337 172.759Z"></path>
      <path fill="#000000" d="M38.6079 58.1904C38.5859 55.7434 36.4159 53.7734 34.2179 53.0814C33.3714 52.7989 32.4705 52.7183 31.5873 52.846C30.704 52.9737 29.8629 53.3062 29.131 53.8168C28.3991 54.3275 27.7967 55.0022 27.372 55.7871C26.9473 56.572 26.712 57.4453 26.6849 58.3374C26.6781 58.4176 26.6976 58.4978 26.7406 58.5659C26.7835 58.6339 26.8476 58.6861 26.9229 58.7144C27.0449 58.7874 27.1229 58.7664 28.5229 58.8014C28.4316 59.394 28.4705 59.9995 28.6368 60.5756C28.8032 61.1518 29.093 61.6848 29.4862 62.1375C29.8794 62.5903 30.3665 62.952 30.9137 63.1975C31.4608 63.4429 32.0548 63.5662 32.6545 63.5589C33.2541 63.5515 33.8449 63.4136 34.3859 63.1548C34.9268 62.896 35.4049 62.5225 35.7868 62.0602C36.1688 61.5979 36.4455 61.0579 36.5976 60.4779C36.7498 59.8979 36.7738 59.2916 36.6679 58.7014C37.1729 58.6754 37.6769 58.6434 38.1809 58.6224C38.294 58.619 38.4014 58.5723 38.4809 58.4919C38.5605 58.4114 38.6059 58.3035 38.6079 58.1904V58.1904ZM35.5619 60.8474C35.265 61.4557 34.7876 61.9575 34.1948 62.2842C33.602 62.611 32.9228 62.7468 32.2499 62.673C31.5771 62.5993 30.9434 62.3196 30.4354 61.8722C29.9275 61.4248 29.5701 60.8315 29.4119 60.1734C29.3077 59.7303 29.2992 59.27 29.3869 58.8234C31.5269 58.8594 33.6669 58.8324 35.8069 58.7424C35.9589 59.4519 35.8728 60.1917 35.5619 60.8474V60.8474ZM27.5889 57.9204C27.6835 57.0403 28.0246 56.2048 28.573 55.5101C29.1214 54.8154 29.8549 54.2896 30.6889 53.9934C31.3989 53.7468 32.1523 53.6506 32.9015 53.7107C33.6506 53.7708 34.3791 53.9859 35.0406 54.3425C35.7022 54.699 36.2824 55.1892 36.7445 55.7819C37.2066 56.3746 37.5405 57.0568 37.7249 57.7854C34.3476 57.9887 30.9689 58.0337 27.5889 57.9204Z"></path>
      <path fill="#000000" d="M159.725 150.1C159.617 150.104 159.514 150.149 159.437 150.226C159.36 150.302 159.316 150.405 159.312 150.514V162.867C159.317 162.977 159.365 163.081 159.445 163.157C159.524 163.233 159.63 163.275 159.741 163.275C159.851 163.275 159.957 163.233 160.036 163.157C160.116 163.081 160.164 162.977 160.169 162.867V150.512C160.165 150.398 160.115 150.291 160.032 150.214C159.949 150.137 159.838 150.096 159.725 150.1Z"></path>
      <path fill="#000000" d="M30.892 110.193C31.0005 110.189 31.1036 110.145 31.1805 110.068C31.2574 109.992 31.3022 109.888 31.306 109.78V89.88C31.3007 89.7699 31.2532 89.6661 31.1734 89.5901C31.0936 89.5141 30.9877 89.4717 30.8775 89.4717C30.7673 89.4717 30.6613 89.5141 30.5815 89.5901C30.5018 89.6661 30.4543 89.7699 30.449 89.88V109.78C30.4509 109.836 30.4639 109.891 30.4872 109.943C30.5105 109.994 30.5437 110.04 30.5849 110.078C30.626 110.117 30.6743 110.147 30.727 110.166C30.7797 110.186 30.8358 110.195 30.892 110.193V110.193Z"></path>
      <path fill="#000000" d="M13.5609 89.615C13.4524 89.6188 13.3494 89.6636 13.2727 89.7405C13.196 89.8174 13.1514 89.9205 13.1479 90.029V109.929C13.1533 110.039 13.2007 110.143 13.2805 110.219C13.3603 110.295 13.4663 110.337 13.5764 110.337C13.6866 110.337 13.7926 110.295 13.8724 110.219C13.9522 110.143 13.9996 110.039 14.0049 109.929V90.029C14.003 89.9727 13.99 89.9173 13.9666 89.8659C13.9433 89.8146 13.91 89.7684 13.8688 89.73C13.8275 89.6915 13.7791 89.6616 13.7263 89.6419C13.6735 89.6221 13.6173 89.613 13.5609 89.615V89.615Z"></path>
      <path fill="#000000" d="M16.329 109.93C17.159 109.126 17.9756 108.309 18.779 107.48C18.8561 107.399 18.8985 107.291 18.8972 107.179C18.8959 107.067 18.8509 106.96 18.7718 106.881C18.6928 106.802 18.5859 106.757 18.474 106.755C18.3622 106.754 18.2541 106.796 18.173 106.873C17.3416 107.673 16.525 108.49 15.723 109.324C15.6489 109.406 15.609 109.513 15.6116 109.623C15.6143 109.733 15.6592 109.838 15.7372 109.916C15.8151 109.994 15.92 110.039 16.0302 110.041C16.1404 110.044 16.2474 110.004 16.329 109.93V109.93Z"></path>
      <path fill="#000000" d="M71.7549 79.0001L74.2039 76.7001C74.6039 76.3221 74.0039 75.7161 73.5979 76.0931L71.1479 78.3931C70.7449 78.7731 71.3519 79.3791 71.7549 79.0001Z"></path>
      <path fill="#000000" d="M51.633 81.0931C51.6654 81.2013 51.7382 81.2929 51.8364 81.3487C51.9345 81.4046 52.0504 81.4205 52.16 81.3931C52.2696 81.363 52.3628 81.2905 52.4191 81.1917C52.4753 81.0929 52.49 80.9758 52.46 80.8661C51.126 77.5491 49.1266 74.5406 46.585 72.0261C46.192 71.6381 45.585 72.2441 45.979 72.6321C48.4206 75.0376 50.3447 77.9169 51.633 81.0931V81.0931Z"></path>
      <path fill="#000000" d="M49.905 159.343C46.8885 160.087 44.0151 161.323 41.4 163C40.937 163.3 41.367 164.039 41.833 163.74C44.3866 162.103 47.1925 160.899 50.138 160.174C50.669 160.038 50.442 159.211 49.905 159.343Z"></path>
      <path fill="#000000" d="M19.176 127.586C19.0674 127.59 18.9643 127.634 18.8874 127.711C18.8106 127.788 18.7657 127.891 18.762 127.999V130.347C18.7673 130.457 18.8147 130.561 18.8945 130.637C18.9743 130.713 19.0803 130.756 19.1905 130.756C19.3007 130.756 19.4066 130.713 19.4864 130.637C19.5662 130.561 19.6136 130.457 19.619 130.347V128C19.6172 127.944 19.6043 127.889 19.581 127.837C19.5577 127.786 19.5246 127.74 19.4834 127.701C19.4423 127.663 19.3939 127.633 19.3412 127.613C19.2884 127.593 19.2323 127.584 19.176 127.586V127.586Z"></path>
      <path fill="#000000" d="M25.045 127.33C24.9363 127.334 24.833 127.379 24.7561 127.455C24.6792 127.532 24.6345 127.636 24.631 127.744V130.194C24.6363 130.304 24.6838 130.408 24.7635 130.484C24.8433 130.56 24.9493 130.603 25.0595 130.603C25.1697 130.603 25.2756 130.56 25.3554 130.484C25.4352 130.408 25.4827 130.304 25.488 130.194V127.744C25.4838 127.631 25.4349 127.523 25.3519 127.446C25.2689 127.368 25.1585 127.327 25.045 127.33V127.33Z"></path>
      <path fill="#000000" d="M75.531 37.95C75.919 38.343 76.526 37.736 76.137 37.343C75.6621 36.8643 75.2354 36.3401 74.863 35.778C74.563 35.32 73.818 35.748 74.123 36.211C74.5345 36.8352 75.0061 37.4176 75.531 37.95V37.95Z"></path>
      <path fill="#000000" d="M81.587 37.9474C81.887 38.4054 82.633 37.9764 82.327 37.5144C81.827 36.7536 81.2363 36.0565 80.568 35.4384C80.163 35.0644 79.555 35.6694 79.962 36.0444C80.5785 36.6108 81.1241 37.2498 81.587 37.9474V37.9474Z"></path>
      <path fill="#000000" d="M76.229 17.4542V27.8662C76.2343 27.9763 76.2818 28.0801 76.3616 28.1561C76.4413 28.2321 76.5473 28.2745 76.6575 28.2745C76.7677 28.2745 76.8737 28.2321 76.9534 28.1561C77.0332 28.0801 77.0807 27.9763 77.086 27.8662V17.4542C77.0807 17.3441 77.0332 17.2403 76.9534 17.1643C76.8737 17.0883 76.7677 17.0459 76.6575 17.0459C76.5473 17.0459 76.4413 17.0883 76.3616 17.1643C76.2818 17.2403 76.2343 17.3441 76.229 17.4542Z"></path>
      <path fill="#000000" d="M70.23 23.7001C70.1557 23.7796 70.1144 23.8843 70.1144 23.9931C70.1144 24.1019 70.1557 24.2066 70.23 24.2861L73.905 27.9611C73.9866 28.0352 74.0936 28.0751 74.2038 28.0724C74.314 28.0698 74.4189 28.0248 74.4968 27.9469C74.5748 27.869 74.6197 27.764 74.6224 27.6538C74.625 27.5436 74.5851 27.4367 74.511 27.3551L70.836 23.6801C70.753 23.6024 70.6425 23.5609 70.5289 23.5647C70.4153 23.5684 70.3078 23.6171 70.23 23.7001V23.7001Z"></path>
      <path fill="#000000" d="M82.274 23.8883L78.6 27.5633C78.5259 27.6449 78.486 27.7518 78.4886 27.862C78.4913 27.9722 78.5362 28.0771 78.6142 28.1551C78.6921 28.233 78.7971 28.278 78.9072 28.2806C79.0174 28.2833 79.1244 28.2434 79.206 28.1693L82.881 24.4943C82.958 24.4131 83.0002 24.3051 82.9987 24.1932C82.9972 24.0813 82.952 23.9745 82.8728 23.8954C82.7937 23.8164 82.6868 23.7714 82.5749 23.7701C82.463 23.7687 82.355 23.8111 82.274 23.8883V23.8883Z"></path>
    </g>
  </g>
</svg>