<svg xmlns="http://www.w3.org/2000/svg" fill="none" viewBox="0 0 400 400">
  <g transform="matrix(2,0,0,2,0,0)">
    <path fill="#000000" d="M40.019 124.449C38.745 121.81 35.594 121.168 32.924 122.273C29.014 123.893 27.731 127.982 26.371 131.951C25.986 133.073 20.487 148.362 20.157 149.276C21.728 147.004 23.6523 144.998 25.857 143.334C30.3674 140.342 35.5376 138.492 40.922 137.943C40.807 127.963 40.954 126.386 40.019 124.449ZM37.8 133.27C37.2063 133.871 36.4364 134.268 35.6021 134.402C34.7677 134.536 33.9123 134.401 33.16 134.016C32.6113 133.774 32.1257 133.409 31.7408 132.949C31.3559 132.489 31.0821 131.947 30.9405 131.364C30.799 130.781 30.7935 130.174 30.9246 129.588C31.0556 129.003 31.3196 128.456 31.6962 127.989C32.0728 127.523 32.5518 127.149 33.096 126.897C33.6403 126.645 34.2352 126.522 34.8347 126.537C35.4343 126.552 36.0222 126.705 36.5531 126.984C37.084 127.263 37.5435 127.661 37.896 128.146C38.4904 128.873 38.8072 129.787 38.7896 130.726C38.772 131.664 38.4212 132.566 37.8 133.27V133.27Z"></path>
    <path fill="#EAEAEA" d="M168.665 84.939C168.251 79.431 165.455 74.786 162.271 70.307C161.835 69.608 161.337 68.9494 160.784 68.339C159.425 69.4327 157.898 70.2995 156.263 70.906C155.581 71.1672 154.862 71.32 154.133 71.359C153.734 71.3838 153.334 71.3288 152.956 71.1973C152.578 71.0658 152.23 70.8603 151.933 70.593C151.63 70.2732 151.428 69.8711 151.352 69.4371C151.277 69.0031 151.331 68.5564 151.508 68.153C152.358 66.186 153.608 66.426 151.559 66.8C151.074 66.9393 150.559 66.9416 150.073 66.8066C149.586 66.6716 149.146 66.4045 148.802 66.035C148.217 65.2316 147.971 64.23 148.119 63.2471C148.267 62.2642 148.796 61.379 149.591 60.783C145.916 61.525 144.022 57.742 147.579 54.975C147.579 53.923 147.579 47.545 147.579 45.408C147.525 45.1043 147.404 44.8165 147.224 44.5655C147.045 44.3144 146.812 44.1066 146.542 43.9569C146.272 43.8072 145.973 43.7195 145.665 43.7001C145.357 43.6808 145.048 43.7303 144.762 43.845C144.431 44.0601 144.151 44.3461 143.944 44.6822C143.736 45.0184 143.606 45.3964 143.562 45.789C142.947 49.321 143.086 55.871 143.204 59.434C146.033 62.401 147.338 66.551 148.25 70.558C149.857 78.1886 150.583 85.9787 150.412 93.775C158.308 94.046 169.261 92.861 168.665 84.939ZM164.3 88.177C164.085 88.588 163.467 88.225 163.679 87.815C164.095 87.0053 164.273 86.0937 164.19 85.187C164.15 84.726 164.871 84.73 164.909 85.187C164.994 86.2212 164.782 87.2582 164.3 88.177V88.177Z"></path>
    <path fill="#a0a0a0" d="M169.952 20.2791C165.182 23.2121 150.44 32.4791 147.752 34.0331C147.699 34.0663 147.655 34.1121 147.624 34.1663C147.593 34.2206 147.576 34.2816 147.574 34.3441C147.584 37.7561 147.574 53.9231 147.574 54.9751C148.638 54.1071 150.024 53.2481 151.016 52.4471C151.455 52.096 151.956 51.8292 152.492 51.6601V37.9201C189.081 61.4041 183.581 57.9201 183.492 57.7091C183.354 57.3821 183.234 57.0471 183.105 56.7161C179.578 47.6441 178.315 38.5161 180.152 26.8421C180.168 26.4211 180.632 23.9561 180.782 23.2371C181.472 19.8322 182.525 16.5109 183.922 13.3301C184.333 12.3971 184.327 12.3371 184.46 12.2681C179.493 14.6911 174.662 17.3831 169.952 20.2791Z"></path>
    <path fill="#EAEAEA" d="M183.635 32.412C183.129 30.8633 182.336 29.4238 181.297 28.169C180.544 27.28 180.166 27.198 180.155 26.842C179.084 33.2787 179.07 39.8469 180.114 46.288C180.104 46.2252 180.11 46.1608 180.132 46.101C180.211 45.688 186.026 39.693 183.635 32.412Z"></path>
    <path fill="#EAEAEA" d="M148.822 54.9221C148.027 55.4221 147.342 56.0783 146.808 56.8511C146.557 57.214 146.417 57.6421 146.405 58.0831C146.394 58.5242 146.51 58.9591 146.741 59.3351C147.004 59.6317 147.334 59.8605 147.704 60.0024C148.074 60.1443 148.473 60.1949 148.867 60.1501C149.87 60.0423 150.838 59.7222 151.707 59.2111C152.902 58.5871 154.155 58.0951 155.344 57.4581C155.996 57.1197 156.49 56.541 156.723 55.8445C156.956 55.148 156.908 54.3883 156.591 53.7261C156.225 53.0875 155.649 52.5956 154.961 52.3347C154.273 52.0737 153.515 52.0597 152.818 52.2951C152.063 52.58 151.365 52.9991 150.759 53.5321C150.114 54.0001 149.465 54.4551 148.822 54.9221Z"></path>
    <path fill="#EAEAEA" d="M153.674 66.611C152.886 67.1273 152.312 67.9112 152.057 68.818C151.996 69.164 152.06 69.5205 152.238 69.8235C152.416 70.1264 152.696 70.356 153.028 70.471C153.653 70.6789 154.324 70.7042 154.963 70.544C158.874 69.606 164.635 65.274 161.677 62.823C161.268 62.6338 160.813 62.5632 160.366 62.6193C159.918 62.6753 159.495 62.8557 159.145 63.14C154.837 65.67 155.32 65.277 153.674 66.611Z"></path>
    <path fill="#EAEAEA" d="M149.634 61.7381C149.113 62.2636 148.809 62.9664 148.784 63.706C148.758 64.4457 149.012 65.1678 149.496 65.7281C150.196 66.4131 151.234 66.1451 152.087 65.9511C153.075 65.7226 154.018 65.3338 154.88 64.8001C156.147 64.0221 157.449 63.3001 158.731 62.5531C159.247 62.1226 159.585 61.5156 159.68 60.8499C159.774 60.1842 159.617 59.5073 159.241 58.9504C158.864 58.3936 158.294 57.9965 157.641 57.8362C156.988 57.676 156.299 57.7639 155.707 58.0831C153.517 59.2501 151.668 59.5941 149.634 61.7381Z"></path>
    <path fill="#000000" d="M187.969 21.9611C187.299 18.6766 186.291 15.4704 184.96 12.3941C184.908 12.3139 184.827 12.2563 184.735 12.2329C184.642 12.2096 184.544 12.2221 184.46 12.2681C184.326 12.3411 184.335 12.3931 183.922 13.3301C182.147 17.4043 180.917 21.695 180.264 26.0911C180.199 26.3366 180.162 26.5884 180.152 26.8421C180.154 26.9088 180.17 26.9743 180.2 27.0341C180.364 27.2381 180.552 27.4224 180.759 27.5831C182.184 29.051 183.215 30.8552 183.756 32.8281C184.296 34.8011 184.33 36.8787 183.853 38.8681C183.169 41.4637 181.923 43.8775 180.204 45.9391C180.131 46.0397 180.097 46.1642 180.111 46.2881C180.77 49.8526 181.772 53.345 183.105 56.7161C183.234 57.0471 183.354 57.3821 183.492 57.7091C183.61 57.9881 184.024 58.0791 184.149 57.7951C186.641 52.2554 188.241 46.3566 188.89 40.3171C189.523 34.1873 189.213 27.9966 187.969 21.9611Z"></path>
    <path fill="#000000" d="M191.649 27.313C191.608 26.856 190.889 26.852 190.93 27.313C191.577 34.655 192.182 42.246 189.172 48.986C188.985 49.405 189.603 49.77 189.792 49.348C192.878 42.479 192.3 34.7 191.649 27.313Z"></path>
    <path fill="#000000" d="M193.992 24.2201C193.98 24.1745 193.958 24.1319 193.929 24.0946C193.9 24.0574 193.864 24.0262 193.823 24.0029C193.782 23.9796 193.737 23.9646 193.69 23.9588C193.643 23.953 193.596 23.9565 193.55 23.9691C193.459 23.9959 193.382 24.0569 193.335 24.1394C193.288 24.2218 193.275 24.3192 193.299 24.4111C194.543 33.5901 195.345 43.2741 190.949 51.6051C190.733 52.0141 191.349 52.3781 191.569 51.9681C196.083 43.4491 195.262 33.5941 193.992 24.2201Z"></path>
    <path fill="#000000" d="M143.421 29.6061L145.639 32.1831C145.939 32.5351 146.448 32.0241 146.147 31.6751L143.93 29.1001C143.627 28.7461 143.121 29.2571 143.421 29.6061Z"></path>
    <path fill="#ffffff" d="M70.938 159.024C70.758 159.197 64.219 165.475 61.205 168.349C61.1364 168.414 61.0455 168.45 60.951 168.45C60.8565 168.45 60.7656 168.414 60.697 168.349L60.664 168.32C60.564 168.234 49.687 158.458 42.657 152.143C42.5902 152.075 42.5528 151.984 42.5528 151.888C42.5528 151.793 42.5902 151.702 42.657 151.634L54.637 140.727C50.5021 138.298 45.6748 137.318 40.92 137.943C35.5359 138.494 30.3661 140.344 25.855 143.334C18.283 148.816 13.055 161.234 12.528 170.71C12.529 170.805 12.5672 170.896 12.6343 170.963C12.7014 171.03 12.7921 171.068 12.887 171.069H72.935C73.0299 171.068 73.1206 171.03 73.1877 170.963C73.2548 170.896 73.293 170.805 73.294 170.71C73.34 167.02 72.678 162.228 70.938 159.024ZM21.587 166.035C28.5302 161.896 35.1547 157.245 41.405 152.12C41.76 151.829 42.271 152.335 41.913 152.628C35.6433 157.829 28.9677 162.52 21.95 166.656C21.868 166.699 21.7724 166.709 21.6832 166.684C21.594 166.658 21.5181 166.599 21.4713 166.519C21.4245 166.439 21.4104 166.344 21.4319 166.254C21.4535 166.164 21.509 166.085 21.587 166.035V166.035ZM58.687 170.9C58.345 171.211 57.836 170.7 58.179 170.392L59.826 168.892C60.168 168.582 60.677 169.092 60.334 169.401L58.687 170.9Z"></path>
    <path fill="#EAEAEA" d="M37.9 128.146C37.5475 127.661 37.088 127.263 36.5571 126.984C36.0262 126.705 35.4383 126.553 34.8387 126.537C34.2392 126.522 33.6443 126.645 33.1 126.897C32.5557 127.149 32.0768 127.523 31.7002 127.989C31.3236 128.456 31.0596 129.003 30.9286 129.589C30.7975 130.174 30.803 130.781 30.9445 131.364C31.0861 131.947 31.3599 132.489 31.7448 132.949C32.1297 133.409 32.6153 133.774 33.164 134.016C33.9522 134.447 34.8667 134.587 35.7479 134.413C36.6291 134.238 37.4209 133.759 37.985 133.06C38.5491 132.361 38.8496 131.486 38.8341 130.588C38.8186 129.689 38.4879 128.825 37.9 128.146Z"></path>
    <path fill="#ffffff" d="M148.249 70.5582C147.286 66.3122 145.868 61.8862 142.664 58.8982C139.73 56.3262 136.175 54.5644 132.351 53.7872C127.922 52.7589 123.282 53.1576 119.093 54.9262C113.02 57.5432 109.323 61.2822 106.827 69.5732C109.582 69.5182 116.735 69.3872 119.413 69.8542C122.023 70.3082 123.154 72.8652 123.486 75.2282C123.742 77.4761 123.854 79.738 123.823 82.0002C131.453 82.0002 131.023 81.9812 131.123 82.0262C131.189 82.054 131.246 82.1001 131.288 82.159C131.329 82.2179 131.353 82.2873 131.356 82.3592V100.87H149.932C150.027 100.868 150.117 100.83 150.184 100.763C150.251 100.696 150.289 100.605 150.291 100.51C150.533 90.2212 150.564 80.7612 148.249 70.5582Z"></path>
    <path fill="#a0a0a0" d="M131.357 82.3629C131.356 82.3091 131.343 82.2562 131.318 82.2084C131.294 82.1605 131.258 82.119 131.215 82.0869C131.26 82.1231 131.295 82.1695 131.318 82.2221C131.342 82.2748 131.352 82.3323 131.348 82.3897C131.345 82.4471 131.328 82.5029 131.298 82.5523C131.269 82.6018 131.228 82.6435 131.179 82.6739C129.355 83.7989 109.857 95.4739 101.465 100.821C101.273 100.942 101.113 100.83 100.789 100.659C99.474 99.9589 66.422 82.6739 66.422 82.6739C66.3693 82.6505 66.3245 82.6124 66.293 82.5641C66.2614 82.5159 66.2444 82.4596 66.244 82.4019C66.244 125.536 66.192 122.37 66.349 122.243C66.556 122.079 80.572 110.37 81.849 109.278C82.2 108.978 82.71 109.486 82.358 109.786C81.907 110.17 67.106 122.551 66.858 122.752C66.8128 122.787 66.7605 122.812 66.7047 122.825C66.649 122.837 66.5911 122.838 66.5351 122.826C66.4792 122.814 66.4266 122.79 66.3809 122.755C66.3353 122.721 66.2978 122.676 66.271 122.626C66.2974 122.693 66.343 122.751 66.4021 122.792C66.4612 122.833 66.5311 122.855 66.603 122.857H74.265L89.443 109.038C90.2771 108.182 91.325 107.564 92.478 107.249C93.005 107.103 93.5677 107.165 94.051 107.42C94.5342 107.676 94.9016 108.106 95.078 108.624C95.1862 109.214 95.1692 109.82 95.0281 110.403C94.887 110.987 94.625 111.534 94.259 112.009C92.6328 114.648 90.7213 117.099 88.559 119.32C91.346 118.259 94.113 119.983 93.469 122.857H130.981C130.504 122.757 128.654 120.557 114.923 109.82C114.558 109.535 115.07 109.03 115.431 109.311C119.99 112.869 126.944 118.422 131.257 122.243C131.319 122.297 131.359 122.372 131.369 122.454C131.813 122.4 131.46 91.7209 131.357 82.3629Z"></path>
    <path fill="#EAEAEA" d="M95.553 125.058C94.4055 124.931 93.2443 125.076 92.163 125.48C92.9464 124.528 93.4308 123.365 93.555 122.138C93.633 119.614 90.993 118.391 88.555 119.32C90.717 117.099 92.6284 114.648 94.255 112.009C94.621 111.534 94.883 110.987 95.0241 110.404C95.1652 109.821 95.1822 109.214 95.074 108.624C94.8976 108.107 94.5302 107.676 94.0469 107.421C93.5637 107.165 93.001 107.104 92.474 107.249C91.3209 107.564 90.273 108.182 89.439 109.038L42.653 151.638C42.5862 151.706 42.5488 151.798 42.5488 151.893C42.5488 151.988 42.5862 152.079 42.653 152.147L60.7 168.349C60.7686 168.414 60.8595 168.451 60.954 168.451C61.0485 168.451 61.1394 168.414 61.208 168.349C77.878 152.419 82.308 147.86 87.1 142.879C91.61 138.187 95.551 134.333 97.542 128.734C97.6871 128.364 97.7496 127.966 97.7252 127.569C97.7008 127.172 97.5901 126.785 97.4007 126.435C97.2113 126.085 96.9479 125.78 96.6288 125.542C96.3097 125.305 95.9425 125.139 95.553 125.058ZM81.863 124.616L84.282 122.243C84.612 121.919 85.121 122.427 84.79 122.752L82.371 125.124C82.04 125.449 81.532 124.941 81.863 124.616V124.616ZM86.73 128.9L89.053 127.012C89.409 126.723 89.921 127.229 89.561 127.52L87.239 129.408C86.883 129.7 86.371 129.194 86.73 128.9ZM69.222 153.741C67.9673 154.774 66.745 155.844 65.555 156.951C65.217 157.266 64.708 156.759 65.047 156.443C66.2363 155.337 67.4583 154.267 68.713 153.233C69.068 152.941 69.579 153.447 69.222 153.741Z"></path>
    <path fill="#000000" d="M130.952 82.0003C130.846 82.0153 103.689 98.6133 101.274 100.091L66.785 82.0533C66.353 81.8293 66.035 82.4743 66.422 82.6743C102.372 101.274 101.108 101.058 101.465 100.821L131.179 82.6743C131.251 82.6322 131.307 82.5665 131.336 82.4882C131.366 82.41 131.367 82.3239 131.34 82.2447C131.314 82.1655 131.26 82.0979 131.19 82.0533C131.119 82.0088 131.035 81.9901 130.952 82.0003V82.0003Z"></path>
    <path fill="#000000" d="M85.588 78.8289H113.542C113.634 78.824 113.721 78.784 113.784 78.7171C113.848 78.6502 113.883 78.5616 113.883 78.4694C113.883 78.3772 113.848 78.2885 113.784 78.2216C113.721 78.1547 113.634 78.1147 113.542 78.1099H85.588C85.4959 78.1147 85.4092 78.1547 85.3458 78.2216C85.2823 78.2885 85.247 78.3772 85.247 78.4694C85.247 78.5616 85.2823 78.6502 85.3458 78.7171C85.4092 78.784 85.4959 78.824 85.588 78.8289V78.8289Z"></path>
    <path fill="#000000" d="M113.542 87.5169C113.634 87.512 113.721 87.472 113.784 87.4051C113.848 87.3382 113.883 87.2496 113.883 87.1574C113.883 87.0652 113.848 86.9765 113.784 86.9096C113.721 86.8427 113.634 86.8027 113.542 86.7979H85.588C85.4959 86.8027 85.4092 86.8427 85.3458 86.9096C85.2823 86.9765 85.247 87.0652 85.247 87.1574C85.247 87.2496 85.2823 87.3382 85.3458 87.4051C85.4092 87.472 85.4959 87.512 85.588 87.5169H113.542Z"></path>
    <path fill="#000000" d="M89.981 62.656C90.0731 62.6512 90.1598 62.6112 90.2232 62.5443C90.2867 62.4774 90.322 62.3887 90.322 62.2965C90.322 62.2043 90.2867 62.1156 90.2232 62.0487C90.1598 61.9819 90.0731 61.9419 89.981 61.937H62.111C62.0189 61.9419 61.9322 61.9819 61.8688 62.0487C61.8053 62.1156 61.77 62.2043 61.77 62.2965C61.77 62.3887 61.8053 62.4774 61.8688 62.5443C61.9322 62.6112 62.0189 62.6512 62.111 62.656H89.981Z"></path>
    <path fill="#000000" d="M62.111 54.8681H89.981C90.0762 54.8681 90.1675 54.8303 90.2348 54.763C90.3022 54.6957 90.34 54.6044 90.34 54.5091C90.34 54.4139 90.3022 54.3226 90.2348 54.2553C90.1675 54.188 90.0762 54.1501 89.981 54.1501H62.111C62.0158 54.1501 61.9245 54.188 61.8571 54.2553C61.7898 54.3226 61.752 54.4139 61.752 54.5091C61.752 54.6044 61.7898 54.6957 61.8571 54.763C61.9245 54.8303 62.0158 54.8681 62.111 54.8681V54.8681Z"></path>
    <path fill="#000000" d="M66.858 122.752C67.111 122.552 81.912 110.17 82.358 109.786C82.71 109.486 82.2 108.98 81.849 109.278C80.567 110.37 66.549 122.078 66.349 122.243C66 122.52 66.49 123.042 66.858 122.752Z"></path>
    <path fill="#000000" d="M164.3 88.177C164.782 87.2583 164.994 86.2213 164.909 85.187C164.871 84.73 164.15 84.726 164.19 85.187C164.273 86.0938 164.095 87.0053 163.679 87.815C163.464 88.225 164.082 88.588 164.3 88.177Z"></path>
    <path fill="#000000" d="M115.426 109.311C115.066 109.03 114.553 109.535 114.918 109.82C118.103 112.306 126.646 119.108 130.744 122.752C130.781 122.784 130.824 122.809 130.87 122.825C130.917 122.841 130.966 122.847 131.015 122.844C131.064 122.84 131.112 122.828 131.156 122.806C131.199 122.784 131.239 122.754 131.271 122.717C131.301 122.685 131.324 122.647 131.339 122.605C131.355 122.564 131.362 122.52 131.36 122.476C131.358 122.432 131.348 122.389 131.329 122.349C131.311 122.309 131.284 122.273 131.252 122.243C127.692 119.011 119.26 112.307 115.426 109.311Z"></path>
    <path fill="#a0a0a0" d="M130.819 82C130.41 81.992 128.813 82 123.819 82C123.865 79.7362 123.752 77.472 123.482 75.224C123.15 72.861 122.019 70.304 119.409 69.85C117.474 69.513 101.747 69.678 101.451 69.714C101.417 69.614 100.601 68.899 100.302 65.022C100.174 63.3221 100.142 61.6164 100.208 59.913C100.39 54.826 98.839 47.651 94.547 44.899C92.562 43.626 90.847 43.557 88.166 43.637C87.266 43.665 37.902 43.663 37.248 43.663C33.834 43.663 30.148 44.443 27.902 47.225C25.261 50.492 25.324 55.041 25.124 58.963C25.1 59.425 25.824 59.424 25.843 58.963C25.8549 56.4994 26.1016 54.0426 26.58 51.626C26.8291 50.3299 27.3723 49.1082 28.1677 48.055C28.9631 47.0018 29.9895 46.1451 31.168 45.551C33.0745 44.6884 35.1576 44.2879 37.248 44.382H41.967C45.224 44.582 47.615 45.942 49.25 49.46C52.572 56.608 49.818 65.119 55.498 71.116C57.0047 72.7153 59.0581 73.6892 61.25 73.844C63.531 73.994 65.381 72.73 67.285 71.653C68.1738 71.0751 69.1753 70.6927 70.223 70.531C70.7041 70.4836 71.1897 70.5394 71.6476 70.6946C72.1054 70.8498 72.5249 71.1008 72.878 71.431C74.797 73.231 74.857 76.579 74.912 82.005H66.677C67.129 82.215 69.714 83.59 75.71 86.724C75.638 83.839 75.603 80.953 75.531 78.068C75.462 75.31 75.106 72.044 72.821 70.519C89.352 70.505 119.027 70.432 119.885 70.71C122.365 71.516 122.955 75.197 122.994 77.817C123.025 79.95 123.219 86.632 123.218 86.694C131.684 81.517 131.078 82.009 130.819 82ZM63.752 72.725C59.886 74.193 54.952 71.49 53.216 65.785C51.65 60.656 52.236 55.109 50.29 50.085C49.8996 48.8428 49.256 47.6951 48.3999 46.7141C47.5438 45.733 46.4938 44.94 45.316 44.385C45.316 44.385 88.616 44.339 90.18 44.363C94.98 44.438 97.233 47.951 98.59 52.563C99.99 57.324 99.339 60.226 99.515 63.901C99.489 65.9044 99.8629 67.8929 100.615 69.75C75.615 69.799 71.399 69.791 70.665 69.801C67.839 69.842 66.218 71.789 63.752 72.725Z"></path>
    <path fill="#000000" d="M51.882 90.2001L45.593 83.6111C45.273 83.2751 44.765 83.7841 45.084 84.1191L51.374 90.7081C51.694 91.0391 52.2 90.5311 51.882 90.2001Z"></path>
    <path fill="#000000" d="M42.343 103.389H51.928C52.0201 103.384 52.1068 103.344 52.1702 103.277C52.2337 103.21 52.269 103.122 52.269 103.029C52.269 102.937 52.2337 102.849 52.1702 102.782C52.1068 102.715 52.0201 102.675 51.928 102.67H42.343C42.2509 102.675 42.1642 102.715 42.1008 102.782C42.0373 102.849 42.002 102.937 42.002 103.029C42.002 103.122 42.0373 103.21 42.1008 103.277C42.1642 103.344 42.2509 103.384 42.343 103.389V103.389Z"></path>
    <path fill="#000000" d="M46.491 121.254L52.781 114.964C52.843 114.896 52.8762 114.806 52.8739 114.714C52.8715 114.621 52.8337 114.533 52.7683 114.468C52.7029 114.403 52.6149 114.365 52.5225 114.363C52.4301 114.361 52.3404 114.394 52.272 114.456L45.983 120.746C45.9156 120.814 45.8778 120.905 45.8778 121C45.8778 121.096 45.9156 121.187 45.983 121.254C46.0504 121.322 46.1417 121.359 46.237 121.359C46.3323 121.359 46.4236 121.322 46.491 121.254Z"></path>
    <path fill="#EAEAEA" d="M127.958 40.2281C127.272 40.0232 126.548 39.9812 125.843 40.1055C125.138 40.2298 124.472 40.5169 123.897 40.9441C123.423 41.3188 123.032 41.7868 122.746 42.3191C122.461 42.8513 122.288 43.4366 122.238 44.0384C122.188 44.6403 122.262 45.2461 122.456 45.8181C122.65 46.3902 122.959 46.9164 123.364 47.3641C124.089 48.1045 125.047 48.5717 126.077 48.6863C127.107 48.801 128.144 48.556 129.014 47.9931C129.095 47.9433 129.153 47.8644 129.177 47.7728C129.201 47.6813 129.189 47.584 129.143 47.5011C128.622 46.5591 128.081 45.6271 127.532 44.7011C128.554 44.6011 130.589 44.4341 130.773 44.3491C130.843 44.326 130.904 44.2826 130.948 44.2245C130.993 44.1664 131.02 44.0963 131.024 44.0231C131.089 43.1196 130.809 42.2251 130.24 41.5206C129.671 40.816 128.855 40.354 127.958 40.2281V40.2281Z"></path>
    <path fill="#000000" d="M137.355 34.8259C137.265 34.5588 137.094 34.3262 136.866 34.1603C136.639 33.9944 136.365 33.9035 136.083 33.9C134.715 33.7329 133.334 33.703 131.96 33.8109C132.692 33.1905 133.282 32.4193 133.688 31.5499C133.759 31.3219 133.777 31.0807 133.74 30.8447C133.703 30.6087 133.613 30.3843 133.476 30.1886C133.339 29.9929 133.159 29.8312 132.95 29.7158C132.741 29.6004 132.509 29.5345 132.27 29.5229C131.712 29.5682 131.192 29.8238 130.816 30.2379C130.327 30.6559 129.873 31.1169 129.416 31.5669C127.309 33.5042 125.486 35.7287 124 38.1749C123.973 38.2303 123.96 38.2914 123.962 38.353C123.964 38.4146 123.981 38.4748 124.011 38.5283C124.042 38.5817 124.086 38.6268 124.138 38.6595C124.19 38.6922 124.25 38.7116 124.311 38.7159C128.045 38.8081 131.768 38.2775 135.328 37.1459C135.929 37.0062 136.486 36.7169 136.946 36.3049C137.133 36.1124 137.268 35.8761 137.339 35.6177C137.411 35.3592 137.416 35.087 137.355 34.8259V34.8259Z"></path>
    <path fill="#ffffff" d="M154.669 118.394C154.328 118.434 153.983 118.396 153.659 118.281C151.969 117.802 151.489 115.924 152.879 114.481C151.688 114.473 150.518 114.164 149.479 113.581C149.042 113.34 148.696 112.962 148.494 112.505C148.444 112.407 148.418 112.298 148.418 112.187C148.418 112.077 148.444 111.968 148.494 111.869C148.486 111.877 148.474 111.877 148.467 111.886C144.733 116.564 151.562 121.573 154.807 118.313C154.766 118.347 154.719 118.375 154.669 118.394V118.394Z"></path>
    <path fill="#000000" d="M156.5 114.181C156.4 113.303 156.033 112.477 155.449 111.815C154.865 111.152 154.091 110.684 153.233 110.475C152.499 110.267 151.725 110.241 150.979 110.4C150.233 110.559 149.537 110.898 148.951 111.387C148.778 111.528 148.625 111.693 148.497 111.876C148.448 111.975 148.422 112.083 148.422 112.194C148.422 112.304 148.448 112.413 148.497 112.512C148.699 112.968 149.045 113.346 149.482 113.588C150.521 114.17 151.691 114.48 152.882 114.488C151.482 115.941 151.991 117.812 153.662 118.288C153.985 118.403 154.331 118.441 154.672 118.401C154.893 118.273 155.078 118.091 155.21 117.872C156.054 116.828 156.51 115.523 156.5 114.181V114.181Z"></path>
    <path fill="#ffffff" d="M184.919 143.285C184.555 140.93 183.663 138.689 182.309 136.728C180.956 134.768 179.176 133.139 177.103 131.964C175.088 130.911 172.944 130.127 170.725 129.634C161.132 127.334 150.925 128.283 141.413 130.907C139.43 131.337 137.549 132.147 135.874 133.292C141.099 134.91 145.917 137.626 150.006 141.259C154.094 144.892 157.359 149.358 159.58 154.356C159.986 155.275 160.38 156.198 160.78 157.121C160.754 155.437 160.69 154.379 160.794 153.106C161.053 150.442 162.192 147.94 164.031 145.996C165.87 144.052 168.305 142.775 170.95 142.368C173.595 141.961 176.301 142.447 178.639 143.749C180.978 145.051 182.816 147.094 183.864 149.557C184.473 151.07 184.803 152.68 184.838 154.311C184.945 156.644 184.92 158.981 184.762 161.311C185.716 154.913 186.049 149.2 184.919 143.285Z"></path>
    <path fill="#ffffff" d="M139.447 159.582C136.774 161.172 133.864 162.326 130.828 163C130.838 164.919 130.928 170.062 130.938 170.715C130.94 170.81 130.978 170.9 131.045 170.967C131.112 171.034 131.202 171.072 131.297 171.074C131.752 171.081 141.997 171.193 141.997 171.193C140.805 167.406 139.952 163.52 139.447 159.582V159.582Z"></path>
    <path fill="#EAEAEA" d="M184.838 154.311C184.803 152.681 184.473 151.07 183.864 149.557C182.817 147.093 180.979 145.049 178.64 143.747C176.301 142.444 173.595 141.958 170.95 142.365C168.304 142.772 165.869 144.049 164.03 145.994C162.191 147.939 161.052 150.442 160.794 153.106C160.694 154.372 160.753 155.406 160.78 157.121C160.38 156.198 159.986 155.275 159.58 154.356C156.831 148.14 152.466 142.774 146.939 138.818C141.727 135.084 133.391 131.398 127.008 132.169C125.184 132.372 123.409 132.894 121.766 133.712C121.091 134.067 120.435 134.459 119.803 134.885C117.954 136.096 115.579 137.599 114.803 139.503C114.561 140.105 114.531 140.772 114.718 141.394C114.905 142.016 115.298 142.555 115.833 142.924C116.428 143.261 117.087 143.469 117.768 143.533C118.448 143.597 119.135 143.517 119.782 143.297C121.223 142.886 122.607 142.299 123.903 141.547C124.016 141.489 124.14 141.457 124.267 141.452C124.394 141.447 124.52 141.47 124.637 141.519C124.754 141.568 124.859 141.642 124.944 141.735C125.03 141.829 125.094 141.94 125.132 142.061C125.17 142.182 125.181 142.31 125.165 142.436C125.149 142.561 125.105 142.682 125.037 142.789C124.969 142.896 124.879 142.988 124.773 143.056C124.666 143.125 124.546 143.17 124.42 143.187C122.642 143.553 121.011 144.436 119.733 145.726C119.316 146.235 119.097 146.877 119.117 147.535C119.137 148.193 119.395 148.821 119.842 149.303C120.608 150.107 121.622 150.63 122.721 150.789C121.382 151.16 120.169 151.849 120.139 153.354C120.105 155.076 121.52 156.743 124.231 156.78C121.114 158.851 121.766 162.087 124.17 162.893C126.16 163.71 128.717 163.415 130.833 162.993C133.869 162.32 136.778 161.168 139.452 159.58C140.578 167.816 142.689 176.832 148.98 182.147C153.273 185.775 160.418 187.393 165.527 186.876C172.78 186.141 179.101 180.264 181.997 173.476C184.561 167.452 185.117 160.909 184.838 154.311ZM162.769 183.205C162.744 183.113 162.757 183.015 162.804 182.932C162.851 182.85 162.928 182.789 163.02 182.763L167.22 182.187C167.312 182.163 167.41 182.176 167.492 182.223C167.575 182.27 167.636 182.347 167.663 182.438C167.688 182.53 167.675 182.628 167.628 182.711C167.581 182.793 167.504 182.854 167.412 182.88L163.212 183.456C163.12 183.48 163.022 183.467 162.94 183.42C162.857 183.373 162.796 183.296 162.769 183.205ZM147.157 151.392C146.036 153.397 144.683 155.264 143.126 156.953C142.814 157.296 142.307 156.786 142.618 156.445C144.102 154.776 145.415 152.961 146.536 151.029C146.586 150.951 146.665 150.895 146.755 150.874C146.845 150.852 146.94 150.866 147.02 150.913C147.1 150.96 147.159 151.036 147.185 151.125C147.21 151.214 147.2 151.31 147.157 151.392V151.392ZM129.325 149.953L132.172 149.36C132.624 149.266 132.815 149.96 132.363 150.053L129.516 150.646C129.064 150.74 128.872 150.047 129.325 149.953V149.953ZM130.466 155.483C131.612 155.388 132.74 155.139 133.819 154.741C134.255 154.581 134.441 155.277 134.01 155.434C132.869 155.849 131.677 156.107 130.466 156.202C130 156.239 130.008 155.521 130.466 155.483V155.483Z"></path>
    <path fill="#000000" d="M111.772 151.078C111.519 151.467 112.141 151.827 112.393 151.44C113.293 150.056 114.472 147.581 115.704 146.948C115.773 146.905 115.854 146.884 115.935 146.888C116.016 146.892 116.095 146.921 116.159 146.971C116.806 147.445 116.553 148.533 116.366 149.156C115.958 150.437 115.409 151.67 114.73 152.831C114.503 153.231 115.124 153.598 115.35 153.194C116.025 152.026 116.581 150.794 117.01 149.515C117.222 149.059 117.318 148.559 117.29 148.058C117.263 147.556 117.112 147.069 116.852 146.64C115.156 144.655 112.916 149.315 111.772 151.078Z"></path>
    <path fill="#a0a0a0" d="M115.574 155.53C114.936 154.338 113.96 153.361 112.768 152.722C111.31 152.064 109.7 151.82 108.113 152.015C104.238 152.479 100.299 154.145 95.799 158.443C94.647 159.543 93.599 160.743 92.512 161.911C92.4742 161.951 92.4458 161.998 92.4287 162.05C92.4117 162.101 92.4065 162.156 92.4135 162.211C92.4205 162.265 92.4395 162.317 92.4692 162.362C92.4989 162.408 92.5385 162.447 92.585 162.475C97.375 165.381 102.046 168.475 106.785 171.462C106.667 172.898 106.377 176.409 106.377 176.409C106.339 176.87 107.058 176.867 107.096 176.409L107.468 171.895C107.625 171.995 110.668 173.868 112.044 174.683C112.083 174.712 112.128 174.731 112.176 174.74C112.224 174.749 112.273 174.747 112.32 174.735C112.367 174.723 112.411 174.7 112.448 174.669C112.485 174.637 112.515 174.598 112.535 174.554C113.98 171.389 115.151 168.105 116.035 164.74C116.824 161.711 117.118 158.388 115.574 155.53Z"></path>
    <path fill="#a0a0a0" d="M108.222 179.6C107.959 179.209 107.59 178.902 107.158 178.713C106.726 178.525 106.249 178.464 105.783 178.538C105.318 178.611 104.883 178.816 104.53 179.128C104.177 179.441 103.921 179.847 103.791 180.3C103.621 180.867 103.647 181.475 103.867 182.024C104.087 182.573 104.486 183.032 105 183.325C105.521 183.608 106.132 183.672 106.7 183.506C107.269 183.339 107.748 182.954 108.034 182.435C108.336 182.031 108.514 181.549 108.548 181.046C108.581 180.542 108.468 180.04 108.222 179.6Z"></path>
    <path fill="#000000" d="M120.483 178.336C120.341 177.898 119.646 178.085 119.79 178.527L122.726 187.527C122.869 187.965 123.563 187.777 123.419 187.336L120.483 178.336Z"></path>
    <path fill="#000000" d="M122.343 177.587C122.292 177.51 122.214 177.456 122.125 177.435C122.035 177.414 121.941 177.428 121.862 177.475C121.782 177.521 121.724 177.596 121.698 177.684C121.672 177.772 121.68 177.867 121.722 177.949C123.054 180.349 126.181 185.783 126.382 186.117C126.43 186.199 126.509 186.259 126.601 186.283C126.693 186.307 126.791 186.294 126.873 186.245C126.956 186.197 127.015 186.118 127.04 186.026C127.064 185.934 127.05 185.836 127.002 185.754C126.047 184.033 122.4 177.687 122.343 177.587Z"></path>
    <path fill="#000000" d="M146.536 151.029C145.415 152.961 144.102 154.776 142.618 156.445C142.307 156.786 142.818 157.296 143.126 156.953C144.683 155.264 146.036 153.397 147.157 151.392C147.2 151.31 147.21 151.215 147.185 151.125C147.159 151.036 147.1 150.96 147.02 150.913C146.94 150.867 146.845 150.853 146.755 150.874C146.665 150.896 146.586 150.951 146.536 151.029V151.029Z"></path>
    <path fill="#000000" d="M133.819 154.741C132.74 155.139 131.612 155.388 130.466 155.483C130.008 155.521 130.004 156.239 130.466 156.202C131.677 156.107 132.869 155.849 134.01 155.434C134.441 155.277 134.255 154.581 133.819 154.741Z"></path>
    <path fill="#000000" d="M132.172 149.36L129.325 149.953C128.872 150.047 129.064 150.74 129.516 150.646L132.363 150.053C132.815 149.959 132.624 149.266 132.172 149.36Z"></path>
    <path fill="#000000" d="M167.216 182.187L163.016 182.763C162.924 182.789 162.847 182.85 162.8 182.932C162.753 183.015 162.74 183.113 162.765 183.205C162.792 183.296 162.853 183.373 162.935 183.42C163.018 183.467 163.115 183.48 163.207 183.456L167.407 182.88C167.499 182.854 167.576 182.793 167.623 182.711C167.67 182.628 167.683 182.53 167.658 182.438C167.631 182.347 167.57 182.27 167.487 182.224C167.405 182.177 167.308 182.164 167.216 182.187V182.187Z"></path>
    <path fill="#ffffff" d="M68.713 153.233C67.459 154.265 66.237 155.335 65.047 156.443C64.708 156.759 65.217 157.266 65.555 156.951C66.7437 155.845 67.966 154.775 69.222 153.741C69.579 153.447 69.068 152.941 68.713 153.233Z"></path>
    <path fill="#ffffff" d="M41.405 152.12C35.1517 157.241 28.5276 161.892 21.587 166.035C21.509 166.085 21.4535 166.164 21.4319 166.254C21.4104 166.344 21.4245 166.439 21.4713 166.519C21.5181 166.599 21.594 166.658 21.6832 166.684C21.7724 166.709 21.868 166.699 21.95 166.656C28.9669 162.518 35.6425 157.828 41.913 152.628C42.271 152.335 41.76 151.829 41.405 152.12Z"></path>
    <path fill="#ffffff" d="M59.826 168.894L58.179 170.394C57.836 170.706 58.345 171.213 58.687 170.902L60.334 169.402C60.677 169.091 60.168 168.584 59.826 168.894Z"></path>
    <path fill="#ffffff" d="M84.282 122.243L81.863 124.616C81.532 124.941 82.04 125.449 82.371 125.124L84.79 122.752C85.121 122.427 84.612 121.919 84.282 122.243Z"></path>
    <path fill="#ffffff" d="M89.053 127.015L86.73 128.9C86.371 129.191 86.883 129.7 87.239 129.408L89.561 127.52C89.921 127.232 89.409 126.726 89.053 127.015Z"></path>
    <path fill="#000000" d="M12.171 155.652C12.1304 155.628 12.0854 155.612 12.0386 155.606C11.9918 155.599 11.9442 155.602 11.8986 155.614C11.8529 155.626 11.8101 155.647 11.7726 155.676C11.735 155.705 11.7036 155.74 11.68 155.781L8.28 163.821C8.23453 163.904 8.22256 164.001 8.24655 164.093C8.27055 164.184 8.32868 164.263 8.409 164.313C8.49137 164.361 8.58944 164.375 8.68168 164.351C8.77392 164.326 8.8528 164.267 8.901 164.184L12.301 156.143C12.3466 156.06 12.3585 155.963 12.3343 155.872C12.3101 155.78 12.2516 155.702 12.171 155.652Z"></path>
    <path fill="#000000" d="M9.355 154.914L5.039 164.142C4.844 164.558 5.463 164.924 5.659 164.505L9.975 155.277C10.17 154.861 9.551 154.5 9.355 154.914Z"></path>
    <path fill="#000000" d="M159.975 61.9711C160.272 61.4235 160.409 60.804 160.373 60.1823C160.337 59.5606 160.127 58.9614 159.769 58.4521C159.422 58.022 158.98 57.6777 158.478 57.4458C157.976 57.214 157.428 57.1008 156.875 57.1151C157.185 56.6735 157.397 56.171 157.498 55.6409C157.598 55.1109 157.585 54.5656 157.458 54.0411C156.83 51.4641 153.366 50.5521 151.019 52.4471C150.033 53.2471 148.94 53.8911 147.577 54.9751C143.977 57.8381 145.985 61.5101 149.589 60.7831C148.793 61.3788 148.264 62.2641 148.116 63.2472C147.969 64.2302 148.214 65.2319 148.8 66.0352C149.743 67.1932 151.253 66.9351 152.668 66.5441C152.166 66.9873 151.769 67.537 151.506 68.1531C151.329 68.5566 151.275 69.0032 151.35 69.4373C151.426 69.8713 151.628 70.2734 151.931 70.5932C152.228 70.8605 152.576 71.0659 152.954 71.1974C153.332 71.329 153.732 71.3839 154.131 71.3591C154.86 71.3202 155.579 71.1673 156.261 70.9061C158.728 69.9551 161.328 68.4061 162.703 66.1361C163.035 65.6498 163.212 65.0748 163.212 64.4861C163.212 63.8975 163.035 63.3225 162.703 62.8361C162.401 62.4182 161.973 62.1083 161.482 61.9526C160.991 61.7968 160.462 61.8033 159.975 61.9711V61.9711ZM148.867 60.1501C148.473 60.195 148.074 60.1443 147.704 60.0025C147.334 59.8606 147.004 59.6317 146.741 59.3351C146.51 58.9592 146.393 58.5242 146.405 58.0832C146.417 57.6422 146.557 57.2141 146.808 56.8512C147.342 56.0784 148.027 55.4221 148.822 54.9221C149.465 54.4551 150.114 53.9961 150.759 53.5321C151.365 52.9992 152.063 52.5801 152.818 52.2951C153.515 52.0597 154.273 52.0737 154.961 52.3347C155.649 52.5957 156.225 53.0875 156.591 53.7261C156.908 54.3884 156.956 55.1481 156.723 55.8446C156.49 56.5411 155.996 57.1197 155.344 57.4581C154.155 58.0951 152.902 58.5871 151.707 59.2111C150.838 59.7223 149.87 60.0424 148.867 60.1501V60.1501ZM152.087 65.9501C151.234 66.1441 150.192 66.4121 149.496 65.7271C149.013 65.1667 148.759 64.4447 148.784 63.7051C148.81 62.9656 149.113 62.2629 149.634 61.7371C151.668 59.5931 153.518 59.2491 155.707 58.0781C156.299 57.759 156.988 57.6711 157.641 57.8313C158.294 57.9916 158.864 58.3887 159.241 58.9455C159.617 59.5024 159.774 60.1793 159.68 60.845C159.585 61.5107 159.247 62.1176 158.731 62.5481C157.449 63.3001 156.147 64.0171 154.88 64.7951C154.018 65.3306 153.075 65.7212 152.087 65.9511V65.9501ZM154.963 70.5431C154.324 70.7034 153.653 70.678 153.028 70.4701C152.696 70.3552 152.416 70.1256 152.238 69.8226C152.06 69.5196 151.996 69.1631 152.057 68.8172C152.312 67.9104 152.886 67.1264 153.674 66.6101C155.319 65.2771 154.887 65.6391 159.145 63.1391C159.495 62.8548 159.918 62.6744 160.366 62.6184C160.813 62.5624 161.268 62.6329 161.677 62.8221C164.641 65.2801 158.877 69.6051 154.963 70.5441V70.5431Z"></path>
    <g>
      <path fill="#000000" d="M95.566 124.933C94.5342 124.821 93.4904 124.923 92.5 125.233C92.9761 124.547 93.3343 123.787 93.56 122.983H131C131.093 122.983 131.184 122.955 131.261 122.904C131.338 122.852 131.399 122.78 131.435 122.694C131.512 122.594 131.482 122.705 131.482 100.994H149.934C150.062 100.993 150.183 100.942 150.274 100.851C150.364 100.761 150.415 100.64 150.417 100.512C150.417 100.512 150.517 96.02 150.536 93.903C158.522 94.16 169.388 92.888 168.79 84.929C168.505 81.153 167.009 77.229 164.214 72.929C163.873 72.404 161.596 69.009 160.967 68.352C161.699 67.7456 162.323 67.0189 162.812 66.203C164.212 63.893 162.436 61.277 160.212 61.779C160.454 61.2311 160.55 60.6296 160.49 60.0335C160.429 59.4374 160.215 58.8673 159.868 58.379C159.533 57.9657 159.113 57.6287 158.637 57.3904C158.161 57.1521 157.64 57.018 157.108 56.997C157.383 56.5801 157.569 56.1111 157.656 55.6192C157.742 55.1272 157.726 54.6228 157.609 54.1372C157.492 53.6517 157.277 53.1953 156.976 52.7965C156.675 52.3977 156.296 52.065 155.861 51.819C154.867 51.2861 153.702 51.1696 152.622 51.495V38.149C184.083 58.34 183.768 58.215 183.928 58.092C184.002 58.0849 184.072 58.0582 184.132 58.0148C184.191 57.9713 184.238 57.9127 184.268 57.845C187.488 50.7139 189.22 43.0014 189.359 35.1784C189.498 27.3554 188.041 19.5861 185.077 12.345C185.012 12.2331 184.906 12.1506 184.782 12.115C184.658 12.0794 184.524 12.0934 184.41 12.154C178.38 15.094 155.676 28.695 147.657 33.954C147.578 34.006 147.528 34.03 147.497 34.27C147.416 34.893 147.463 36.97 147.459 44.739C147.211 44.2536 146.788 43.8806 146.275 43.6958C145.762 43.511 145.199 43.5282 144.698 43.744C144.351 43.9673 144.058 44.2652 143.84 44.616C143.623 44.9669 143.487 45.3618 143.441 45.772C142.995 48.327 142.87 52.817 143.07 59.121C140.073 56.3592 136.375 54.473 132.38 53.668C127.926 52.6257 123.256 53.0274 119.045 54.815C113.612 57.156 109.438 60.545 106.736 69.454C105.523 69.478 102.073 69.567 101.515 69.593C100.802 68.174 100.432 66.608 100.432 65.02C100.305 63.3231 100.274 61.6204 100.339 59.92C100.532 54.527 98.826 47.493 94.62 44.797C92.57 43.482 90.814 43.436 88.168 43.515C87.806 43.527 37.254 43.541 37.254 43.541C32.923 43.541 29.745 44.756 27.811 47.15C25.181 50.4 25.211 54.875 25 58.96C24.967 59.587 25.937 59.6 25.968 58.973C26.158 55.273 26.104 51.273 28.203 48.225C30.448 44.964 34.663 44.496 36.961 44.515C41.705 44.545 42.401 44.354 44.313 44.915C45.398 45.2946 46.3895 45.9013 47.2213 46.6946C48.0532 47.4878 48.7063 48.4493 49.137 49.515C51.361 54.3 50.837 59.8 52.069 64.877C53.079 69.048 56.019 73.627 61.242 73.972C63.559 74.12 65.442 72.841 67.355 71.761C68.2258 71.1928 69.2081 70.8178 70.236 70.661C70.6989 70.6142 71.1666 70.6668 71.6075 70.8152C72.0485 70.9637 72.4527 71.2047 72.793 71.522C74.162 72.803 74.493 74.966 74.622 76.708C74.757 78.485 74.774 80.355 74.785 81.88H66.6C66.4812 81.8849 66.368 81.932 66.2807 82.0128C66.1935 82.0937 66.1379 82.2029 66.124 82.321C66.124 82.35 66.118 82.354 66.118 122.387C66.1045 122.459 66.1068 122.533 66.1248 122.604C66.1428 122.676 66.176 122.742 66.2221 122.799C66.2682 122.856 66.3261 122.902 66.3919 122.935C66.4576 122.967 66.5297 122.985 66.603 122.987H73.941L54.621 140.576C50.5234 138.183 45.7501 137.211 41.043 137.81C40.943 128.553 41.097 126.402 40.13 124.399C38.746 121.532 35.43 121.099 32.875 122.163C29.042 123.751 27.692 127.702 26.386 131.523C26.386 131.523 20.376 148.305 20.044 149.223C15.6302 155.578 12.9915 162.996 12.4 170.711C12.4021 170.839 12.4538 170.96 12.5441 171.051C12.6345 171.141 12.7564 171.192 12.884 171.194H72.935C73.0627 171.192 73.1848 171.141 73.2752 171.051C73.3656 170.961 73.4172 170.839 73.419 170.711C73.462 167.253 72.873 162.389 71.093 159.048C78.687 151.712 82.809 147.508 88.002 142.119C92.174 137.788 95.781 134.052 97.657 128.776C97.8087 128.388 97.8737 127.971 97.8475 127.555C97.8213 127.139 97.7045 126.734 97.5054 126.368C97.3062 126.002 97.0294 125.684 96.6944 125.436C96.3594 125.188 95.9743 125.017 95.566 124.933V124.933ZM68.589 82.848H74.8C74.808 83.584 74.84 85.405 74.856 86.133C74.236 85.811 69.369 83.256 68.589 82.848ZM60.418 169.5C60.882 169.078 60.208 168.386 59.742 168.807L58.176 170.23C55.836 170.23 16.138 170.2 13.414 170.219C14.172 160.479 19.778 147.68 27.904 143.008C35.304 138.753 46.179 136.578 53.877 141.255L42.567 151.555C42.4773 151.648 42.4277 151.772 42.4289 151.901C42.43 152.03 42.4817 152.153 42.573 152.244C43.239 152.844 60.592 168.43 60.612 168.444C60.7045 168.53 60.8259 168.577 60.952 168.577C61.0781 168.577 61.1995 168.53 61.292 168.444C64.064 165.794 69.48 160.606 70.363 159.759C71.7892 163.063 72.4965 166.632 72.438 170.23H59.615L60.418 169.5ZM43.645 151.874C43.645 151.874 89.388 110.211 90.274 109.423C91.0164 108.634 92.0169 108.138 93.094 108.023C94.2 108.023 94.551 109.158 94.212 110.123C94.0126 110.696 93.7472 111.243 93.421 111.754C91.2553 115.235 88.5883 118.379 85.506 121.082C85.033 121.5 85.69 122.159 86.174 121.782C87.374 120.846 89.026 119.565 90.855 119.897C91.2048 119.955 91.5364 120.094 91.8234 120.302C92.1105 120.51 92.3452 120.783 92.509 121.097C92.6406 121.454 92.7002 121.834 92.6844 122.214C92.6686 122.594 92.5777 122.967 92.417 123.312C92.0063 124.23 91.4654 125.083 90.811 125.846C90.7399 125.924 90.6959 126.022 90.6854 126.127C90.675 126.231 90.6987 126.337 90.7531 126.427C90.8075 126.517 90.8896 126.587 90.9871 126.626C91.0846 126.666 91.1923 126.673 91.294 126.646C92.963 126.102 95.567 125.108 96.566 126.637C96.718 126.88 96.8168 127.152 96.8559 127.436C96.8951 127.72 96.8736 128.009 96.793 128.284C96.5488 129.13 96.2184 129.949 95.807 130.728C93.595 135.065 90.43 138.187 86.851 141.913C81.906 147.061 76.551 152.541 60.941 167.431C59.674 166.3 45.021 153.114 43.645 151.874ZM131.314 82.005C131.106 81.819 131.694 81.879 123.942 81.879C123.974 79.6512 123.863 77.4237 123.61 75.21C123.404 73.745 122.585 70.279 119.434 69.73C116.855 69.281 110.398 69.385 107.757 69.43C110.04 62.108 113.879 56.976 122.157 54.741C125.183 54.0036 128.33 53.9011 131.398 54.4399C134.466 54.9788 137.389 56.1474 139.983 57.872C143.24 59.988 145.292 63.016 146.636 67.691C149.71 78.377 149.722 89.519 149.461 100.023H131.482V82.359C131.479 82.2918 131.463 82.2257 131.434 82.1649C131.405 82.1041 131.364 82.0497 131.314 82.005V82.005ZM123.967 82.848H129.275L124.047 86.041C124.047 85.847 124.034 85.408 123.967 82.848ZM114.841 109.918C117.409 111.918 125.576 118.413 129.71 122.018H93.681C93.673 119.662 91.334 118.425 88.988 119.054C91.0174 116.922 92.8192 114.585 94.364 112.08C95.234 110.661 95.506 109.519 95.195 108.589C95.0087 108.041 94.6203 107.586 94.1091 107.315C93.5979 107.044 93.0026 106.979 92.445 107.133C91.2726 107.453 90.2071 108.081 89.359 108.951L75.006 122.013H67.958C70.733 119.739 81.929 110.32 82.444 109.882C82.925 109.472 82.244 108.782 81.773 109.182C80.425 110.33 69.026 119.882 67.088 121.475V83.163C101.847 101.351 100.858 100.849 101.075 100.932C101.144 100.974 101.224 100.995 101.304 100.994C101.385 100.993 101.464 100.969 101.532 100.926C103.717 99.535 129.706 83.726 130.513 83.233V121.427C126.613 117.996 119.279 112.163 115.503 109.213C115.012 108.828 114.346 109.532 114.841 109.918ZM122.869 77.818C122.894 79.53 123.089 86.518 123.092 86.624C122.484 86.995 102.504 99.166 101.262 99.953L75.833 86.646C75.621 78.021 75.913 74.932 74.497 72.21C74.1798 71.6022 73.7378 71.0682 73.2 70.643C121.54 70.6 118.592 70.416 119.842 70.828C122.494 71.688 122.842 76 122.869 77.818V77.818ZM180.855 27.935C182.771 30.2361 183.901 33.0893 184.08 36.078C183.919 39.3221 182.762 42.4378 180.766 45C179.968 39.3375 179.998 33.5889 180.855 27.935V27.935ZM184.929 34.161C184.47 31.3112 183.102 28.6862 181.029 26.678C181.655 22.2494 182.866 17.9234 184.629 13.813C189.878 27.5601 189.606 42.8046 183.871 56.356C182.605 53.1035 181.637 49.7427 180.979 46.315C183.37 43.415 185.654 38.715 184.929 34.161V34.161ZM179.194 36.794C179.144 43.5036 180.386 50.16 182.852 56.4L152.382 36.843C152.272 36.7791 152.142 36.7609 152.019 36.7923C151.896 36.8238 151.79 36.9023 151.725 37.011C151.625 37.111 151.651 36.928 151.651 51.879C151.461 51.979 148.522 54.099 148.421 54.173C148.421 51.88 148.421 36.538 148.421 34.617C154.751 30.934 178.011 16.378 183.676 13.589C180.715 20.9673 179.194 28.844 179.194 36.794V36.794ZM154.934 70.423C154.318 70.5776 153.671 70.5533 153.069 70.353C152.766 70.2463 152.511 70.0358 152.348 69.7589C152.185 69.4821 152.126 69.1566 152.18 68.84C152.432 67.9637 152.99 67.207 153.753 66.708C155.397 65.376 154.975 65.735 159.218 63.242C159.547 62.9732 159.943 62.801 160.364 62.7447C160.785 62.6883 161.213 62.7501 161.601 62.923C164.482 65.319 158.6 69.544 154.934 70.423ZM158.652 62.451C158.189 62.722 155.619 64.196 154.815 64.69C153.94 65.2318 152.98 65.6232 151.975 65.848C151.146 66.036 150.208 66.253 149.584 65.639C149.126 65.1008 148.887 64.4105 148.912 63.7043C148.938 62.9981 149.228 62.3273 149.724 61.824C151.737 59.702 153.6 59.349 155.758 58.193C156.322 57.8869 156.979 57.8012 157.603 57.9526C158.226 58.1041 158.771 58.4817 159.132 59.0124C159.493 59.543 159.643 60.1887 159.555 60.8242C159.466 61.4596 159.144 62.0394 158.652 62.451ZM155.285 57.351C154.102 57.982 152.849 58.476 151.643 59.105C150.79 59.6088 149.838 59.9232 148.853 60.027C148.483 60.0699 148.107 60.0236 147.758 59.8921C147.409 59.7606 147.097 59.5477 146.847 59.271C146.629 58.9157 146.519 58.5047 146.531 58.088C146.542 57.6714 146.674 57.267 146.911 56.924C147.436 56.1622 148.111 55.5156 148.895 55.024C151.969 52.792 151.906 52.774 152.858 52.415C153.526 52.1916 154.251 52.2053 154.911 52.4539C155.57 52.7026 156.124 53.1709 156.478 53.78C156.781 54.4134 156.826 55.1399 156.604 55.806C156.381 56.472 155.908 57.0254 155.285 57.349V57.351ZM147.452 54.916C144.029 57.628 145.652 61.381 149.192 60.974C148.489 61.6187 148.049 62.5012 147.959 63.451C147.869 64.4008 148.134 65.3504 148.703 66.116C149.567 67.177 150.89 67.107 152.245 66.784C150.04 69.17 151.627 71.624 154.14 71.484C154.882 71.4455 155.614 71.2902 156.308 71.024C157.692 70.5064 159.001 69.808 160.202 68.947C161.127 70.0489 161.971 71.2159 162.728 72.439C164.537 74.9537 165.976 77.7152 167 80.639C167.451 82.0379 167.727 83.4873 167.821 84.954C168.421 92.219 157.847 93.127 150.536 92.938C150.67 85.4133 149.943 77.8979 148.371 70.538C147.6 67.138 146.487 63.265 144.071 60.251C143.971 57.503 143.838 52.373 144.091 48.565C144.097 47.496 144.249 46.4328 144.543 45.405C144.97 44.222 146.026 44.272 146.643 45.23C146.879 46.1266 147.034 47.0427 147.105 47.967C147.442 50.2664 147.558 52.5926 147.452 54.914V54.916ZM100.421 69.627C90.871 69.645 72.621 69.667 71.359 69.678C67.29 69.712 66.765 71.447 63.708 72.608C62.8599 72.9115 61.9582 73.036 61.0596 72.9737C60.161 72.9114 59.2851 72.6636 58.487 72.246C57.2323 71.5687 56.1285 70.6431 55.2428 69.5256C54.3571 68.4082 53.708 67.1223 53.335 65.746C51.774 60.632 52.36 55.082 50.407 50.035C49.6505 47.6905 48.0374 45.7175 45.89 44.51C51.026 44.51 88.727 44.466 90.178 44.489C94.278 44.553 96.838 47.054 98.47 52.599C99.2106 55.1693 99.5181 57.8448 99.38 60.516C99.341 63.484 99.294 67.16 100.421 69.627ZM28.426 128.684C28.9856 127.209 29.812 125.85 30.864 124.674C32.571 122.815 35.64 121.908 37.878 123.244C38.4657 123.656 38.949 124.199 39.2892 124.831C39.6293 125.463 39.8169 126.166 39.837 126.883C39.993 128.141 39.981 128.849 40.077 137.907C36.3381 138.399 32.7044 139.497 29.319 141.159C26.4803 142.482 23.9639 144.407 21.945 146.801C26.021 135.521 28.127 129.446 28.426 128.684Z"></path>
      <path fill="#000000" d="M191.773 27.2999C191.718 26.6759 190.75 26.6999 190.805 27.3219C191.416 34.2499 192.105 42.1029 189.058 48.9319C188.803 49.5009 189.648 49.9719 189.906 49.3979C193.1 42.2999 192.362 33.9849 191.773 27.2999Z"></path>
      <path fill="#000000" d="M194.116 24.2001C194.101 24.1343 194.072 24.0725 194.031 24.0187C193.99 23.9649 193.938 23.9204 193.879 23.8881C193.797 23.8445 193.704 23.8255 193.611 23.8332C193.519 23.841 193.43 23.8752 193.356 23.9317C193.283 23.9883 193.227 24.0649 193.195 24.1524C193.164 24.2398 193.158 24.3345 193.179 24.4251C194.417 33.5601 195.256 43.1791 190.842 51.5441C190.55 52.0961 191.388 52.5811 191.684 52.0241C196.241 43.4191 195.384 33.5621 194.116 24.2001Z"></path>
      <path fill="#000000" d="M145.544 32.2651C145.952 32.7391 146.652 32.0711 146.244 31.5941L144.026 29.0161C143.613 28.5351 142.926 29.2161 143.326 29.6871L145.544 32.2651Z"></path>
      <path fill="#000000" d="M33.11 134.129C33.9244 134.572 34.8687 134.715 35.7779 134.533C36.6871 134.351 37.5035 133.856 38.0847 133.133C38.6658 132.411 38.9748 131.507 38.9577 130.58C38.9406 129.653 38.5984 128.761 37.991 128.061C37.6259 127.562 37.1509 127.154 36.6028 126.868C36.0547 126.581 35.4481 126.425 34.83 126.411C34.2119 126.397 33.5988 126.525 33.0382 126.786C32.4775 127.047 31.9844 127.433 31.5969 127.915C31.2094 128.396 30.9378 128.961 30.8034 129.564C30.6689 130.168 30.675 130.794 30.8213 131.395C30.9675 131.996 31.25 132.555 31.6469 133.029C32.0438 133.503 32.5444 133.879 33.11 134.129V134.129ZM31.677 130.129C31.7909 129.525 32.0775 128.968 32.5021 128.524C32.9267 128.08 33.4711 127.769 34.069 127.629C34.6562 127.525 35.26 127.573 35.8238 127.766C36.3877 127.96 36.8932 128.294 37.293 128.736C37.7002 129.249 37.9334 129.878 37.959 130.532C37.9845 131.186 37.801 131.832 37.435 132.375C37.0406 132.915 36.4782 133.31 35.8358 133.497C35.1934 133.685 34.5071 133.654 33.884 133.41C33.216 133.167 32.6424 132.718 32.2458 132.128C31.8491 131.538 31.65 130.837 31.677 130.127V130.129Z"></path>
      <path fill="#000000" d="M113.542 77.9849H85.584C85.4593 77.9905 85.3416 78.0441 85.2554 78.1343C85.1691 78.2245 85.121 78.3445 85.121 78.4694C85.121 78.5942 85.1691 78.7142 85.2554 78.8044C85.3416 78.8947 85.4593 78.9482 85.584 78.9539H113.547C113.611 78.952 113.673 78.9374 113.731 78.9109C113.789 78.8845 113.841 78.8467 113.884 78.7999C113.948 78.7315 113.99 78.6463 114.006 78.5545C114.023 78.4626 114.012 78.368 113.976 78.282C113.94 78.196 113.88 78.1222 113.803 78.0695C113.726 78.0168 113.635 77.9874 113.542 77.9849V77.9849Z"></path>
      <path fill="#000000" d="M113.542 86.6729H85.584C85.4593 86.6785 85.3416 86.732 85.2554 86.8223C85.1691 86.9125 85.121 87.0325 85.121 87.1574C85.121 87.2822 85.1691 87.4022 85.2554 87.4924C85.3416 87.5827 85.4593 87.6362 85.584 87.6419H113.547C113.672 87.6362 113.789 87.5827 113.876 87.4924C113.962 87.4022 114.01 87.2822 114.01 87.1574C114.01 87.0325 113.962 86.9125 113.876 86.8223C113.789 86.732 113.672 86.6785 113.547 86.6729H113.542Z"></path>
      <path fill="#000000" d="M89.981 61.812H62.107C61.9823 61.8177 61.8646 61.8712 61.7784 61.9614C61.6921 62.0517 61.644 62.1717 61.644 62.2965C61.644 62.4213 61.6921 62.5413 61.7784 62.6316C61.8646 62.7218 61.9823 62.7753 62.107 62.781H89.985C90.1097 62.7753 90.2274 62.7218 90.3136 62.6316C90.3999 62.5413 90.448 62.4213 90.448 62.2965C90.448 62.1717 90.3999 62.0517 90.3136 61.9614C90.2274 61.8712 90.1097 61.8177 89.985 61.812H89.981Z"></path>
      <path fill="#000000" d="M89.981 54.0252H62.111C62.0455 54.0222 61.9801 54.0325 61.9187 54.0555C61.8574 54.0785 61.8013 54.1137 61.7539 54.159C61.7065 54.2043 61.6688 54.2587 61.643 54.319C61.6173 54.3792 61.604 54.4441 61.604 54.5097C61.604 54.5752 61.6173 54.6401 61.643 54.7003C61.6688 54.7606 61.7065 54.815 61.7539 54.8603C61.8013 54.9056 61.8574 54.9408 61.9187 54.9638C61.9801 54.9868 62.0455 54.9971 62.111 54.9942H89.985C90.1097 54.9885 90.2274 54.935 90.3136 54.8447C90.3999 54.7545 90.448 54.6345 90.448 54.5097C90.448 54.3848 90.3999 54.2648 90.3136 54.1746C90.2274 54.0843 90.1097 54.0308 89.985 54.0252H89.981Z"></path>
      <path fill="#000000" d="M164.408 88.2351C164.901 87.2954 165.117 86.2348 165.031 85.1771C164.98 84.5581 164.007 84.5681 164.063 85.1991C164.143 86.0819 163.97 86.9694 163.563 87.7571C163.277 88.3131 164.117 88.7921 164.408 88.2351Z"></path>
      <path fill="#000000" d="M51.614 90.9391C51.7087 90.936 51.8006 90.906 51.879 90.8527C51.9573 90.7994 52.0189 90.7249 52.0565 90.6379C52.0941 90.5509 52.1063 90.455 52.0915 90.3614C52.0767 90.2678 52.0356 90.1803 51.973 90.1091L45.683 83.5201C45.249 83.0651 44.561 83.7481 44.994 84.2021C51.864 91.4001 51.345 90.9391 51.614 90.9391Z"></path>
      <path fill="#000000" d="M41.871 103.046C41.8759 103.168 41.9268 103.285 42.0135 103.371C42.1003 103.458 42.2165 103.509 42.339 103.514H51.932C52.0567 103.508 52.1744 103.455 52.2606 103.364C52.3469 103.274 52.395 103.154 52.395 103.029C52.395 102.905 52.3469 102.785 52.2606 102.694C52.1744 102.604 52.0567 102.551 51.932 102.545H42.339C42.2106 102.55 42.0893 102.605 42.0016 102.699C41.9139 102.793 41.8669 102.918 41.871 103.046Z"></path>
      <path fill="#000000" d="M45.891 120.661C45.8078 120.753 45.7633 120.874 45.7666 120.998C45.77 121.123 45.821 121.241 45.909 121.329C45.9971 121.417 46.1155 121.467 46.2398 121.47C46.3641 121.473 46.4848 121.428 46.577 121.345L52.877 115.045C52.9599 114.952 53.0041 114.831 53.0004 114.707C52.9967 114.583 52.9454 114.464 52.8571 114.377C52.7688 114.289 52.6502 114.239 52.5258 114.236C52.4015 114.234 52.2809 114.279 52.189 114.363L45.891 120.661Z"></path>
      <path fill="#000000" d="M124 48.0511C124.75 48.5554 125.632 48.8287 126.535 48.8372C127.439 48.8458 128.326 48.5891 129.085 48.0991C129.192 48.0323 129.27 47.9268 129.302 47.8044C129.334 47.6819 129.318 47.5519 129.257 47.4411C128.825 46.6591 128.357 45.8411 127.745 44.8051C128.726 44.7131 130.631 44.5541 130.831 44.4611C130.921 44.4281 130.999 44.3697 131.057 44.293C131.114 44.2163 131.148 44.1246 131.154 44.0291C131.217 43.0987 130.927 42.1788 130.343 41.4524C129.758 40.726 128.921 40.2464 127.999 40.1091C127.293 39.8991 126.548 39.8565 125.823 39.9848C125.098 40.1131 124.413 40.4086 123.822 40.8481C123.268 41.2777 122.822 41.8315 122.522 42.4649C122.221 43.0983 122.073 43.7936 122.09 44.4946C122.108 45.1955 122.29 45.8826 122.621 46.5004C122.953 47.1182 123.425 47.6494 124 48.0511V48.0511ZM126.937 43.9161C126.853 43.9187 126.771 43.943 126.699 43.9865C126.627 44.03 126.568 44.0913 126.527 44.1644C126.485 44.2376 126.464 44.3201 126.463 44.4042C126.463 44.4882 126.485 44.5708 126.526 44.6441C126.741 45.0201 127.848 46.9091 128.172 47.4871C127.631 47.7688 127.026 47.9042 126.416 47.8799C125.807 47.8556 125.214 47.6725 124.697 47.3486C124.18 47.0247 123.757 46.5713 123.469 46.0334C123.182 45.4956 123.039 44.8918 123.057 44.2821C123.095 43.3808 123.475 42.5278 124.118 41.8955C124.762 41.2632 125.621 40.8988 126.523 40.8761C127.471 40.8667 128.401 41.1385 129.195 41.6571C129.491 41.887 129.733 42.1789 129.904 42.5123C130.076 42.8457 130.172 43.2125 130.186 43.5871C128.964 43.7171 127.805 43.8291 126.932 43.9161H126.937Z"></path>
      <path fill="#000000" d="M124.305 38.8411C128.052 38.9363 131.788 38.404 135.359 37.2661C135.981 37.1202 136.557 36.8195 137.032 36.3921C137.257 36.1947 137.418 35.9341 137.493 35.6443C137.568 35.3546 137.554 35.0489 137.454 34.7669C137.353 34.485 137.17 34.2398 136.928 34.0631C136.686 33.8864 136.397 33.7865 136.098 33.7761C134.836 33.6222 133.562 33.5841 132.293 33.6621C132.936 33.083 133.452 32.3764 133.808 31.5871C133.885 31.3397 133.904 31.0779 133.863 30.8219C133.823 30.566 133.724 30.3228 133.574 30.1113C133.424 29.8998 133.228 29.7256 133 29.6023C132.772 29.479 132.519 29.4098 132.26 29.4001C131.676 29.4455 131.13 29.7115 130.735 30.1441C130.263 30.5441 129.811 31.0031 129.326 31.4781C127.21 33.4319 125.377 35.6715 123.88 38.1321C123.846 38.2061 123.83 38.2873 123.835 38.3687C123.839 38.4501 123.863 38.5292 123.905 38.5991C123.947 38.6689 124.005 38.7275 124.075 38.7697C124.145 38.8119 124.224 38.8364 124.305 38.8411ZM130.586 33.9181C130.52 33.9874 130.475 34.0748 130.458 34.1693C130.441 34.2638 130.453 34.3612 130.491 34.4493C130.529 34.5373 130.593 34.6121 130.673 34.6642C130.754 34.7163 130.848 34.7434 130.944 34.7421C132.601 34.5598 134.273 34.5545 135.931 34.7261C136.901 34.8431 136.593 35.5911 136.1 35.9141C135.616 36.1812 135.097 36.3785 134.558 36.5001C131.51 37.4235 128.342 37.8879 125.158 37.8781C126.426 35.9585 127.906 34.1877 129.57 32.5991C131.458 30.7081 131.97 30.1991 132.479 30.4181C132.613 30.4741 132.726 30.569 132.805 30.6904C132.884 30.8119 132.925 30.9543 132.922 31.0991C132.791 31.8381 131.586 33.0741 130.586 33.9181Z"></path>
      <path fill="#000000" d="M153.263 110.354C152.509 110.139 151.713 110.112 150.946 110.275C150.179 110.439 149.464 110.788 148.863 111.292C148.215 111.845 147.736 112.569 147.481 113.382C147.225 114.194 147.204 115.062 147.418 115.887C148.318 118.954 152.545 120.759 154.887 118.412C155.995 117.281 156.616 115.76 156.617 114.177C156.516 113.273 156.14 112.422 155.54 111.739C154.941 111.055 154.146 110.572 153.263 110.354V110.354ZM153.321 118.304C150.71 119.373 146.921 116.154 148.672 113.091C149.191 113.662 149.868 114.066 150.617 114.251C151.238 114.444 151.88 114.564 152.529 114.608C152.268 114.875 152.076 115.203 151.973 115.562C151.869 115.922 151.855 116.301 151.934 116.666C152.012 117.032 152.18 117.373 152.422 117.658C152.664 117.943 152.973 118.163 153.321 118.3V118.304ZM152.9 116.28C152.957 115.873 153.122 115.489 153.378 115.169C153.634 114.848 153.971 114.601 154.355 114.456C154.456 114.423 154.543 114.359 154.604 114.272C154.665 114.186 154.696 114.081 154.692 113.975C154.688 113.87 154.65 113.768 154.583 113.686C154.516 113.604 154.424 113.546 154.321 113.521C153.854 113.484 153.671 113.66 152.87 113.64C151.744 113.617 149.633 113.13 149.296 112.24C151.735 109.8 155.872 111.817 155.649 114.633C155.552 115.718 155.103 116.741 154.371 117.548C153.648 117.477 152.9 117.107 152.9 116.28Z"></path>
      <path fill="#000000" d="M181.977 136.039C179.747 132.958 176.407 130.939 171.465 129.693C166.423 128.41 161.209 127.94 156.019 128.299C151.068 128.63 146.163 129.464 141.38 130.787C139.404 131.221 137.527 132.024 135.849 133.153C133.012 132.149 129.991 131.771 126.994 132.045C125.155 132.249 123.366 132.776 121.709 133.6C120.331 134.371 119 135.221 117.721 136.147C116.432 136.959 115.383 138.101 114.683 139.455C114.427 140.084 114.395 140.78 114.59 141.43C114.785 142.08 115.197 142.643 115.757 143.026C117.49 144.241 120.129 143.482 122.037 142.626C122.697 142.332 123.326 141.963 123.953 141.654C124.05 141.604 124.158 141.576 124.267 141.572C124.376 141.568 124.485 141.588 124.586 141.63C124.687 141.673 124.777 141.737 124.851 141.818C124.924 141.9 124.979 141.996 125.01 142.101C125.042 142.206 125.051 142.316 125.036 142.424C125.02 142.533 124.981 142.637 124.921 142.728C124.862 142.82 124.782 142.897 124.689 142.955C124.596 143.013 124.492 143.049 124.383 143.062C122.572 143.414 120.913 144.315 119.631 145.642C119.197 146.175 118.969 146.847 118.99 147.535C119.012 148.222 119.28 148.879 119.747 149.384C120.415 150.085 121.27 150.58 122.21 150.811C120.754 151.323 120.033 152.155 120.01 153.346C119.976 155.071 121.335 156.71 123.854 156.885C121.002 159.016 121.706 162.195 124.119 163.004C126.189 163.853 128.838 163.504 130.705 163.141C130.718 165.189 130.805 170.129 130.814 170.707C130.816 170.835 130.867 170.957 130.957 171.047C131.048 171.137 131.169 171.188 131.297 171.189C131.726 171.195 140.905 171.297 141.91 171.307C143.219 175.511 145.631 179.286 148.895 182.24C153.135 185.822 160.289 187.529 165.536 186.997C172.302 186.312 178.962 180.897 182.108 173.519C183.718 169.641 184.658 165.518 184.887 161.325C185.995 153.886 186.042 148.482 185.043 143.256C184.557 140.656 183.511 138.194 181.977 136.039V136.039ZM126.643 156.685C127.266 156.574 127.02 155.633 126.408 155.745C123.874 156.206 122.185 155.857 121.388 154.708C121.09 154.288 120.949 153.777 120.988 153.263C121.166 152.325 121.945 151.763 123.438 151.482C124.182 151.345 124.938 151.232 125.678 151.124C126.237 151.042 126.117 150.14 125.557 150.17C124.234 150.27 122.905 150.071 121.669 149.586C120.555 149.122 119.604 148.004 120.036 146.846C120.757 144.913 124.381 144.117 125.036 143.869C125.374 143.705 125.649 143.435 125.819 143.1C125.989 142.765 126.044 142.383 125.976 142.014C125.907 141.644 125.72 141.307 125.442 141.055C125.164 140.802 124.81 140.648 124.436 140.615C123.849 140.626 123.281 140.819 122.808 141.166C121.457 141.98 119.948 142.496 118.381 142.68C117.791 142.794 117.18 142.7 116.653 142.413C116.126 142.125 115.715 141.663 115.491 141.106C115.209 140.174 115.691 139.16 116.98 138.006C118.16 136.984 119.429 136.069 120.773 135.274C123.858 133.315 127.54 132.518 131.159 133.027C132.847 133.292 134.508 133.707 136.122 134.269C142.361 136.34 147.966 139.972 152.406 144.819C156.721 149.582 158.226 153.326 160.749 159.142C160.949 159.602 161.665 159.382 161.658 158.909C161.658 158.909 161.603 155.464 161.589 154.456C161.569 152.978 161.842 151.511 162.392 150.138C162.942 148.766 163.758 147.516 164.793 146.461C165.828 145.405 167.062 144.565 168.423 143.988C169.784 143.412 171.246 143.11 172.724 143.101C174.202 143.092 175.668 143.375 177.036 143.935C178.404 144.494 179.648 145.319 180.696 146.362C181.745 147.404 182.576 148.644 183.143 150.009C183.71 151.374 184.001 152.838 184 154.316C184.138 159.071 184.039 165.271 182.038 171.06C179.428 178.611 173.573 184.382 167.12 185.76C164.317 186.335 161.421 186.273 158.645 185.578C156.004 185.198 153.478 184.243 151.246 182.779C149.015 181.316 147.132 179.381 145.73 177.11C142.176 171.522 141.124 164.822 140.193 158.894C140.164 158.793 140.102 158.703 140.018 158.64C139.934 158.576 139.831 158.541 139.725 158.541C139.225 158.541 135.703 161.118 131.16 162.087C128.668 162.619 125.344 162.971 123.654 161.629C123.365 161.396 123.153 161.081 123.047 160.725C122.941 160.369 122.947 159.989 123.062 159.636C123.326 158.86 123.8 158.173 124.433 157.651C125.065 157.13 125.831 156.796 126.643 156.685V156.685ZM168.02 143.071C165.995 143.91 164.24 145.288 162.944 147.056C161.648 148.823 160.862 150.912 160.67 153.095C160.6 154.225 160.591 155.358 160.644 156.488C160.329 155.76 160.015 155.031 159.694 154.306C157.547 149.471 154.424 145.132 150.522 141.559C146.62 137.987 142.023 135.259 137.018 133.545C138.011 132.936 139.081 132.462 140.199 132.135C144.805 130.773 149.532 129.855 154.313 129.393C159.732 128.846 165.203 129.202 170.505 130.449C175.317 131.584 178.565 133.349 180.725 136.002C182.249 137.904 183.324 140.126 183.869 142.502C184.605 145.693 184.908 148.968 184.769 152.239C184.47 150.423 183.762 148.7 182.698 147.198C181.634 145.697 180.243 144.457 178.629 143.574C177.014 142.69 175.22 142.186 173.382 142.099C171.544 142.012 169.71 142.344 168.02 143.071V143.071ZM139.349 159.783C139.847 163.351 140.599 166.879 141.6 170.34C137.506 170.294 131.816 170.216 131.774 170.216C131.711 167.298 131.674 165.045 131.668 162.942C134.355 162.229 136.938 161.167 139.349 159.783Z"></path>
      <path fill="#000000" d="M111.667 151.01C111.324 151.54 112.158 152.032 112.497 151.51C113.402 150.116 114.563 147.676 115.77 147.055C115.826 147.024 115.891 147.012 115.954 147.019C116.018 147.026 116.078 147.053 116.126 147.095C117.198 147.917 115.283 151.595 114.621 152.771C114.557 152.882 114.539 153.014 114.572 153.138C114.605 153.263 114.686 153.368 114.798 153.433C114.909 153.497 115.041 153.515 115.165 153.481C115.289 153.448 115.395 153.367 115.459 153.256C116.139 152.082 116.699 150.843 117.129 149.556C117.565 148.195 117.505 147.216 116.947 146.556C115.14 144.444 112.837 149.208 111.667 151.01Z"></path>
      <path fill="#000000" d="M112.82 152.608C111.341 151.941 109.708 151.693 108.098 151.891C103.713 152.416 99.778 154.469 95.713 158.353C94.563 159.453 93.527 160.643 92.421 161.825C92.3706 161.878 92.3327 161.942 92.3101 162.011C92.2875 162.081 92.2807 162.155 92.2903 162.227C92.2999 162.3 92.3256 162.369 92.3655 162.431C92.4054 162.492 92.4585 162.544 92.521 162.582C97.293 165.482 101.97 168.573 106.656 171.527L106.256 176.399C106.203 177.027 107.173 177.04 107.223 176.419L107.579 172.108C108.267 172.533 110.769 174.073 111.979 174.79C112.033 174.828 112.095 174.853 112.161 174.864C112.226 174.876 112.293 174.872 112.357 174.855C112.421 174.837 112.48 174.806 112.53 174.763C112.58 174.72 112.621 174.666 112.648 174.606C114.092 171.433 115.263 168.143 116.148 164.772C117.148 160.947 116.992 157.905 115.677 155.472C115.029 154.255 114.035 153.258 112.82 152.608V152.608ZM115.447 163.569C114.599 167.031 113.445 170.41 112.001 173.669C107.014 170.717 96.501 163.881 93.516 162.055C95.1655 160.179 96.9721 158.448 98.916 156.88C103.306 153.328 111.092 150.604 114.378 155.209C115.869 157.3 116.229 160.115 115.447 163.569V163.569Z"></path>
      <path fill="#000000" d="M105.724 178.42C105.183 178.53 104.688 178.803 104.306 179.202C103.925 179.602 103.674 180.108 103.588 180.654C103.503 181.199 103.586 181.758 103.827 182.255C104.068 182.752 104.455 183.163 104.936 183.434C105.485 183.733 106.129 183.802 106.729 183.627C107.328 183.452 107.834 183.046 108.136 182.499C108.45 182.074 108.634 181.568 108.667 181.041C108.7 180.514 108.58 179.989 108.322 179.528C108.038 179.117 107.643 178.794 107.183 178.598C106.724 178.402 106.218 178.34 105.724 178.42V178.42ZM107.342 179.859C107.572 180.145 107.702 180.498 107.713 180.865C107.724 181.231 107.615 181.591 107.403 181.89C106.403 183.578 104.441 182.577 104.533 180.944C104.538 180.62 104.639 180.305 104.824 180.04C105.009 179.774 105.269 179.57 105.571 179.453C105.873 179.336 106.203 179.313 106.519 179.385C106.834 179.457 107.121 179.623 107.342 179.859V179.859Z"></path>
      <path fill="#000000" d="M120.6 178.3C120.4 177.7 119.475 177.973 119.669 178.568L122.605 187.568C122.799 188.162 123.732 187.9 123.536 187.299L120.6 178.3Z"></path>
      <path fill="#000000" d="M122.45 177.522C122.384 177.414 122.278 177.337 122.155 177.306C122.032 177.275 121.902 177.293 121.793 177.357C121.683 177.421 121.603 177.525 121.569 177.647C121.535 177.769 121.551 177.899 121.612 178.01C122.93 180.384 126.078 185.854 126.275 186.181C126.317 186.252 126.377 186.31 126.449 186.35C126.52 186.39 126.601 186.411 126.683 186.41C126.767 186.411 126.85 186.389 126.924 186.348C126.997 186.307 127.058 186.247 127.102 186.175C127.145 186.102 127.169 186.02 127.17 185.936C127.172 185.852 127.152 185.768 127.112 185.694C126.112 183.892 122.467 177.551 122.45 177.522Z"></path>
      <path fill="#000000" d="M143.219 157.037C144.782 155.341 146.14 153.466 147.266 151.453C147.323 151.342 147.336 151.214 147.302 151.094C147.267 150.975 147.188 150.873 147.08 150.81C146.972 150.747 146.845 150.728 146.724 150.757C146.602 150.786 146.497 150.86 146.429 150.965C143.329 156.165 142.211 156.174 142.419 156.829C142.439 156.911 142.481 156.986 142.541 157.047C142.6 157.107 142.675 157.15 142.757 157.171C142.839 157.193 142.925 157.191 143.006 157.168C143.088 157.144 143.161 157.099 143.219 157.037V157.037Z"></path>
      <path fill="#000000" d="M130.476 156.327C131.698 156.231 132.901 155.97 134.053 155.551C134.634 155.339 134.375 154.407 133.776 154.623C132.708 155.017 131.591 155.265 130.456 155.359C129.825 155.41 129.857 156.39 130.476 156.327Z"></path>
      <path fill="#000000" d="M129.434 150.78C129.534 150.78 129.371 150.805 132.388 150.18C133.009 150.051 132.755 149.114 132.146 149.242L129.3 149.835C129.191 149.87 129.098 149.942 129.037 150.039C128.976 150.136 128.952 150.251 128.968 150.364C128.984 150.477 129.039 150.581 129.125 150.657C129.21 150.733 129.32 150.777 129.434 150.78V150.78Z"></path>
      <path fill="#000000" d="M163.114 183.594C163.214 183.594 163.359 183.562 167.442 183C167.566 182.967 167.672 182.886 167.736 182.775C167.801 182.664 167.819 182.532 167.785 182.408C167.752 182.284 167.671 182.178 167.56 182.113C167.449 182.049 167.317 182.031 167.193 182.064L162.986 182.642C162.873 182.674 162.776 182.745 162.712 182.843C162.647 182.94 162.621 183.058 162.636 183.174C162.652 183.29 162.709 183.396 162.796 183.473C162.884 183.551 162.997 183.593 163.114 183.594V183.594Z"></path>
      <path fill="#000000" d="M68.634 153.137C67.382 154.167 66.146 155.248 64.962 156.351C64.501 156.781 65.183 157.469 65.64 157.042C69.24 153.689 69.54 153.89 69.463 153.442C69.4461 153.355 69.4071 153.273 69.3495 153.206C69.292 153.138 69.2179 153.086 69.1345 153.056C69.0512 153.025 68.9613 153.016 68.8736 153.031C68.7859 153.045 68.7034 153.082 68.634 153.137Z"></path>
      <path fill="#000000" d="M41.326 152.023C35.0799 157.143 28.4617 161.791 21.526 165.929C21.4717 165.962 21.4246 166.005 21.3876 166.057C21.3506 166.109 21.3246 166.167 21.311 166.229C21.2894 166.32 21.2947 166.416 21.3264 166.504C21.358 166.593 21.4145 166.67 21.4891 166.727C21.5637 166.784 21.6532 166.817 21.7467 166.824C21.8402 166.832 21.9338 166.811 22.016 166.766C29.0394 162.626 35.7207 157.931 41.996 152.726C42.483 152.324 41.806 151.629 41.326 152.023Z"></path>
      <path fill="#000000" d="M82.458 125.214L84.878 122.841C84.9641 122.749 85.0112 122.628 85.0093 122.502C85.0075 122.376 84.9568 122.256 84.8681 122.167C84.7793 122.078 84.6594 122.026 84.5336 122.024C84.4079 122.022 84.2861 122.068 84.194 122.154L81.775 124.527C81.6914 124.619 81.6463 124.74 81.6491 124.864C81.652 124.988 81.7024 125.107 81.7901 125.195C81.8778 125.283 81.9959 125.334 82.1202 125.338C82.2446 125.341 82.3655 125.297 82.458 125.214V125.214Z"></path>
      <path fill="#000000" d="M87.318 129.508L89.64 127.62C90.131 127.22 89.456 126.526 88.974 126.92L86.652 128.808C86.162 129.2 86.835 129.9 87.318 129.508Z"></path>
      <path fill="#000000" d="M12.236 155.545C12.1801 155.511 12.118 155.49 12.0534 155.481C11.9888 155.472 11.9231 155.477 11.8603 155.494C11.7975 155.512 11.739 155.542 11.6882 155.583C11.6374 155.624 11.5955 155.674 11.565 155.732L8.165 163.762C8.11907 163.844 8.0981 163.938 8.10464 164.033C8.11119 164.127 8.14496 164.217 8.20186 164.292C8.25875 164.368 8.33632 164.425 8.42511 164.457C8.51391 164.489 8.6101 164.495 8.702 164.473C8.76715 164.456 8.82818 164.426 8.88132 164.385C8.93447 164.344 8.9786 164.292 9.011 164.233L12.411 156.203C12.472 156.092 12.4879 155.961 12.4553 155.839C12.4227 155.716 12.3442 155.611 12.236 155.545V155.545Z"></path>
      <path fill="#000000" d="M9.242 154.861L4.926 164.089C4.659 164.657 5.508 165.125 5.772 164.558L10.089 155.33C10.352 154.767 9.509 154.288 9.242 154.861Z"></path>
    </g>
  </g>
</svg>