<svg xmlns="http://www.w3.org/2000/svg" fill="none" viewBox="0 0 400 400">
  <g transform="matrix(2,0,0,2,0,0)">
    <path fill="#d7d7d7" d="M156.278 89.546L125.778 87.266C122.824 87.0422 119.859 87.5309 117.133 88.691L109.02 92.149C107.929 94.1299 106.588 95.9625 105.03 97.602C101.116 101.782 86.106 109.553 78.183 111.187C76.3163 111.519 74.3922 111.183 72.749 110.237C69.1595 113.117 65.3982 115.776 61.486 118.2C61.486 118.2 68.896 139.309 96.486 127.377L118.431 117.858L113.624 129.391C113.757 135.984 113.795 144.629 113.358 150.391C118.51 151.96 124.005 152.013 129.186 150.542C131.256 136.482 132.833 114.29 127.475 105.911L153.696 105.664C157 99.713 156.709 96.329 156.278 89.546Z"></path>
    <path fill="#353535" d="M167.3 91.047C165.114 96.2297 162.026 100.984 158.18 105.088C160.289 105.411 162.398 105.888 164.203 106.171C166.083 105.351 167.846 104.285 169.445 103C174.445 98.972 184.745 93.975 187.001 91.125C182.916 90.534 172.922 90.933 167.3 91.047Z"></path>
    <path fill="#353535" d="M128.651 162.108C123.386 160.12 118.515 157.212 114.268 153.519C114.021 155.629 113.641 157.757 113.413 159.581C114.304 161.431 115.435 163.156 116.776 164.711C120.976 169.537 126.353 179.645 129.276 181.811C129.734 177.707 128.975 167.732 128.651 162.108Z"></path>
    <path fill="#353535" d="M63.424 101.877C63.044 102.067 62.645 102.238 62.246 102.409C60.3825 100.219 58.6315 97.9365 57 95.569C57.171 95.969 62.415 107.311 71.117 111.586C71.687 111.13 72.238 110.693 72.751 110.256C69.5 108.489 66.122 105.069 63.424 101.877Z"></path>
    <path fill="#353535" d="M113.394 120.022C113.394 120.022 113.565 124.031 113.66 129.37L118.429 117.856L113.394 120.022Z"></path>
    <path fill="#353535" d="M62.227 52.021C62.227 52.021 58.9 45.788 51.074 49.589C43.248 53.39 44.766 68.665 44.766 68.665C44.766 68.665 37.811 71.99 34.106 77.595C28.368 86.278 31.257 99.388 49.1 99.388C48.2494 95.6453 47.9549 91.7976 48.226 87.969C48.701 81.224 51.152 75.049 53.318 68.722C56.08 60.543 55.487 61.197 56.453 58.196C54.153 56.011 56.89 53.389 58.125 55.516C58.648 56.376 58.773 56.41 59.191 56.541C61.455 57.25 65.563 58.041 67.791 57.303C67.794 57.245 67.984 52.021 62.227 52.021Z"></path>
    <path fill="#353535" d="M58.0089 71.363L55.976 66.271C56.6541 67.1797 57.4532 67.9915 58.351 68.684C58.1839 69.5694 58.0697 70.464 58.0089 71.363V71.363Z"></path>
    <path fill="#353535" d="M84.8939 157.643C85.0254 158.286 84.9633 158.953 84.7157 159.56C84.468 160.167 84.0459 160.687 83.5026 161.055C82.9593 161.422 82.3193 161.62 81.6635 161.624C81.0077 161.627 80.3656 161.436 79.8183 161.075C79.271 160.714 78.8431 160.198 78.5888 159.594C78.3344 158.989 78.265 158.323 78.3894 157.679C78.5137 157.035 78.8262 156.442 79.2873 155.976C79.7484 155.51 80.3375 155.191 80.9799 155.059C81.4068 154.969 81.8471 154.965 82.2755 155.047C82.7039 155.129 83.1119 155.294 83.4759 155.535C83.8398 155.775 84.1526 156.085 84.396 156.447C84.6394 156.809 84.8086 157.215 84.8939 157.643V157.643Z"></path>
    <path fill="#353535" d="M105.091 28.175C105.091 30.5312 104.392 32.8344 103.083 34.7935C101.774 36.7526 99.9137 38.2795 97.7369 39.1812C95.5601 40.0829 93.1648 40.3188 90.8539 39.8591C88.543 39.3995 86.4203 38.2649 84.7543 36.5988C83.0882 34.9327 81.9536 32.81 81.4939 30.4991C81.0343 28.1882 81.2702 25.7929 82.1718 23.6161C83.0735 21.4393 84.6004 19.5787 86.5595 18.2697C88.5186 16.9607 90.8219 16.262 93.178 16.262C96.337 16.2639 99.366 17.5196 101.6 19.7533C103.833 21.987 105.089 25.0161 105.091 28.175V28.175Z"></path>
    <g>
      <path stroke="#353535" stroke-linecap="round" stroke-linejoin="round" stroke-width=".75" d="M131.14 126.957L140.963 131.916C142.979 132.931 145.316 133.105 147.46 132.4C149.605 131.695 151.382 130.168 152.402 128.154L163.65 105.886"></path>
      <path stroke="#353535" stroke-linecap="round" stroke-linejoin="round" stroke-width=".75" d="M170.775 91.788L177.71 78.07C178.725 76.0539 178.899 73.7174 178.194 71.5731C177.489 69.4288 175.962 67.6519 173.948 66.632L99.144 28.84C97.1282 27.8246 94.7919 27.6503 92.6477 28.3551C90.5034 29.06 88.7263 30.5866 87.706 32.6L65.191 77.2"></path>
      <path stroke="#353535" stroke-linecap="round" stroke-linejoin="round" stroke-width=".75" d="M93.178 28.175L120.063 80.388L178.033 71.04"></path>
      <path stroke="#353535" stroke-linecap="round" stroke-linejoin="round" stroke-width=".75" d="M88.3 130.13C83.9753 134.885 78.7372 138.72 72.8982 141.406C67.0591 144.093 60.7389 145.576 54.3143 145.767C47.8897 145.958 41.4925 144.853 35.5041 142.518C29.5158 140.183 24.0591 136.666 19.4595 132.177C14.8599 127.687 11.2116 122.318 8.7322 116.388C6.25283 110.458 4.9932 104.089 5.02843 97.6618C5.06366 91.2345 6.39304 84.8801 8.93727 78.9777C11.4815 73.0753 15.1885 67.7458 19.837 63.307"></path>
      <path stroke="#353535" stroke-linecap="round" stroke-linejoin="round" stroke-width=".75" d="M58.009 72.94C57.9556 71.4999 58.0779 70.0586 58.373 68.648C60.689 70.197 62.603 69.234 64.008 67.23C65.8101 64.3134 66.7352 60.9399 66.673 57.512C66.438 52.023 62.073 51.772 59.141 56.488"></path>
      <path stroke="#353535" stroke-linecap="round" stroke-linejoin="round" stroke-width=".75" d="M57.0001 95.569C58.631 97.9365 60.3812 100.219 62.2441 102.409C65.2382 101.154 67.9965 99.3974 70.4001 97.215C72.1807 95.5987 73.7783 93.7915 75.1641 91.826C71.8856 87.5391 68.8476 83.0736 66.0641 78.45C64.7083 76.1951 62.6734 74.4273 60.2511 73.4C59.2121 72.9963 58.0902 72.8528 56.9831 72.982C56.1609 73.1977 55.2996 73.2168 54.4686 73.0379C53.6377 72.859 52.8606 72.487 52.2001 71.952"></path>
      <path stroke="#353535" stroke-linecap="round" stroke-linejoin="round" stroke-width=".75" d="M156.43 91.028C159.014 91.123 164.144 91.104 167.279 91.047C165.099 96.228 162.018 100.982 158.179 105.088C157.21 104.936 155.158 104.727 154.227 104.67"></path>
      <path stroke="#353535" stroke-linecap="round" stroke-linejoin="round" stroke-width=".75" d="M187 91.123C188.083 91.275 188.779 91.523 188.862 91.864C189.388 94.022 178.094 99.264 173.016 103.359C171.539 104.565 169.887 105.539 168.116 106.247C166.824 106.484 165.498 106.459 164.216 106.171C166.099 105.353 167.864 104.287 169.464 103C174.45 98.98 184.74 93.992 187 91.123Z"></path>
      <path stroke="#353535" stroke-linecap="round" stroke-linejoin="round" stroke-width=".75" d="M167.3 91.047C172.924 90.933 182.918 90.534 187 91.123C184.739 93.973 174.445 98.975 169.444 102.998C167.845 104.285 166.082 105.352 164.2 106.171C162.395 105.886 160.286 105.411 158.177 105.088C162.024 100.984 165.113 96.2299 167.3 91.047V91.047Z"></path>
      <path stroke="#353535" stroke-linecap="round" stroke-linejoin="round" stroke-width=".75" d="M128.423 150.765C128.252 153.615 128.423 157.814 128.651 162.127C123.393 160.135 118.53 157.227 114.287 153.539C114.401 152.57 114.477 151.601 114.496 150.689"></path>
      <path stroke="#353535" stroke-linecap="round" stroke-linejoin="round" stroke-width=".75" d="M129.278 181.811C129.164 182.911 128.957 183.601 128.613 183.711C126.494 184.386 120.82 173.206 116.548 168.283C115.282 166.848 114.244 165.227 113.47 163.476C113.192 162.193 113.172 160.867 113.413 159.576C114.301 161.428 115.432 163.153 116.776 164.706C120.976 169.553 126.352 179.645 129.278 181.811Z"></path>
      <path stroke="#353535" stroke-linecap="round" stroke-linejoin="round" stroke-width=".75" d="M128.651 162.108C128.974 167.732 129.734 177.708 129.278 181.808C126.352 179.642 120.962 169.545 116.778 164.708C115.435 163.154 114.304 161.429 113.415 159.578C113.643 157.754 114.023 155.625 114.27 153.516C118.516 157.21 123.386 160.119 128.651 162.108V162.108Z"></path>
      <path stroke="#353535" stroke-linecap="round" stroke-linejoin="round" stroke-width=".75" d="M71.119 111.586C62.417 107.311 57.173 95.968 57 95.569"></path>
      <path stroke="#353535" stroke-linecap="round" stroke-linejoin="round" stroke-width=".75" d="M63.4241 101.877C66.1241 105.069 69.5061 108.505 72.7531 110.277C74.4006 111.211 76.3226 111.54 78.1871 111.208C86.1171 109.608 101.12 101.803 105.034 97.623C112.122 90.053 111.54 84.286 110.924 74.652C110.674 70.738 110.182 70.832 109.594 72.652C108.719 75.368 107.615 81.952 106.706 84.546C106.621 84.8071 106.446 85.0294 106.212 85.173C105.512 85.573 105.071 84.698 104.712 83.463C104.331 82.152 104.059 80.406 103.705 79.363C103.084 77.524 101.817 75.848 101.615 81.244C101.497 84.417 101.489 89.882 98.0431 91.884C95.3611 93.4123 92.5663 94.7335 89.6831 95.836C86.7007 97.004 83.5764 97.7707 80.3921 98.116C78.6631 98.208 76.3451 96.235 74.1411 93.176"></path>
      <path stroke="#353535" stroke-linecap="round" stroke-linejoin="round" stroke-width=".75" d="M107.561 81.376L110.753 67.335C110.824 67.0276 110.769 66.7048 110.602 66.4376C110.434 66.1703 110.167 65.9806 109.86 65.91C109.553 65.8395 109.23 65.8939 108.963 66.0614C108.695 66.2289 108.506 66.4956 108.435 66.803L104.673 83.352"></path>
      <path stroke="#353535" stroke-linecap="round" stroke-linejoin="round" stroke-width=".75" d="M113.4 120.04C116.364 118.767 118.434 117.856 118.434 117.856L113.66 129.37"></path>
      <path stroke="#353535" stroke-linecap="round" stroke-linejoin="round" stroke-width=".75" d="M72.753 110.275C69.1639 113.146 65.4011 115.793 61.486 118.2C55.1026 113.745 50.6698 107.012 49.1 99.388"></path>
      <path stroke="#353535" stroke-linecap="round" stroke-linejoin="round" stroke-width=".75" d="M109.005 92.149L117.916 88.368C120.123 87.4355 122.519 87.0383 124.908 87.209L156.278 89.546C156.984 96.111 156.9 99.887 153.694 105.658L127.511 105.905"></path>
      <path stroke="#353535" stroke-linecap="round" stroke-linejoin="round" stroke-width=".75" d="M62.227 52.021C62.227 52.021 58.9 45.788 51.074 49.589C43.248 53.39 44.766 68.665 44.766 68.665C44.766 68.665 37.811 71.99 34.106 77.595C28.368 86.278 31.257 99.388 49.1 99.388C48.2494 95.6453 47.9549 91.7976 48.226 87.969C48.701 81.224 51.152 75.049 53.318 68.722C53.812 67.259 54.99 63.687 55.389 62.204C55.75 60.818 55.921 59.848 56.453 58.196C54.153 56.011 56.89 53.389 58.125 55.516C58.67 56.416 58.776 56.364 59.373 56.561C60.851 57.047 64.833 58.15 67.796 57.261C67.794 57.264 67.984 52.021 62.227 52.021Z"></path>
      <path stroke="#353535" stroke-linecap="round" stroke-linejoin="round" stroke-width=".75" d="M24.7201 55.288C17.9844 58.537 11.6469 62.554 5.83407 67.259C5.67047 67.3608 5.534 67.5007 5.43636 67.6668C5.33872 67.8329 5.28284 68.0202 5.2735 68.2126C5.26415 68.405 5.30164 68.5969 5.38273 68.7716C5.46382 68.9464 5.5861 69.0989 5.73907 69.216L10.0711 72.655C12.6961 69.212 16.2551 66.302 19.8311 63.296C17.0786 66.8567 14.668 70.6689 12.6311 74.682L17.2921 78.374C17.4425 78.4934 17.6194 78.5749 17.8079 78.6117C17.9964 78.6485 18.1909 78.6395 18.3752 78.5855C18.5595 78.5315 18.7282 78.4341 18.867 78.3014C19.0058 78.1687 19.1108 78.0047 19.1731 77.823L26.5061 56.7C26.5917 56.4632 26.6007 56.2054 26.5318 55.9632C26.4628 55.721 26.3194 55.5066 26.1219 55.3505C25.9243 55.1943 25.6826 55.1042 25.431 55.093C25.1795 55.0818 24.9307 55.15 24.7201 55.288V55.288Z"></path>
      <path stroke="#353535" stroke-linecap="round" stroke-linejoin="round" stroke-width=".75" d="M153.542 19.075C149.761 17.193 145.524 19.875 146.132 23.825L144.365 25.458L146.797 25.648C148.944 29.277 154.397 29.43 156.183 25.857C156.729 24.607 156.757 23.1918 156.262 21.9209C155.767 20.65 154.789 19.6268 153.542 19.075Z"></path>
      <path stroke="#353535" stroke-linecap="round" stroke-linejoin="round" stroke-width=".75" d="M176.038 128.857C175.464 128.56 174.837 128.379 174.194 128.324C173.55 128.269 172.901 128.341 172.285 128.537C171.67 128.733 171.098 129.048 170.605 129.465C170.111 129.882 169.704 130.392 169.407 130.966C169.407 130.966 166.196 137.237 163.498 137.046L176.912 143.981C175.183 141.891 178.147 135.489 178.147 135.489C178.444 134.915 178.626 134.288 178.68 133.644C178.735 133 178.663 132.352 178.467 131.736C178.271 131.12 177.956 130.549 177.539 130.055C177.122 129.561 176.612 129.154 176.038 128.857V128.857Z"></path>
      <path stroke="#353535" stroke-linecap="round" stroke-linejoin="round" stroke-width=".75" d="M172.409 141.663C172.107 142.248 171.584 142.688 170.957 142.888C170.33 143.087 169.65 143.029 169.065 142.727C168.48 142.425 168.04 141.902 167.84 141.275C167.641 140.648 167.699 139.968 168.001 139.383"></path>
      <path stroke="#353535" stroke-linecap="round" stroke-linejoin="round" stroke-width=".75" d="M190.668 56.277L187.115 68.513"></path>
      <path stroke="#353535" stroke-linecap="round" stroke-linejoin="round" stroke-width=".75" d="M195 64.162L182.764 60.609"></path>
      <path stroke="#353535" stroke-linecap="round" stroke-linejoin="round" stroke-width=".75" d="M113.679 144.114C119.076 145.002 124.574 145.103 130 144.414"></path>
      <path stroke="#353535" stroke-linecap="round" stroke-linejoin="round" stroke-width=".75" d="M149.02 89.052C149.876 94.7519 148.954 100.577 146.379 105.734"></path>
      <path stroke="#353535" stroke-linecap="round" stroke-linejoin="round" stroke-width=".75" d="M84.8941 157.643C85.0255 158.286 84.9635 158.953 84.7158 159.56C84.4682 160.167 84.046 160.687 83.5027 161.055C82.9594 161.422 82.3194 161.62 81.6636 161.624C81.0078 161.627 80.3657 161.436 79.8184 161.075C79.2711 160.714 78.8432 160.198 78.5889 159.594C78.3345 158.989 78.2652 158.323 78.3895 157.679C78.5138 157.035 78.8263 156.442 79.2874 155.976C79.7486 155.51 80.3376 155.191 80.9801 155.059C81.4069 154.969 81.8472 154.965 82.2756 155.047C82.7041 155.129 83.112 155.294 83.476 155.535C83.84 155.775 84.1527 156.085 84.3961 156.447C84.6395 156.809 84.8087 157.215 84.8941 157.643V157.643Z"></path>
      <path stroke="#353535" stroke-linecap="round" stroke-linejoin="round" stroke-width=".75" d="M83.3931 147.25C84.6669 146.059 86.2654 145.272 87.9864 144.99C89.7073 144.707 91.4734 144.941 93.0614 145.662C94.6494 146.383 95.9879 147.559 96.9076 149.041C97.8274 150.522 98.2871 152.244 98.2286 153.987C98.1702 155.73 97.5962 157.416 96.5792 158.833C95.5623 160.25 94.148 161.333 92.5153 161.946C90.8826 162.559 89.1048 162.674 87.4066 162.277C85.7085 161.88 84.1663 160.988 82.9751 159.714C81.3786 158.005 80.5258 155.733 80.6042 153.395C80.6826 151.058 81.6857 148.848 83.3931 147.25Z"></path>
      <path stroke="#353535" stroke-linecap="round" stroke-linejoin="round" stroke-width=".75" d="M61.486 118.2C61.486 118.2 68.896 139.309 96.486 127.377L113.4 120.04C113.61 128.022 114.052 141.531 113.38 150.385C118.532 151.954 124.026 152.007 129.207 150.537C131.278 136.476 132.879 114.281 127.516 105.905C120.568 95.052 99.206 102.01 99.206 102.01"></path>
      <path stroke="#353535" stroke-linecap="round" stroke-linejoin="round" stroke-width=".75" d="M58.373 68.648C57.4575 67.9954 56.6532 67.1995 55.991 66.291L58.009 71.363"></path>
    </g>
  </g>
</svg>