<svg xmlns="http://www.w3.org/2000/svg" fill="none" viewBox="0 0 400 400">
  <g transform="matrix(3.6363636363636362,0,0,3.6363636363636362,0,0)">
    <path fill="#000000" fill-rule="evenodd" d="M30.2831 42.8175C30.3832 42.8644 30.4916 42.891 30.6021 42.8957C30.7125 42.9004 30.8228 42.8832 30.9266 42.845C30.9468 42.84 30.9649 42.8283 30.9777 42.8119C30.9906 42.7954 30.9976 42.7751 30.9976 42.7543C30.9976 42.7334 30.9906 42.7131 30.9777 42.6967C30.9649 42.6802 30.9468 42.6686 30.9266 42.6635C30.4991 42.4796 30.1355 42.1735 29.8816 41.7835C29.875 41.7634 29.8618 41.7461 29.8441 41.7345C29.8265 41.7229 29.8053 41.7176 29.7843 41.7195C29.7632 41.7214 29.7434 41.7304 29.7281 41.7451C29.7128 41.7597 29.7029 41.779 29.7001 41.8C29.6735 42.0099 29.716 42.2228 29.8212 42.4064C29.9264 42.59 30.0885 42.7343 30.2831 42.8175ZM71.6705 29.392C66.7205 30.0355 63.4645 30.492 63.4645 30.492C63.3765 30.492 63.4095 30.58 63.4095 30.668V55.11C63.4095 55.154 63.547 55.1925 63.5965 55.198C67.672 55.66 73.678 56.122 79.8325 56.5345C84.0125 56.8095 104.225 57.8985 104.225 57.8985C104.282 57.8985 104.337 57.877 104.379 57.838C104.401 57.8192 104.419 57.7954 104.432 57.7688C104.444 57.7422 104.45 57.7134 104.45 57.684C104.483 55.6215 104.879 26.2185 104.879 26.2185C104.879 26.1876 104.873 26.1571 104.861 26.1288C104.848 26.1005 104.83 26.0748 104.808 26.0535C104.786 26.0317 104.759 26.0147 104.73 26.0034C104.7 25.9921 104.669 25.9866 104.637 25.9875C98.142 26.3945 90.7335 27.1205 84.007 27.8795C79.409 28.413 75.1245 28.941 71.6705 29.392ZM104.423 26.477L104.016 57.4695C102.949 57.4255 84.0345 56.4905 79.849 56.243C73.7385 55.88 67.749 55.4675 63.6845 55.044V30.844C64.5865 30.7175 83.7815 28.3415 88.176 27.885C93.6265 27.313 99.297 26.796 104.423 26.477Z" clip-rule="evenodd"></path>
    <path fill="#000000" fill-rule="evenodd" d="M72.358 42.2785C72.3465 45.0585 73.436 47.7299 75.3885 49.709C76.3551 50.6921 77.5078 51.4731 78.7793 52.0066C80.0507 52.5396 81.4156 52.8142 82.7942 52.8142C84.1729 52.8142 85.5378 52.5396 86.8097 52.0066C88.0811 51.4731 89.2338 50.6921 90.2 49.709C91.6722 48.2194 92.6654 46.3242 93.0527 44.2662C93.44 42.2082 93.203 40.0814 92.3725 38.159C93.12 38.1616 93.8529 37.9505 94.484 37.5506C95.1156 37.1507 95.6198 36.5786 95.937 35.9018C96.2541 35.225 96.3715 34.4715 96.2747 33.7303C96.178 32.9891 95.8719 32.291 95.3915 31.7182C94.9112 31.1453 94.2773 30.7217 93.5642 30.4972C92.8515 30.2726 92.0893 30.2564 91.3674 30.4507C90.6455 30.6449 89.9942 31.0414 89.49 31.5934C88.9863 32.1455 88.6504 32.83 88.5225 33.5665C86.949 32.5401 85.1281 31.9569 83.2512 31.8782C81.3739 31.7996 79.5108 32.2284 77.8566 33.1195C76.203 34.0106 74.8197 35.3311 73.8531 36.9419C72.8865 38.5527 72.3717 40.3944 72.3635 42.273L72.358 42.2785ZM91.344 33.407L91.9985 34.892L93.3405 31.504L94.0885 31.9715L92.5375 36.1625L91.4375 36.267L90.5135 34.2485L91.344 33.407ZM82.7915 32.065C84.8279 32.0706 86.8125 32.7066 88.473 33.8855V34.2485C88.473 35.2156 88.831 36.1485 89.4781 36.8675C90.1248 37.5864 91.0149 38.0406 91.9765 38.1425C92.796 40.0108 93.0362 42.0821 92.6654 44.0883C92.295 46.0946 91.3307 47.9435 89.8975 49.3955C88.9712 50.3337 87.8675 51.0785 86.6511 51.5868C85.4347 52.0951 84.1294 52.3568 82.8108 52.3568C81.4926 52.3568 80.1873 52.0951 78.9704 51.5868C77.754 51.0785 76.6508 50.3337 75.724 49.3955C73.8499 47.4961 72.7952 44.9376 72.7861 42.2693C72.7769 39.601 73.8137 37.0354 75.6745 35.123C76.5967 34.1638 77.7012 33.399 78.9236 32.8738C80.146 32.3485 81.4614 32.0735 82.7915 32.065Z" clip-rule="evenodd"></path>
    <path fill="#000000" fill-rule="evenodd" d="M76.9065 38.269L78.749 38.3185C78.782 38.577 79.849 45.65 79.849 45.65C79.8568 45.703 79.8834 45.7514 79.9237 45.7867C79.9641 45.822 80.0154 45.8416 80.069 45.8425L86.46 45.705C86.4802 45.6999 86.4981 45.6883 86.5113 45.6718C86.5242 45.6554 86.5311 45.6351 86.5311 45.6142C86.5311 45.5933 86.5242 45.5731 86.5113 45.5566C86.4981 45.5401 86.4802 45.5285 86.46 45.5235C86.46 45.5235 83.2645 45.419 82.61 45.408H80.245C80.212 45.1825 80.146 44.77 80.0635 44.2475C80.6135 44.2475 85.9155 44.1155 85.9155 44.1155C85.9682 44.1146 86.0191 44.0946 86.0585 44.0592C86.0979 44.0239 86.1236 43.9755 86.13 43.923L86.68 40.029C86.6832 39.9974 86.6805 39.9655 86.6708 39.9352C86.6612 39.9049 86.6456 39.8769 86.625 39.853C86.6039 39.8287 86.5773 39.8092 86.548 39.796C86.5187 39.7827 86.4866 39.7759 86.4545 39.776C86.4545 39.776 79.8545 39.9245 79.354 39.9465C79.0185 38.082 79.0405 38.0325 78.8645 38.0325L76.8845 38.104C76.8598 38.104 76.8359 38.1138 76.8185 38.1313C76.8006 38.1489 76.791 38.1727 76.791 38.1975C76.791 38.2223 76.8006 38.2461 76.8185 38.2636C76.8359 38.2811 76.8598 38.291 76.8845 38.291L76.9065 38.269ZM84.018 43.5435V43.7525C83.842 43.7525 82.3185 43.8625 81.774 43.9065C81.7754 43.3406 81.7273 42.7756 81.631 42.218L84.0785 42.163C84.0198 42.6207 83.9997 43.0824 84.018 43.5435ZM84.645 40.5185V40.205H86.2235L86.0035 41.8H85.5415C85.2775 41.8 84.9475 41.7725 84.5845 41.767C84.6313 41.3525 84.6514 40.9355 84.645 40.5185ZM84.5405 42.1685C84.9255 42.141 85.272 42.108 85.547 42.0805L85.9705 42.0365L85.745 43.6865L84.2655 43.7635C84.2655 43.714 84.2655 43.659 84.304 43.5985C84.4209 43.1196 84.4997 42.6322 84.5405 42.141V42.1685ZM84.3975 40.2325C84.2692 40.7309 84.1789 41.2383 84.128 41.7505L81.5705 41.822C81.4949 41.2634 81.3753 40.7117 81.213 40.172C82.3955 40.1885 83.215 40.1995 84.3975 40.205V40.2325ZM81.554 43.9505L80.0635 44.0605C79.97 43.5105 79.8655 42.856 79.7555 42.1905L80.355 42.2235H81.18C81.2556 42.7996 81.3808 43.3682 81.554 43.923V43.9505ZM81.004 40.183C81.0081 40.7357 81.054 41.2872 81.1415 41.833L80.3715 41.899L79.739 41.9595C79.695 41.679 79.486 40.4525 79.431 40.1335C79.706 40.15 80.3 40.15 80.982 40.15L81.004 40.183Z" clip-rule="evenodd"></path>
    <path fill="#000000" fill-rule="evenodd" d="M107.179 23.7545C107.156 23.7334 107.129 23.7173 107.1 23.7069C107.07 23.6965 107.039 23.6921 107.008 23.694C99.781 24.1615 91.5365 24.992 84.051 25.861C78.9305 26.455 61.1875 28.8475 61.1875 28.8475C61.0995 28.8475 61.1435 28.9355 61.1435 29.0235V57.035C61.1435 57.079 61.2865 57.1175 61.336 57.123C65.8075 57.64 72.38 58.1625 79.134 58.6245C79.277 59.1745 79.8765 61.3745 80.168 63.0685C80.2707 63.5827 80.3202 64.1061 80.3165 64.6305C80.3211 64.7249 80.2982 64.8184 80.2505 64.9C79.7005 65.45 76.571 66.4125 76.4775 66.451C76.4312 66.4647 76.3909 66.4941 76.3638 66.5344C76.3368 66.5747 76.3244 66.6229 76.329 66.671L76.417 67.738C76.4198 67.7875 76.4399 67.8342 76.4743 67.8695C76.5087 67.9048 76.555 67.9264 76.604 67.9305C89.4685 69.6465 88.704 69.619 88.8195 69.5805C89.9424 69.1075 91.0305 68.5561 92.0755 67.9305C92.3991 67.7316 92.6965 67.4932 92.961 67.221C93.1104 67.0748 93.2026 66.8795 93.2195 66.671C93.0971 65.8877 92.9133 65.1154 92.6695 64.361C92.1195 62.5075 91.355 60.126 91.113 59.411L106.546 60.2305C106.575 60.2328 106.605 60.2286 106.633 60.2181C106.66 60.208 106.685 60.1915 106.706 60.17C106.727 60.1507 106.744 60.1269 106.755 60.1003C106.767 60.0737 106.772 60.0449 106.772 60.016C106.81 57.651 107.25 23.958 107.25 23.958C107.255 23.9209 107.25 23.8831 107.238 23.8478C107.226 23.8125 107.206 23.7806 107.179 23.7545ZM82.709 68.3045L76.8295 67.5125L76.769 66.792H76.8185C77.275 66.858 80.696 67.298 81.378 67.375C82.8575 67.54 88.1705 68.0735 88.528 68.1065C88.4478 68.4392 88.4478 68.7857 88.528 69.1185L82.709 68.3045ZM92.345 64.4215C92.5664 65.1401 92.7282 65.8762 92.829 66.6215C92.8093 66.7274 92.7529 66.8227 92.6695 66.891C92.422 67.1316 92.147 67.342 91.85 67.518C90.9072 68.0794 89.9278 68.5772 88.9185 69.0085C88.9639 68.6803 88.9373 68.3466 88.8415 68.0295C89.1275 67.9085 90.112 67.4795 90.992 67.056C91.4934 66.8286 91.9738 66.5582 92.4275 66.2475C92.4362 66.2392 92.4426 66.2296 92.4472 66.2186C92.4518 66.2076 92.4545 66.1961 92.4545 66.1842C92.4545 66.1723 92.4518 66.1609 92.4472 66.1499C92.4426 66.1389 92.4362 66.1292 92.4275 66.121C92.4101 66.1036 92.3863 66.0939 92.3615 66.0939C92.3368 66.0939 92.3129 66.1036 92.2955 66.121C91.9545 66.3346 91.5956 66.5184 91.223 66.671C90.2165 67.1055 88.9075 67.595 88.638 67.694C88.396 67.694 77.8195 66.649 77.297 66.594C80.597 65.4445 80.597 65.1255 80.6465 64.6305C80.641 64.0754 80.5764 63.5222 80.454 62.9805C80.135 61.3305 79.5025 59.2405 79.31 58.5805L91.1075 59.4H90.915C91.1075 60.0105 91.85 62.5075 92.345 64.4325V64.4215ZM106.343 59.741C105.204 59.6915 84.0785 58.641 79.42 58.3275C72.6165 57.904 65.9505 57.431 61.4185 56.9415V29.183C62.381 29.0455 83.7925 26.312 88.682 25.784C94.732 25.1295 101.085 24.53 106.794 24.167L106.343 59.741Z" clip-rule="evenodd"></path>
    <path fill="#000000" fill-rule="evenodd" d="M88.6985 65.021C88.4015 65.021 84.403 64.823 84.0345 64.8175C83.666 64.812 81.697 64.8175 81.697 64.8175C81.6846 64.8166 81.6723 64.8184 81.6608 64.8225C81.6493 64.8267 81.6383 64.8326 81.6292 64.8409C81.62 64.8491 81.6127 64.8592 81.6072 64.8702C81.6017 64.8812 81.5989 64.8931 81.598 64.9055C81.598 64.9293 81.6072 64.9522 81.6237 64.9697C81.6397 64.9871 81.6622 64.9976 81.686 64.999C81.9225 64.999 84.9585 65.3785 88.682 65.428H91.0195C91.0314 65.4294 91.0433 65.4285 91.0543 65.4252C91.0658 65.4216 91.0763 65.4161 91.085 65.4083C91.0942 65.4 91.1011 65.3904 91.1057 65.3799C91.1107 65.3689 91.113 65.3574 91.113 65.3455C91.1139 65.3331 91.1121 65.3207 91.108 65.3093C91.1038 65.2978 91.0979 65.2868 91.0896 65.2777C91.0814 65.2685 91.0713 65.2612 91.0603 65.2557C91.0493 65.2502 91.0374 65.2474 91.025 65.2465C91.025 65.2465 89.2375 65.065 88.6985 65.021ZM98.5765 44.275L99.176 45.375L99.6545 45.0285L99.077 44.033L99.9735 43.5985L97.5755 41.481L97.713 44.693L98.5765 44.275ZM95.8925 47.553C95.887 47.5635 95.8838 47.5755 95.8829 47.5874C95.8824 47.5997 95.8843 47.6117 95.8884 47.6231C95.8925 47.6346 95.8989 47.6447 95.9072 47.6534C95.9154 47.6625 95.9255 47.6694 95.9365 47.674C96.1276 47.8124 96.3261 47.9412 96.5305 48.059C96.7615 48.191 97.2895 48.4275 97.537 48.5265C97.6855 48.587 98.538 48.9005 98.604 48.7575C98.6095 48.747 98.6127 48.735 98.6136 48.7231C98.6141 48.7107 98.6123 48.6988 98.6081 48.6874C98.604 48.6759 98.5976 48.6658 98.5893 48.6571C98.5811 48.648 98.571 48.6411 98.56 48.6365L98.3235 48.4715C97.7158 48.0833 97.0544 47.7867 96.36 47.5915C96.1455 47.531 96.0135 47.509 96.0135 47.509C95.9915 47.4994 95.9668 47.4985 95.9443 47.5067C95.9218 47.515 95.903 47.5315 95.8925 47.553ZM93.7365 52.338C93.4193 51.8233 92.9715 51.4021 92.4385 51.117C92.4303 51.1087 92.4202 51.1019 92.4096 51.0977C92.3986 51.0932 92.3872 51.0909 92.3753 51.0909C92.3633 51.0909 92.3519 51.0932 92.3409 51.0977C92.3303 51.1019 92.3203 51.1087 92.312 51.117C92.3038 51.1252 92.2973 51.1353 92.2928 51.1459C92.2882 51.1569 92.2859 51.1683 92.2859 51.1802C92.2859 51.1922 92.2882 51.2036 92.2928 51.2146C92.2973 51.2252 92.3038 51.2352 92.312 51.2435C92.3487 51.3214 92.3913 51.397 92.4385 51.469C92.7552 51.9631 93.1925 52.3682 93.709 52.646C93.7168 52.6552 93.7264 52.6625 93.7374 52.668C93.7484 52.673 93.7603 52.6753 93.7723 52.6753C93.7842 52.6753 93.7961 52.673 93.8071 52.668C93.8181 52.6625 93.8277 52.6552 93.8355 52.646C93.8515 52.6286 93.8603 52.6061 93.8603 52.5827C93.8603 52.5594 93.8515 52.5369 93.8355 52.5195L93.7365 52.338ZM70.5485 45.3805C70.5352 45.3606 70.5146 45.3462 70.4917 45.3402C70.4683 45.3341 70.4435 45.3367 70.422 45.3475C69.2766 45.7745 68.2083 46.3856 67.2595 47.157C67.2398 47.1703 67.2251 47.1909 67.2192 47.2138C67.2132 47.2372 67.2155 47.262 67.2265 47.2835C67.2393 47.3046 67.2595 47.3197 67.2829 47.3257C67.3067 47.3321 67.3319 47.3284 67.353 47.3165C68.4961 46.8838 69.5635 46.2729 70.5155 45.507C70.5357 45.4935 70.5499 45.4733 70.5558 45.45C70.5618 45.4267 70.5595 45.402 70.5485 45.3805ZM73.15 49.907C72.622 50.2191 72.1298 50.5881 71.6815 51.007C69.982 52.4865 70.422 52.5195 70.5155 52.4315C70.5155 52.4315 70.6695 52.3435 70.906 52.184C71.7837 51.5762 72.5803 50.859 73.2765 50.05C73.2857 50.0422 73.293 50.033 73.2985 50.0225C73.304 50.0124 73.3072 50.001 73.3081 49.989C73.309 49.9771 73.3081 49.9657 73.3045 49.9542C73.3008 49.9427 73.2953 49.9327 73.2875 49.9235C73.2802 49.9143 73.2705 49.907 73.26 49.9015C73.2499 49.896 73.2385 49.8928 73.2265 49.8919C73.2146 49.891 73.2032 49.8919 73.1917 49.8955C73.1807 49.8992 73.1702 49.9047 73.161 49.9125L73.15 49.907ZM81.7355 74.932C81.2955 74.6318 80.811 74.4017 80.3 74.25C80.2808 74.1574 80.2436 74.0694 80.19 73.9915C80.0924 73.86 79.9691 73.7495 79.827 73.667C79.343 73.3929 78.8077 73.2224 78.254 73.1665C77.5647 73.0808 76.8648 73.1697 76.219 73.425C75.185 73.854 72.6495 75.4105 69.8225 76.4225C68.3723 76.9849 66.8346 77.2865 65.2795 77.3135C63.1593 77.3245 61.0454 77.5509 58.971 77.99C56.2705 78.54 53.856 79.266 52.9925 79.7995L51.271 77.2915H51.3205C51.7037 77.1435 52.0722 76.9592 52.4205 76.7415C52.6744 76.6054 52.8972 76.4184 53.075 76.1915C53.0874 76.1718 53.0938 76.1489 53.0938 76.1255C53.0938 76.1021 53.0874 76.0792 53.075 76.0595C53.0562 76.0251 53.0246 75.9995 52.987 75.988C52.9288 75.9509 52.8656 75.9215 52.8 75.9C52.1217 75.8734 51.4424 75.8844 50.765 75.933C49.2993 72.2255 47.4251 68.6927 45.1771 65.4005C43.8483 63.4489 42.3776 61.5977 40.7771 59.862C41.4151 58.663 42.1356 57.2385 43.3566 54.505C43.8044 54.2864 44.1902 53.9587 44.4785 53.5521C44.7668 53.146 44.9483 52.6735 45.0066 52.1785C45.6666 52.4315 46.1065 51.4855 46.244 50.7265C47.091 51.0565 48.62 51.6395 49.4835 51.9145C49.6242 51.9658 49.77 52.0025 49.918 52.0245C50.5065 52.0245 52.668 48.862 53.053 48.1745C53.1653 47.9921 53.2368 47.7877 53.262 47.575C53.256 47.5035 53.2336 47.4347 53.196 47.3738C53.1589 47.3128 53.108 47.261 53.0475 47.223C52.2005 46.574 48.4605 45.716 47.036 45.5015C45.8041 45.32 45.8425 45.364 45.0891 46.321C44.8031 46.684 44.4896 47.113 44.2201 47.487C43.7205 47.5044 43.2244 47.5764 42.7406 47.7015C41.0576 48.1415 40.5406 48.7465 40.2546 49.775C40.0165 50.5775 39.907 51.4131 39.9301 52.25C38.5661 53.5975 37.5541 54.6645 36.4706 55.836C33.6446 53.4788 30.5484 51.4667 27.2471 49.841L27.5771 47.641C29.4691 47.641 32.0816 47.091 32.7526 45.3145C33.0642 44.4381 33.2998 43.5364 33.4566 42.6195C33.6711 41.415 33.7591 40.3645 33.7866 40.0015L34.8536 39.501C34.8997 39.4794 34.9367 39.4421 34.9579 39.3958C34.979 39.3494 34.983 39.297 34.9691 39.248C34.9691 39.248 33.6436 34.298 33.5611 33.957C34.2486 33.803 34.7601 33.66 34.7601 33.66C34.7601 24.86 26.5101 23.0175 26.5101 23.0175C26.5101 23.0175 29.1171 19.7175 29.4251 17.5835C29.7331 15.4495 27.1151 14.7345 23.6776 15.653C20.2401 16.5715 22.4841 22.6325 22.4841 22.6325C20.9166 22.286 17.9576 24.057 17.9576 24.057C15.7576 12.5895 9.73506 17.402 9.15756 20.7955C8.58006 24.189 16.2251 24.9645 16.2251 24.9645C11.1046 27.1095 9.30606 44.4125 9.30606 44.4125C10.4831 45.32 12.8261 45.8755 15.3561 46.211C10.583 49.5765 6.92483 54.2923 4.85106 59.752C3.94206 62.1065 3.32333 64.5627 3.00855 67.067C2.42393 72.0766 2.79723 77.1512 4.10855 82.0215C4.94075 85.2601 6.04465 88.423 7.40856 91.476C7.41804 91.498 7.43583 91.515 7.45801 91.5237C7.46896 91.5282 7.4807 91.5305 7.49252 91.5301C7.5043 91.5301 7.51594 91.5273 7.52681 91.5227C7.53762 91.5182 7.54743 91.5113 7.55563 91.5026C7.56384 91.4943 7.5703 91.4842 7.57466 91.4732C7.57901 91.4622 7.58112 91.4508 7.58093 91.4389C7.58075 91.427 7.57823 91.4155 7.57356 91.4045C6.25828 88.3451 5.19682 85.1831 4.40005 81.95C3.14651 77.105 2.81442 72.0674 3.42105 67.1C3.74383 64.6314 4.36244 62.2105 5.26356 59.8895C7.33719 54.4633 11.0053 49.7924 15.7851 46.4915C24.7116 47.7455 36.8886 54.1915 44.8966 65.593C47.1676 68.8559 49.0696 72.3603 50.567 76.043C48.5572 77.8947 46.343 79.5108 43.9671 80.861C42.7755 81.5421 41.5409 82.1443 40.2711 82.665C39.0067 83.1884 37.7004 83.6041 36.3661 83.908C35.3761 82.5 30.5966 74.25 30.5581 74.206C30.5528 74.1955 30.5455 74.1858 30.5365 74.178C30.5275 74.1702 30.517 74.1647 30.5058 74.1611C30.4944 74.1574 30.4825 74.156 30.4707 74.1574C30.4589 74.1583 30.4475 74.162 30.4371 74.1675C30.4256 74.1725 30.4155 74.1803 30.4072 74.1895C30.399 74.1991 30.3928 74.2101 30.3892 74.222C30.3855 74.234 30.3845 74.2468 30.3861 74.2592C30.3877 74.2715 30.392 74.2835 30.3986 74.294C30.3986 74.294 30.6186 74.778 30.9926 75.5425C32.2576 78.122 34.3366 81.829 36.2011 84.018C35.6511 84.9035 34.6941 86.878 35.7391 86.7955C36.3936 86.746 37.2131 85.91 37.3891 85.8055C39.8867 88.4588 42.7498 90.7422 45.892 92.587C48.125 93.83 50.5725 94.7375 52.965 94.787H52.998C56.2045 94.237 59.598 92.433 62.744 90.1945C68.0845 86.394 72.7485 81.3945 74.7615 79.365C75.0943 79.0318 75.449 78.721 75.823 78.4355C76.4243 78.5409 77.033 78.5977 77.6435 78.606C78.1018 78.6138 78.5597 78.5845 79.013 78.518C79.7935 78.4273 80.5448 78.1665 81.213 77.7535C81.5705 77.5349 81.8854 77.2535 82.1425 76.923C82.3387 76.6782 82.4436 76.373 82.4395 76.0595C82.4313 75.8652 82.3744 75.6763 82.2745 75.5095C82.1375 75.2812 81.9541 75.0842 81.7355 74.932ZM18.1501 46.497C22.0881 46.7995 25.7346 46.7115 25.7346 46.7115C25.5366 45.4025 23.7656 39.1435 23.7656 39.1435C22.3851 39.2535 21.1751 38.2635 22.0276 36.344C22.8801 34.4245 24.8711 35.794 24.8711 35.794C26.526 35.2318 28.0178 34.2725 29.2161 33C29.3812 33.4612 29.6439 33.8814 29.9861 34.232C30.3381 34.5895 32.0761 34.2815 33.3521 34.001C33.4401 34.485 33.5886 35.2055 33.7536 35.9535C33.8746 36.531 34.4301 38.9015 34.4961 39.1765L33.4621 39.6C33.2091 39.7155 33.4621 39.908 32.9891 42.4875C32.8394 43.3775 32.615 44.2533 32.3181 45.1055C32.1749 45.4393 31.967 45.7413 31.7065 45.9942C31.4459 46.2472 31.1378 46.4461 30.8001 46.5795C29.7276 47.0167 28.5861 47.2606 27.4286 47.3C27.3901 47.2986 27.3525 47.3119 27.3237 47.3376C27.295 47.3632 27.2773 47.399 27.2746 47.4375L26.6971 49.577C23.9758 48.2254 21.1079 47.1918 18.1501 46.497ZM45.1001 51.81C44.8251 51.81 45.2266 50.479 45.2431 50.3965L45.9525 50.6715C45.848 51.051 45.5291 51.8045 45.1001 51.81ZM45.9415 45.793C47.278 45.8535 52.1015 47.0635 52.701 47.63C52.5855 48.2075 50.8145 50.5395 50.138 51.271C49.698 51.7385 50.688 51.9805 43.9946 49.698C44.3356 49.181 44.8581 48.257 44.2751 48.048C44.1923 48.0251 44.1048 48.0251 44.0221 48.048C44.6095 47.2468 45.2586 46.4929 45.9635 45.793H45.9415ZM44.8031 50.193C44.7096 50.5065 44.5666 51.4305 44.2861 51.293C44.0056 51.1555 44.1211 50.347 44.2476 49.9785L44.8031 50.193ZM37.1746 56.4465L36.6246 55.979C36.9436 55.693 38.8246 53.9715 38.9951 53.779C39.7211 53.0805 40.3206 52.492 40.3206 52.492C40.3443 52.4686 40.3625 52.4402 40.3739 52.4086C40.3854 52.3774 40.3897 52.344 40.3866 52.3105C40.3365 51.5011 40.4106 50.6885 40.6066 49.9015C40.7107 49.4001 40.9943 48.9546 41.4041 48.6475C42.1957 48.1603 43.0795 47.8422 44.0001 47.7125L43.6976 48.1415C42.5976 48.7355 41.2336 50.699 41.1896 50.754C41.1819 50.7632 41.1762 50.7732 41.1727 50.7847C41.1691 50.7962 41.1678 50.8076 41.1688 50.8195C41.1698 50.8315 41.1732 50.8429 41.1786 50.853C41.1841 50.8635 41.1915 50.8727 41.2006 50.8805C41.2096 50.8883 41.22 50.8938 41.2313 50.8975C41.2425 50.9011 41.2543 50.902 41.2661 50.9011C41.2778 50.9002 41.2892 50.897 41.2997 50.8915C41.3102 50.886 41.3194 50.8787 41.3271 50.8695C41.5361 50.6715 43.8241 48.334 44.1266 48.455C44.4291 48.576 42.4766 51.106 42.6581 51.2545C42.8396 51.403 43.8076 50.017 43.9121 49.8575L44.0936 49.929C43.7856 50.5285 43.5436 51.348 44.1376 51.6835C44.21 51.7234 44.2913 51.7445 44.3741 51.7445C44.4567 51.7445 44.5381 51.7234 44.6106 51.6835C44.6271 51.8036 44.6703 51.9182 44.7371 52.019C44.6289 52.6542 44.2972 53.2295 43.8021 53.6415C42.7021 54.615 43.3841 53.0035 41.4151 57.6235C41.2391 58.0305 41.0796 58.4265 40.9421 58.7675C40.8046 59.1085 40.6561 59.488 40.5791 59.6915C39.4992 58.5535 38.3629 57.4704 37.1746 56.4465ZM35.9151 86.284C35.849 86.3152 35.7784 86.3353 35.7061 86.3445C35.8762 85.6249 36.1583 84.936 36.5421 84.304C37.8683 83.9923 39.167 83.573 40.4251 83.05C41.7058 82.5087 42.9481 81.8799 44.1431 81.169C46.5241 79.7601 48.7305 78.0743 50.7155 76.1475C51.3897 76.1067 52.0653 76.1067 52.7395 76.1475C52.5841 76.2786 52.4164 76.3945 52.239 76.494C51.9049 76.6897 51.5533 76.8533 51.1885 76.9835C51.0858 77.0055 50.9891 77.0504 50.9062 77.1155C50.8232 77.1801 50.7563 77.2631 50.71 77.3575C50.5835 77.682 50.842 77.968 50.5175 78.4575C50.0775 79.101 49.467 78.749 48.697 78.9305C47.7785 79.145 48.147 80.5805 47.597 81.0535C47.047 81.5265 45.914 80.6905 45.3971 81.4605C45.1111 81.895 45.2541 82.6045 45.0011 83.0005C44.7481 83.3965 43.4336 82.2965 42.6581 83.0885C42.4029 83.4763 42.1732 83.8805 41.9706 84.2985C41.5911 84.8815 41.0356 84.1665 40.3206 84.128C39.0006 84.062 40.0511 87.186 38.2801 85.778C38.1105 85.6341 37.9261 85.509 37.7301 85.404C37.0921 85.0465 36.8996 85.8715 35.9151 86.284ZM74.415 79.0185C72.413 81.0205 67.771 86.02 62.469 89.826C59.3835 92.026 56.0725 93.8465 52.921 94.402C50.589 94.402 48.1965 93.511 46.013 92.323C42.9486 90.5598 40.1427 88.3813 37.6751 85.8495C37.815 85.938 37.9491 86.0351 38.0766 86.141C40.1831 87.791 39.9356 84.5515 40.3756 84.5735C41.1786 84.612 41.8441 85.866 42.8121 83.787C42.8688 83.6431 42.9487 83.5093 43.0486 83.391C43.6371 82.786 44.8856 84.106 45.4411 83.226C45.8151 82.6265 45.5566 81.642 45.991 81.576C46.4255 81.51 46.8215 81.73 47.2835 81.6585C48.7465 81.444 48.07 79.4585 48.796 79.288C49.0692 79.2307 49.3478 79.2064 49.6265 79.2165C49.8419 79.222 50.0569 79.1867 50.259 79.112C50.4859 79.0162 50.6779 78.853 50.809 78.6445C51.1775 78.0945 50.941 77.6875 51.0125 77.484C51.0235 77.4565 51.0428 77.4336 51.0675 77.418L52.866 80.1405C52.8733 80.1524 52.883 80.162 52.894 80.1698C52.9054 80.1776 52.9187 80.1827 52.932 80.1845C52.9586 80.195 52.9879 80.195 53.0145 80.1845C53.779 79.6675 56.2485 78.87 59.015 78.353C61.0697 77.918 63.1629 77.6893 65.263 77.671C66.863 77.6609 68.448 77.3644 69.9435 76.7965C72.7815 75.801 75.3335 74.261 76.373 73.8375C76.9514 73.6111 77.5775 73.5336 78.1935 73.612C78.6225 73.661 79.0405 73.7797 79.431 73.964C79.5754 74.025 79.7037 74.1194 79.805 74.239C79.8247 74.2697 79.8394 74.3032 79.849 74.338H79.739C79.5639 74.2564 79.3792 74.1973 79.189 74.162C78.4401 74.024 77.6719 74.024 76.923 74.162C76.8941 74.1661 76.8662 74.1762 76.8414 74.1913C76.8162 74.2065 76.7947 74.2262 76.7773 74.2495C76.7598 74.2734 76.747 74.3 76.7401 74.3284C76.7333 74.3568 76.7319 74.3861 76.736 74.415C76.7406 74.4439 76.7502 74.4718 76.7653 74.4966C76.7805 74.5218 76.8002 74.5433 76.824 74.5607C76.8474 74.5782 76.874 74.591 76.9024 74.5979C76.9308 74.6047 76.9601 74.6061 76.989 74.602C77.5193 74.5277 78.0551 74.5039 78.5895 74.5305H78.8755C78.9873 74.5484 79.0973 74.574 79.2055 74.6075C79.4915 74.6707 79.7454 74.8348 79.9205 75.0695C79.029 74.932 78.1183 74.9824 77.2475 75.218H77.1815C77.1297 75.2382 77.0866 75.2762 77.0605 75.3257C77.0344 75.3747 77.027 75.432 77.0399 75.4861C77.0527 75.5407 77.0843 75.5883 77.1297 75.6209C77.1751 75.6534 77.2305 75.6685 77.286 75.6635H77.363C77.9254 75.5411 78.4983 75.4715 79.0735 75.4545H79.475C79.6469 75.4696 79.8165 75.5026 79.981 75.5535C80.0392 75.5741 80.0947 75.6021 80.146 75.636C80.173 75.6525 80.2028 75.664 80.234 75.669C80.2904 75.6988 80.3394 75.74 80.3784 75.7905C80.4173 75.8404 80.4448 75.8986 80.4595 75.9605L80.388 75.9935C80.2899 76.0311 80.1886 76.0609 80.0855 76.0815C79.14 76.2497 78.2173 76.5265 77.3355 76.9065C76.247 77.4276 75.2629 78.1435 74.4315 79.0185H74.415ZM81.774 76.5985C81.5416 76.901 81.2543 77.1563 80.927 77.352C80.3147 77.7269 79.6308 77.9703 78.9195 78.067C78.485 78.1426 78.0459 78.1903 77.605 78.21C77.0903 78.2375 76.5742 78.2375 76.0595 78.21C76.3565 78.001 76.6425 77.825 76.923 77.66C78.0505 77.0976 79.2523 76.6998 80.4925 76.4775C80.828 76.3675 80.949 76.186 80.927 75.9715C80.9091 75.8358 80.8601 75.7061 80.784 75.5925C80.7075 75.4788 80.6062 75.3848 80.487 75.317C80.443 75.053 80.316 74.8105 80.124 74.624L80.19 74.558C80.2203 74.5177 80.2445 74.4732 80.2615 74.426C80.5475 74.5557 80.8234 74.706 81.0865 74.877C81.4087 75.0732 81.6801 75.3427 81.8785 75.6635C81.9606 75.8097 81.9963 75.9775 81.9807 76.1447C81.9647 76.3116 81.8987 76.4702 81.7905 76.5985H81.774Z" clip-rule="evenodd"></path>
    <path fill="#000000" fill-rule="evenodd" d="M44.8197 48.807C46.4186 49.4991 48.075 50.0509 49.7695 50.457C51.3315 50.8255 50.204 50.16 47.0195 49.1645C45.87 48.807 45.0012 48.6145 44.9187 48.6145C44.9065 48.6085 44.8932 48.6049 44.8796 48.6044C44.8661 48.6039 44.8525 48.6062 44.84 48.6117C44.8275 48.6168 44.8162 48.625 44.8071 48.6351C44.798 48.6452 44.7911 48.6571 44.787 48.6699C44.783 48.6828 44.7818 48.6965 44.7836 48.7103C44.7854 48.7236 44.7901 48.7364 44.7974 48.7479C44.8047 48.7593 44.8144 48.7694 44.8258 48.7767C44.8373 48.7841 44.8502 48.7887 44.8637 48.7905L44.8197 48.807ZM47.2505 46.6565L46.101 46.3815L45.6117 46.904L46.882 47.2395L47.2505 46.6565ZM80.85 46.75C80.564 46.75 80.333 47.069 80.333 47.465C80.333 47.861 80.564 48.1745 80.85 48.1745C81.136 48.1745 81.3615 47.8555 81.3615 47.465C81.3615 47.0745 81.1525 46.75 80.85 46.75ZM85.844 46.75C85.558 46.75 85.327 47.069 85.327 47.465C85.327 47.861 85.558 48.1745 85.844 48.1745C86.13 48.1745 86.3555 47.8555 86.3555 47.465C86.3555 47.0745 86.1245 46.75 85.844 46.75ZM31.5592 37.8345C31.608 37.8353 31.6565 37.8261 31.7016 37.8074C31.7467 37.7887 31.7876 37.7611 31.8216 37.726C31.8556 37.691 31.8821 37.6493 31.8994 37.6037C31.9167 37.558 31.9244 37.5093 31.9222 37.4605C31.9222 37.2075 31.9222 36.96 31.9497 36.707C31.9595 36.6063 31.931 36.5056 31.8698 36.4251C31.8086 36.3445 31.7193 36.29 31.6197 36.2725C31.1357 36.2065 31.1962 36.883 31.1962 37.4275C31.1943 37.5285 31.2306 37.6266 31.298 37.7021C31.3653 37.7775 31.4585 37.8248 31.5592 37.8345Z" clip-rule="evenodd"></path>
  </g>
</svg>