<svg xmlns="http://www.w3.org/2000/svg" fill="none" viewBox="0 0 400 400">
  <g transform="matrix(2,0,0,2,0,0)">
    <path fill="#d7d7d7" d="M154.171 122.384L120.01 127.476C118.362 120.096 117.486 116.418 116.91 113.776C114.5 102.8 104.963 99.034 102.322 98.2C101.99 100.19 90.398 107.083 85.137 103.932C65.878 129.077 54 145.51 28.548 169.6C24.634 173.229 36.034 185.692 39.967 182.12C64.461 160.172 77.483 148.16 95.957 125.674L92.386 113.818L107.7 140.129C108.788 141.995 110.423 143.482 112.383 144.39C114.344 145.297 116.535 145.58 118.662 145.202L157.041 138.286C160.481 137.725 157.694 121.748 154.171 122.384Z"></path>
    <path fill="#d7d7d7" d="M168.857 70.231C168.516 70.326 164.457 71.463 162.285 72.053C163.357 70.9273 164.57 69.9445 165.893 69.129C168.553 67.419 168.135 66.07 164.754 67.59C164.392 67.761 160.63 69.376 159.51 69.851C158.826 70.136 157.04 70.651 156.679 70.136C155.615 68.654 156.261 64.136 154.646 63.885C153.601 63.714 153.446 66.811 153.107 68.901C152.898 70.117 151.131 71.181 149.744 71.276C149.682 71.276 148.607 71.395 145.013 71.751C143.913 74.943 144.424 80.491 146.267 83.189C154.805 82.5 164.938 80.846 167.736 80.263C171.099 79.541 171.346 78.458 167.413 78.515C165.92 78.5364 164.43 78.3962 162.967 78.097C163.253 78.097 165.627 77.375 168.477 76.497C171.877 75.452 172.068 74.065 167.964 74.654C166.5 74.8867 165.019 74.9871 163.537 74.954C163.746 74.878 167.261 73.396 169.902 71.971C172.885 70.383 172.391 69.148 168.857 70.231Z"></path>
    <path fill="#d7d7d7" d="M97.724 71.2C96.451 70.516 95.216 69.262 95.274 64.855C95.3229 62.9049 95.5195 60.9614 95.862 59.041C98.503 58.167 97.311 55.085 95.52 56.286C95.2699 56.4763 94.9863 56.6181 94.684 56.704C94.628 56.742 94.342 56.761 94.266 56.267C93.53 51.941 90.066 49.879 87.351 56.167C85.812 60.499 85.584 67.414 90.334 66.673C91.0879 66.5175 91.8248 66.2884 92.534 65.989L90.71 68.061C90.73 68.535 90.197 71.081 89.628 71.404C88.469 72.069 86.455 72.696 82.845 72.525C89.286 74.596 96.353 74.387 103.877 72.525C101.761 72.4767 99.6727 72.0271 97.724 71.2V71.2Z"></path>
    <path fill="#d7d7d7" d="M60.315 51.821C59.65 49.408 58.966 46.501 58.7 45.247C58.358 43.613 57.769 38.255 56.838 39.49C56.203 40.284 55.947 43.09 55.801 44.519L49.067 45.969C49.5935 48.8885 50.4344 51.7425 51.575 54.481C54.3402 53.1656 57.2858 52.2691 60.315 51.821V51.821Z"></path>
    <g>
      <path fill="#353535" d="M92.519 66.013L90.7 68.084C90.6315 67.6081 90.5052 67.1423 90.324 66.697C91.0753 66.5377 91.8102 66.3087 92.519 66.013V66.013Z"></path>
      <path fill="#353535" d="M105.742 84.082C105.17 85.6264 104.7 87.2068 104.336 88.813C106.692 88.907 106.844 88.964 109.086 88.964L105.742 84.082Z"></path>
      <path fill="#353535" d="M97.9 123.258C97.254 124.075 96.589 124.873 95.962 125.671L92.391 113.815L97.9 123.258Z"></path>
      <path fill="#353535" d="M99.738 54.405C93.7 47.489 90.011 50.681 88 54.633C90.128 50.605 93.49 51.821 94.25 56.267C94.326 56.78 94.611 56.742 94.668 56.704C94.9723 56.6233 95.2569 56.4811 95.504 56.286C97.271 55.051 98.487 58.148 95.846 59.041C95.5028 60.961 95.3059 62.9042 95.257 64.854C95.257 64.854 106.217 61.8 99.738 54.405Z"></path>
      <path fill="#353535" d="M106.73 52.714C104.488 55.051 100.978 55.331 98.883 53.322C96.788 51.313 96.907 47.793 99.149 45.456C101.391 43.119 104.901 42.839 106.996 44.848C109.091 46.857 108.972 50.377 106.73 52.714Z"></path>
      <path fill="#353535" d="M28 173.226C16.454 182.3 9.4 186.058 9.587 187.57C9.987 190.819 21.918 185.499 27.902 185.993C29.3193 186.142 30.7522 186.013 32.12 185.613C33.659 185.138 34.82 183.846 36.3 182.345C32.5001 180.437 29.5427 177.188 28 173.226V173.226Z"></path>
      <path fill="#353535" d="M166.2 124.949C161.991 122.031 160.2 123.049 156.34 124.056C158.147 127.791 158.89 131.952 158.487 136.082C163.369 135.399 169.145 134.695 172.717 134.482C177.904 134.182 182.444 133.723 182.806 132.867C184.1 129.87 171.1 128.406 166.2 124.949Z"></path>
      <path fill="#353535" d="M149.059 71.369L145.032 71.769C145.944 69.148 147.672 68.956 149.059 71.369Z"></path>
      <path fill="#353535" d="M149.82 82.923C148.927 84.899 147.502 84.975 146.286 83.208L149.82 82.923Z"></path>
      <path fill="#353535" d="M123.753 34.266C123.668 34.2842 123.58 34.2854 123.495 34.2694C123.41 34.2534 123.328 34.2205 123.256 34.1728C123.183 34.125 123.121 34.0633 123.073 33.9913C123.024 33.9192 122.991 33.8382 122.974 33.753L121.359 25.853C121.324 25.6842 121.357 25.5083 121.451 25.364C121.546 25.2197 121.694 25.1188 121.862 25.0835C122.031 25.0482 122.207 25.0815 122.352 25.1759C122.496 25.2703 122.597 25.4182 122.632 25.587L124.247 33.487C124.269 33.5707 124.274 33.6582 124.261 33.7438C124.248 33.8294 124.217 33.9114 124.17 33.9846C124.124 34.0577 124.063 34.1205 123.991 34.1689C123.919 34.2174 123.838 34.2504 123.753 34.266V34.266Z"></path>
      <path fill="#353535" d="M68.523 39.3L62.785 12.645L53.95 14.545C53.4918 14.6517 53.0733 14.8864 52.7433 15.2216C52.4132 15.5569 52.1851 15.979 52.0856 16.4388C51.9861 16.8986 52.0192 17.3772 52.1811 17.819C52.3429 18.2607 52.6269 18.6474 53 18.934C53.8506 19.5894 54.4962 20.4743 54.8607 21.4843C55.2252 22.4944 55.2935 23.5876 55.0575 24.6352C54.8215 25.6827 54.291 26.641 53.5286 27.3972C52.7661 28.1533 51.8035 28.6758 50.754 28.9032C49.7045 29.1305 48.6119 29.0532 47.6049 28.6803C46.5979 28.3074 45.7184 27.6545 45.0701 26.7985C44.4217 25.9425 44.0315 24.9191 43.9454 23.8487C43.8593 22.7784 44.0808 21.7057 44.584 20.757C44.8038 20.3424 44.9014 19.874 44.8654 19.4061C44.8295 18.9382 44.6614 18.4902 44.3807 18.1141C44.1001 17.738 43.7184 17.4494 43.2801 17.2817C42.8419 17.1141 42.365 17.0743 41.905 17.167L33.659 18.934L39.4 45.589C39.5361 46.2189 39.9168 46.7689 40.4584 47.1181C41 47.4672 41.6581 47.587 42.288 47.451L55.834 44.544C55.961 43.17 56.208 40.36 56.86 39.49C57.601 38.503 58.133 41.79 58.494 43.955L66.664 42.188C67.2932 42.051 67.8423 41.6699 68.1908 41.1285C68.5393 40.5871 68.6588 39.9295 68.523 39.3Z"></path>
      <path fill="#353535" d="M80.245 81.308L77.245 88.622C77.929 88.679 78.632 88.717 79.316 88.755C78.9354 86.2344 79.2568 83.6578 80.245 81.308Z"></path>
      <path fill="#353535" d="M6.528 108.818C6.36234 108.977 6.14124 109.066 5.91133 109.066C5.68141 109.065 5.46064 108.976 5.29555 108.816C5.13047 108.656 5.03397 108.438 5.02641 108.208C5.01884 107.978 5.1008 107.755 5.255 107.584C5.42066 107.425 5.64175 107.336 5.87167 107.336C6.10159 107.337 6.32236 107.426 6.48744 107.586C6.65253 107.746 6.74902 107.964 6.75659 108.194C6.76416 108.424 6.6822 108.647 6.528 108.818V108.818Z"></path>
      <path fill="#353535" d="M92.462 78.287C92.4807 78.4899 92.4388 78.6937 92.3417 78.8727C92.2446 79.0518 92.0966 79.198 91.9164 79.2929C91.7362 79.3878 91.5319 79.4272 91.3293 79.406C91.1267 79.3849 90.935 79.3041 90.7783 79.174C90.6216 79.0438 90.507 78.8702 90.449 78.6749C90.391 78.4797 90.3922 78.2716 90.4524 78.0771C90.5126 77.8825 90.6292 77.7101 90.7874 77.5818C90.9455 77.4535 91.1382 77.3749 91.341 77.356C91.4758 77.343 91.6119 77.3567 91.7414 77.3965C91.8709 77.4364 91.9913 77.5014 92.0955 77.588C92.1997 77.6745 92.2857 77.7809 92.3487 77.9008C92.4116 78.0208 92.4501 78.1521 92.462 78.287V78.287Z"></path>
      <path fill="#353535" d="M90.79 85.222C90.8087 85.4248 90.7668 85.6286 90.6697 85.8077C90.5726 85.9867 90.4246 86.1329 90.2444 86.2279C90.0642 86.3228 89.8599 86.3622 89.6573 86.341C89.4547 86.3198 89.263 86.2391 89.1063 86.109C88.9496 85.9788 88.835 85.8052 88.777 85.6099C88.719 85.4147 88.7202 85.2066 88.7804 85.012C88.8406 84.8175 88.9572 84.6451 89.1154 84.5168C89.2735 84.3884 89.4662 84.3099 89.669 84.291C89.8039 84.2778 89.94 84.2915 90.0696 84.3312C90.1991 84.371 90.3195 84.436 90.4237 84.5226C90.528 84.6092 90.614 84.7156 90.6769 84.8356C90.7398 84.9557 90.7782 85.087 90.79 85.222V85.222Z"></path>
      <path fill="#353535" d="M90.79 92.973C90.8087 93.1758 90.7668 93.3796 90.6697 93.5587C90.5726 93.7377 90.4246 93.884 90.2444 93.9789C90.0642 94.0738 89.8599 94.1132 89.6573 94.092C89.4547 94.0709 89.263 93.9901 89.1063 93.86C88.9496 93.7298 88.835 93.5562 88.777 93.3609C88.719 93.1657 88.7202 92.9576 88.7804 92.763C88.8406 92.5685 88.9572 92.3961 89.1154 92.2678C89.2735 92.1394 89.4662 92.0609 89.669 92.042C89.8038 92.0289 89.9399 92.0427 90.0694 92.0825C90.1989 92.1223 90.3193 92.1874 90.4235 92.2739C90.5277 92.3605 90.6137 92.4668 90.6767 92.5868C90.7396 92.7068 90.7781 92.8381 90.79 92.973V92.973Z"></path>
    </g>
    <g>
      <path stroke="#353535" stroke-linecap="round" stroke-linejoin="round" stroke-width=".75" d="M41.7 180.578L67 190.42L73.972 172.466C74.3779 171.477 75.0553 170.624 75.9261 170.004C76.7968 169.384 77.8252 169.024 78.8922 168.964C79.9593 168.904 81.0215 169.148 81.9558 169.667C82.8902 170.186 83.6585 170.959 84.172 171.896C85.3433 174.047 87.1047 175.818 89.2488 177.002C91.393 178.185 93.8306 178.732 96.2748 178.577C98.719 178.421 101.068 177.571 103.045 176.126C105.023 174.681 106.546 172.701 107.436 170.42C108.326 168.138 108.546 165.649 108.069 163.247C107.592 160.845 106.439 158.629 104.746 156.86C103.052 155.09 100.888 153.842 98.5092 153.261C96.13 152.68 93.6343 152.791 91.316 153.581C90.3031 153.93 89.2119 153.984 88.1695 153.737C87.127 153.49 86.1761 152.952 85.4276 152.186C84.679 151.419 84.1636 150.456 83.9413 149.408C83.719 148.36 83.799 147.27 84.172 146.266L88.884 134.166"></path>
      <path stroke="#353535" stroke-linecap="round" stroke-linejoin="round" stroke-width=".75" d="M26.268 174.575L8.542 167.675C7.86371 167.411 7.24405 167.016 6.71843 166.513C6.1928 166.009 5.77151 165.407 5.47862 164.741C5.18573 164.075 5.02697 163.357 5.01143 162.629C4.99588 161.902 5.12384 161.178 5.388 160.5L26.021 107.47C26.2849 106.791 26.6801 106.17 27.184 105.644C27.688 105.118 28.2908 104.696 28.9579 104.403C29.625 104.11 30.3433 103.952 31.0717 103.937C31.8002 103.922 32.5244 104.051 33.203 104.316L73.003 119.781"></path>
      <path stroke="#353535" stroke-linecap="round" stroke-linejoin="round" stroke-width=".75" d="M166.976 73.423C167.094 73.8758 167.273 74.3105 167.508 74.715"></path>
      <path stroke="#353535" stroke-linecap="round" stroke-linejoin="round" stroke-width=".75" d="M166.923 70.783C167.091 69.9827 167.431 69.2284 167.919 68.5723C168.407 67.9162 169.032 67.3739 169.75 66.983C171.9 65.8116 173.672 64.0502 174.855 61.9062C176.038 59.7621 176.584 57.3247 176.429 54.8808C176.273 52.4369 175.423 50.0882 173.978 48.1113C172.533 46.1343 170.553 44.6112 168.272 43.7214C165.99 42.8316 163.502 42.6121 161.1 43.0887C158.698 43.5653 156.482 44.7182 154.713 46.4116C152.944 48.1051 151.696 50.2686 151.115 52.6476C150.535 55.0266 150.645 57.5219 151.435 59.84C151.785 60.8529 151.839 61.9443 151.593 62.987C151.346 64.0297 150.808 64.9808 150.041 65.7295C149.274 66.4781 148.311 66.9934 147.262 67.2154C146.214 67.4373 145.124 67.3567 144.12 66.983L124.893 59.517L119.893 72.379"></path>
      <path stroke="#353535" stroke-linecap="round" stroke-linejoin="round" stroke-width=".75" d="M145.317 140.4L158.217 145.4C158.896 145.665 159.62 145.794 160.348 145.779C161.076 145.764 161.795 145.605 162.462 145.312C163.129 145.019 163.731 144.598 164.235 144.072C164.739 143.545 165.134 142.925 165.398 142.246L186.012 89.219C186.277 88.5405 186.406 87.8164 186.391 87.0881C186.376 86.3598 186.218 85.6415 185.925 84.9745C185.632 84.3075 185.21 83.7048 184.684 83.2009C184.158 82.697 183.538 82.3018 182.859 82.038L170.338 77.193C169.827 76.9895 169.347 76.7145 168.913 76.376"></path>
      <path stroke="#353535" stroke-linecap="round" stroke-linejoin="round" stroke-width=".75" d="M102.8 96.032C104.082 96.13 105.295 96.6519 106.247 97.5154C107.199 98.3789 107.837 99.5349 108.06 100.801"></path>
      <path stroke="#353535" stroke-linecap="round" stroke-linejoin="round" stroke-width=".75" d="M81.575 72.435C83.9732 70.0151 87.2312 68.6423 90.638 68.616"></path>
      <path stroke="#353535" stroke-linecap="round" stroke-linejoin="round" stroke-width=".75" d="M97.553 48.382L68.01 36.907"></path>
      <path stroke="#353535" stroke-linecap="round" stroke-linejoin="round" stroke-width=".75" d="M112.943 72.682L119.155 56.799L107.3 52.182"></path>
      <path stroke="#353535" stroke-linecap="round" stroke-linejoin="round" stroke-width=".75" d="M77.718 113.644L36.034 97.438C34.665 96.9018 33.5643 95.8448 32.9731 94.4986C32.3819 93.1525 32.3485 91.6268 32.88 90.256L38.428 75.874C38.786 74.8689 38.8554 73.7836 38.6284 72.741C38.4014 71.6985 37.887 70.7403 37.1435 69.975C36.4 69.2098 35.457 68.668 34.4215 68.411C33.3859 68.154 32.299 68.1921 31.284 68.521C28.9714 69.3021 26.4839 69.407 24.1138 68.8235C21.7436 68.2399 19.5892 66.9922 17.9035 65.2268C16.2178 63.4614 15.0709 61.2516 14.5975 58.857C14.124 56.4624 14.3437 53.9825 15.2308 51.7084C16.1178 49.4344 17.6353 47.4606 19.6051 46.0191C21.5749 44.5775 23.9151 43.7279 26.3509 43.5702C28.7868 43.4124 31.2171 43.953 33.3563 45.1284C35.4956 46.3039 37.255 48.0654 38.428 50.206C40.637 54.263 46.872 54.206 48.628 49.655L49.388 47.698"></path>
      <path stroke="#353535" stroke-linecap="round" stroke-linejoin="round" stroke-width=".75" d="M90.319 66.7C91.0757 66.5478 91.8134 66.313 92.519 66L90.7 68.065"></path>
      <path stroke="#353535" stroke-linecap="round" stroke-linejoin="round" stroke-width=".75" d="M103.88 72.53C101.756 72.4846 99.6596 72.0332 97.705 71.2C96.435 70.511 95.198 69.262 95.254 64.854C95.3044 62.9043 95.5013 60.9611 95.843 59.041C98.484 58.167 97.292 55.085 95.501 56.286C94.842 56.728 94.364 57.003 94.247 56.286C93.523 51.815 90.125 50.624 87.997 54.652L87.332 56.191C85.792 60.525 85.562 67.446 90.319 66.697C90.5048 67.1342 90.6312 67.5942 90.695 68.065C90.72 68.54 90.2 71.085 89.631 71.409C88.47 72.071 86.458 72.701 82.848 72.53"></path>
      <path stroke="#353535" stroke-linecap="round" stroke-linejoin="round" stroke-width=".75" d="M146.256 83.255C156.645 82.346 158.663 81.719 165.356 80.719C166.04 80.624 166.839 80.474 167.75 80.282C171.115 79.57 171.36 78.482 167.427 78.534C165.43 78.5604 163.44 78.298 161.518 77.755"></path>
      <path stroke="#353535" stroke-linecap="round" stroke-linejoin="round" stroke-width=".75" d="M162.948 78.1C162.967 78.195 165.457 77.436 168.477 76.5C171.859 75.456 172.067 74.081 167.964 74.657C165.896 75.0503 163.775 75.0889 161.694 74.771"></path>
      <path stroke="#353535" stroke-linecap="round" stroke-linejoin="round" stroke-width=".75" d="M160.973 72.435C160.973 72.435 168.4 70.379 168.857 70.235C172.357 69.102 172.885 70.369 169.902 71.964C167.166 73.427 163.518 74.964 163.518 74.964"></path>
      <path stroke="#353535" stroke-linecap="round" stroke-linejoin="round" stroke-width=".75" d="M144.973 71.776C150.267 71.252 149.725 71.295 149.763 71.295C151.15 71.2 152.922 70.137 153.126 68.92C153.476 66.832 153.619 63.739 154.665 63.904C156.278 64.16 155.641 68.668 156.698 70.155C157.061 70.666 158.845 70.155 159.529 69.87C160.651 69.399 164.41 67.777 164.772 67.609C168.139 66.056 168.577 67.446 165.912 69.148C164.589 69.9497 163.383 70.9296 162.327 72.06"></path>
      <path stroke="#353535" stroke-linecap="round" stroke-linejoin="round" stroke-width=".75" d="M160.327 70.953C161.579 73.3397 161.948 76.0915 161.371 78.724"></path>
      <path stroke="#353535" stroke-linecap="round" stroke-linejoin="round" stroke-width=".75" d="M158.522 72.454C158.275 75.532 156.922 77.66 154.038 78.23"></path>
      <path stroke="#353535" stroke-linecap="round" stroke-linejoin="round" stroke-width=".75" d="M104.336 88.813C104.7 87.2068 105.17 85.6264 105.742 84.082L109.06 88.927"></path>
      <path stroke="#353535" stroke-linecap="round" stroke-linejoin="round" stroke-width=".75" d="M95.95 125.646L92.386 113.815L97.895 123.258"></path>
      <path stroke="#353535" stroke-linecap="round" stroke-linejoin="round" stroke-width=".75" d="M85.147 103.917C65.54 129.49 54.447 145.467 28.547 169.597C24.647 173.234 36.002 185.678 39.947 182.117L46.747 175.981C65.2 159.3 77.11 148.242 91.7 130.82C91.7 130.82 97.247 124.075 97.893 123.258L107.716 140.11C108.801 141.979 110.435 143.469 112.396 144.377C114.358 145.284 116.551 145.566 118.678 145.183L157.078 138.283C160.517 137.71 157.669 121.769 154.171 122.383L120.01 127.475C120.01 127.475 117.353 115.775 116.91 113.757C116.12 110.085 114.349 106.695 111.787 103.948C109.224 101.201 105.966 99.2001 102.357 98.157"></path>
      <path stroke="#353535" stroke-linecap="round" stroke-linejoin="round" stroke-width=".75" d="M88 54.633C90.014 50.681 93.7 47.49 99.741 54.405C106.2 61.796 95.257 64.873 95.257 64.873"></path>
      <path stroke="#353535" stroke-linecap="round" stroke-linejoin="round" stroke-width=".75" d="M106.73 52.714C104.488 55.051 100.978 55.331 98.883 53.322C96.788 51.313 96.907 47.793 99.149 45.456C101.391 43.119 104.901 42.839 106.996 44.848C109.091 46.857 108.972 50.377 106.73 52.714Z"></path>
      <path stroke="#353535" stroke-linecap="round" stroke-linejoin="round" stroke-width=".75" d="M36.3 182.345C34.818 183.845 33.656 185.129 32.12 185.613C30.752 186.012 29.3193 186.141 27.902 185.993C21.916 185.516 9.99 190.818 9.587 187.57C9.474 186.658 13.14 183.96 17.472 181.07C20.208 179.246 24.35 176.093 27.997 173.224"></path>
      <path stroke="#353535" stroke-linecap="round" stroke-linejoin="round" stroke-width=".75" d="M156.337 124.056C158.75 123.429 160.611 122.729 162.378 123.144C163.755 123.494 165.051 124.105 166.197 124.944C171.113 128.382 184.084 129.86 182.803 132.866C182.439 133.72 177.903 134.178 172.714 134.481C169.142 134.691 163.366 135.393 158.484 136.081"></path>
      <path stroke="#353535" stroke-linecap="round" stroke-linejoin="round" stroke-width=".75" d="M146.89 69.681C147.602 69.622 148.374 70.181 149.059 71.369"></path>
      <path stroke="#353535" stroke-linecap="round" stroke-linejoin="round" stroke-width=".75" d="M149.82 82.923C149.402 83.835 148.832 84.405 148.186 84.462"></path>
      <path stroke="#353535" stroke-linecap="round" stroke-linejoin="round" stroke-width=".75" d="M124.266 33.487C124.294 33.6554 124.256 33.8283 124.16 33.9692C124.063 34.1101 123.915 34.2081 123.748 34.2425C123.581 34.2769 123.407 34.2452 123.262 34.1539C123.118 34.0626 123.015 33.9189 122.974 33.753L121.359 25.853C121.324 25.6841 121.357 25.5082 121.451 25.3639C121.546 25.2196 121.694 25.1187 121.863 25.0835C122.031 25.0482 122.207 25.0814 122.352 25.1758C122.496 25.2703 122.597 25.4181 122.632 25.587L124.266 33.487Z"></path>
      <path stroke="#353535" stroke-linecap="round" stroke-linejoin="round" stroke-width=".75" d="M121.055 21.118L122.005 25.716"></path>
      <path stroke="#353535" stroke-linecap="round" stroke-linejoin="round" stroke-width=".75" d="M118.718 9.69998C117.589 9.9312 116.554 10.492 115.744 11.3114C114.933 12.1309 114.384 13.1722 114.166 14.3037C113.947 15.4352 114.069 16.6061 114.516 17.6683C114.963 18.7305 115.715 19.6363 116.677 20.2713C117.638 20.9062 118.767 21.2417 119.919 21.2354C121.072 21.2291 122.196 20.8812 123.151 20.2357C124.106 19.5903 124.847 18.6763 125.283 17.6092C125.718 16.5422 125.827 15.37 125.596 14.241C125.443 13.4911 125.143 12.7787 124.715 12.1446C124.286 11.5105 123.737 10.9671 123.098 10.5454C122.459 10.1237 121.744 9.83193 120.992 9.68688C120.241 9.54183 119.468 9.54628 118.718 9.69998Z"></path>
      <path stroke="#353535" stroke-linecap="round" stroke-linejoin="round" stroke-width=".75" d="M188.616 116.323L186.393 115.658"></path>
      <path stroke="#353535" stroke-linecap="round" stroke-linejoin="round" stroke-width=".75" d="M191.314 114.841L191.96 112.618"></path>
      <path stroke="#353535" stroke-linecap="round" stroke-linejoin="round" stroke-width=".75" d="M189.433 121.225L190.098 119.021"></path>
      <path stroke="#353535" stroke-linecap="round" stroke-linejoin="round" stroke-width=".75" d="M192.796 117.539L195 118.185"></path>
      <path stroke="#353535" stroke-linecap="round" stroke-linejoin="round" stroke-width=".75" d="M192.8 117.539C192.246 117.376 191.78 117.001 191.502 116.495C191.224 115.989 191.158 115.394 191.318 114.839C191.155 115.393 190.78 115.859 190.274 116.137C189.768 116.415 189.173 116.481 188.618 116.321C189.172 116.484 189.638 116.859 189.916 117.365C190.194 117.871 190.26 118.466 190.1 119.021C190.263 118.467 190.638 118.001 191.144 117.723C191.65 117.445 192.245 117.379 192.8 117.539V117.539Z"></path>
      <path stroke="#353535" stroke-linecap="round" stroke-linejoin="round" stroke-width=".75" d="M51.575 54.5C50.4339 51.7616 49.593 48.9076 49.067 45.988"></path>
      <path stroke="#353535" stroke-linecap="round" stroke-linejoin="round" stroke-width=".75" d="M55.793 44.525L42.266 47.432C41.6361 47.568 40.978 47.4482 40.4364 47.099C39.8948 46.7498 39.5141 46.1998 39.378 45.57L33.659 18.914L41.905 17.147C42.3651 17.0521 42.8426 17.0908 43.2814 17.2584C43.7202 17.4261 44.1019 17.7157 44.3815 18.0932C44.6611 18.4706 44.827 18.9202 44.8595 19.3888C44.892 19.8574 44.7898 20.3255 44.565 20.738C44.0617 21.6855 43.8394 22.7569 43.9243 23.8264C44.0091 24.8959 44.3976 25.919 45.044 26.7753C45.6904 27.6315 46.5678 28.2855 47.5731 28.6601C48.5784 29.0348 49.6698 29.1146 50.7189 28.8903C51.7681 28.6659 52.7313 28.1466 53.4955 27.3935C54.2596 26.6404 54.7928 25.6848 55.0324 24.639C55.272 23.5933 55.208 22.5008 54.8479 21.4902C54.4879 20.4795 53.8468 19.5927 53 18.934C52.6285 18.6483 52.3457 18.263 52.1847 17.8229C52.0237 17.3828 51.9911 16.906 52.0907 16.448C52.1902 15.9901 52.4179 15.5698 52.747 15.2363C53.0762 14.9027 53.4934 14.6696 53.95 14.564L62.785 12.645L68.523 39.3C68.659 39.9298 68.5392 40.5879 68.19 41.1295C67.8409 41.6711 67.2909 42.0518 66.661 42.188L58.472 43.955"></path>
      <path stroke="#353535" stroke-linecap="round" stroke-linejoin="round" stroke-width=".75" d="M55.223 52.068C54.14 50.738 53.779 47.527 55.679 46.068C55.679 46.068 55.932 40.696 56.857 39.476C57.782 38.256 58.3 43.31 58.7 45.228C58.963 46.483 59.65 49.389 60.334 51.783"></path>
      <path stroke="#353535" stroke-linecap="round" stroke-linejoin="round" stroke-width=".75" d="M77.251 88.6L80.264 81.3C79.2769 83.65 78.9485 86.2244 79.314 88.747"></path>
      <path stroke="#353535" stroke-linecap="round" stroke-linejoin="round" stroke-width=".75" d="M146.89 69.681C130.248 71.846 113.246 73.271 103.88 72.53C96.356 74.392 89.289 74.601 82.848 72.53C79.523 72.378 74.868 71.504 68.314 69.319L62.937 52.182C62.367 50.32 49.181 54.348 49.751 56.21L58.472 83.227C64.9443 86.5383 72.0514 88.4233 79.314 88.755C79.77 92.023 81.347 96.64 85.147 103.917C89.232 106.349 98.047 102.872 102.247 98.502C102.988 95.082 103.653 91.681 104.337 88.813C119.076 89.3122 133.815 87.849 148.168 84.462C144.252 84.8 142.9 70.018 146.89 69.681Z"></path>
      <path stroke="#353535" stroke-linecap="round" stroke-linejoin="round" stroke-width=".75" d="M33.2 165.151C30.217 167.751 41.5 180.651 44.467 178.07"></path>
      <path stroke="#353535" stroke-linecap="round" stroke-linejoin="round" stroke-width=".75" d="M147.217 123.429C149.839 122.954 152.765 139.065 150.143 139.54"></path>
      <path stroke="#353535" stroke-linecap="round" stroke-linejoin="round" stroke-width=".75" d="M135.647 168.514L128.465 187"></path>
      <path stroke="#353535" stroke-linecap="round" stroke-linejoin="round" stroke-width=".75" d="M141.308 181.338L122.803 174.176"></path>
      <path stroke="#353535" stroke-linecap="round" stroke-linejoin="round" stroke-width=".75" d="M7.11701 104.582C7.49701 103.499 8.18101 102.853 10.157 101.504C14.34 98.648 13.557 95.373 11.088 94.398C10.6516 94.2295 10.1835 94.1587 9.71673 94.1906C9.24997 94.2226 8.7959 94.3565 8.3865 94.583C7.9771 94.8094 7.62233 95.1228 7.34719 95.5012C7.07204 95.8796 6.88322 96.3137 6.79401 96.773"></path>
      <path stroke="#353535" stroke-linecap="round" stroke-linejoin="round" stroke-width=".75" d="M38.58 175.6C57.94 157.463 76.3552 138.344 93.753 118.317"></path>
      <path stroke="#353535" stroke-linecap="round" stroke-linejoin="round" stroke-width=".75" d="M97.9 101.827C97.9 101.827 108.062 106.311 109.015 114.461C109.545 119.002 112.549 128.388 114.145 133.175C114.421 134.005 114.978 134.714 115.72 135.178C116.462 135.643 117.342 135.835 118.21 135.721L150.718 131.465"></path>
    </g>
  </g>
</svg>